G04 #@! TF.GenerationSoftware,KiCad,Pcbnew,5.1.5*
G04 #@! TF.CreationDate,2020-06-01T19:40:44-04:00*
G04 #@! TF.ProjectId,circuit,63697263-7569-4742-9e6b-696361645f70,rev?*
G04 #@! TF.SameCoordinates,Original*
G04 #@! TF.FileFunction,Copper,L2,Bot*
G04 #@! TF.FilePolarity,Positive*
%FSLAX46Y46*%
G04 Gerber Fmt 4.6, Leading zero omitted, Abs format (unit mm)*
G04 Created by KiCad (PCBNEW 5.1.5) date 2020-06-01 19:40:44*
%MOMM*%
%LPD*%
G04 APERTURE LIST*
%ADD10C,1.600000*%
%ADD11R,1.800000X1.800000*%
%ADD12C,1.800000*%
%ADD13O,1.600000X1.600000*%
%ADD14C,2.340000*%
%ADD15R,2.400000X1.600000*%
%ADD16O,2.400000X1.600000*%
%ADD17O,1.600000X2.400000*%
%ADD18R,1.600000X2.400000*%
%ADD19R,1.700000X1.700000*%
%ADD20O,1.700000X1.700000*%
%ADD21C,0.250000*%
%ADD22C,0.254000*%
G04 APERTURE END LIST*
D10*
X118110000Y-100330000D03*
X113110000Y-100330000D03*
X130810000Y-91440000D03*
X135810000Y-91440000D03*
X118110000Y-78740000D03*
X113110000Y-78740000D03*
D11*
X87630000Y-118110000D03*
D12*
X90170000Y-118110000D03*
X97790000Y-118110000D03*
D11*
X95250000Y-118110000D03*
D12*
X105410000Y-118110000D03*
D11*
X102870000Y-118110000D03*
X110490000Y-118110000D03*
D12*
X113030000Y-118110000D03*
D11*
X105410000Y-83820000D03*
D12*
X107950000Y-83820000D03*
D11*
X118110000Y-118110000D03*
D12*
X120650000Y-118110000D03*
X128270000Y-118110000D03*
D11*
X125730000Y-118110000D03*
D12*
X135890000Y-118110000D03*
D11*
X133350000Y-118110000D03*
X140970000Y-118110000D03*
D12*
X143510000Y-118110000D03*
D13*
X125730000Y-86360000D03*
D10*
X140970000Y-86360000D03*
X90170000Y-69850000D03*
D13*
X90170000Y-85090000D03*
D10*
X90170000Y-90170000D03*
D13*
X105410000Y-90170000D03*
D14*
X102870000Y-74930000D03*
X100370000Y-69930000D03*
X97870000Y-74930000D03*
D15*
X111760000Y-83820000D03*
D16*
X119380000Y-91440000D03*
X111760000Y-86360000D03*
X119380000Y-88900000D03*
X111760000Y-88900000D03*
X119380000Y-86360000D03*
X111760000Y-91440000D03*
X119380000Y-83820000D03*
D17*
X107950000Y-104140000D03*
X90170000Y-96520000D03*
X105410000Y-104140000D03*
X92710000Y-96520000D03*
X102870000Y-104140000D03*
X95250000Y-96520000D03*
X100330000Y-104140000D03*
X97790000Y-96520000D03*
X97790000Y-104140000D03*
X100330000Y-96520000D03*
X95250000Y-104140000D03*
X102870000Y-96520000D03*
X92710000Y-104140000D03*
X105410000Y-96520000D03*
X90170000Y-104140000D03*
D18*
X107950000Y-96520000D03*
X140970000Y-96520000D03*
D17*
X123190000Y-104140000D03*
X138430000Y-96520000D03*
X125730000Y-104140000D03*
X135890000Y-96520000D03*
X128270000Y-104140000D03*
X133350000Y-96520000D03*
X130810000Y-104140000D03*
X130810000Y-96520000D03*
X133350000Y-104140000D03*
X128270000Y-96520000D03*
X135890000Y-104140000D03*
X125730000Y-96520000D03*
X138430000Y-104140000D03*
X123190000Y-96520000D03*
X140970000Y-104140000D03*
D19*
X142240000Y-80010000D03*
D20*
X139700000Y-80010000D03*
X137160000Y-80010000D03*
X134620000Y-80010000D03*
X132080000Y-80010000D03*
X129540000Y-80010000D03*
D21*
X90170000Y-85090000D02*
X116840000Y-85090000D01*
X116840000Y-85090000D02*
X118110000Y-86360000D01*
X118110000Y-86360000D02*
X119380000Y-86360000D01*
X138430000Y-105590000D02*
X137340000Y-106680000D01*
X138430000Y-104140000D02*
X138430000Y-105590000D01*
X92710000Y-105590000D02*
X92710000Y-104140000D01*
X93800000Y-106680000D02*
X92710000Y-105590000D01*
X137340000Y-106680000D02*
X93800000Y-106680000D01*
D22*
G36*
X145923000Y-68632606D02*
G01*
X145923000Y-120597394D01*
X144727394Y-121793000D01*
X86412606Y-121793000D01*
X85217000Y-120597394D01*
X85217000Y-119010000D01*
X86091928Y-119010000D01*
X86104188Y-119134482D01*
X86140498Y-119254180D01*
X86199463Y-119364494D01*
X86278815Y-119461185D01*
X86375506Y-119540537D01*
X86485820Y-119599502D01*
X86605518Y-119635812D01*
X86730000Y-119648072D01*
X87344250Y-119645000D01*
X87503000Y-119486250D01*
X87503000Y-118237000D01*
X86253750Y-118237000D01*
X86095000Y-118395750D01*
X86091928Y-119010000D01*
X85217000Y-119010000D01*
X85217000Y-117210000D01*
X86091928Y-117210000D01*
X86095000Y-117824250D01*
X86253750Y-117983000D01*
X87503000Y-117983000D01*
X87503000Y-116733750D01*
X87757000Y-116733750D01*
X87757000Y-117983000D01*
X87777000Y-117983000D01*
X87777000Y-118237000D01*
X87757000Y-118237000D01*
X87757000Y-119486250D01*
X87915750Y-119645000D01*
X88530000Y-119648072D01*
X88654482Y-119635812D01*
X88774180Y-119599502D01*
X88884494Y-119540537D01*
X88981185Y-119461185D01*
X89060537Y-119364494D01*
X89119502Y-119254180D01*
X89125056Y-119235873D01*
X89191495Y-119302312D01*
X89442905Y-119470299D01*
X89722257Y-119586011D01*
X90018816Y-119645000D01*
X90321184Y-119645000D01*
X90617743Y-119586011D01*
X90897095Y-119470299D01*
X91148505Y-119302312D01*
X91362312Y-119088505D01*
X91414767Y-119010000D01*
X93711928Y-119010000D01*
X93724188Y-119134482D01*
X93760498Y-119254180D01*
X93819463Y-119364494D01*
X93898815Y-119461185D01*
X93995506Y-119540537D01*
X94105820Y-119599502D01*
X94225518Y-119635812D01*
X94350000Y-119648072D01*
X94964250Y-119645000D01*
X95123000Y-119486250D01*
X95123000Y-118237000D01*
X93873750Y-118237000D01*
X93715000Y-118395750D01*
X93711928Y-119010000D01*
X91414767Y-119010000D01*
X91530299Y-118837095D01*
X91646011Y-118557743D01*
X91705000Y-118261184D01*
X91705000Y-117958816D01*
X91646011Y-117662257D01*
X91530299Y-117382905D01*
X91414768Y-117210000D01*
X93711928Y-117210000D01*
X93715000Y-117824250D01*
X93873750Y-117983000D01*
X95123000Y-117983000D01*
X95123000Y-116733750D01*
X95377000Y-116733750D01*
X95377000Y-117983000D01*
X95397000Y-117983000D01*
X95397000Y-118237000D01*
X95377000Y-118237000D01*
X95377000Y-119486250D01*
X95535750Y-119645000D01*
X96150000Y-119648072D01*
X96274482Y-119635812D01*
X96394180Y-119599502D01*
X96504494Y-119540537D01*
X96601185Y-119461185D01*
X96680537Y-119364494D01*
X96739502Y-119254180D01*
X96745056Y-119235873D01*
X96811495Y-119302312D01*
X97062905Y-119470299D01*
X97342257Y-119586011D01*
X97638816Y-119645000D01*
X97941184Y-119645000D01*
X98237743Y-119586011D01*
X98517095Y-119470299D01*
X98768505Y-119302312D01*
X98982312Y-119088505D01*
X99034767Y-119010000D01*
X101331928Y-119010000D01*
X101344188Y-119134482D01*
X101380498Y-119254180D01*
X101439463Y-119364494D01*
X101518815Y-119461185D01*
X101615506Y-119540537D01*
X101725820Y-119599502D01*
X101845518Y-119635812D01*
X101970000Y-119648072D01*
X102584250Y-119645000D01*
X102743000Y-119486250D01*
X102743000Y-118237000D01*
X101493750Y-118237000D01*
X101335000Y-118395750D01*
X101331928Y-119010000D01*
X99034767Y-119010000D01*
X99150299Y-118837095D01*
X99266011Y-118557743D01*
X99325000Y-118261184D01*
X99325000Y-117958816D01*
X99266011Y-117662257D01*
X99150299Y-117382905D01*
X99034768Y-117210000D01*
X101331928Y-117210000D01*
X101335000Y-117824250D01*
X101493750Y-117983000D01*
X102743000Y-117983000D01*
X102743000Y-116733750D01*
X102997000Y-116733750D01*
X102997000Y-117983000D01*
X103017000Y-117983000D01*
X103017000Y-118237000D01*
X102997000Y-118237000D01*
X102997000Y-119486250D01*
X103155750Y-119645000D01*
X103770000Y-119648072D01*
X103894482Y-119635812D01*
X104014180Y-119599502D01*
X104124494Y-119540537D01*
X104221185Y-119461185D01*
X104300537Y-119364494D01*
X104359502Y-119254180D01*
X104365056Y-119235873D01*
X104431495Y-119302312D01*
X104682905Y-119470299D01*
X104962257Y-119586011D01*
X105258816Y-119645000D01*
X105561184Y-119645000D01*
X105857743Y-119586011D01*
X106137095Y-119470299D01*
X106388505Y-119302312D01*
X106602312Y-119088505D01*
X106654767Y-119010000D01*
X108951928Y-119010000D01*
X108964188Y-119134482D01*
X109000498Y-119254180D01*
X109059463Y-119364494D01*
X109138815Y-119461185D01*
X109235506Y-119540537D01*
X109345820Y-119599502D01*
X109465518Y-119635812D01*
X109590000Y-119648072D01*
X110204250Y-119645000D01*
X110363000Y-119486250D01*
X110363000Y-118237000D01*
X109113750Y-118237000D01*
X108955000Y-118395750D01*
X108951928Y-119010000D01*
X106654767Y-119010000D01*
X106770299Y-118837095D01*
X106886011Y-118557743D01*
X106945000Y-118261184D01*
X106945000Y-117958816D01*
X106886011Y-117662257D01*
X106770299Y-117382905D01*
X106654768Y-117210000D01*
X108951928Y-117210000D01*
X108955000Y-117824250D01*
X109113750Y-117983000D01*
X110363000Y-117983000D01*
X110363000Y-116733750D01*
X110617000Y-116733750D01*
X110617000Y-117983000D01*
X110637000Y-117983000D01*
X110637000Y-118237000D01*
X110617000Y-118237000D01*
X110617000Y-119486250D01*
X110775750Y-119645000D01*
X111390000Y-119648072D01*
X111514482Y-119635812D01*
X111634180Y-119599502D01*
X111744494Y-119540537D01*
X111841185Y-119461185D01*
X111920537Y-119364494D01*
X111979502Y-119254180D01*
X111985056Y-119235873D01*
X112051495Y-119302312D01*
X112302905Y-119470299D01*
X112582257Y-119586011D01*
X112878816Y-119645000D01*
X113181184Y-119645000D01*
X113477743Y-119586011D01*
X113757095Y-119470299D01*
X114008505Y-119302312D01*
X114222312Y-119088505D01*
X114274767Y-119010000D01*
X116571928Y-119010000D01*
X116584188Y-119134482D01*
X116620498Y-119254180D01*
X116679463Y-119364494D01*
X116758815Y-119461185D01*
X116855506Y-119540537D01*
X116965820Y-119599502D01*
X117085518Y-119635812D01*
X117210000Y-119648072D01*
X117824250Y-119645000D01*
X117983000Y-119486250D01*
X117983000Y-118237000D01*
X116733750Y-118237000D01*
X116575000Y-118395750D01*
X116571928Y-119010000D01*
X114274767Y-119010000D01*
X114390299Y-118837095D01*
X114506011Y-118557743D01*
X114565000Y-118261184D01*
X114565000Y-117958816D01*
X114506011Y-117662257D01*
X114390299Y-117382905D01*
X114274768Y-117210000D01*
X116571928Y-117210000D01*
X116575000Y-117824250D01*
X116733750Y-117983000D01*
X117983000Y-117983000D01*
X117983000Y-116733750D01*
X118237000Y-116733750D01*
X118237000Y-117983000D01*
X118257000Y-117983000D01*
X118257000Y-118237000D01*
X118237000Y-118237000D01*
X118237000Y-119486250D01*
X118395750Y-119645000D01*
X119010000Y-119648072D01*
X119134482Y-119635812D01*
X119254180Y-119599502D01*
X119364494Y-119540537D01*
X119461185Y-119461185D01*
X119540537Y-119364494D01*
X119599502Y-119254180D01*
X119605056Y-119235873D01*
X119671495Y-119302312D01*
X119922905Y-119470299D01*
X120202257Y-119586011D01*
X120498816Y-119645000D01*
X120801184Y-119645000D01*
X121097743Y-119586011D01*
X121377095Y-119470299D01*
X121628505Y-119302312D01*
X121842312Y-119088505D01*
X121894767Y-119010000D01*
X124191928Y-119010000D01*
X124204188Y-119134482D01*
X124240498Y-119254180D01*
X124299463Y-119364494D01*
X124378815Y-119461185D01*
X124475506Y-119540537D01*
X124585820Y-119599502D01*
X124705518Y-119635812D01*
X124830000Y-119648072D01*
X125444250Y-119645000D01*
X125603000Y-119486250D01*
X125603000Y-118237000D01*
X124353750Y-118237000D01*
X124195000Y-118395750D01*
X124191928Y-119010000D01*
X121894767Y-119010000D01*
X122010299Y-118837095D01*
X122126011Y-118557743D01*
X122185000Y-118261184D01*
X122185000Y-117958816D01*
X122126011Y-117662257D01*
X122010299Y-117382905D01*
X121894768Y-117210000D01*
X124191928Y-117210000D01*
X124195000Y-117824250D01*
X124353750Y-117983000D01*
X125603000Y-117983000D01*
X125603000Y-116733750D01*
X125857000Y-116733750D01*
X125857000Y-117983000D01*
X125877000Y-117983000D01*
X125877000Y-118237000D01*
X125857000Y-118237000D01*
X125857000Y-119486250D01*
X126015750Y-119645000D01*
X126630000Y-119648072D01*
X126754482Y-119635812D01*
X126874180Y-119599502D01*
X126984494Y-119540537D01*
X127081185Y-119461185D01*
X127160537Y-119364494D01*
X127219502Y-119254180D01*
X127225056Y-119235873D01*
X127291495Y-119302312D01*
X127542905Y-119470299D01*
X127822257Y-119586011D01*
X128118816Y-119645000D01*
X128421184Y-119645000D01*
X128717743Y-119586011D01*
X128997095Y-119470299D01*
X129248505Y-119302312D01*
X129462312Y-119088505D01*
X129514767Y-119010000D01*
X131811928Y-119010000D01*
X131824188Y-119134482D01*
X131860498Y-119254180D01*
X131919463Y-119364494D01*
X131998815Y-119461185D01*
X132095506Y-119540537D01*
X132205820Y-119599502D01*
X132325518Y-119635812D01*
X132450000Y-119648072D01*
X133064250Y-119645000D01*
X133223000Y-119486250D01*
X133223000Y-118237000D01*
X131973750Y-118237000D01*
X131815000Y-118395750D01*
X131811928Y-119010000D01*
X129514767Y-119010000D01*
X129630299Y-118837095D01*
X129746011Y-118557743D01*
X129805000Y-118261184D01*
X129805000Y-117958816D01*
X129746011Y-117662257D01*
X129630299Y-117382905D01*
X129514768Y-117210000D01*
X131811928Y-117210000D01*
X131815000Y-117824250D01*
X131973750Y-117983000D01*
X133223000Y-117983000D01*
X133223000Y-116733750D01*
X133477000Y-116733750D01*
X133477000Y-117983000D01*
X133497000Y-117983000D01*
X133497000Y-118237000D01*
X133477000Y-118237000D01*
X133477000Y-119486250D01*
X133635750Y-119645000D01*
X134250000Y-119648072D01*
X134374482Y-119635812D01*
X134494180Y-119599502D01*
X134604494Y-119540537D01*
X134701185Y-119461185D01*
X134780537Y-119364494D01*
X134839502Y-119254180D01*
X134845056Y-119235873D01*
X134911495Y-119302312D01*
X135162905Y-119470299D01*
X135442257Y-119586011D01*
X135738816Y-119645000D01*
X136041184Y-119645000D01*
X136337743Y-119586011D01*
X136617095Y-119470299D01*
X136868505Y-119302312D01*
X137082312Y-119088505D01*
X137134767Y-119010000D01*
X139431928Y-119010000D01*
X139444188Y-119134482D01*
X139480498Y-119254180D01*
X139539463Y-119364494D01*
X139618815Y-119461185D01*
X139715506Y-119540537D01*
X139825820Y-119599502D01*
X139945518Y-119635812D01*
X140070000Y-119648072D01*
X140684250Y-119645000D01*
X140843000Y-119486250D01*
X140843000Y-118237000D01*
X139593750Y-118237000D01*
X139435000Y-118395750D01*
X139431928Y-119010000D01*
X137134767Y-119010000D01*
X137250299Y-118837095D01*
X137366011Y-118557743D01*
X137425000Y-118261184D01*
X137425000Y-117958816D01*
X137366011Y-117662257D01*
X137250299Y-117382905D01*
X137134768Y-117210000D01*
X139431928Y-117210000D01*
X139435000Y-117824250D01*
X139593750Y-117983000D01*
X140843000Y-117983000D01*
X140843000Y-116733750D01*
X141097000Y-116733750D01*
X141097000Y-117983000D01*
X141117000Y-117983000D01*
X141117000Y-118237000D01*
X141097000Y-118237000D01*
X141097000Y-119486250D01*
X141255750Y-119645000D01*
X141870000Y-119648072D01*
X141994482Y-119635812D01*
X142114180Y-119599502D01*
X142224494Y-119540537D01*
X142321185Y-119461185D01*
X142400537Y-119364494D01*
X142459502Y-119254180D01*
X142465056Y-119235873D01*
X142531495Y-119302312D01*
X142782905Y-119470299D01*
X143062257Y-119586011D01*
X143358816Y-119645000D01*
X143661184Y-119645000D01*
X143957743Y-119586011D01*
X144237095Y-119470299D01*
X144488505Y-119302312D01*
X144702312Y-119088505D01*
X144870299Y-118837095D01*
X144986011Y-118557743D01*
X145045000Y-118261184D01*
X145045000Y-117958816D01*
X144986011Y-117662257D01*
X144870299Y-117382905D01*
X144702312Y-117131495D01*
X144488505Y-116917688D01*
X144237095Y-116749701D01*
X143957743Y-116633989D01*
X143661184Y-116575000D01*
X143358816Y-116575000D01*
X143062257Y-116633989D01*
X142782905Y-116749701D01*
X142531495Y-116917688D01*
X142465056Y-116984127D01*
X142459502Y-116965820D01*
X142400537Y-116855506D01*
X142321185Y-116758815D01*
X142224494Y-116679463D01*
X142114180Y-116620498D01*
X141994482Y-116584188D01*
X141870000Y-116571928D01*
X141255750Y-116575000D01*
X141097000Y-116733750D01*
X140843000Y-116733750D01*
X140684250Y-116575000D01*
X140070000Y-116571928D01*
X139945518Y-116584188D01*
X139825820Y-116620498D01*
X139715506Y-116679463D01*
X139618815Y-116758815D01*
X139539463Y-116855506D01*
X139480498Y-116965820D01*
X139444188Y-117085518D01*
X139431928Y-117210000D01*
X137134768Y-117210000D01*
X137082312Y-117131495D01*
X136868505Y-116917688D01*
X136617095Y-116749701D01*
X136337743Y-116633989D01*
X136041184Y-116575000D01*
X135738816Y-116575000D01*
X135442257Y-116633989D01*
X135162905Y-116749701D01*
X134911495Y-116917688D01*
X134845056Y-116984127D01*
X134839502Y-116965820D01*
X134780537Y-116855506D01*
X134701185Y-116758815D01*
X134604494Y-116679463D01*
X134494180Y-116620498D01*
X134374482Y-116584188D01*
X134250000Y-116571928D01*
X133635750Y-116575000D01*
X133477000Y-116733750D01*
X133223000Y-116733750D01*
X133064250Y-116575000D01*
X132450000Y-116571928D01*
X132325518Y-116584188D01*
X132205820Y-116620498D01*
X132095506Y-116679463D01*
X131998815Y-116758815D01*
X131919463Y-116855506D01*
X131860498Y-116965820D01*
X131824188Y-117085518D01*
X131811928Y-117210000D01*
X129514768Y-117210000D01*
X129462312Y-117131495D01*
X129248505Y-116917688D01*
X128997095Y-116749701D01*
X128717743Y-116633989D01*
X128421184Y-116575000D01*
X128118816Y-116575000D01*
X127822257Y-116633989D01*
X127542905Y-116749701D01*
X127291495Y-116917688D01*
X127225056Y-116984127D01*
X127219502Y-116965820D01*
X127160537Y-116855506D01*
X127081185Y-116758815D01*
X126984494Y-116679463D01*
X126874180Y-116620498D01*
X126754482Y-116584188D01*
X126630000Y-116571928D01*
X126015750Y-116575000D01*
X125857000Y-116733750D01*
X125603000Y-116733750D01*
X125444250Y-116575000D01*
X124830000Y-116571928D01*
X124705518Y-116584188D01*
X124585820Y-116620498D01*
X124475506Y-116679463D01*
X124378815Y-116758815D01*
X124299463Y-116855506D01*
X124240498Y-116965820D01*
X124204188Y-117085518D01*
X124191928Y-117210000D01*
X121894768Y-117210000D01*
X121842312Y-117131495D01*
X121628505Y-116917688D01*
X121377095Y-116749701D01*
X121097743Y-116633989D01*
X120801184Y-116575000D01*
X120498816Y-116575000D01*
X120202257Y-116633989D01*
X119922905Y-116749701D01*
X119671495Y-116917688D01*
X119605056Y-116984127D01*
X119599502Y-116965820D01*
X119540537Y-116855506D01*
X119461185Y-116758815D01*
X119364494Y-116679463D01*
X119254180Y-116620498D01*
X119134482Y-116584188D01*
X119010000Y-116571928D01*
X118395750Y-116575000D01*
X118237000Y-116733750D01*
X117983000Y-116733750D01*
X117824250Y-116575000D01*
X117210000Y-116571928D01*
X117085518Y-116584188D01*
X116965820Y-116620498D01*
X116855506Y-116679463D01*
X116758815Y-116758815D01*
X116679463Y-116855506D01*
X116620498Y-116965820D01*
X116584188Y-117085518D01*
X116571928Y-117210000D01*
X114274768Y-117210000D01*
X114222312Y-117131495D01*
X114008505Y-116917688D01*
X113757095Y-116749701D01*
X113477743Y-116633989D01*
X113181184Y-116575000D01*
X112878816Y-116575000D01*
X112582257Y-116633989D01*
X112302905Y-116749701D01*
X112051495Y-116917688D01*
X111985056Y-116984127D01*
X111979502Y-116965820D01*
X111920537Y-116855506D01*
X111841185Y-116758815D01*
X111744494Y-116679463D01*
X111634180Y-116620498D01*
X111514482Y-116584188D01*
X111390000Y-116571928D01*
X110775750Y-116575000D01*
X110617000Y-116733750D01*
X110363000Y-116733750D01*
X110204250Y-116575000D01*
X109590000Y-116571928D01*
X109465518Y-116584188D01*
X109345820Y-116620498D01*
X109235506Y-116679463D01*
X109138815Y-116758815D01*
X109059463Y-116855506D01*
X109000498Y-116965820D01*
X108964188Y-117085518D01*
X108951928Y-117210000D01*
X106654768Y-117210000D01*
X106602312Y-117131495D01*
X106388505Y-116917688D01*
X106137095Y-116749701D01*
X105857743Y-116633989D01*
X105561184Y-116575000D01*
X105258816Y-116575000D01*
X104962257Y-116633989D01*
X104682905Y-116749701D01*
X104431495Y-116917688D01*
X104365056Y-116984127D01*
X104359502Y-116965820D01*
X104300537Y-116855506D01*
X104221185Y-116758815D01*
X104124494Y-116679463D01*
X104014180Y-116620498D01*
X103894482Y-116584188D01*
X103770000Y-116571928D01*
X103155750Y-116575000D01*
X102997000Y-116733750D01*
X102743000Y-116733750D01*
X102584250Y-116575000D01*
X101970000Y-116571928D01*
X101845518Y-116584188D01*
X101725820Y-116620498D01*
X101615506Y-116679463D01*
X101518815Y-116758815D01*
X101439463Y-116855506D01*
X101380498Y-116965820D01*
X101344188Y-117085518D01*
X101331928Y-117210000D01*
X99034768Y-117210000D01*
X98982312Y-117131495D01*
X98768505Y-116917688D01*
X98517095Y-116749701D01*
X98237743Y-116633989D01*
X97941184Y-116575000D01*
X97638816Y-116575000D01*
X97342257Y-116633989D01*
X97062905Y-116749701D01*
X96811495Y-116917688D01*
X96745056Y-116984127D01*
X96739502Y-116965820D01*
X96680537Y-116855506D01*
X96601185Y-116758815D01*
X96504494Y-116679463D01*
X96394180Y-116620498D01*
X96274482Y-116584188D01*
X96150000Y-116571928D01*
X95535750Y-116575000D01*
X95377000Y-116733750D01*
X95123000Y-116733750D01*
X94964250Y-116575000D01*
X94350000Y-116571928D01*
X94225518Y-116584188D01*
X94105820Y-116620498D01*
X93995506Y-116679463D01*
X93898815Y-116758815D01*
X93819463Y-116855506D01*
X93760498Y-116965820D01*
X93724188Y-117085518D01*
X93711928Y-117210000D01*
X91414768Y-117210000D01*
X91362312Y-117131495D01*
X91148505Y-116917688D01*
X90897095Y-116749701D01*
X90617743Y-116633989D01*
X90321184Y-116575000D01*
X90018816Y-116575000D01*
X89722257Y-116633989D01*
X89442905Y-116749701D01*
X89191495Y-116917688D01*
X89125056Y-116984127D01*
X89119502Y-116965820D01*
X89060537Y-116855506D01*
X88981185Y-116758815D01*
X88884494Y-116679463D01*
X88774180Y-116620498D01*
X88654482Y-116584188D01*
X88530000Y-116571928D01*
X87915750Y-116575000D01*
X87757000Y-116733750D01*
X87503000Y-116733750D01*
X87344250Y-116575000D01*
X86730000Y-116571928D01*
X86605518Y-116584188D01*
X86485820Y-116620498D01*
X86375506Y-116679463D01*
X86278815Y-116758815D01*
X86199463Y-116855506D01*
X86140498Y-116965820D01*
X86104188Y-117085518D01*
X86091928Y-117210000D01*
X85217000Y-117210000D01*
X85217000Y-103669508D01*
X88735000Y-103669508D01*
X88735000Y-104610491D01*
X88755764Y-104821308D01*
X88837818Y-105091807D01*
X88971068Y-105341100D01*
X89150392Y-105559607D01*
X89368899Y-105738932D01*
X89618192Y-105872182D01*
X89888691Y-105954236D01*
X90170000Y-105981943D01*
X90451308Y-105954236D01*
X90721807Y-105872182D01*
X90971100Y-105738932D01*
X91189607Y-105559608D01*
X91368932Y-105341101D01*
X91440000Y-105208142D01*
X91511068Y-105341100D01*
X91690392Y-105559607D01*
X91908899Y-105738932D01*
X91971060Y-105772158D01*
X92001401Y-105872182D01*
X92004454Y-105882246D01*
X92075026Y-106014276D01*
X92100262Y-106045026D01*
X92169999Y-106130001D01*
X92199002Y-106153804D01*
X93236201Y-107191003D01*
X93259999Y-107220001D01*
X93375724Y-107314974D01*
X93507753Y-107385546D01*
X93651014Y-107429003D01*
X93762667Y-107440000D01*
X93762675Y-107440000D01*
X93800000Y-107443676D01*
X93837325Y-107440000D01*
X137302678Y-107440000D01*
X137340000Y-107443676D01*
X137377322Y-107440000D01*
X137377333Y-107440000D01*
X137488986Y-107429003D01*
X137632247Y-107385546D01*
X137764276Y-107314974D01*
X137880001Y-107220001D01*
X137903804Y-107190998D01*
X138941003Y-106153799D01*
X138970001Y-106130001D01*
X139064974Y-106014276D01*
X139135546Y-105882247D01*
X139168941Y-105772157D01*
X139231100Y-105738932D01*
X139449607Y-105559608D01*
X139628932Y-105341101D01*
X139700000Y-105208142D01*
X139771068Y-105341100D01*
X139950392Y-105559607D01*
X140168899Y-105738932D01*
X140418192Y-105872182D01*
X140688691Y-105954236D01*
X140970000Y-105981943D01*
X141251308Y-105954236D01*
X141521807Y-105872182D01*
X141771100Y-105738932D01*
X141989607Y-105559608D01*
X142168932Y-105341101D01*
X142302182Y-105091808D01*
X142384236Y-104821309D01*
X142405000Y-104610492D01*
X142405000Y-103669509D01*
X142384236Y-103458691D01*
X142302182Y-103188192D01*
X142168932Y-102938899D01*
X141989608Y-102720392D01*
X141771101Y-102541068D01*
X141521808Y-102407818D01*
X141251309Y-102325764D01*
X140970000Y-102298057D01*
X140688692Y-102325764D01*
X140418193Y-102407818D01*
X140168900Y-102541068D01*
X139950393Y-102720392D01*
X139771068Y-102938899D01*
X139700000Y-103071858D01*
X139628932Y-102938899D01*
X139449608Y-102720392D01*
X139231101Y-102541068D01*
X138981808Y-102407818D01*
X138711309Y-102325764D01*
X138430000Y-102298057D01*
X138148692Y-102325764D01*
X137878193Y-102407818D01*
X137628900Y-102541068D01*
X137410393Y-102720392D01*
X137231068Y-102938899D01*
X137160000Y-103071858D01*
X137088932Y-102938899D01*
X136909608Y-102720392D01*
X136691101Y-102541068D01*
X136441808Y-102407818D01*
X136171309Y-102325764D01*
X135890000Y-102298057D01*
X135608692Y-102325764D01*
X135338193Y-102407818D01*
X135088900Y-102541068D01*
X134870393Y-102720392D01*
X134691068Y-102938899D01*
X134620000Y-103071858D01*
X134548932Y-102938899D01*
X134369608Y-102720392D01*
X134151101Y-102541068D01*
X133901808Y-102407818D01*
X133631309Y-102325764D01*
X133350000Y-102298057D01*
X133068692Y-102325764D01*
X132798193Y-102407818D01*
X132548900Y-102541068D01*
X132330393Y-102720392D01*
X132151068Y-102938899D01*
X132080000Y-103071858D01*
X132008932Y-102938899D01*
X131829608Y-102720392D01*
X131611101Y-102541068D01*
X131361808Y-102407818D01*
X131091309Y-102325764D01*
X130810000Y-102298057D01*
X130528692Y-102325764D01*
X130258193Y-102407818D01*
X130008900Y-102541068D01*
X129790393Y-102720392D01*
X129611068Y-102938899D01*
X129540000Y-103071858D01*
X129468932Y-102938899D01*
X129289608Y-102720392D01*
X129071101Y-102541068D01*
X128821808Y-102407818D01*
X128551309Y-102325764D01*
X128270000Y-102298057D01*
X127988692Y-102325764D01*
X127718193Y-102407818D01*
X127468900Y-102541068D01*
X127250393Y-102720392D01*
X127071068Y-102938899D01*
X127000000Y-103071858D01*
X126928932Y-102938899D01*
X126749608Y-102720392D01*
X126531101Y-102541068D01*
X126281808Y-102407818D01*
X126011309Y-102325764D01*
X125730000Y-102298057D01*
X125448692Y-102325764D01*
X125178193Y-102407818D01*
X124928900Y-102541068D01*
X124710393Y-102720392D01*
X124531068Y-102938899D01*
X124460000Y-103071858D01*
X124388932Y-102938899D01*
X124209608Y-102720392D01*
X123991101Y-102541068D01*
X123741808Y-102407818D01*
X123471309Y-102325764D01*
X123190000Y-102298057D01*
X122908692Y-102325764D01*
X122638193Y-102407818D01*
X122388900Y-102541068D01*
X122170393Y-102720392D01*
X121991068Y-102938899D01*
X121857818Y-103188192D01*
X121775764Y-103458691D01*
X121755000Y-103669508D01*
X121755000Y-104610491D01*
X121775764Y-104821308D01*
X121857818Y-105091807D01*
X121991068Y-105341100D01*
X122170392Y-105559607D01*
X122388899Y-105738932D01*
X122638192Y-105872182D01*
X122795829Y-105920000D01*
X108344170Y-105920000D01*
X108501807Y-105872182D01*
X108751100Y-105738932D01*
X108969607Y-105559608D01*
X109148932Y-105341101D01*
X109282182Y-105091808D01*
X109364236Y-104821309D01*
X109385000Y-104610492D01*
X109385000Y-103669509D01*
X109364236Y-103458691D01*
X109282182Y-103188192D01*
X109148932Y-102938899D01*
X108969608Y-102720392D01*
X108751101Y-102541068D01*
X108501808Y-102407818D01*
X108231309Y-102325764D01*
X107950000Y-102298057D01*
X107668692Y-102325764D01*
X107398193Y-102407818D01*
X107148900Y-102541068D01*
X106930393Y-102720392D01*
X106751068Y-102938899D01*
X106680000Y-103071858D01*
X106608932Y-102938899D01*
X106429608Y-102720392D01*
X106211101Y-102541068D01*
X105961808Y-102407818D01*
X105691309Y-102325764D01*
X105410000Y-102298057D01*
X105128692Y-102325764D01*
X104858193Y-102407818D01*
X104608900Y-102541068D01*
X104390393Y-102720392D01*
X104211068Y-102938899D01*
X104140000Y-103071858D01*
X104068932Y-102938899D01*
X103889608Y-102720392D01*
X103671101Y-102541068D01*
X103421808Y-102407818D01*
X103151309Y-102325764D01*
X102870000Y-102298057D01*
X102588692Y-102325764D01*
X102318193Y-102407818D01*
X102068900Y-102541068D01*
X101850393Y-102720392D01*
X101671068Y-102938899D01*
X101600000Y-103071858D01*
X101528932Y-102938899D01*
X101349608Y-102720392D01*
X101131101Y-102541068D01*
X100881808Y-102407818D01*
X100611309Y-102325764D01*
X100330000Y-102298057D01*
X100048692Y-102325764D01*
X99778193Y-102407818D01*
X99528900Y-102541068D01*
X99310393Y-102720392D01*
X99131068Y-102938899D01*
X99060000Y-103071858D01*
X98988932Y-102938899D01*
X98809608Y-102720392D01*
X98591101Y-102541068D01*
X98341808Y-102407818D01*
X98071309Y-102325764D01*
X97790000Y-102298057D01*
X97508692Y-102325764D01*
X97238193Y-102407818D01*
X96988900Y-102541068D01*
X96770393Y-102720392D01*
X96591068Y-102938899D01*
X96520000Y-103071858D01*
X96448932Y-102938899D01*
X96269608Y-102720392D01*
X96051101Y-102541068D01*
X95801808Y-102407818D01*
X95531309Y-102325764D01*
X95250000Y-102298057D01*
X94968692Y-102325764D01*
X94698193Y-102407818D01*
X94448900Y-102541068D01*
X94230393Y-102720392D01*
X94051068Y-102938899D01*
X93980000Y-103071858D01*
X93908932Y-102938899D01*
X93729608Y-102720392D01*
X93511101Y-102541068D01*
X93261808Y-102407818D01*
X92991309Y-102325764D01*
X92710000Y-102298057D01*
X92428692Y-102325764D01*
X92158193Y-102407818D01*
X91908900Y-102541068D01*
X91690393Y-102720392D01*
X91511068Y-102938899D01*
X91440000Y-103071858D01*
X91368932Y-102938899D01*
X91189608Y-102720392D01*
X90971101Y-102541068D01*
X90721808Y-102407818D01*
X90451309Y-102325764D01*
X90170000Y-102298057D01*
X89888692Y-102325764D01*
X89618193Y-102407818D01*
X89368900Y-102541068D01*
X89150393Y-102720392D01*
X88971068Y-102938899D01*
X88837818Y-103188192D01*
X88755764Y-103458691D01*
X88735000Y-103669508D01*
X85217000Y-103669508D01*
X85217000Y-101322702D01*
X112296903Y-101322702D01*
X112368486Y-101566671D01*
X112623996Y-101687571D01*
X112898184Y-101756300D01*
X113180512Y-101770217D01*
X113460130Y-101728787D01*
X113726292Y-101633603D01*
X113851514Y-101566671D01*
X113923097Y-101322702D01*
X113110000Y-100509605D01*
X112296903Y-101322702D01*
X85217000Y-101322702D01*
X85217000Y-100400512D01*
X111669783Y-100400512D01*
X111711213Y-100680130D01*
X111806397Y-100946292D01*
X111873329Y-101071514D01*
X112117298Y-101143097D01*
X112930395Y-100330000D01*
X113289605Y-100330000D01*
X114102702Y-101143097D01*
X114346671Y-101071514D01*
X114467571Y-100816004D01*
X114536300Y-100541816D01*
X114550217Y-100259488D01*
X114539724Y-100188665D01*
X116675000Y-100188665D01*
X116675000Y-100471335D01*
X116730147Y-100748574D01*
X116838320Y-101009727D01*
X116995363Y-101244759D01*
X117195241Y-101444637D01*
X117430273Y-101601680D01*
X117691426Y-101709853D01*
X117968665Y-101765000D01*
X118251335Y-101765000D01*
X118528574Y-101709853D01*
X118789727Y-101601680D01*
X119024759Y-101444637D01*
X119224637Y-101244759D01*
X119381680Y-101009727D01*
X119489853Y-100748574D01*
X119545000Y-100471335D01*
X119545000Y-100188665D01*
X119489853Y-99911426D01*
X119381680Y-99650273D01*
X119224637Y-99415241D01*
X119024759Y-99215363D01*
X118789727Y-99058320D01*
X118528574Y-98950147D01*
X118251335Y-98895000D01*
X117968665Y-98895000D01*
X117691426Y-98950147D01*
X117430273Y-99058320D01*
X117195241Y-99215363D01*
X116995363Y-99415241D01*
X116838320Y-99650273D01*
X116730147Y-99911426D01*
X116675000Y-100188665D01*
X114539724Y-100188665D01*
X114508787Y-99979870D01*
X114413603Y-99713708D01*
X114346671Y-99588486D01*
X114102702Y-99516903D01*
X113289605Y-100330000D01*
X112930395Y-100330000D01*
X112117298Y-99516903D01*
X111873329Y-99588486D01*
X111752429Y-99843996D01*
X111683700Y-100118184D01*
X111669783Y-100400512D01*
X85217000Y-100400512D01*
X85217000Y-99337298D01*
X112296903Y-99337298D01*
X113110000Y-100150395D01*
X113923097Y-99337298D01*
X113851514Y-99093329D01*
X113596004Y-98972429D01*
X113321816Y-98903700D01*
X113039488Y-98889783D01*
X112759870Y-98931213D01*
X112493708Y-99026397D01*
X112368486Y-99093329D01*
X112296903Y-99337298D01*
X85217000Y-99337298D01*
X85217000Y-96647000D01*
X88735000Y-96647000D01*
X88735000Y-97047000D01*
X88787350Y-97324514D01*
X88892834Y-97586483D01*
X89047399Y-97822839D01*
X89245105Y-98024500D01*
X89478354Y-98183715D01*
X89738182Y-98294367D01*
X89820961Y-98311904D01*
X90043000Y-98189915D01*
X90043000Y-96647000D01*
X88735000Y-96647000D01*
X85217000Y-96647000D01*
X85217000Y-95993000D01*
X88735000Y-95993000D01*
X88735000Y-96393000D01*
X90043000Y-96393000D01*
X90043000Y-94850085D01*
X90297000Y-94850085D01*
X90297000Y-96393000D01*
X90317000Y-96393000D01*
X90317000Y-96647000D01*
X90297000Y-96647000D01*
X90297000Y-98189915D01*
X90519039Y-98311904D01*
X90601818Y-98294367D01*
X90861646Y-98183715D01*
X91094895Y-98024500D01*
X91292601Y-97822839D01*
X91442735Y-97593258D01*
X91511068Y-97721100D01*
X91690392Y-97939607D01*
X91908899Y-98118932D01*
X92158192Y-98252182D01*
X92428691Y-98334236D01*
X92710000Y-98361943D01*
X92991308Y-98334236D01*
X93261807Y-98252182D01*
X93511100Y-98118932D01*
X93729607Y-97939608D01*
X93908932Y-97721101D01*
X93980000Y-97588142D01*
X94051068Y-97721100D01*
X94230392Y-97939607D01*
X94448899Y-98118932D01*
X94698192Y-98252182D01*
X94968691Y-98334236D01*
X95250000Y-98361943D01*
X95531308Y-98334236D01*
X95801807Y-98252182D01*
X96051100Y-98118932D01*
X96269607Y-97939608D01*
X96448932Y-97721101D01*
X96520000Y-97588142D01*
X96591068Y-97721100D01*
X96770392Y-97939607D01*
X96988899Y-98118932D01*
X97238192Y-98252182D01*
X97508691Y-98334236D01*
X97790000Y-98361943D01*
X98071308Y-98334236D01*
X98341807Y-98252182D01*
X98591100Y-98118932D01*
X98809607Y-97939608D01*
X98988932Y-97721101D01*
X99060000Y-97588142D01*
X99131068Y-97721100D01*
X99310392Y-97939607D01*
X99528899Y-98118932D01*
X99778192Y-98252182D01*
X100048691Y-98334236D01*
X100330000Y-98361943D01*
X100611308Y-98334236D01*
X100881807Y-98252182D01*
X101131100Y-98118932D01*
X101349607Y-97939608D01*
X101528932Y-97721101D01*
X101600000Y-97588142D01*
X101671068Y-97721100D01*
X101850392Y-97939607D01*
X102068899Y-98118932D01*
X102318192Y-98252182D01*
X102588691Y-98334236D01*
X102870000Y-98361943D01*
X103151308Y-98334236D01*
X103421807Y-98252182D01*
X103671100Y-98118932D01*
X103889607Y-97939608D01*
X104068932Y-97721101D01*
X104140000Y-97588142D01*
X104211068Y-97721100D01*
X104390392Y-97939607D01*
X104608899Y-98118932D01*
X104858192Y-98252182D01*
X105128691Y-98334236D01*
X105410000Y-98361943D01*
X105691308Y-98334236D01*
X105961807Y-98252182D01*
X106211100Y-98118932D01*
X106429607Y-97939608D01*
X106522419Y-97826517D01*
X106524188Y-97844482D01*
X106560498Y-97964180D01*
X106619463Y-98074494D01*
X106698815Y-98171185D01*
X106795506Y-98250537D01*
X106905820Y-98309502D01*
X107025518Y-98345812D01*
X107150000Y-98358072D01*
X108750000Y-98358072D01*
X108874482Y-98345812D01*
X108994180Y-98309502D01*
X109104494Y-98250537D01*
X109201185Y-98171185D01*
X109280537Y-98074494D01*
X109339502Y-97964180D01*
X109375812Y-97844482D01*
X109388072Y-97720000D01*
X109388072Y-96647000D01*
X121755000Y-96647000D01*
X121755000Y-97047000D01*
X121807350Y-97324514D01*
X121912834Y-97586483D01*
X122067399Y-97822839D01*
X122265105Y-98024500D01*
X122498354Y-98183715D01*
X122758182Y-98294367D01*
X122840961Y-98311904D01*
X123063000Y-98189915D01*
X123063000Y-96647000D01*
X121755000Y-96647000D01*
X109388072Y-96647000D01*
X109388072Y-95993000D01*
X121755000Y-95993000D01*
X121755000Y-96393000D01*
X123063000Y-96393000D01*
X123063000Y-94850085D01*
X123317000Y-94850085D01*
X123317000Y-96393000D01*
X123337000Y-96393000D01*
X123337000Y-96647000D01*
X123317000Y-96647000D01*
X123317000Y-98189915D01*
X123539039Y-98311904D01*
X123621818Y-98294367D01*
X123881646Y-98183715D01*
X124114895Y-98024500D01*
X124312601Y-97822839D01*
X124462735Y-97593258D01*
X124531068Y-97721100D01*
X124710392Y-97939607D01*
X124928899Y-98118932D01*
X125178192Y-98252182D01*
X125448691Y-98334236D01*
X125730000Y-98361943D01*
X126011308Y-98334236D01*
X126281807Y-98252182D01*
X126531100Y-98118932D01*
X126749607Y-97939608D01*
X126928932Y-97721101D01*
X127000000Y-97588142D01*
X127071068Y-97721100D01*
X127250392Y-97939607D01*
X127468899Y-98118932D01*
X127718192Y-98252182D01*
X127988691Y-98334236D01*
X128270000Y-98361943D01*
X128551308Y-98334236D01*
X128821807Y-98252182D01*
X129071100Y-98118932D01*
X129289607Y-97939608D01*
X129468932Y-97721101D01*
X129540000Y-97588142D01*
X129611068Y-97721100D01*
X129790392Y-97939607D01*
X130008899Y-98118932D01*
X130258192Y-98252182D01*
X130528691Y-98334236D01*
X130810000Y-98361943D01*
X131091308Y-98334236D01*
X131361807Y-98252182D01*
X131611100Y-98118932D01*
X131829607Y-97939608D01*
X132008932Y-97721101D01*
X132080000Y-97588142D01*
X132151068Y-97721100D01*
X132330392Y-97939607D01*
X132548899Y-98118932D01*
X132798192Y-98252182D01*
X133068691Y-98334236D01*
X133350000Y-98361943D01*
X133631308Y-98334236D01*
X133901807Y-98252182D01*
X134151100Y-98118932D01*
X134369607Y-97939608D01*
X134548932Y-97721101D01*
X134620000Y-97588142D01*
X134691068Y-97721100D01*
X134870392Y-97939607D01*
X135088899Y-98118932D01*
X135338192Y-98252182D01*
X135608691Y-98334236D01*
X135890000Y-98361943D01*
X136171308Y-98334236D01*
X136441807Y-98252182D01*
X136691100Y-98118932D01*
X136909607Y-97939608D01*
X137088932Y-97721101D01*
X137160000Y-97588142D01*
X137231068Y-97721100D01*
X137410392Y-97939607D01*
X137628899Y-98118932D01*
X137878192Y-98252182D01*
X138148691Y-98334236D01*
X138430000Y-98361943D01*
X138711308Y-98334236D01*
X138981807Y-98252182D01*
X139231100Y-98118932D01*
X139449607Y-97939608D01*
X139542419Y-97826517D01*
X139544188Y-97844482D01*
X139580498Y-97964180D01*
X139639463Y-98074494D01*
X139718815Y-98171185D01*
X139815506Y-98250537D01*
X139925820Y-98309502D01*
X140045518Y-98345812D01*
X140170000Y-98358072D01*
X141770000Y-98358072D01*
X141894482Y-98345812D01*
X142014180Y-98309502D01*
X142124494Y-98250537D01*
X142221185Y-98171185D01*
X142300537Y-98074494D01*
X142359502Y-97964180D01*
X142395812Y-97844482D01*
X142408072Y-97720000D01*
X142408072Y-95320000D01*
X142395812Y-95195518D01*
X142359502Y-95075820D01*
X142300537Y-94965506D01*
X142221185Y-94868815D01*
X142124494Y-94789463D01*
X142014180Y-94730498D01*
X141894482Y-94694188D01*
X141770000Y-94681928D01*
X140170000Y-94681928D01*
X140045518Y-94694188D01*
X139925820Y-94730498D01*
X139815506Y-94789463D01*
X139718815Y-94868815D01*
X139639463Y-94965506D01*
X139580498Y-95075820D01*
X139544188Y-95195518D01*
X139542419Y-95213482D01*
X139449608Y-95100392D01*
X139231101Y-94921068D01*
X138981808Y-94787818D01*
X138711309Y-94705764D01*
X138430000Y-94678057D01*
X138148692Y-94705764D01*
X137878193Y-94787818D01*
X137628900Y-94921068D01*
X137410393Y-95100392D01*
X137231068Y-95318899D01*
X137160000Y-95451858D01*
X137088932Y-95318899D01*
X136909608Y-95100392D01*
X136691101Y-94921068D01*
X136441808Y-94787818D01*
X136171309Y-94705764D01*
X135890000Y-94678057D01*
X135608692Y-94705764D01*
X135338193Y-94787818D01*
X135088900Y-94921068D01*
X134870393Y-95100392D01*
X134691068Y-95318899D01*
X134620000Y-95451858D01*
X134548932Y-95318899D01*
X134369608Y-95100392D01*
X134151101Y-94921068D01*
X133901808Y-94787818D01*
X133631309Y-94705764D01*
X133350000Y-94678057D01*
X133068692Y-94705764D01*
X132798193Y-94787818D01*
X132548900Y-94921068D01*
X132330393Y-95100392D01*
X132151068Y-95318899D01*
X132080000Y-95451858D01*
X132008932Y-95318899D01*
X131829608Y-95100392D01*
X131611101Y-94921068D01*
X131361808Y-94787818D01*
X131091309Y-94705764D01*
X130810000Y-94678057D01*
X130528692Y-94705764D01*
X130258193Y-94787818D01*
X130008900Y-94921068D01*
X129790393Y-95100392D01*
X129611068Y-95318899D01*
X129540000Y-95451858D01*
X129468932Y-95318899D01*
X129289608Y-95100392D01*
X129071101Y-94921068D01*
X128821808Y-94787818D01*
X128551309Y-94705764D01*
X128270000Y-94678057D01*
X127988692Y-94705764D01*
X127718193Y-94787818D01*
X127468900Y-94921068D01*
X127250393Y-95100392D01*
X127071068Y-95318899D01*
X127000000Y-95451858D01*
X126928932Y-95318899D01*
X126749608Y-95100392D01*
X126531101Y-94921068D01*
X126281808Y-94787818D01*
X126011309Y-94705764D01*
X125730000Y-94678057D01*
X125448692Y-94705764D01*
X125178193Y-94787818D01*
X124928900Y-94921068D01*
X124710393Y-95100392D01*
X124531068Y-95318899D01*
X124462735Y-95446741D01*
X124312601Y-95217161D01*
X124114895Y-95015500D01*
X123881646Y-94856285D01*
X123621818Y-94745633D01*
X123539039Y-94728096D01*
X123317000Y-94850085D01*
X123063000Y-94850085D01*
X122840961Y-94728096D01*
X122758182Y-94745633D01*
X122498354Y-94856285D01*
X122265105Y-95015500D01*
X122067399Y-95217161D01*
X121912834Y-95453517D01*
X121807350Y-95715486D01*
X121755000Y-95993000D01*
X109388072Y-95993000D01*
X109388072Y-95320000D01*
X109375812Y-95195518D01*
X109339502Y-95075820D01*
X109280537Y-94965506D01*
X109201185Y-94868815D01*
X109104494Y-94789463D01*
X108994180Y-94730498D01*
X108874482Y-94694188D01*
X108750000Y-94681928D01*
X107150000Y-94681928D01*
X107025518Y-94694188D01*
X106905820Y-94730498D01*
X106795506Y-94789463D01*
X106698815Y-94868815D01*
X106619463Y-94965506D01*
X106560498Y-95075820D01*
X106524188Y-95195518D01*
X106522419Y-95213482D01*
X106429608Y-95100392D01*
X106211101Y-94921068D01*
X105961808Y-94787818D01*
X105691309Y-94705764D01*
X105410000Y-94678057D01*
X105128692Y-94705764D01*
X104858193Y-94787818D01*
X104608900Y-94921068D01*
X104390393Y-95100392D01*
X104211068Y-95318899D01*
X104140000Y-95451858D01*
X104068932Y-95318899D01*
X103889608Y-95100392D01*
X103671101Y-94921068D01*
X103421808Y-94787818D01*
X103151309Y-94705764D01*
X102870000Y-94678057D01*
X102588692Y-94705764D01*
X102318193Y-94787818D01*
X102068900Y-94921068D01*
X101850393Y-95100392D01*
X101671068Y-95318899D01*
X101600000Y-95451858D01*
X101528932Y-95318899D01*
X101349608Y-95100392D01*
X101131101Y-94921068D01*
X100881808Y-94787818D01*
X100611309Y-94705764D01*
X100330000Y-94678057D01*
X100048692Y-94705764D01*
X99778193Y-94787818D01*
X99528900Y-94921068D01*
X99310393Y-95100392D01*
X99131068Y-95318899D01*
X99060000Y-95451858D01*
X98988932Y-95318899D01*
X98809608Y-95100392D01*
X98591101Y-94921068D01*
X98341808Y-94787818D01*
X98071309Y-94705764D01*
X97790000Y-94678057D01*
X97508692Y-94705764D01*
X97238193Y-94787818D01*
X96988900Y-94921068D01*
X96770393Y-95100392D01*
X96591068Y-95318899D01*
X96520000Y-95451858D01*
X96448932Y-95318899D01*
X96269608Y-95100392D01*
X96051101Y-94921068D01*
X95801808Y-94787818D01*
X95531309Y-94705764D01*
X95250000Y-94678057D01*
X94968692Y-94705764D01*
X94698193Y-94787818D01*
X94448900Y-94921068D01*
X94230393Y-95100392D01*
X94051068Y-95318899D01*
X93980000Y-95451858D01*
X93908932Y-95318899D01*
X93729608Y-95100392D01*
X93511101Y-94921068D01*
X93261808Y-94787818D01*
X92991309Y-94705764D01*
X92710000Y-94678057D01*
X92428692Y-94705764D01*
X92158193Y-94787818D01*
X91908900Y-94921068D01*
X91690393Y-95100392D01*
X91511068Y-95318899D01*
X91442735Y-95446741D01*
X91292601Y-95217161D01*
X91094895Y-95015500D01*
X90861646Y-94856285D01*
X90601818Y-94745633D01*
X90519039Y-94728096D01*
X90297000Y-94850085D01*
X90043000Y-94850085D01*
X89820961Y-94728096D01*
X89738182Y-94745633D01*
X89478354Y-94856285D01*
X89245105Y-95015500D01*
X89047399Y-95217161D01*
X88892834Y-95453517D01*
X88787350Y-95715486D01*
X88735000Y-95993000D01*
X85217000Y-95993000D01*
X85217000Y-91162702D01*
X89356903Y-91162702D01*
X89428486Y-91406671D01*
X89683996Y-91527571D01*
X89958184Y-91596300D01*
X90240512Y-91610217D01*
X90520130Y-91568787D01*
X90786292Y-91473603D01*
X90911514Y-91406671D01*
X90983097Y-91162702D01*
X90170000Y-90349605D01*
X89356903Y-91162702D01*
X85217000Y-91162702D01*
X85217000Y-90240512D01*
X88729783Y-90240512D01*
X88771213Y-90520130D01*
X88866397Y-90786292D01*
X88933329Y-90911514D01*
X89177298Y-90983097D01*
X89990395Y-90170000D01*
X90349605Y-90170000D01*
X91162702Y-90983097D01*
X91406671Y-90911514D01*
X91527571Y-90656004D01*
X91596300Y-90381816D01*
X91610217Y-90099488D01*
X91599724Y-90028665D01*
X103975000Y-90028665D01*
X103975000Y-90311335D01*
X104030147Y-90588574D01*
X104138320Y-90849727D01*
X104295363Y-91084759D01*
X104495241Y-91284637D01*
X104730273Y-91441680D01*
X104991426Y-91549853D01*
X105268665Y-91605000D01*
X105551335Y-91605000D01*
X105828574Y-91549853D01*
X106089727Y-91441680D01*
X106324759Y-91284637D01*
X106524637Y-91084759D01*
X106681680Y-90849727D01*
X106789853Y-90588574D01*
X106845000Y-90311335D01*
X106845000Y-90028665D01*
X106789853Y-89751426D01*
X106681680Y-89490273D01*
X106524637Y-89255241D01*
X106324759Y-89055363D01*
X106089727Y-88898320D01*
X105828574Y-88790147D01*
X105551335Y-88735000D01*
X105268665Y-88735000D01*
X104991426Y-88790147D01*
X104730273Y-88898320D01*
X104495241Y-89055363D01*
X104295363Y-89255241D01*
X104138320Y-89490273D01*
X104030147Y-89751426D01*
X103975000Y-90028665D01*
X91599724Y-90028665D01*
X91568787Y-89819870D01*
X91473603Y-89553708D01*
X91406671Y-89428486D01*
X91162702Y-89356903D01*
X90349605Y-90170000D01*
X89990395Y-90170000D01*
X89177298Y-89356903D01*
X88933329Y-89428486D01*
X88812429Y-89683996D01*
X88743700Y-89958184D01*
X88729783Y-90240512D01*
X85217000Y-90240512D01*
X85217000Y-89177298D01*
X89356903Y-89177298D01*
X90170000Y-89990395D01*
X90983097Y-89177298D01*
X90911514Y-88933329D01*
X90656004Y-88812429D01*
X90381816Y-88743700D01*
X90099488Y-88729783D01*
X89819870Y-88771213D01*
X89553708Y-88866397D01*
X89428486Y-88933329D01*
X89356903Y-89177298D01*
X85217000Y-89177298D01*
X85217000Y-84948665D01*
X88735000Y-84948665D01*
X88735000Y-85231335D01*
X88790147Y-85508574D01*
X88898320Y-85769727D01*
X89055363Y-86004759D01*
X89255241Y-86204637D01*
X89490273Y-86361680D01*
X89751426Y-86469853D01*
X90028665Y-86525000D01*
X90311335Y-86525000D01*
X90588574Y-86469853D01*
X90849727Y-86361680D01*
X91084759Y-86204637D01*
X91284637Y-86004759D01*
X91388043Y-85850000D01*
X110015136Y-85850000D01*
X109945764Y-86078691D01*
X109918057Y-86360000D01*
X109945764Y-86641309D01*
X110027818Y-86911808D01*
X110161068Y-87161101D01*
X110340392Y-87379608D01*
X110558899Y-87558932D01*
X110691858Y-87630000D01*
X110558899Y-87701068D01*
X110340392Y-87880392D01*
X110161068Y-88098899D01*
X110027818Y-88348192D01*
X109945764Y-88618691D01*
X109918057Y-88900000D01*
X109945764Y-89181309D01*
X110027818Y-89451808D01*
X110161068Y-89701101D01*
X110340392Y-89919608D01*
X110558899Y-90098932D01*
X110691858Y-90170000D01*
X110558899Y-90241068D01*
X110340392Y-90420392D01*
X110161068Y-90638899D01*
X110027818Y-90888192D01*
X109945764Y-91158691D01*
X109918057Y-91440000D01*
X109945764Y-91721309D01*
X110027818Y-91991808D01*
X110161068Y-92241101D01*
X110340392Y-92459608D01*
X110558899Y-92638932D01*
X110808192Y-92772182D01*
X111078691Y-92854236D01*
X111289508Y-92875000D01*
X112230492Y-92875000D01*
X112441309Y-92854236D01*
X112711808Y-92772182D01*
X112961101Y-92638932D01*
X113179608Y-92459608D01*
X113358932Y-92241101D01*
X113492182Y-91991808D01*
X113574236Y-91721309D01*
X113601943Y-91440000D01*
X113574236Y-91158691D01*
X113492182Y-90888192D01*
X113358932Y-90638899D01*
X113179608Y-90420392D01*
X112961101Y-90241068D01*
X112828142Y-90170000D01*
X112961101Y-90098932D01*
X113179608Y-89919608D01*
X113358932Y-89701101D01*
X113492182Y-89451808D01*
X113574236Y-89181309D01*
X113601943Y-88900000D01*
X113574236Y-88618691D01*
X113492182Y-88348192D01*
X113358932Y-88098899D01*
X113179608Y-87880392D01*
X112961101Y-87701068D01*
X112828142Y-87630000D01*
X112961101Y-87558932D01*
X113179608Y-87379608D01*
X113358932Y-87161101D01*
X113492182Y-86911808D01*
X113574236Y-86641309D01*
X113601943Y-86360000D01*
X113574236Y-86078691D01*
X113504864Y-85850000D01*
X116525199Y-85850000D01*
X117546201Y-86871003D01*
X117569999Y-86900001D01*
X117685724Y-86994974D01*
X117694890Y-86999873D01*
X117781068Y-87161101D01*
X117960392Y-87379608D01*
X118178899Y-87558932D01*
X118311858Y-87630000D01*
X118178899Y-87701068D01*
X117960392Y-87880392D01*
X117781068Y-88098899D01*
X117647818Y-88348192D01*
X117565764Y-88618691D01*
X117538057Y-88900000D01*
X117565764Y-89181309D01*
X117647818Y-89451808D01*
X117781068Y-89701101D01*
X117960392Y-89919608D01*
X118178899Y-90098932D01*
X118311858Y-90170000D01*
X118178899Y-90241068D01*
X117960392Y-90420392D01*
X117781068Y-90638899D01*
X117647818Y-90888192D01*
X117565764Y-91158691D01*
X117538057Y-91440000D01*
X117565764Y-91721309D01*
X117647818Y-91991808D01*
X117781068Y-92241101D01*
X117960392Y-92459608D01*
X118178899Y-92638932D01*
X118428192Y-92772182D01*
X118698691Y-92854236D01*
X118909508Y-92875000D01*
X119850492Y-92875000D01*
X120061309Y-92854236D01*
X120331808Y-92772182D01*
X120581101Y-92638932D01*
X120799608Y-92459608D01*
X120978932Y-92241101D01*
X121112182Y-91991808D01*
X121194236Y-91721309D01*
X121221943Y-91440000D01*
X121208023Y-91298665D01*
X129375000Y-91298665D01*
X129375000Y-91581335D01*
X129430147Y-91858574D01*
X129538320Y-92119727D01*
X129695363Y-92354759D01*
X129895241Y-92554637D01*
X130130273Y-92711680D01*
X130391426Y-92819853D01*
X130668665Y-92875000D01*
X130951335Y-92875000D01*
X131228574Y-92819853D01*
X131489727Y-92711680D01*
X131724759Y-92554637D01*
X131846694Y-92432702D01*
X134996903Y-92432702D01*
X135068486Y-92676671D01*
X135323996Y-92797571D01*
X135598184Y-92866300D01*
X135880512Y-92880217D01*
X136160130Y-92838787D01*
X136426292Y-92743603D01*
X136551514Y-92676671D01*
X136623097Y-92432702D01*
X135810000Y-91619605D01*
X134996903Y-92432702D01*
X131846694Y-92432702D01*
X131924637Y-92354759D01*
X132081680Y-92119727D01*
X132189853Y-91858574D01*
X132245000Y-91581335D01*
X132245000Y-91510512D01*
X134369783Y-91510512D01*
X134411213Y-91790130D01*
X134506397Y-92056292D01*
X134573329Y-92181514D01*
X134817298Y-92253097D01*
X135630395Y-91440000D01*
X135989605Y-91440000D01*
X136802702Y-92253097D01*
X137046671Y-92181514D01*
X137167571Y-91926004D01*
X137236300Y-91651816D01*
X137250217Y-91369488D01*
X137208787Y-91089870D01*
X137113603Y-90823708D01*
X137046671Y-90698486D01*
X136802702Y-90626903D01*
X135989605Y-91440000D01*
X135630395Y-91440000D01*
X134817298Y-90626903D01*
X134573329Y-90698486D01*
X134452429Y-90953996D01*
X134383700Y-91228184D01*
X134369783Y-91510512D01*
X132245000Y-91510512D01*
X132245000Y-91298665D01*
X132189853Y-91021426D01*
X132081680Y-90760273D01*
X131924637Y-90525241D01*
X131846694Y-90447298D01*
X134996903Y-90447298D01*
X135810000Y-91260395D01*
X136623097Y-90447298D01*
X136551514Y-90203329D01*
X136296004Y-90082429D01*
X136021816Y-90013700D01*
X135739488Y-89999783D01*
X135459870Y-90041213D01*
X135193708Y-90136397D01*
X135068486Y-90203329D01*
X134996903Y-90447298D01*
X131846694Y-90447298D01*
X131724759Y-90325363D01*
X131489727Y-90168320D01*
X131228574Y-90060147D01*
X130951335Y-90005000D01*
X130668665Y-90005000D01*
X130391426Y-90060147D01*
X130130273Y-90168320D01*
X129895241Y-90325363D01*
X129695363Y-90525241D01*
X129538320Y-90760273D01*
X129430147Y-91021426D01*
X129375000Y-91298665D01*
X121208023Y-91298665D01*
X121194236Y-91158691D01*
X121112182Y-90888192D01*
X120978932Y-90638899D01*
X120799608Y-90420392D01*
X120581101Y-90241068D01*
X120448142Y-90170000D01*
X120581101Y-90098932D01*
X120799608Y-89919608D01*
X120978932Y-89701101D01*
X121112182Y-89451808D01*
X121194236Y-89181309D01*
X121221943Y-88900000D01*
X121194236Y-88618691D01*
X121112182Y-88348192D01*
X120978932Y-88098899D01*
X120799608Y-87880392D01*
X120581101Y-87701068D01*
X120448142Y-87630000D01*
X120581101Y-87558932D01*
X120799608Y-87379608D01*
X120978932Y-87161101D01*
X121112182Y-86911808D01*
X121194236Y-86641309D01*
X121221943Y-86360000D01*
X121208023Y-86218665D01*
X124295000Y-86218665D01*
X124295000Y-86501335D01*
X124350147Y-86778574D01*
X124458320Y-87039727D01*
X124615363Y-87274759D01*
X124815241Y-87474637D01*
X125050273Y-87631680D01*
X125311426Y-87739853D01*
X125588665Y-87795000D01*
X125871335Y-87795000D01*
X126148574Y-87739853D01*
X126409727Y-87631680D01*
X126644759Y-87474637D01*
X126844637Y-87274759D01*
X127001680Y-87039727D01*
X127109853Y-86778574D01*
X127165000Y-86501335D01*
X127165000Y-86218665D01*
X139535000Y-86218665D01*
X139535000Y-86501335D01*
X139590147Y-86778574D01*
X139698320Y-87039727D01*
X139855363Y-87274759D01*
X140055241Y-87474637D01*
X140290273Y-87631680D01*
X140551426Y-87739853D01*
X140828665Y-87795000D01*
X141111335Y-87795000D01*
X141388574Y-87739853D01*
X141649727Y-87631680D01*
X141884759Y-87474637D01*
X142084637Y-87274759D01*
X142241680Y-87039727D01*
X142349853Y-86778574D01*
X142405000Y-86501335D01*
X142405000Y-86218665D01*
X142349853Y-85941426D01*
X142241680Y-85680273D01*
X142084637Y-85445241D01*
X141884759Y-85245363D01*
X141649727Y-85088320D01*
X141388574Y-84980147D01*
X141111335Y-84925000D01*
X140828665Y-84925000D01*
X140551426Y-84980147D01*
X140290273Y-85088320D01*
X140055241Y-85245363D01*
X139855363Y-85445241D01*
X139698320Y-85680273D01*
X139590147Y-85941426D01*
X139535000Y-86218665D01*
X127165000Y-86218665D01*
X127109853Y-85941426D01*
X127001680Y-85680273D01*
X126844637Y-85445241D01*
X126644759Y-85245363D01*
X126409727Y-85088320D01*
X126148574Y-84980147D01*
X125871335Y-84925000D01*
X125588665Y-84925000D01*
X125311426Y-84980147D01*
X125050273Y-85088320D01*
X124815241Y-85245363D01*
X124615363Y-85445241D01*
X124458320Y-85680273D01*
X124350147Y-85941426D01*
X124295000Y-86218665D01*
X121208023Y-86218665D01*
X121194236Y-86078691D01*
X121112182Y-85808192D01*
X120978932Y-85558899D01*
X120799608Y-85340392D01*
X120581101Y-85161068D01*
X120448142Y-85090000D01*
X120581101Y-85018932D01*
X120799608Y-84839608D01*
X120978932Y-84621101D01*
X121112182Y-84371808D01*
X121194236Y-84101309D01*
X121221943Y-83820000D01*
X121194236Y-83538691D01*
X121112182Y-83268192D01*
X120978932Y-83018899D01*
X120799608Y-82800392D01*
X120581101Y-82621068D01*
X120331808Y-82487818D01*
X120061309Y-82405764D01*
X119850492Y-82385000D01*
X118909508Y-82385000D01*
X118698691Y-82405764D01*
X118428192Y-82487818D01*
X118178899Y-82621068D01*
X117960392Y-82800392D01*
X117781068Y-83018899D01*
X117647818Y-83268192D01*
X117565764Y-83538691D01*
X117538057Y-83820000D01*
X117565764Y-84101309D01*
X117647818Y-84371808D01*
X117781068Y-84621101D01*
X117960392Y-84839608D01*
X118178899Y-85018932D01*
X118311858Y-85090000D01*
X118178899Y-85161068D01*
X118072878Y-85248077D01*
X117403804Y-84579003D01*
X117380001Y-84549999D01*
X117264276Y-84455026D01*
X117132247Y-84384454D01*
X116988986Y-84340997D01*
X116877333Y-84330000D01*
X116877322Y-84330000D01*
X116840000Y-84326324D01*
X116802678Y-84330000D01*
X113596340Y-84330000D01*
X113595000Y-84105750D01*
X113436250Y-83947000D01*
X111887000Y-83947000D01*
X111887000Y-83967000D01*
X111633000Y-83967000D01*
X111633000Y-83947000D01*
X110083750Y-83947000D01*
X109925000Y-84105750D01*
X109923660Y-84330000D01*
X109400223Y-84330000D01*
X109426011Y-84267743D01*
X109485000Y-83971184D01*
X109485000Y-83668816D01*
X109426011Y-83372257D01*
X109310299Y-83092905D01*
X109261586Y-83020000D01*
X109921928Y-83020000D01*
X109925000Y-83534250D01*
X110083750Y-83693000D01*
X111633000Y-83693000D01*
X111633000Y-82543750D01*
X111887000Y-82543750D01*
X111887000Y-83693000D01*
X113436250Y-83693000D01*
X113595000Y-83534250D01*
X113598072Y-83020000D01*
X113585812Y-82895518D01*
X113549502Y-82775820D01*
X113490537Y-82665506D01*
X113411185Y-82568815D01*
X113314494Y-82489463D01*
X113204180Y-82430498D01*
X113084482Y-82394188D01*
X112960000Y-82381928D01*
X112045750Y-82385000D01*
X111887000Y-82543750D01*
X111633000Y-82543750D01*
X111474250Y-82385000D01*
X110560000Y-82381928D01*
X110435518Y-82394188D01*
X110315820Y-82430498D01*
X110205506Y-82489463D01*
X110108815Y-82568815D01*
X110029463Y-82665506D01*
X109970498Y-82775820D01*
X109934188Y-82895518D01*
X109921928Y-83020000D01*
X109261586Y-83020000D01*
X109142312Y-82841495D01*
X108928505Y-82627688D01*
X108677095Y-82459701D01*
X108397743Y-82343989D01*
X108101184Y-82285000D01*
X107798816Y-82285000D01*
X107502257Y-82343989D01*
X107222905Y-82459701D01*
X106971495Y-82627688D01*
X106905056Y-82694127D01*
X106899502Y-82675820D01*
X106840537Y-82565506D01*
X106761185Y-82468815D01*
X106664494Y-82389463D01*
X106554180Y-82330498D01*
X106434482Y-82294188D01*
X106310000Y-82281928D01*
X104510000Y-82281928D01*
X104385518Y-82294188D01*
X104265820Y-82330498D01*
X104155506Y-82389463D01*
X104058815Y-82468815D01*
X103979463Y-82565506D01*
X103920498Y-82675820D01*
X103884188Y-82795518D01*
X103871928Y-82920000D01*
X103871928Y-84330000D01*
X91388043Y-84330000D01*
X91284637Y-84175241D01*
X91084759Y-83975363D01*
X90849727Y-83818320D01*
X90588574Y-83710147D01*
X90311335Y-83655000D01*
X90028665Y-83655000D01*
X89751426Y-83710147D01*
X89490273Y-83818320D01*
X89255241Y-83975363D01*
X89055363Y-84175241D01*
X88898320Y-84410273D01*
X88790147Y-84671426D01*
X88735000Y-84948665D01*
X85217000Y-84948665D01*
X85217000Y-78598665D01*
X111675000Y-78598665D01*
X111675000Y-78881335D01*
X111730147Y-79158574D01*
X111838320Y-79419727D01*
X111995363Y-79654759D01*
X112195241Y-79854637D01*
X112430273Y-80011680D01*
X112691426Y-80119853D01*
X112968665Y-80175000D01*
X113251335Y-80175000D01*
X113528574Y-80119853D01*
X113789727Y-80011680D01*
X114024759Y-79854637D01*
X114146694Y-79732702D01*
X117296903Y-79732702D01*
X117368486Y-79976671D01*
X117623996Y-80097571D01*
X117898184Y-80166300D01*
X118180512Y-80180217D01*
X118460130Y-80138787D01*
X118726292Y-80043603D01*
X118851514Y-79976671D01*
X118884649Y-79863740D01*
X128055000Y-79863740D01*
X128055000Y-80156260D01*
X128112068Y-80443158D01*
X128224010Y-80713411D01*
X128386525Y-80956632D01*
X128593368Y-81163475D01*
X128836589Y-81325990D01*
X129106842Y-81437932D01*
X129393740Y-81495000D01*
X129686260Y-81495000D01*
X129973158Y-81437932D01*
X130243411Y-81325990D01*
X130486632Y-81163475D01*
X130693475Y-80956632D01*
X130815195Y-80774466D01*
X130884822Y-80891355D01*
X131079731Y-81107588D01*
X131313080Y-81281641D01*
X131575901Y-81406825D01*
X131723110Y-81451476D01*
X131953000Y-81330155D01*
X131953000Y-80137000D01*
X131933000Y-80137000D01*
X131933000Y-79883000D01*
X131953000Y-79883000D01*
X131953000Y-78689845D01*
X132207000Y-78689845D01*
X132207000Y-79883000D01*
X132227000Y-79883000D01*
X132227000Y-80137000D01*
X132207000Y-80137000D01*
X132207000Y-81330155D01*
X132436890Y-81451476D01*
X132584099Y-81406825D01*
X132846920Y-81281641D01*
X133080269Y-81107588D01*
X133275178Y-80891355D01*
X133344805Y-80774466D01*
X133466525Y-80956632D01*
X133673368Y-81163475D01*
X133916589Y-81325990D01*
X134186842Y-81437932D01*
X134473740Y-81495000D01*
X134766260Y-81495000D01*
X135053158Y-81437932D01*
X135323411Y-81325990D01*
X135566632Y-81163475D01*
X135773475Y-80956632D01*
X135890000Y-80782240D01*
X136006525Y-80956632D01*
X136213368Y-81163475D01*
X136456589Y-81325990D01*
X136726842Y-81437932D01*
X137013740Y-81495000D01*
X137306260Y-81495000D01*
X137593158Y-81437932D01*
X137863411Y-81325990D01*
X138106632Y-81163475D01*
X138313475Y-80956632D01*
X138430000Y-80782240D01*
X138546525Y-80956632D01*
X138753368Y-81163475D01*
X138996589Y-81325990D01*
X139266842Y-81437932D01*
X139553740Y-81495000D01*
X139846260Y-81495000D01*
X140133158Y-81437932D01*
X140403411Y-81325990D01*
X140646632Y-81163475D01*
X140778487Y-81031620D01*
X140800498Y-81104180D01*
X140859463Y-81214494D01*
X140938815Y-81311185D01*
X141035506Y-81390537D01*
X141145820Y-81449502D01*
X141265518Y-81485812D01*
X141390000Y-81498072D01*
X143090000Y-81498072D01*
X143214482Y-81485812D01*
X143334180Y-81449502D01*
X143444494Y-81390537D01*
X143541185Y-81311185D01*
X143620537Y-81214494D01*
X143679502Y-81104180D01*
X143715812Y-80984482D01*
X143728072Y-80860000D01*
X143728072Y-79160000D01*
X143715812Y-79035518D01*
X143679502Y-78915820D01*
X143620537Y-78805506D01*
X143541185Y-78708815D01*
X143444494Y-78629463D01*
X143334180Y-78570498D01*
X143214482Y-78534188D01*
X143090000Y-78521928D01*
X141390000Y-78521928D01*
X141265518Y-78534188D01*
X141145820Y-78570498D01*
X141035506Y-78629463D01*
X140938815Y-78708815D01*
X140859463Y-78805506D01*
X140800498Y-78915820D01*
X140778487Y-78988380D01*
X140646632Y-78856525D01*
X140403411Y-78694010D01*
X140133158Y-78582068D01*
X139846260Y-78525000D01*
X139553740Y-78525000D01*
X139266842Y-78582068D01*
X138996589Y-78694010D01*
X138753368Y-78856525D01*
X138546525Y-79063368D01*
X138430000Y-79237760D01*
X138313475Y-79063368D01*
X138106632Y-78856525D01*
X137863411Y-78694010D01*
X137593158Y-78582068D01*
X137306260Y-78525000D01*
X137013740Y-78525000D01*
X136726842Y-78582068D01*
X136456589Y-78694010D01*
X136213368Y-78856525D01*
X136006525Y-79063368D01*
X135890000Y-79237760D01*
X135773475Y-79063368D01*
X135566632Y-78856525D01*
X135323411Y-78694010D01*
X135053158Y-78582068D01*
X134766260Y-78525000D01*
X134473740Y-78525000D01*
X134186842Y-78582068D01*
X133916589Y-78694010D01*
X133673368Y-78856525D01*
X133466525Y-79063368D01*
X133344805Y-79245534D01*
X133275178Y-79128645D01*
X133080269Y-78912412D01*
X132846920Y-78738359D01*
X132584099Y-78613175D01*
X132436890Y-78568524D01*
X132207000Y-78689845D01*
X131953000Y-78689845D01*
X131723110Y-78568524D01*
X131575901Y-78613175D01*
X131313080Y-78738359D01*
X131079731Y-78912412D01*
X130884822Y-79128645D01*
X130815195Y-79245534D01*
X130693475Y-79063368D01*
X130486632Y-78856525D01*
X130243411Y-78694010D01*
X129973158Y-78582068D01*
X129686260Y-78525000D01*
X129393740Y-78525000D01*
X129106842Y-78582068D01*
X128836589Y-78694010D01*
X128593368Y-78856525D01*
X128386525Y-79063368D01*
X128224010Y-79306589D01*
X128112068Y-79576842D01*
X128055000Y-79863740D01*
X118884649Y-79863740D01*
X118923097Y-79732702D01*
X118110000Y-78919605D01*
X117296903Y-79732702D01*
X114146694Y-79732702D01*
X114224637Y-79654759D01*
X114381680Y-79419727D01*
X114489853Y-79158574D01*
X114545000Y-78881335D01*
X114545000Y-78810512D01*
X116669783Y-78810512D01*
X116711213Y-79090130D01*
X116806397Y-79356292D01*
X116873329Y-79481514D01*
X117117298Y-79553097D01*
X117930395Y-78740000D01*
X118289605Y-78740000D01*
X119102702Y-79553097D01*
X119346671Y-79481514D01*
X119467571Y-79226004D01*
X119536300Y-78951816D01*
X119550217Y-78669488D01*
X119508787Y-78389870D01*
X119413603Y-78123708D01*
X119346671Y-77998486D01*
X119102702Y-77926903D01*
X118289605Y-78740000D01*
X117930395Y-78740000D01*
X117117298Y-77926903D01*
X116873329Y-77998486D01*
X116752429Y-78253996D01*
X116683700Y-78528184D01*
X116669783Y-78810512D01*
X114545000Y-78810512D01*
X114545000Y-78598665D01*
X114489853Y-78321426D01*
X114381680Y-78060273D01*
X114224637Y-77825241D01*
X114146694Y-77747298D01*
X117296903Y-77747298D01*
X118110000Y-78560395D01*
X118923097Y-77747298D01*
X118851514Y-77503329D01*
X118596004Y-77382429D01*
X118321816Y-77313700D01*
X118039488Y-77299783D01*
X117759870Y-77341213D01*
X117493708Y-77436397D01*
X117368486Y-77503329D01*
X117296903Y-77747298D01*
X114146694Y-77747298D01*
X114024759Y-77625363D01*
X113789727Y-77468320D01*
X113528574Y-77360147D01*
X113251335Y-77305000D01*
X112968665Y-77305000D01*
X112691426Y-77360147D01*
X112430273Y-77468320D01*
X112195241Y-77625363D01*
X111995363Y-77825241D01*
X111838320Y-78060273D01*
X111730147Y-78321426D01*
X111675000Y-78598665D01*
X85217000Y-78598665D01*
X85217000Y-74752223D01*
X96065000Y-74752223D01*
X96065000Y-75107777D01*
X96134365Y-75456499D01*
X96270429Y-75784988D01*
X96467965Y-76080621D01*
X96719379Y-76332035D01*
X97015012Y-76529571D01*
X97343501Y-76665635D01*
X97692223Y-76735000D01*
X98047777Y-76735000D01*
X98396499Y-76665635D01*
X98724988Y-76529571D01*
X99020621Y-76332035D01*
X99272035Y-76080621D01*
X99469571Y-75784988D01*
X99605635Y-75456499D01*
X99675000Y-75107777D01*
X99675000Y-74752223D01*
X101065000Y-74752223D01*
X101065000Y-75107777D01*
X101134365Y-75456499D01*
X101270429Y-75784988D01*
X101467965Y-76080621D01*
X101719379Y-76332035D01*
X102015012Y-76529571D01*
X102343501Y-76665635D01*
X102692223Y-76735000D01*
X103047777Y-76735000D01*
X103396499Y-76665635D01*
X103724988Y-76529571D01*
X104020621Y-76332035D01*
X104272035Y-76080621D01*
X104469571Y-75784988D01*
X104605635Y-75456499D01*
X104675000Y-75107777D01*
X104675000Y-74752223D01*
X104605635Y-74403501D01*
X104469571Y-74075012D01*
X104272035Y-73779379D01*
X104020621Y-73527965D01*
X103724988Y-73330429D01*
X103396499Y-73194365D01*
X103047777Y-73125000D01*
X102692223Y-73125000D01*
X102343501Y-73194365D01*
X102015012Y-73330429D01*
X101719379Y-73527965D01*
X101467965Y-73779379D01*
X101270429Y-74075012D01*
X101134365Y-74403501D01*
X101065000Y-74752223D01*
X99675000Y-74752223D01*
X99605635Y-74403501D01*
X99469571Y-74075012D01*
X99272035Y-73779379D01*
X99020621Y-73527965D01*
X98724988Y-73330429D01*
X98396499Y-73194365D01*
X98047777Y-73125000D01*
X97692223Y-73125000D01*
X97343501Y-73194365D01*
X97015012Y-73330429D01*
X96719379Y-73527965D01*
X96467965Y-73779379D01*
X96270429Y-74075012D01*
X96134365Y-74403501D01*
X96065000Y-74752223D01*
X85217000Y-74752223D01*
X85217000Y-69708665D01*
X88735000Y-69708665D01*
X88735000Y-69991335D01*
X88790147Y-70268574D01*
X88898320Y-70529727D01*
X89055363Y-70764759D01*
X89255241Y-70964637D01*
X89490273Y-71121680D01*
X89751426Y-71229853D01*
X90028665Y-71285000D01*
X90311335Y-71285000D01*
X90588574Y-71229853D01*
X90849727Y-71121680D01*
X91084759Y-70964637D01*
X91284637Y-70764759D01*
X91441680Y-70529727D01*
X91549853Y-70268574D01*
X91605000Y-69991335D01*
X91605000Y-69752223D01*
X98565000Y-69752223D01*
X98565000Y-70107777D01*
X98634365Y-70456499D01*
X98770429Y-70784988D01*
X98967965Y-71080621D01*
X99219379Y-71332035D01*
X99515012Y-71529571D01*
X99843501Y-71665635D01*
X100192223Y-71735000D01*
X100547777Y-71735000D01*
X100896499Y-71665635D01*
X101224988Y-71529571D01*
X101520621Y-71332035D01*
X101772035Y-71080621D01*
X101969571Y-70784988D01*
X102105635Y-70456499D01*
X102175000Y-70107777D01*
X102175000Y-69752223D01*
X102105635Y-69403501D01*
X101969571Y-69075012D01*
X101772035Y-68779379D01*
X101520621Y-68527965D01*
X101224988Y-68330429D01*
X100896499Y-68194365D01*
X100547777Y-68125000D01*
X100192223Y-68125000D01*
X99843501Y-68194365D01*
X99515012Y-68330429D01*
X99219379Y-68527965D01*
X98967965Y-68779379D01*
X98770429Y-69075012D01*
X98634365Y-69403501D01*
X98565000Y-69752223D01*
X91605000Y-69752223D01*
X91605000Y-69708665D01*
X91549853Y-69431426D01*
X91441680Y-69170273D01*
X91284637Y-68935241D01*
X91084759Y-68735363D01*
X90849727Y-68578320D01*
X90588574Y-68470147D01*
X90311335Y-68415000D01*
X90028665Y-68415000D01*
X89751426Y-68470147D01*
X89490273Y-68578320D01*
X89255241Y-68735363D01*
X89055363Y-68935241D01*
X88898320Y-69170273D01*
X88790147Y-69431426D01*
X88735000Y-69708665D01*
X85217000Y-69708665D01*
X85217000Y-68632606D01*
X86412606Y-67437000D01*
X144727394Y-67437000D01*
X145923000Y-68632606D01*
G37*
X145923000Y-68632606D02*
X145923000Y-120597394D01*
X144727394Y-121793000D01*
X86412606Y-121793000D01*
X85217000Y-120597394D01*
X85217000Y-119010000D01*
X86091928Y-119010000D01*
X86104188Y-119134482D01*
X86140498Y-119254180D01*
X86199463Y-119364494D01*
X86278815Y-119461185D01*
X86375506Y-119540537D01*
X86485820Y-119599502D01*
X86605518Y-119635812D01*
X86730000Y-119648072D01*
X87344250Y-119645000D01*
X87503000Y-119486250D01*
X87503000Y-118237000D01*
X86253750Y-118237000D01*
X86095000Y-118395750D01*
X86091928Y-119010000D01*
X85217000Y-119010000D01*
X85217000Y-117210000D01*
X86091928Y-117210000D01*
X86095000Y-117824250D01*
X86253750Y-117983000D01*
X87503000Y-117983000D01*
X87503000Y-116733750D01*
X87757000Y-116733750D01*
X87757000Y-117983000D01*
X87777000Y-117983000D01*
X87777000Y-118237000D01*
X87757000Y-118237000D01*
X87757000Y-119486250D01*
X87915750Y-119645000D01*
X88530000Y-119648072D01*
X88654482Y-119635812D01*
X88774180Y-119599502D01*
X88884494Y-119540537D01*
X88981185Y-119461185D01*
X89060537Y-119364494D01*
X89119502Y-119254180D01*
X89125056Y-119235873D01*
X89191495Y-119302312D01*
X89442905Y-119470299D01*
X89722257Y-119586011D01*
X90018816Y-119645000D01*
X90321184Y-119645000D01*
X90617743Y-119586011D01*
X90897095Y-119470299D01*
X91148505Y-119302312D01*
X91362312Y-119088505D01*
X91414767Y-119010000D01*
X93711928Y-119010000D01*
X93724188Y-119134482D01*
X93760498Y-119254180D01*
X93819463Y-119364494D01*
X93898815Y-119461185D01*
X93995506Y-119540537D01*
X94105820Y-119599502D01*
X94225518Y-119635812D01*
X94350000Y-119648072D01*
X94964250Y-119645000D01*
X95123000Y-119486250D01*
X95123000Y-118237000D01*
X93873750Y-118237000D01*
X93715000Y-118395750D01*
X93711928Y-119010000D01*
X91414767Y-119010000D01*
X91530299Y-118837095D01*
X91646011Y-118557743D01*
X91705000Y-118261184D01*
X91705000Y-117958816D01*
X91646011Y-117662257D01*
X91530299Y-117382905D01*
X91414768Y-117210000D01*
X93711928Y-117210000D01*
X93715000Y-117824250D01*
X93873750Y-117983000D01*
X95123000Y-117983000D01*
X95123000Y-116733750D01*
X95377000Y-116733750D01*
X95377000Y-117983000D01*
X95397000Y-117983000D01*
X95397000Y-118237000D01*
X95377000Y-118237000D01*
X95377000Y-119486250D01*
X95535750Y-119645000D01*
X96150000Y-119648072D01*
X96274482Y-119635812D01*
X96394180Y-119599502D01*
X96504494Y-119540537D01*
X96601185Y-119461185D01*
X96680537Y-119364494D01*
X96739502Y-119254180D01*
X96745056Y-119235873D01*
X96811495Y-119302312D01*
X97062905Y-119470299D01*
X97342257Y-119586011D01*
X97638816Y-119645000D01*
X97941184Y-119645000D01*
X98237743Y-119586011D01*
X98517095Y-119470299D01*
X98768505Y-119302312D01*
X98982312Y-119088505D01*
X99034767Y-119010000D01*
X101331928Y-119010000D01*
X101344188Y-119134482D01*
X101380498Y-119254180D01*
X101439463Y-119364494D01*
X101518815Y-119461185D01*
X101615506Y-119540537D01*
X101725820Y-119599502D01*
X101845518Y-119635812D01*
X101970000Y-119648072D01*
X102584250Y-119645000D01*
X102743000Y-119486250D01*
X102743000Y-118237000D01*
X101493750Y-118237000D01*
X101335000Y-118395750D01*
X101331928Y-119010000D01*
X99034767Y-119010000D01*
X99150299Y-118837095D01*
X99266011Y-118557743D01*
X99325000Y-118261184D01*
X99325000Y-117958816D01*
X99266011Y-117662257D01*
X99150299Y-117382905D01*
X99034768Y-117210000D01*
X101331928Y-117210000D01*
X101335000Y-117824250D01*
X101493750Y-117983000D01*
X102743000Y-117983000D01*
X102743000Y-116733750D01*
X102997000Y-116733750D01*
X102997000Y-117983000D01*
X103017000Y-117983000D01*
X103017000Y-118237000D01*
X102997000Y-118237000D01*
X102997000Y-119486250D01*
X103155750Y-119645000D01*
X103770000Y-119648072D01*
X103894482Y-119635812D01*
X104014180Y-119599502D01*
X104124494Y-119540537D01*
X104221185Y-119461185D01*
X104300537Y-119364494D01*
X104359502Y-119254180D01*
X104365056Y-119235873D01*
X104431495Y-119302312D01*
X104682905Y-119470299D01*
X104962257Y-119586011D01*
X105258816Y-119645000D01*
X105561184Y-119645000D01*
X105857743Y-119586011D01*
X106137095Y-119470299D01*
X106388505Y-119302312D01*
X106602312Y-119088505D01*
X106654767Y-119010000D01*
X108951928Y-119010000D01*
X108964188Y-119134482D01*
X109000498Y-119254180D01*
X109059463Y-119364494D01*
X109138815Y-119461185D01*
X109235506Y-119540537D01*
X109345820Y-119599502D01*
X109465518Y-119635812D01*
X109590000Y-119648072D01*
X110204250Y-119645000D01*
X110363000Y-119486250D01*
X110363000Y-118237000D01*
X109113750Y-118237000D01*
X108955000Y-118395750D01*
X108951928Y-119010000D01*
X106654767Y-119010000D01*
X106770299Y-118837095D01*
X106886011Y-118557743D01*
X106945000Y-118261184D01*
X106945000Y-117958816D01*
X106886011Y-117662257D01*
X106770299Y-117382905D01*
X106654768Y-117210000D01*
X108951928Y-117210000D01*
X108955000Y-117824250D01*
X109113750Y-117983000D01*
X110363000Y-117983000D01*
X110363000Y-116733750D01*
X110617000Y-116733750D01*
X110617000Y-117983000D01*
X110637000Y-117983000D01*
X110637000Y-118237000D01*
X110617000Y-118237000D01*
X110617000Y-119486250D01*
X110775750Y-119645000D01*
X111390000Y-119648072D01*
X111514482Y-119635812D01*
X111634180Y-119599502D01*
X111744494Y-119540537D01*
X111841185Y-119461185D01*
X111920537Y-119364494D01*
X111979502Y-119254180D01*
X111985056Y-119235873D01*
X112051495Y-119302312D01*
X112302905Y-119470299D01*
X112582257Y-119586011D01*
X112878816Y-119645000D01*
X113181184Y-119645000D01*
X113477743Y-119586011D01*
X113757095Y-119470299D01*
X114008505Y-119302312D01*
X114222312Y-119088505D01*
X114274767Y-119010000D01*
X116571928Y-119010000D01*
X116584188Y-119134482D01*
X116620498Y-119254180D01*
X116679463Y-119364494D01*
X116758815Y-119461185D01*
X116855506Y-119540537D01*
X116965820Y-119599502D01*
X117085518Y-119635812D01*
X117210000Y-119648072D01*
X117824250Y-119645000D01*
X117983000Y-119486250D01*
X117983000Y-118237000D01*
X116733750Y-118237000D01*
X116575000Y-118395750D01*
X116571928Y-119010000D01*
X114274767Y-119010000D01*
X114390299Y-118837095D01*
X114506011Y-118557743D01*
X114565000Y-118261184D01*
X114565000Y-117958816D01*
X114506011Y-117662257D01*
X114390299Y-117382905D01*
X114274768Y-117210000D01*
X116571928Y-117210000D01*
X116575000Y-117824250D01*
X116733750Y-117983000D01*
X117983000Y-117983000D01*
X117983000Y-116733750D01*
X118237000Y-116733750D01*
X118237000Y-117983000D01*
X118257000Y-117983000D01*
X118257000Y-118237000D01*
X118237000Y-118237000D01*
X118237000Y-119486250D01*
X118395750Y-119645000D01*
X119010000Y-119648072D01*
X119134482Y-119635812D01*
X119254180Y-119599502D01*
X119364494Y-119540537D01*
X119461185Y-119461185D01*
X119540537Y-119364494D01*
X119599502Y-119254180D01*
X119605056Y-119235873D01*
X119671495Y-119302312D01*
X119922905Y-119470299D01*
X120202257Y-119586011D01*
X120498816Y-119645000D01*
X120801184Y-119645000D01*
X121097743Y-119586011D01*
X121377095Y-119470299D01*
X121628505Y-119302312D01*
X121842312Y-119088505D01*
X121894767Y-119010000D01*
X124191928Y-119010000D01*
X124204188Y-119134482D01*
X124240498Y-119254180D01*
X124299463Y-119364494D01*
X124378815Y-119461185D01*
X124475506Y-119540537D01*
X124585820Y-119599502D01*
X124705518Y-119635812D01*
X124830000Y-119648072D01*
X125444250Y-119645000D01*
X125603000Y-119486250D01*
X125603000Y-118237000D01*
X124353750Y-118237000D01*
X124195000Y-118395750D01*
X124191928Y-119010000D01*
X121894767Y-119010000D01*
X122010299Y-118837095D01*
X122126011Y-118557743D01*
X122185000Y-118261184D01*
X122185000Y-117958816D01*
X122126011Y-117662257D01*
X122010299Y-117382905D01*
X121894768Y-117210000D01*
X124191928Y-117210000D01*
X124195000Y-117824250D01*
X124353750Y-117983000D01*
X125603000Y-117983000D01*
X125603000Y-116733750D01*
X125857000Y-116733750D01*
X125857000Y-117983000D01*
X125877000Y-117983000D01*
X125877000Y-118237000D01*
X125857000Y-118237000D01*
X125857000Y-119486250D01*
X126015750Y-119645000D01*
X126630000Y-119648072D01*
X126754482Y-119635812D01*
X126874180Y-119599502D01*
X126984494Y-119540537D01*
X127081185Y-119461185D01*
X127160537Y-119364494D01*
X127219502Y-119254180D01*
X127225056Y-119235873D01*
X127291495Y-119302312D01*
X127542905Y-119470299D01*
X127822257Y-119586011D01*
X128118816Y-119645000D01*
X128421184Y-119645000D01*
X128717743Y-119586011D01*
X128997095Y-119470299D01*
X129248505Y-119302312D01*
X129462312Y-119088505D01*
X129514767Y-119010000D01*
X131811928Y-119010000D01*
X131824188Y-119134482D01*
X131860498Y-119254180D01*
X131919463Y-119364494D01*
X131998815Y-119461185D01*
X132095506Y-119540537D01*
X132205820Y-119599502D01*
X132325518Y-119635812D01*
X132450000Y-119648072D01*
X133064250Y-119645000D01*
X133223000Y-119486250D01*
X133223000Y-118237000D01*
X131973750Y-118237000D01*
X131815000Y-118395750D01*
X131811928Y-119010000D01*
X129514767Y-119010000D01*
X129630299Y-118837095D01*
X129746011Y-118557743D01*
X129805000Y-118261184D01*
X129805000Y-117958816D01*
X129746011Y-117662257D01*
X129630299Y-117382905D01*
X129514768Y-117210000D01*
X131811928Y-117210000D01*
X131815000Y-117824250D01*
X131973750Y-117983000D01*
X133223000Y-117983000D01*
X133223000Y-116733750D01*
X133477000Y-116733750D01*
X133477000Y-117983000D01*
X133497000Y-117983000D01*
X133497000Y-118237000D01*
X133477000Y-118237000D01*
X133477000Y-119486250D01*
X133635750Y-119645000D01*
X134250000Y-119648072D01*
X134374482Y-119635812D01*
X134494180Y-119599502D01*
X134604494Y-119540537D01*
X134701185Y-119461185D01*
X134780537Y-119364494D01*
X134839502Y-119254180D01*
X134845056Y-119235873D01*
X134911495Y-119302312D01*
X135162905Y-119470299D01*
X135442257Y-119586011D01*
X135738816Y-119645000D01*
X136041184Y-119645000D01*
X136337743Y-119586011D01*
X136617095Y-119470299D01*
X136868505Y-119302312D01*
X137082312Y-119088505D01*
X137134767Y-119010000D01*
X139431928Y-119010000D01*
X139444188Y-119134482D01*
X139480498Y-119254180D01*
X139539463Y-119364494D01*
X139618815Y-119461185D01*
X139715506Y-119540537D01*
X139825820Y-119599502D01*
X139945518Y-119635812D01*
X140070000Y-119648072D01*
X140684250Y-119645000D01*
X140843000Y-119486250D01*
X140843000Y-118237000D01*
X139593750Y-118237000D01*
X139435000Y-118395750D01*
X139431928Y-119010000D01*
X137134767Y-119010000D01*
X137250299Y-118837095D01*
X137366011Y-118557743D01*
X137425000Y-118261184D01*
X137425000Y-117958816D01*
X137366011Y-117662257D01*
X137250299Y-117382905D01*
X137134768Y-117210000D01*
X139431928Y-117210000D01*
X139435000Y-117824250D01*
X139593750Y-117983000D01*
X140843000Y-117983000D01*
X140843000Y-116733750D01*
X141097000Y-116733750D01*
X141097000Y-117983000D01*
X141117000Y-117983000D01*
X141117000Y-118237000D01*
X141097000Y-118237000D01*
X141097000Y-119486250D01*
X141255750Y-119645000D01*
X141870000Y-119648072D01*
X141994482Y-119635812D01*
X142114180Y-119599502D01*
X142224494Y-119540537D01*
X142321185Y-119461185D01*
X142400537Y-119364494D01*
X142459502Y-119254180D01*
X142465056Y-119235873D01*
X142531495Y-119302312D01*
X142782905Y-119470299D01*
X143062257Y-119586011D01*
X143358816Y-119645000D01*
X143661184Y-119645000D01*
X143957743Y-119586011D01*
X144237095Y-119470299D01*
X144488505Y-119302312D01*
X144702312Y-119088505D01*
X144870299Y-118837095D01*
X144986011Y-118557743D01*
X145045000Y-118261184D01*
X145045000Y-117958816D01*
X144986011Y-117662257D01*
X144870299Y-117382905D01*
X144702312Y-117131495D01*
X144488505Y-116917688D01*
X144237095Y-116749701D01*
X143957743Y-116633989D01*
X143661184Y-116575000D01*
X143358816Y-116575000D01*
X143062257Y-116633989D01*
X142782905Y-116749701D01*
X142531495Y-116917688D01*
X142465056Y-116984127D01*
X142459502Y-116965820D01*
X142400537Y-116855506D01*
X142321185Y-116758815D01*
X142224494Y-116679463D01*
X142114180Y-116620498D01*
X141994482Y-116584188D01*
X141870000Y-116571928D01*
X141255750Y-116575000D01*
X141097000Y-116733750D01*
X140843000Y-116733750D01*
X140684250Y-116575000D01*
X140070000Y-116571928D01*
X139945518Y-116584188D01*
X139825820Y-116620498D01*
X139715506Y-116679463D01*
X139618815Y-116758815D01*
X139539463Y-116855506D01*
X139480498Y-116965820D01*
X139444188Y-117085518D01*
X139431928Y-117210000D01*
X137134768Y-117210000D01*
X137082312Y-117131495D01*
X136868505Y-116917688D01*
X136617095Y-116749701D01*
X136337743Y-116633989D01*
X136041184Y-116575000D01*
X135738816Y-116575000D01*
X135442257Y-116633989D01*
X135162905Y-116749701D01*
X134911495Y-116917688D01*
X134845056Y-116984127D01*
X134839502Y-116965820D01*
X134780537Y-116855506D01*
X134701185Y-116758815D01*
X134604494Y-116679463D01*
X134494180Y-116620498D01*
X134374482Y-116584188D01*
X134250000Y-116571928D01*
X133635750Y-116575000D01*
X133477000Y-116733750D01*
X133223000Y-116733750D01*
X133064250Y-116575000D01*
X132450000Y-116571928D01*
X132325518Y-116584188D01*
X132205820Y-116620498D01*
X132095506Y-116679463D01*
X131998815Y-116758815D01*
X131919463Y-116855506D01*
X131860498Y-116965820D01*
X131824188Y-117085518D01*
X131811928Y-117210000D01*
X129514768Y-117210000D01*
X129462312Y-117131495D01*
X129248505Y-116917688D01*
X128997095Y-116749701D01*
X128717743Y-116633989D01*
X128421184Y-116575000D01*
X128118816Y-116575000D01*
X127822257Y-116633989D01*
X127542905Y-116749701D01*
X127291495Y-116917688D01*
X127225056Y-116984127D01*
X127219502Y-116965820D01*
X127160537Y-116855506D01*
X127081185Y-116758815D01*
X126984494Y-116679463D01*
X126874180Y-116620498D01*
X126754482Y-116584188D01*
X126630000Y-116571928D01*
X126015750Y-116575000D01*
X125857000Y-116733750D01*
X125603000Y-116733750D01*
X125444250Y-116575000D01*
X124830000Y-116571928D01*
X124705518Y-116584188D01*
X124585820Y-116620498D01*
X124475506Y-116679463D01*
X124378815Y-116758815D01*
X124299463Y-116855506D01*
X124240498Y-116965820D01*
X124204188Y-117085518D01*
X124191928Y-117210000D01*
X121894768Y-117210000D01*
X121842312Y-117131495D01*
X121628505Y-116917688D01*
X121377095Y-116749701D01*
X121097743Y-116633989D01*
X120801184Y-116575000D01*
X120498816Y-116575000D01*
X120202257Y-116633989D01*
X119922905Y-116749701D01*
X119671495Y-116917688D01*
X119605056Y-116984127D01*
X119599502Y-116965820D01*
X119540537Y-116855506D01*
X119461185Y-116758815D01*
X119364494Y-116679463D01*
X119254180Y-116620498D01*
X119134482Y-116584188D01*
X119010000Y-116571928D01*
X118395750Y-116575000D01*
X118237000Y-116733750D01*
X117983000Y-116733750D01*
X117824250Y-116575000D01*
X117210000Y-116571928D01*
X117085518Y-116584188D01*
X116965820Y-116620498D01*
X116855506Y-116679463D01*
X116758815Y-116758815D01*
X116679463Y-116855506D01*
X116620498Y-116965820D01*
X116584188Y-117085518D01*
X116571928Y-117210000D01*
X114274768Y-117210000D01*
X114222312Y-117131495D01*
X114008505Y-116917688D01*
X113757095Y-116749701D01*
X113477743Y-116633989D01*
X113181184Y-116575000D01*
X112878816Y-116575000D01*
X112582257Y-116633989D01*
X112302905Y-116749701D01*
X112051495Y-116917688D01*
X111985056Y-116984127D01*
X111979502Y-116965820D01*
X111920537Y-116855506D01*
X111841185Y-116758815D01*
X111744494Y-116679463D01*
X111634180Y-116620498D01*
X111514482Y-116584188D01*
X111390000Y-116571928D01*
X110775750Y-116575000D01*
X110617000Y-116733750D01*
X110363000Y-116733750D01*
X110204250Y-116575000D01*
X109590000Y-116571928D01*
X109465518Y-116584188D01*
X109345820Y-116620498D01*
X109235506Y-116679463D01*
X109138815Y-116758815D01*
X109059463Y-116855506D01*
X109000498Y-116965820D01*
X108964188Y-117085518D01*
X108951928Y-117210000D01*
X106654768Y-117210000D01*
X106602312Y-117131495D01*
X106388505Y-116917688D01*
X106137095Y-116749701D01*
X105857743Y-116633989D01*
X105561184Y-116575000D01*
X105258816Y-116575000D01*
X104962257Y-116633989D01*
X104682905Y-116749701D01*
X104431495Y-116917688D01*
X104365056Y-116984127D01*
X104359502Y-116965820D01*
X104300537Y-116855506D01*
X104221185Y-116758815D01*
X104124494Y-116679463D01*
X104014180Y-116620498D01*
X103894482Y-116584188D01*
X103770000Y-116571928D01*
X103155750Y-116575000D01*
X102997000Y-116733750D01*
X102743000Y-116733750D01*
X102584250Y-116575000D01*
X101970000Y-116571928D01*
X101845518Y-116584188D01*
X101725820Y-116620498D01*
X101615506Y-116679463D01*
X101518815Y-116758815D01*
X101439463Y-116855506D01*
X101380498Y-116965820D01*
X101344188Y-117085518D01*
X101331928Y-117210000D01*
X99034768Y-117210000D01*
X98982312Y-117131495D01*
X98768505Y-116917688D01*
X98517095Y-116749701D01*
X98237743Y-116633989D01*
X97941184Y-116575000D01*
X97638816Y-116575000D01*
X97342257Y-116633989D01*
X97062905Y-116749701D01*
X96811495Y-116917688D01*
X96745056Y-116984127D01*
X96739502Y-116965820D01*
X96680537Y-116855506D01*
X96601185Y-116758815D01*
X96504494Y-116679463D01*
X96394180Y-116620498D01*
X96274482Y-116584188D01*
X96150000Y-116571928D01*
X95535750Y-116575000D01*
X95377000Y-116733750D01*
X95123000Y-116733750D01*
X94964250Y-116575000D01*
X94350000Y-116571928D01*
X94225518Y-116584188D01*
X94105820Y-116620498D01*
X93995506Y-116679463D01*
X93898815Y-116758815D01*
X93819463Y-116855506D01*
X93760498Y-116965820D01*
X93724188Y-117085518D01*
X93711928Y-117210000D01*
X91414768Y-117210000D01*
X91362312Y-117131495D01*
X91148505Y-116917688D01*
X90897095Y-116749701D01*
X90617743Y-116633989D01*
X90321184Y-116575000D01*
X90018816Y-116575000D01*
X89722257Y-116633989D01*
X89442905Y-116749701D01*
X89191495Y-116917688D01*
X89125056Y-116984127D01*
X89119502Y-116965820D01*
X89060537Y-116855506D01*
X88981185Y-116758815D01*
X88884494Y-116679463D01*
X88774180Y-116620498D01*
X88654482Y-116584188D01*
X88530000Y-116571928D01*
X87915750Y-116575000D01*
X87757000Y-116733750D01*
X87503000Y-116733750D01*
X87344250Y-116575000D01*
X86730000Y-116571928D01*
X86605518Y-116584188D01*
X86485820Y-116620498D01*
X86375506Y-116679463D01*
X86278815Y-116758815D01*
X86199463Y-116855506D01*
X86140498Y-116965820D01*
X86104188Y-117085518D01*
X86091928Y-117210000D01*
X85217000Y-117210000D01*
X85217000Y-103669508D01*
X88735000Y-103669508D01*
X88735000Y-104610491D01*
X88755764Y-104821308D01*
X88837818Y-105091807D01*
X88971068Y-105341100D01*
X89150392Y-105559607D01*
X89368899Y-105738932D01*
X89618192Y-105872182D01*
X89888691Y-105954236D01*
X90170000Y-105981943D01*
X90451308Y-105954236D01*
X90721807Y-105872182D01*
X90971100Y-105738932D01*
X91189607Y-105559608D01*
X91368932Y-105341101D01*
X91440000Y-105208142D01*
X91511068Y-105341100D01*
X91690392Y-105559607D01*
X91908899Y-105738932D01*
X91971060Y-105772158D01*
X92001401Y-105872182D01*
X92004454Y-105882246D01*
X92075026Y-106014276D01*
X92100262Y-106045026D01*
X92169999Y-106130001D01*
X92199002Y-106153804D01*
X93236201Y-107191003D01*
X93259999Y-107220001D01*
X93375724Y-107314974D01*
X93507753Y-107385546D01*
X93651014Y-107429003D01*
X93762667Y-107440000D01*
X93762675Y-107440000D01*
X93800000Y-107443676D01*
X93837325Y-107440000D01*
X137302678Y-107440000D01*
X137340000Y-107443676D01*
X137377322Y-107440000D01*
X137377333Y-107440000D01*
X137488986Y-107429003D01*
X137632247Y-107385546D01*
X137764276Y-107314974D01*
X137880001Y-107220001D01*
X137903804Y-107190998D01*
X138941003Y-106153799D01*
X138970001Y-106130001D01*
X139064974Y-106014276D01*
X139135546Y-105882247D01*
X139168941Y-105772157D01*
X139231100Y-105738932D01*
X139449607Y-105559608D01*
X139628932Y-105341101D01*
X139700000Y-105208142D01*
X139771068Y-105341100D01*
X139950392Y-105559607D01*
X140168899Y-105738932D01*
X140418192Y-105872182D01*
X140688691Y-105954236D01*
X140970000Y-105981943D01*
X141251308Y-105954236D01*
X141521807Y-105872182D01*
X141771100Y-105738932D01*
X141989607Y-105559608D01*
X142168932Y-105341101D01*
X142302182Y-105091808D01*
X142384236Y-104821309D01*
X142405000Y-104610492D01*
X142405000Y-103669509D01*
X142384236Y-103458691D01*
X142302182Y-103188192D01*
X142168932Y-102938899D01*
X141989608Y-102720392D01*
X141771101Y-102541068D01*
X141521808Y-102407818D01*
X141251309Y-102325764D01*
X140970000Y-102298057D01*
X140688692Y-102325764D01*
X140418193Y-102407818D01*
X140168900Y-102541068D01*
X139950393Y-102720392D01*
X139771068Y-102938899D01*
X139700000Y-103071858D01*
X139628932Y-102938899D01*
X139449608Y-102720392D01*
X139231101Y-102541068D01*
X138981808Y-102407818D01*
X138711309Y-102325764D01*
X138430000Y-102298057D01*
X138148692Y-102325764D01*
X137878193Y-102407818D01*
X137628900Y-102541068D01*
X137410393Y-102720392D01*
X137231068Y-102938899D01*
X137160000Y-103071858D01*
X137088932Y-102938899D01*
X136909608Y-102720392D01*
X136691101Y-102541068D01*
X136441808Y-102407818D01*
X136171309Y-102325764D01*
X135890000Y-102298057D01*
X135608692Y-102325764D01*
X135338193Y-102407818D01*
X135088900Y-102541068D01*
X134870393Y-102720392D01*
X134691068Y-102938899D01*
X134620000Y-103071858D01*
X134548932Y-102938899D01*
X134369608Y-102720392D01*
X134151101Y-102541068D01*
X133901808Y-102407818D01*
X133631309Y-102325764D01*
X133350000Y-102298057D01*
X133068692Y-102325764D01*
X132798193Y-102407818D01*
X132548900Y-102541068D01*
X132330393Y-102720392D01*
X132151068Y-102938899D01*
X132080000Y-103071858D01*
X132008932Y-102938899D01*
X131829608Y-102720392D01*
X131611101Y-102541068D01*
X131361808Y-102407818D01*
X131091309Y-102325764D01*
X130810000Y-102298057D01*
X130528692Y-102325764D01*
X130258193Y-102407818D01*
X130008900Y-102541068D01*
X129790393Y-102720392D01*
X129611068Y-102938899D01*
X129540000Y-103071858D01*
X129468932Y-102938899D01*
X129289608Y-102720392D01*
X129071101Y-102541068D01*
X128821808Y-102407818D01*
X128551309Y-102325764D01*
X128270000Y-102298057D01*
X127988692Y-102325764D01*
X127718193Y-102407818D01*
X127468900Y-102541068D01*
X127250393Y-102720392D01*
X127071068Y-102938899D01*
X127000000Y-103071858D01*
X126928932Y-102938899D01*
X126749608Y-102720392D01*
X126531101Y-102541068D01*
X126281808Y-102407818D01*
X126011309Y-102325764D01*
X125730000Y-102298057D01*
X125448692Y-102325764D01*
X125178193Y-102407818D01*
X124928900Y-102541068D01*
X124710393Y-102720392D01*
X124531068Y-102938899D01*
X124460000Y-103071858D01*
X124388932Y-102938899D01*
X124209608Y-102720392D01*
X123991101Y-102541068D01*
X123741808Y-102407818D01*
X123471309Y-102325764D01*
X123190000Y-102298057D01*
X122908692Y-102325764D01*
X122638193Y-102407818D01*
X122388900Y-102541068D01*
X122170393Y-102720392D01*
X121991068Y-102938899D01*
X121857818Y-103188192D01*
X121775764Y-103458691D01*
X121755000Y-103669508D01*
X121755000Y-104610491D01*
X121775764Y-104821308D01*
X121857818Y-105091807D01*
X121991068Y-105341100D01*
X122170392Y-105559607D01*
X122388899Y-105738932D01*
X122638192Y-105872182D01*
X122795829Y-105920000D01*
X108344170Y-105920000D01*
X108501807Y-105872182D01*
X108751100Y-105738932D01*
X108969607Y-105559608D01*
X109148932Y-105341101D01*
X109282182Y-105091808D01*
X109364236Y-104821309D01*
X109385000Y-104610492D01*
X109385000Y-103669509D01*
X109364236Y-103458691D01*
X109282182Y-103188192D01*
X109148932Y-102938899D01*
X108969608Y-102720392D01*
X108751101Y-102541068D01*
X108501808Y-102407818D01*
X108231309Y-102325764D01*
X107950000Y-102298057D01*
X107668692Y-102325764D01*
X107398193Y-102407818D01*
X107148900Y-102541068D01*
X106930393Y-102720392D01*
X106751068Y-102938899D01*
X106680000Y-103071858D01*
X106608932Y-102938899D01*
X106429608Y-102720392D01*
X106211101Y-102541068D01*
X105961808Y-102407818D01*
X105691309Y-102325764D01*
X105410000Y-102298057D01*
X105128692Y-102325764D01*
X104858193Y-102407818D01*
X104608900Y-102541068D01*
X104390393Y-102720392D01*
X104211068Y-102938899D01*
X104140000Y-103071858D01*
X104068932Y-102938899D01*
X103889608Y-102720392D01*
X103671101Y-102541068D01*
X103421808Y-102407818D01*
X103151309Y-102325764D01*
X102870000Y-102298057D01*
X102588692Y-102325764D01*
X102318193Y-102407818D01*
X102068900Y-102541068D01*
X101850393Y-102720392D01*
X101671068Y-102938899D01*
X101600000Y-103071858D01*
X101528932Y-102938899D01*
X101349608Y-102720392D01*
X101131101Y-102541068D01*
X100881808Y-102407818D01*
X100611309Y-102325764D01*
X100330000Y-102298057D01*
X100048692Y-102325764D01*
X99778193Y-102407818D01*
X99528900Y-102541068D01*
X99310393Y-102720392D01*
X99131068Y-102938899D01*
X99060000Y-103071858D01*
X98988932Y-102938899D01*
X98809608Y-102720392D01*
X98591101Y-102541068D01*
X98341808Y-102407818D01*
X98071309Y-102325764D01*
X97790000Y-102298057D01*
X97508692Y-102325764D01*
X97238193Y-102407818D01*
X96988900Y-102541068D01*
X96770393Y-102720392D01*
X96591068Y-102938899D01*
X96520000Y-103071858D01*
X96448932Y-102938899D01*
X96269608Y-102720392D01*
X96051101Y-102541068D01*
X95801808Y-102407818D01*
X95531309Y-102325764D01*
X95250000Y-102298057D01*
X94968692Y-102325764D01*
X94698193Y-102407818D01*
X94448900Y-102541068D01*
X94230393Y-102720392D01*
X94051068Y-102938899D01*
X93980000Y-103071858D01*
X93908932Y-102938899D01*
X93729608Y-102720392D01*
X93511101Y-102541068D01*
X93261808Y-102407818D01*
X92991309Y-102325764D01*
X92710000Y-102298057D01*
X92428692Y-102325764D01*
X92158193Y-102407818D01*
X91908900Y-102541068D01*
X91690393Y-102720392D01*
X91511068Y-102938899D01*
X91440000Y-103071858D01*
X91368932Y-102938899D01*
X91189608Y-102720392D01*
X90971101Y-102541068D01*
X90721808Y-102407818D01*
X90451309Y-102325764D01*
X90170000Y-102298057D01*
X89888692Y-102325764D01*
X89618193Y-102407818D01*
X89368900Y-102541068D01*
X89150393Y-102720392D01*
X88971068Y-102938899D01*
X88837818Y-103188192D01*
X88755764Y-103458691D01*
X88735000Y-103669508D01*
X85217000Y-103669508D01*
X85217000Y-101322702D01*
X112296903Y-101322702D01*
X112368486Y-101566671D01*
X112623996Y-101687571D01*
X112898184Y-101756300D01*
X113180512Y-101770217D01*
X113460130Y-101728787D01*
X113726292Y-101633603D01*
X113851514Y-101566671D01*
X113923097Y-101322702D01*
X113110000Y-100509605D01*
X112296903Y-101322702D01*
X85217000Y-101322702D01*
X85217000Y-100400512D01*
X111669783Y-100400512D01*
X111711213Y-100680130D01*
X111806397Y-100946292D01*
X111873329Y-101071514D01*
X112117298Y-101143097D01*
X112930395Y-100330000D01*
X113289605Y-100330000D01*
X114102702Y-101143097D01*
X114346671Y-101071514D01*
X114467571Y-100816004D01*
X114536300Y-100541816D01*
X114550217Y-100259488D01*
X114539724Y-100188665D01*
X116675000Y-100188665D01*
X116675000Y-100471335D01*
X116730147Y-100748574D01*
X116838320Y-101009727D01*
X116995363Y-101244759D01*
X117195241Y-101444637D01*
X117430273Y-101601680D01*
X117691426Y-101709853D01*
X117968665Y-101765000D01*
X118251335Y-101765000D01*
X118528574Y-101709853D01*
X118789727Y-101601680D01*
X119024759Y-101444637D01*
X119224637Y-101244759D01*
X119381680Y-101009727D01*
X119489853Y-100748574D01*
X119545000Y-100471335D01*
X119545000Y-100188665D01*
X119489853Y-99911426D01*
X119381680Y-99650273D01*
X119224637Y-99415241D01*
X119024759Y-99215363D01*
X118789727Y-99058320D01*
X118528574Y-98950147D01*
X118251335Y-98895000D01*
X117968665Y-98895000D01*
X117691426Y-98950147D01*
X117430273Y-99058320D01*
X117195241Y-99215363D01*
X116995363Y-99415241D01*
X116838320Y-99650273D01*
X116730147Y-99911426D01*
X116675000Y-100188665D01*
X114539724Y-100188665D01*
X114508787Y-99979870D01*
X114413603Y-99713708D01*
X114346671Y-99588486D01*
X114102702Y-99516903D01*
X113289605Y-100330000D01*
X112930395Y-100330000D01*
X112117298Y-99516903D01*
X111873329Y-99588486D01*
X111752429Y-99843996D01*
X111683700Y-100118184D01*
X111669783Y-100400512D01*
X85217000Y-100400512D01*
X85217000Y-99337298D01*
X112296903Y-99337298D01*
X113110000Y-100150395D01*
X113923097Y-99337298D01*
X113851514Y-99093329D01*
X113596004Y-98972429D01*
X113321816Y-98903700D01*
X113039488Y-98889783D01*
X112759870Y-98931213D01*
X112493708Y-99026397D01*
X112368486Y-99093329D01*
X112296903Y-99337298D01*
X85217000Y-99337298D01*
X85217000Y-96647000D01*
X88735000Y-96647000D01*
X88735000Y-97047000D01*
X88787350Y-97324514D01*
X88892834Y-97586483D01*
X89047399Y-97822839D01*
X89245105Y-98024500D01*
X89478354Y-98183715D01*
X89738182Y-98294367D01*
X89820961Y-98311904D01*
X90043000Y-98189915D01*
X90043000Y-96647000D01*
X88735000Y-96647000D01*
X85217000Y-96647000D01*
X85217000Y-95993000D01*
X88735000Y-95993000D01*
X88735000Y-96393000D01*
X90043000Y-96393000D01*
X90043000Y-94850085D01*
X90297000Y-94850085D01*
X90297000Y-96393000D01*
X90317000Y-96393000D01*
X90317000Y-96647000D01*
X90297000Y-96647000D01*
X90297000Y-98189915D01*
X90519039Y-98311904D01*
X90601818Y-98294367D01*
X90861646Y-98183715D01*
X91094895Y-98024500D01*
X91292601Y-97822839D01*
X91442735Y-97593258D01*
X91511068Y-97721100D01*
X91690392Y-97939607D01*
X91908899Y-98118932D01*
X92158192Y-98252182D01*
X92428691Y-98334236D01*
X92710000Y-98361943D01*
X92991308Y-98334236D01*
X93261807Y-98252182D01*
X93511100Y-98118932D01*
X93729607Y-97939608D01*
X93908932Y-97721101D01*
X93980000Y-97588142D01*
X94051068Y-97721100D01*
X94230392Y-97939607D01*
X94448899Y-98118932D01*
X94698192Y-98252182D01*
X94968691Y-98334236D01*
X95250000Y-98361943D01*
X95531308Y-98334236D01*
X95801807Y-98252182D01*
X96051100Y-98118932D01*
X96269607Y-97939608D01*
X96448932Y-97721101D01*
X96520000Y-97588142D01*
X96591068Y-97721100D01*
X96770392Y-97939607D01*
X96988899Y-98118932D01*
X97238192Y-98252182D01*
X97508691Y-98334236D01*
X97790000Y-98361943D01*
X98071308Y-98334236D01*
X98341807Y-98252182D01*
X98591100Y-98118932D01*
X98809607Y-97939608D01*
X98988932Y-97721101D01*
X99060000Y-97588142D01*
X99131068Y-97721100D01*
X99310392Y-97939607D01*
X99528899Y-98118932D01*
X99778192Y-98252182D01*
X100048691Y-98334236D01*
X100330000Y-98361943D01*
X100611308Y-98334236D01*
X100881807Y-98252182D01*
X101131100Y-98118932D01*
X101349607Y-97939608D01*
X101528932Y-97721101D01*
X101600000Y-97588142D01*
X101671068Y-97721100D01*
X101850392Y-97939607D01*
X102068899Y-98118932D01*
X102318192Y-98252182D01*
X102588691Y-98334236D01*
X102870000Y-98361943D01*
X103151308Y-98334236D01*
X103421807Y-98252182D01*
X103671100Y-98118932D01*
X103889607Y-97939608D01*
X104068932Y-97721101D01*
X104140000Y-97588142D01*
X104211068Y-97721100D01*
X104390392Y-97939607D01*
X104608899Y-98118932D01*
X104858192Y-98252182D01*
X105128691Y-98334236D01*
X105410000Y-98361943D01*
X105691308Y-98334236D01*
X105961807Y-98252182D01*
X106211100Y-98118932D01*
X106429607Y-97939608D01*
X106522419Y-97826517D01*
X106524188Y-97844482D01*
X106560498Y-97964180D01*
X106619463Y-98074494D01*
X106698815Y-98171185D01*
X106795506Y-98250537D01*
X106905820Y-98309502D01*
X107025518Y-98345812D01*
X107150000Y-98358072D01*
X108750000Y-98358072D01*
X108874482Y-98345812D01*
X108994180Y-98309502D01*
X109104494Y-98250537D01*
X109201185Y-98171185D01*
X109280537Y-98074494D01*
X109339502Y-97964180D01*
X109375812Y-97844482D01*
X109388072Y-97720000D01*
X109388072Y-96647000D01*
X121755000Y-96647000D01*
X121755000Y-97047000D01*
X121807350Y-97324514D01*
X121912834Y-97586483D01*
X122067399Y-97822839D01*
X122265105Y-98024500D01*
X122498354Y-98183715D01*
X122758182Y-98294367D01*
X122840961Y-98311904D01*
X123063000Y-98189915D01*
X123063000Y-96647000D01*
X121755000Y-96647000D01*
X109388072Y-96647000D01*
X109388072Y-95993000D01*
X121755000Y-95993000D01*
X121755000Y-96393000D01*
X123063000Y-96393000D01*
X123063000Y-94850085D01*
X123317000Y-94850085D01*
X123317000Y-96393000D01*
X123337000Y-96393000D01*
X123337000Y-96647000D01*
X123317000Y-96647000D01*
X123317000Y-98189915D01*
X123539039Y-98311904D01*
X123621818Y-98294367D01*
X123881646Y-98183715D01*
X124114895Y-98024500D01*
X124312601Y-97822839D01*
X124462735Y-97593258D01*
X124531068Y-97721100D01*
X124710392Y-97939607D01*
X124928899Y-98118932D01*
X125178192Y-98252182D01*
X125448691Y-98334236D01*
X125730000Y-98361943D01*
X126011308Y-98334236D01*
X126281807Y-98252182D01*
X126531100Y-98118932D01*
X126749607Y-97939608D01*
X126928932Y-97721101D01*
X127000000Y-97588142D01*
X127071068Y-97721100D01*
X127250392Y-97939607D01*
X127468899Y-98118932D01*
X127718192Y-98252182D01*
X127988691Y-98334236D01*
X128270000Y-98361943D01*
X128551308Y-98334236D01*
X128821807Y-98252182D01*
X129071100Y-98118932D01*
X129289607Y-97939608D01*
X129468932Y-97721101D01*
X129540000Y-97588142D01*
X129611068Y-97721100D01*
X129790392Y-97939607D01*
X130008899Y-98118932D01*
X130258192Y-98252182D01*
X130528691Y-98334236D01*
X130810000Y-98361943D01*
X131091308Y-98334236D01*
X131361807Y-98252182D01*
X131611100Y-98118932D01*
X131829607Y-97939608D01*
X132008932Y-97721101D01*
X132080000Y-97588142D01*
X132151068Y-97721100D01*
X132330392Y-97939607D01*
X132548899Y-98118932D01*
X132798192Y-98252182D01*
X133068691Y-98334236D01*
X133350000Y-98361943D01*
X133631308Y-98334236D01*
X133901807Y-98252182D01*
X134151100Y-98118932D01*
X134369607Y-97939608D01*
X134548932Y-97721101D01*
X134620000Y-97588142D01*
X134691068Y-97721100D01*
X134870392Y-97939607D01*
X135088899Y-98118932D01*
X135338192Y-98252182D01*
X135608691Y-98334236D01*
X135890000Y-98361943D01*
X136171308Y-98334236D01*
X136441807Y-98252182D01*
X136691100Y-98118932D01*
X136909607Y-97939608D01*
X137088932Y-97721101D01*
X137160000Y-97588142D01*
X137231068Y-97721100D01*
X137410392Y-97939607D01*
X137628899Y-98118932D01*
X137878192Y-98252182D01*
X138148691Y-98334236D01*
X138430000Y-98361943D01*
X138711308Y-98334236D01*
X138981807Y-98252182D01*
X139231100Y-98118932D01*
X139449607Y-97939608D01*
X139542419Y-97826517D01*
X139544188Y-97844482D01*
X139580498Y-97964180D01*
X139639463Y-98074494D01*
X139718815Y-98171185D01*
X139815506Y-98250537D01*
X139925820Y-98309502D01*
X140045518Y-98345812D01*
X140170000Y-98358072D01*
X141770000Y-98358072D01*
X141894482Y-98345812D01*
X142014180Y-98309502D01*
X142124494Y-98250537D01*
X142221185Y-98171185D01*
X142300537Y-98074494D01*
X142359502Y-97964180D01*
X142395812Y-97844482D01*
X142408072Y-97720000D01*
X142408072Y-95320000D01*
X142395812Y-95195518D01*
X142359502Y-95075820D01*
X142300537Y-94965506D01*
X142221185Y-94868815D01*
X142124494Y-94789463D01*
X142014180Y-94730498D01*
X141894482Y-94694188D01*
X141770000Y-94681928D01*
X140170000Y-94681928D01*
X140045518Y-94694188D01*
X139925820Y-94730498D01*
X139815506Y-94789463D01*
X139718815Y-94868815D01*
X139639463Y-94965506D01*
X139580498Y-95075820D01*
X139544188Y-95195518D01*
X139542419Y-95213482D01*
X139449608Y-95100392D01*
X139231101Y-94921068D01*
X138981808Y-94787818D01*
X138711309Y-94705764D01*
X138430000Y-94678057D01*
X138148692Y-94705764D01*
X137878193Y-94787818D01*
X137628900Y-94921068D01*
X137410393Y-95100392D01*
X137231068Y-95318899D01*
X137160000Y-95451858D01*
X137088932Y-95318899D01*
X136909608Y-95100392D01*
X136691101Y-94921068D01*
X136441808Y-94787818D01*
X136171309Y-94705764D01*
X135890000Y-94678057D01*
X135608692Y-94705764D01*
X135338193Y-94787818D01*
X135088900Y-94921068D01*
X134870393Y-95100392D01*
X134691068Y-95318899D01*
X134620000Y-95451858D01*
X134548932Y-95318899D01*
X134369608Y-95100392D01*
X134151101Y-94921068D01*
X133901808Y-94787818D01*
X133631309Y-94705764D01*
X133350000Y-94678057D01*
X133068692Y-94705764D01*
X132798193Y-94787818D01*
X132548900Y-94921068D01*
X132330393Y-95100392D01*
X132151068Y-95318899D01*
X132080000Y-95451858D01*
X132008932Y-95318899D01*
X131829608Y-95100392D01*
X131611101Y-94921068D01*
X131361808Y-94787818D01*
X131091309Y-94705764D01*
X130810000Y-94678057D01*
X130528692Y-94705764D01*
X130258193Y-94787818D01*
X130008900Y-94921068D01*
X129790393Y-95100392D01*
X129611068Y-95318899D01*
X129540000Y-95451858D01*
X129468932Y-95318899D01*
X129289608Y-95100392D01*
X129071101Y-94921068D01*
X128821808Y-94787818D01*
X128551309Y-94705764D01*
X128270000Y-94678057D01*
X127988692Y-94705764D01*
X127718193Y-94787818D01*
X127468900Y-94921068D01*
X127250393Y-95100392D01*
X127071068Y-95318899D01*
X127000000Y-95451858D01*
X126928932Y-95318899D01*
X126749608Y-95100392D01*
X126531101Y-94921068D01*
X126281808Y-94787818D01*
X126011309Y-94705764D01*
X125730000Y-94678057D01*
X125448692Y-94705764D01*
X125178193Y-94787818D01*
X124928900Y-94921068D01*
X124710393Y-95100392D01*
X124531068Y-95318899D01*
X124462735Y-95446741D01*
X124312601Y-95217161D01*
X124114895Y-95015500D01*
X123881646Y-94856285D01*
X123621818Y-94745633D01*
X123539039Y-94728096D01*
X123317000Y-94850085D01*
X123063000Y-94850085D01*
X122840961Y-94728096D01*
X122758182Y-94745633D01*
X122498354Y-94856285D01*
X122265105Y-95015500D01*
X122067399Y-95217161D01*
X121912834Y-95453517D01*
X121807350Y-95715486D01*
X121755000Y-95993000D01*
X109388072Y-95993000D01*
X109388072Y-95320000D01*
X109375812Y-95195518D01*
X109339502Y-95075820D01*
X109280537Y-94965506D01*
X109201185Y-94868815D01*
X109104494Y-94789463D01*
X108994180Y-94730498D01*
X108874482Y-94694188D01*
X108750000Y-94681928D01*
X107150000Y-94681928D01*
X107025518Y-94694188D01*
X106905820Y-94730498D01*
X106795506Y-94789463D01*
X106698815Y-94868815D01*
X106619463Y-94965506D01*
X106560498Y-95075820D01*
X106524188Y-95195518D01*
X106522419Y-95213482D01*
X106429608Y-95100392D01*
X106211101Y-94921068D01*
X105961808Y-94787818D01*
X105691309Y-94705764D01*
X105410000Y-94678057D01*
X105128692Y-94705764D01*
X104858193Y-94787818D01*
X104608900Y-94921068D01*
X104390393Y-95100392D01*
X104211068Y-95318899D01*
X104140000Y-95451858D01*
X104068932Y-95318899D01*
X103889608Y-95100392D01*
X103671101Y-94921068D01*
X103421808Y-94787818D01*
X103151309Y-94705764D01*
X102870000Y-94678057D01*
X102588692Y-94705764D01*
X102318193Y-94787818D01*
X102068900Y-94921068D01*
X101850393Y-95100392D01*
X101671068Y-95318899D01*
X101600000Y-95451858D01*
X101528932Y-95318899D01*
X101349608Y-95100392D01*
X101131101Y-94921068D01*
X100881808Y-94787818D01*
X100611309Y-94705764D01*
X100330000Y-94678057D01*
X100048692Y-94705764D01*
X99778193Y-94787818D01*
X99528900Y-94921068D01*
X99310393Y-95100392D01*
X99131068Y-95318899D01*
X99060000Y-95451858D01*
X98988932Y-95318899D01*
X98809608Y-95100392D01*
X98591101Y-94921068D01*
X98341808Y-94787818D01*
X98071309Y-94705764D01*
X97790000Y-94678057D01*
X97508692Y-94705764D01*
X97238193Y-94787818D01*
X96988900Y-94921068D01*
X96770393Y-95100392D01*
X96591068Y-95318899D01*
X96520000Y-95451858D01*
X96448932Y-95318899D01*
X96269608Y-95100392D01*
X96051101Y-94921068D01*
X95801808Y-94787818D01*
X95531309Y-94705764D01*
X95250000Y-94678057D01*
X94968692Y-94705764D01*
X94698193Y-94787818D01*
X94448900Y-94921068D01*
X94230393Y-95100392D01*
X94051068Y-95318899D01*
X93980000Y-95451858D01*
X93908932Y-95318899D01*
X93729608Y-95100392D01*
X93511101Y-94921068D01*
X93261808Y-94787818D01*
X92991309Y-94705764D01*
X92710000Y-94678057D01*
X92428692Y-94705764D01*
X92158193Y-94787818D01*
X91908900Y-94921068D01*
X91690393Y-95100392D01*
X91511068Y-95318899D01*
X91442735Y-95446741D01*
X91292601Y-95217161D01*
X91094895Y-95015500D01*
X90861646Y-94856285D01*
X90601818Y-94745633D01*
X90519039Y-94728096D01*
X90297000Y-94850085D01*
X90043000Y-94850085D01*
X89820961Y-94728096D01*
X89738182Y-94745633D01*
X89478354Y-94856285D01*
X89245105Y-95015500D01*
X89047399Y-95217161D01*
X88892834Y-95453517D01*
X88787350Y-95715486D01*
X88735000Y-95993000D01*
X85217000Y-95993000D01*
X85217000Y-91162702D01*
X89356903Y-91162702D01*
X89428486Y-91406671D01*
X89683996Y-91527571D01*
X89958184Y-91596300D01*
X90240512Y-91610217D01*
X90520130Y-91568787D01*
X90786292Y-91473603D01*
X90911514Y-91406671D01*
X90983097Y-91162702D01*
X90170000Y-90349605D01*
X89356903Y-91162702D01*
X85217000Y-91162702D01*
X85217000Y-90240512D01*
X88729783Y-90240512D01*
X88771213Y-90520130D01*
X88866397Y-90786292D01*
X88933329Y-90911514D01*
X89177298Y-90983097D01*
X89990395Y-90170000D01*
X90349605Y-90170000D01*
X91162702Y-90983097D01*
X91406671Y-90911514D01*
X91527571Y-90656004D01*
X91596300Y-90381816D01*
X91610217Y-90099488D01*
X91599724Y-90028665D01*
X103975000Y-90028665D01*
X103975000Y-90311335D01*
X104030147Y-90588574D01*
X104138320Y-90849727D01*
X104295363Y-91084759D01*
X104495241Y-91284637D01*
X104730273Y-91441680D01*
X104991426Y-91549853D01*
X105268665Y-91605000D01*
X105551335Y-91605000D01*
X105828574Y-91549853D01*
X106089727Y-91441680D01*
X106324759Y-91284637D01*
X106524637Y-91084759D01*
X106681680Y-90849727D01*
X106789853Y-90588574D01*
X106845000Y-90311335D01*
X106845000Y-90028665D01*
X106789853Y-89751426D01*
X106681680Y-89490273D01*
X106524637Y-89255241D01*
X106324759Y-89055363D01*
X106089727Y-88898320D01*
X105828574Y-88790147D01*
X105551335Y-88735000D01*
X105268665Y-88735000D01*
X104991426Y-88790147D01*
X104730273Y-88898320D01*
X104495241Y-89055363D01*
X104295363Y-89255241D01*
X104138320Y-89490273D01*
X104030147Y-89751426D01*
X103975000Y-90028665D01*
X91599724Y-90028665D01*
X91568787Y-89819870D01*
X91473603Y-89553708D01*
X91406671Y-89428486D01*
X91162702Y-89356903D01*
X90349605Y-90170000D01*
X89990395Y-90170000D01*
X89177298Y-89356903D01*
X88933329Y-89428486D01*
X88812429Y-89683996D01*
X88743700Y-89958184D01*
X88729783Y-90240512D01*
X85217000Y-90240512D01*
X85217000Y-89177298D01*
X89356903Y-89177298D01*
X90170000Y-89990395D01*
X90983097Y-89177298D01*
X90911514Y-88933329D01*
X90656004Y-88812429D01*
X90381816Y-88743700D01*
X90099488Y-88729783D01*
X89819870Y-88771213D01*
X89553708Y-88866397D01*
X89428486Y-88933329D01*
X89356903Y-89177298D01*
X85217000Y-89177298D01*
X85217000Y-84948665D01*
X88735000Y-84948665D01*
X88735000Y-85231335D01*
X88790147Y-85508574D01*
X88898320Y-85769727D01*
X89055363Y-86004759D01*
X89255241Y-86204637D01*
X89490273Y-86361680D01*
X89751426Y-86469853D01*
X90028665Y-86525000D01*
X90311335Y-86525000D01*
X90588574Y-86469853D01*
X90849727Y-86361680D01*
X91084759Y-86204637D01*
X91284637Y-86004759D01*
X91388043Y-85850000D01*
X110015136Y-85850000D01*
X109945764Y-86078691D01*
X109918057Y-86360000D01*
X109945764Y-86641309D01*
X110027818Y-86911808D01*
X110161068Y-87161101D01*
X110340392Y-87379608D01*
X110558899Y-87558932D01*
X110691858Y-87630000D01*
X110558899Y-87701068D01*
X110340392Y-87880392D01*
X110161068Y-88098899D01*
X110027818Y-88348192D01*
X109945764Y-88618691D01*
X109918057Y-88900000D01*
X109945764Y-89181309D01*
X110027818Y-89451808D01*
X110161068Y-89701101D01*
X110340392Y-89919608D01*
X110558899Y-90098932D01*
X110691858Y-90170000D01*
X110558899Y-90241068D01*
X110340392Y-90420392D01*
X110161068Y-90638899D01*
X110027818Y-90888192D01*
X109945764Y-91158691D01*
X109918057Y-91440000D01*
X109945764Y-91721309D01*
X110027818Y-91991808D01*
X110161068Y-92241101D01*
X110340392Y-92459608D01*
X110558899Y-92638932D01*
X110808192Y-92772182D01*
X111078691Y-92854236D01*
X111289508Y-92875000D01*
X112230492Y-92875000D01*
X112441309Y-92854236D01*
X112711808Y-92772182D01*
X112961101Y-92638932D01*
X113179608Y-92459608D01*
X113358932Y-92241101D01*
X113492182Y-91991808D01*
X113574236Y-91721309D01*
X113601943Y-91440000D01*
X113574236Y-91158691D01*
X113492182Y-90888192D01*
X113358932Y-90638899D01*
X113179608Y-90420392D01*
X112961101Y-90241068D01*
X112828142Y-90170000D01*
X112961101Y-90098932D01*
X113179608Y-89919608D01*
X113358932Y-89701101D01*
X113492182Y-89451808D01*
X113574236Y-89181309D01*
X113601943Y-88900000D01*
X113574236Y-88618691D01*
X113492182Y-88348192D01*
X113358932Y-88098899D01*
X113179608Y-87880392D01*
X112961101Y-87701068D01*
X112828142Y-87630000D01*
X112961101Y-87558932D01*
X113179608Y-87379608D01*
X113358932Y-87161101D01*
X113492182Y-86911808D01*
X113574236Y-86641309D01*
X113601943Y-86360000D01*
X113574236Y-86078691D01*
X113504864Y-85850000D01*
X116525199Y-85850000D01*
X117546201Y-86871003D01*
X117569999Y-86900001D01*
X117685724Y-86994974D01*
X117694890Y-86999873D01*
X117781068Y-87161101D01*
X117960392Y-87379608D01*
X118178899Y-87558932D01*
X118311858Y-87630000D01*
X118178899Y-87701068D01*
X117960392Y-87880392D01*
X117781068Y-88098899D01*
X117647818Y-88348192D01*
X117565764Y-88618691D01*
X117538057Y-88900000D01*
X117565764Y-89181309D01*
X117647818Y-89451808D01*
X117781068Y-89701101D01*
X117960392Y-89919608D01*
X118178899Y-90098932D01*
X118311858Y-90170000D01*
X118178899Y-90241068D01*
X117960392Y-90420392D01*
X117781068Y-90638899D01*
X117647818Y-90888192D01*
X117565764Y-91158691D01*
X117538057Y-91440000D01*
X117565764Y-91721309D01*
X117647818Y-91991808D01*
X117781068Y-92241101D01*
X117960392Y-92459608D01*
X118178899Y-92638932D01*
X118428192Y-92772182D01*
X118698691Y-92854236D01*
X118909508Y-92875000D01*
X119850492Y-92875000D01*
X120061309Y-92854236D01*
X120331808Y-92772182D01*
X120581101Y-92638932D01*
X120799608Y-92459608D01*
X120978932Y-92241101D01*
X121112182Y-91991808D01*
X121194236Y-91721309D01*
X121221943Y-91440000D01*
X121208023Y-91298665D01*
X129375000Y-91298665D01*
X129375000Y-91581335D01*
X129430147Y-91858574D01*
X129538320Y-92119727D01*
X129695363Y-92354759D01*
X129895241Y-92554637D01*
X130130273Y-92711680D01*
X130391426Y-92819853D01*
X130668665Y-92875000D01*
X130951335Y-92875000D01*
X131228574Y-92819853D01*
X131489727Y-92711680D01*
X131724759Y-92554637D01*
X131846694Y-92432702D01*
X134996903Y-92432702D01*
X135068486Y-92676671D01*
X135323996Y-92797571D01*
X135598184Y-92866300D01*
X135880512Y-92880217D01*
X136160130Y-92838787D01*
X136426292Y-92743603D01*
X136551514Y-92676671D01*
X136623097Y-92432702D01*
X135810000Y-91619605D01*
X134996903Y-92432702D01*
X131846694Y-92432702D01*
X131924637Y-92354759D01*
X132081680Y-92119727D01*
X132189853Y-91858574D01*
X132245000Y-91581335D01*
X132245000Y-91510512D01*
X134369783Y-91510512D01*
X134411213Y-91790130D01*
X134506397Y-92056292D01*
X134573329Y-92181514D01*
X134817298Y-92253097D01*
X135630395Y-91440000D01*
X135989605Y-91440000D01*
X136802702Y-92253097D01*
X137046671Y-92181514D01*
X137167571Y-91926004D01*
X137236300Y-91651816D01*
X137250217Y-91369488D01*
X137208787Y-91089870D01*
X137113603Y-90823708D01*
X137046671Y-90698486D01*
X136802702Y-90626903D01*
X135989605Y-91440000D01*
X135630395Y-91440000D01*
X134817298Y-90626903D01*
X134573329Y-90698486D01*
X134452429Y-90953996D01*
X134383700Y-91228184D01*
X134369783Y-91510512D01*
X132245000Y-91510512D01*
X132245000Y-91298665D01*
X132189853Y-91021426D01*
X132081680Y-90760273D01*
X131924637Y-90525241D01*
X131846694Y-90447298D01*
X134996903Y-90447298D01*
X135810000Y-91260395D01*
X136623097Y-90447298D01*
X136551514Y-90203329D01*
X136296004Y-90082429D01*
X136021816Y-90013700D01*
X135739488Y-89999783D01*
X135459870Y-90041213D01*
X135193708Y-90136397D01*
X135068486Y-90203329D01*
X134996903Y-90447298D01*
X131846694Y-90447298D01*
X131724759Y-90325363D01*
X131489727Y-90168320D01*
X131228574Y-90060147D01*
X130951335Y-90005000D01*
X130668665Y-90005000D01*
X130391426Y-90060147D01*
X130130273Y-90168320D01*
X129895241Y-90325363D01*
X129695363Y-90525241D01*
X129538320Y-90760273D01*
X129430147Y-91021426D01*
X129375000Y-91298665D01*
X121208023Y-91298665D01*
X121194236Y-91158691D01*
X121112182Y-90888192D01*
X120978932Y-90638899D01*
X120799608Y-90420392D01*
X120581101Y-90241068D01*
X120448142Y-90170000D01*
X120581101Y-90098932D01*
X120799608Y-89919608D01*
X120978932Y-89701101D01*
X121112182Y-89451808D01*
X121194236Y-89181309D01*
X121221943Y-88900000D01*
X121194236Y-88618691D01*
X121112182Y-88348192D01*
X120978932Y-88098899D01*
X120799608Y-87880392D01*
X120581101Y-87701068D01*
X120448142Y-87630000D01*
X120581101Y-87558932D01*
X120799608Y-87379608D01*
X120978932Y-87161101D01*
X121112182Y-86911808D01*
X121194236Y-86641309D01*
X121221943Y-86360000D01*
X121208023Y-86218665D01*
X124295000Y-86218665D01*
X124295000Y-86501335D01*
X124350147Y-86778574D01*
X124458320Y-87039727D01*
X124615363Y-87274759D01*
X124815241Y-87474637D01*
X125050273Y-87631680D01*
X125311426Y-87739853D01*
X125588665Y-87795000D01*
X125871335Y-87795000D01*
X126148574Y-87739853D01*
X126409727Y-87631680D01*
X126644759Y-87474637D01*
X126844637Y-87274759D01*
X127001680Y-87039727D01*
X127109853Y-86778574D01*
X127165000Y-86501335D01*
X127165000Y-86218665D01*
X139535000Y-86218665D01*
X139535000Y-86501335D01*
X139590147Y-86778574D01*
X139698320Y-87039727D01*
X139855363Y-87274759D01*
X140055241Y-87474637D01*
X140290273Y-87631680D01*
X140551426Y-87739853D01*
X140828665Y-87795000D01*
X141111335Y-87795000D01*
X141388574Y-87739853D01*
X141649727Y-87631680D01*
X141884759Y-87474637D01*
X142084637Y-87274759D01*
X142241680Y-87039727D01*
X142349853Y-86778574D01*
X142405000Y-86501335D01*
X142405000Y-86218665D01*
X142349853Y-85941426D01*
X142241680Y-85680273D01*
X142084637Y-85445241D01*
X141884759Y-85245363D01*
X141649727Y-85088320D01*
X141388574Y-84980147D01*
X141111335Y-84925000D01*
X140828665Y-84925000D01*
X140551426Y-84980147D01*
X140290273Y-85088320D01*
X140055241Y-85245363D01*
X139855363Y-85445241D01*
X139698320Y-85680273D01*
X139590147Y-85941426D01*
X139535000Y-86218665D01*
X127165000Y-86218665D01*
X127109853Y-85941426D01*
X127001680Y-85680273D01*
X126844637Y-85445241D01*
X126644759Y-85245363D01*
X126409727Y-85088320D01*
X126148574Y-84980147D01*
X125871335Y-84925000D01*
X125588665Y-84925000D01*
X125311426Y-84980147D01*
X125050273Y-85088320D01*
X124815241Y-85245363D01*
X124615363Y-85445241D01*
X124458320Y-85680273D01*
X124350147Y-85941426D01*
X124295000Y-86218665D01*
X121208023Y-86218665D01*
X121194236Y-86078691D01*
X121112182Y-85808192D01*
X120978932Y-85558899D01*
X120799608Y-85340392D01*
X120581101Y-85161068D01*
X120448142Y-85090000D01*
X120581101Y-85018932D01*
X120799608Y-84839608D01*
X120978932Y-84621101D01*
X121112182Y-84371808D01*
X121194236Y-84101309D01*
X121221943Y-83820000D01*
X121194236Y-83538691D01*
X121112182Y-83268192D01*
X120978932Y-83018899D01*
X120799608Y-82800392D01*
X120581101Y-82621068D01*
X120331808Y-82487818D01*
X120061309Y-82405764D01*
X119850492Y-82385000D01*
X118909508Y-82385000D01*
X118698691Y-82405764D01*
X118428192Y-82487818D01*
X118178899Y-82621068D01*
X117960392Y-82800392D01*
X117781068Y-83018899D01*
X117647818Y-83268192D01*
X117565764Y-83538691D01*
X117538057Y-83820000D01*
X117565764Y-84101309D01*
X117647818Y-84371808D01*
X117781068Y-84621101D01*
X117960392Y-84839608D01*
X118178899Y-85018932D01*
X118311858Y-85090000D01*
X118178899Y-85161068D01*
X118072878Y-85248077D01*
X117403804Y-84579003D01*
X117380001Y-84549999D01*
X117264276Y-84455026D01*
X117132247Y-84384454D01*
X116988986Y-84340997D01*
X116877333Y-84330000D01*
X116877322Y-84330000D01*
X116840000Y-84326324D01*
X116802678Y-84330000D01*
X113596340Y-84330000D01*
X113595000Y-84105750D01*
X113436250Y-83947000D01*
X111887000Y-83947000D01*
X111887000Y-83967000D01*
X111633000Y-83967000D01*
X111633000Y-83947000D01*
X110083750Y-83947000D01*
X109925000Y-84105750D01*
X109923660Y-84330000D01*
X109400223Y-84330000D01*
X109426011Y-84267743D01*
X109485000Y-83971184D01*
X109485000Y-83668816D01*
X109426011Y-83372257D01*
X109310299Y-83092905D01*
X109261586Y-83020000D01*
X109921928Y-83020000D01*
X109925000Y-83534250D01*
X110083750Y-83693000D01*
X111633000Y-83693000D01*
X111633000Y-82543750D01*
X111887000Y-82543750D01*
X111887000Y-83693000D01*
X113436250Y-83693000D01*
X113595000Y-83534250D01*
X113598072Y-83020000D01*
X113585812Y-82895518D01*
X113549502Y-82775820D01*
X113490537Y-82665506D01*
X113411185Y-82568815D01*
X113314494Y-82489463D01*
X113204180Y-82430498D01*
X113084482Y-82394188D01*
X112960000Y-82381928D01*
X112045750Y-82385000D01*
X111887000Y-82543750D01*
X111633000Y-82543750D01*
X111474250Y-82385000D01*
X110560000Y-82381928D01*
X110435518Y-82394188D01*
X110315820Y-82430498D01*
X110205506Y-82489463D01*
X110108815Y-82568815D01*
X110029463Y-82665506D01*
X109970498Y-82775820D01*
X109934188Y-82895518D01*
X109921928Y-83020000D01*
X109261586Y-83020000D01*
X109142312Y-82841495D01*
X108928505Y-82627688D01*
X108677095Y-82459701D01*
X108397743Y-82343989D01*
X108101184Y-82285000D01*
X107798816Y-82285000D01*
X107502257Y-82343989D01*
X107222905Y-82459701D01*
X106971495Y-82627688D01*
X106905056Y-82694127D01*
X106899502Y-82675820D01*
X106840537Y-82565506D01*
X106761185Y-82468815D01*
X106664494Y-82389463D01*
X106554180Y-82330498D01*
X106434482Y-82294188D01*
X106310000Y-82281928D01*
X104510000Y-82281928D01*
X104385518Y-82294188D01*
X104265820Y-82330498D01*
X104155506Y-82389463D01*
X104058815Y-82468815D01*
X103979463Y-82565506D01*
X103920498Y-82675820D01*
X103884188Y-82795518D01*
X103871928Y-82920000D01*
X103871928Y-84330000D01*
X91388043Y-84330000D01*
X91284637Y-84175241D01*
X91084759Y-83975363D01*
X90849727Y-83818320D01*
X90588574Y-83710147D01*
X90311335Y-83655000D01*
X90028665Y-83655000D01*
X89751426Y-83710147D01*
X89490273Y-83818320D01*
X89255241Y-83975363D01*
X89055363Y-84175241D01*
X88898320Y-84410273D01*
X88790147Y-84671426D01*
X88735000Y-84948665D01*
X85217000Y-84948665D01*
X85217000Y-78598665D01*
X111675000Y-78598665D01*
X111675000Y-78881335D01*
X111730147Y-79158574D01*
X111838320Y-79419727D01*
X111995363Y-79654759D01*
X112195241Y-79854637D01*
X112430273Y-80011680D01*
X112691426Y-80119853D01*
X112968665Y-80175000D01*
X113251335Y-80175000D01*
X113528574Y-80119853D01*
X113789727Y-80011680D01*
X114024759Y-79854637D01*
X114146694Y-79732702D01*
X117296903Y-79732702D01*
X117368486Y-79976671D01*
X117623996Y-80097571D01*
X117898184Y-80166300D01*
X118180512Y-80180217D01*
X118460130Y-80138787D01*
X118726292Y-80043603D01*
X118851514Y-79976671D01*
X118884649Y-79863740D01*
X128055000Y-79863740D01*
X128055000Y-80156260D01*
X128112068Y-80443158D01*
X128224010Y-80713411D01*
X128386525Y-80956632D01*
X128593368Y-81163475D01*
X128836589Y-81325990D01*
X129106842Y-81437932D01*
X129393740Y-81495000D01*
X129686260Y-81495000D01*
X129973158Y-81437932D01*
X130243411Y-81325990D01*
X130486632Y-81163475D01*
X130693475Y-80956632D01*
X130815195Y-80774466D01*
X130884822Y-80891355D01*
X131079731Y-81107588D01*
X131313080Y-81281641D01*
X131575901Y-81406825D01*
X131723110Y-81451476D01*
X131953000Y-81330155D01*
X131953000Y-80137000D01*
X131933000Y-80137000D01*
X131933000Y-79883000D01*
X131953000Y-79883000D01*
X131953000Y-78689845D01*
X132207000Y-78689845D01*
X132207000Y-79883000D01*
X132227000Y-79883000D01*
X132227000Y-80137000D01*
X132207000Y-80137000D01*
X132207000Y-81330155D01*
X132436890Y-81451476D01*
X132584099Y-81406825D01*
X132846920Y-81281641D01*
X133080269Y-81107588D01*
X133275178Y-80891355D01*
X133344805Y-80774466D01*
X133466525Y-80956632D01*
X133673368Y-81163475D01*
X133916589Y-81325990D01*
X134186842Y-81437932D01*
X134473740Y-81495000D01*
X134766260Y-81495000D01*
X135053158Y-81437932D01*
X135323411Y-81325990D01*
X135566632Y-81163475D01*
X135773475Y-80956632D01*
X135890000Y-80782240D01*
X136006525Y-80956632D01*
X136213368Y-81163475D01*
X136456589Y-81325990D01*
X136726842Y-81437932D01*
X137013740Y-81495000D01*
X137306260Y-81495000D01*
X137593158Y-81437932D01*
X137863411Y-81325990D01*
X138106632Y-81163475D01*
X138313475Y-80956632D01*
X138430000Y-80782240D01*
X138546525Y-80956632D01*
X138753368Y-81163475D01*
X138996589Y-81325990D01*
X139266842Y-81437932D01*
X139553740Y-81495000D01*
X139846260Y-81495000D01*
X140133158Y-81437932D01*
X140403411Y-81325990D01*
X140646632Y-81163475D01*
X140778487Y-81031620D01*
X140800498Y-81104180D01*
X140859463Y-81214494D01*
X140938815Y-81311185D01*
X141035506Y-81390537D01*
X141145820Y-81449502D01*
X141265518Y-81485812D01*
X141390000Y-81498072D01*
X143090000Y-81498072D01*
X143214482Y-81485812D01*
X143334180Y-81449502D01*
X143444494Y-81390537D01*
X143541185Y-81311185D01*
X143620537Y-81214494D01*
X143679502Y-81104180D01*
X143715812Y-80984482D01*
X143728072Y-80860000D01*
X143728072Y-79160000D01*
X143715812Y-79035518D01*
X143679502Y-78915820D01*
X143620537Y-78805506D01*
X143541185Y-78708815D01*
X143444494Y-78629463D01*
X143334180Y-78570498D01*
X143214482Y-78534188D01*
X143090000Y-78521928D01*
X141390000Y-78521928D01*
X141265518Y-78534188D01*
X141145820Y-78570498D01*
X141035506Y-78629463D01*
X140938815Y-78708815D01*
X140859463Y-78805506D01*
X140800498Y-78915820D01*
X140778487Y-78988380D01*
X140646632Y-78856525D01*
X140403411Y-78694010D01*
X140133158Y-78582068D01*
X139846260Y-78525000D01*
X139553740Y-78525000D01*
X139266842Y-78582068D01*
X138996589Y-78694010D01*
X138753368Y-78856525D01*
X138546525Y-79063368D01*
X138430000Y-79237760D01*
X138313475Y-79063368D01*
X138106632Y-78856525D01*
X137863411Y-78694010D01*
X137593158Y-78582068D01*
X137306260Y-78525000D01*
X137013740Y-78525000D01*
X136726842Y-78582068D01*
X136456589Y-78694010D01*
X136213368Y-78856525D01*
X136006525Y-79063368D01*
X135890000Y-79237760D01*
X135773475Y-79063368D01*
X135566632Y-78856525D01*
X135323411Y-78694010D01*
X135053158Y-78582068D01*
X134766260Y-78525000D01*
X134473740Y-78525000D01*
X134186842Y-78582068D01*
X133916589Y-78694010D01*
X133673368Y-78856525D01*
X133466525Y-79063368D01*
X133344805Y-79245534D01*
X133275178Y-79128645D01*
X133080269Y-78912412D01*
X132846920Y-78738359D01*
X132584099Y-78613175D01*
X132436890Y-78568524D01*
X132207000Y-78689845D01*
X131953000Y-78689845D01*
X131723110Y-78568524D01*
X131575901Y-78613175D01*
X131313080Y-78738359D01*
X131079731Y-78912412D01*
X130884822Y-79128645D01*
X130815195Y-79245534D01*
X130693475Y-79063368D01*
X130486632Y-78856525D01*
X130243411Y-78694010D01*
X129973158Y-78582068D01*
X129686260Y-78525000D01*
X129393740Y-78525000D01*
X129106842Y-78582068D01*
X128836589Y-78694010D01*
X128593368Y-78856525D01*
X128386525Y-79063368D01*
X128224010Y-79306589D01*
X128112068Y-79576842D01*
X128055000Y-79863740D01*
X118884649Y-79863740D01*
X118923097Y-79732702D01*
X118110000Y-78919605D01*
X117296903Y-79732702D01*
X114146694Y-79732702D01*
X114224637Y-79654759D01*
X114381680Y-79419727D01*
X114489853Y-79158574D01*
X114545000Y-78881335D01*
X114545000Y-78810512D01*
X116669783Y-78810512D01*
X116711213Y-79090130D01*
X116806397Y-79356292D01*
X116873329Y-79481514D01*
X117117298Y-79553097D01*
X117930395Y-78740000D01*
X118289605Y-78740000D01*
X119102702Y-79553097D01*
X119346671Y-79481514D01*
X119467571Y-79226004D01*
X119536300Y-78951816D01*
X119550217Y-78669488D01*
X119508787Y-78389870D01*
X119413603Y-78123708D01*
X119346671Y-77998486D01*
X119102702Y-77926903D01*
X118289605Y-78740000D01*
X117930395Y-78740000D01*
X117117298Y-77926903D01*
X116873329Y-77998486D01*
X116752429Y-78253996D01*
X116683700Y-78528184D01*
X116669783Y-78810512D01*
X114545000Y-78810512D01*
X114545000Y-78598665D01*
X114489853Y-78321426D01*
X114381680Y-78060273D01*
X114224637Y-77825241D01*
X114146694Y-77747298D01*
X117296903Y-77747298D01*
X118110000Y-78560395D01*
X118923097Y-77747298D01*
X118851514Y-77503329D01*
X118596004Y-77382429D01*
X118321816Y-77313700D01*
X118039488Y-77299783D01*
X117759870Y-77341213D01*
X117493708Y-77436397D01*
X117368486Y-77503329D01*
X117296903Y-77747298D01*
X114146694Y-77747298D01*
X114024759Y-77625363D01*
X113789727Y-77468320D01*
X113528574Y-77360147D01*
X113251335Y-77305000D01*
X112968665Y-77305000D01*
X112691426Y-77360147D01*
X112430273Y-77468320D01*
X112195241Y-77625363D01*
X111995363Y-77825241D01*
X111838320Y-78060273D01*
X111730147Y-78321426D01*
X111675000Y-78598665D01*
X85217000Y-78598665D01*
X85217000Y-74752223D01*
X96065000Y-74752223D01*
X96065000Y-75107777D01*
X96134365Y-75456499D01*
X96270429Y-75784988D01*
X96467965Y-76080621D01*
X96719379Y-76332035D01*
X97015012Y-76529571D01*
X97343501Y-76665635D01*
X97692223Y-76735000D01*
X98047777Y-76735000D01*
X98396499Y-76665635D01*
X98724988Y-76529571D01*
X99020621Y-76332035D01*
X99272035Y-76080621D01*
X99469571Y-75784988D01*
X99605635Y-75456499D01*
X99675000Y-75107777D01*
X99675000Y-74752223D01*
X101065000Y-74752223D01*
X101065000Y-75107777D01*
X101134365Y-75456499D01*
X101270429Y-75784988D01*
X101467965Y-76080621D01*
X101719379Y-76332035D01*
X102015012Y-76529571D01*
X102343501Y-76665635D01*
X102692223Y-76735000D01*
X103047777Y-76735000D01*
X103396499Y-76665635D01*
X103724988Y-76529571D01*
X104020621Y-76332035D01*
X104272035Y-76080621D01*
X104469571Y-75784988D01*
X104605635Y-75456499D01*
X104675000Y-75107777D01*
X104675000Y-74752223D01*
X104605635Y-74403501D01*
X104469571Y-74075012D01*
X104272035Y-73779379D01*
X104020621Y-73527965D01*
X103724988Y-73330429D01*
X103396499Y-73194365D01*
X103047777Y-73125000D01*
X102692223Y-73125000D01*
X102343501Y-73194365D01*
X102015012Y-73330429D01*
X101719379Y-73527965D01*
X101467965Y-73779379D01*
X101270429Y-74075012D01*
X101134365Y-74403501D01*
X101065000Y-74752223D01*
X99675000Y-74752223D01*
X99605635Y-74403501D01*
X99469571Y-74075012D01*
X99272035Y-73779379D01*
X99020621Y-73527965D01*
X98724988Y-73330429D01*
X98396499Y-73194365D01*
X98047777Y-73125000D01*
X97692223Y-73125000D01*
X97343501Y-73194365D01*
X97015012Y-73330429D01*
X96719379Y-73527965D01*
X96467965Y-73779379D01*
X96270429Y-74075012D01*
X96134365Y-74403501D01*
X96065000Y-74752223D01*
X85217000Y-74752223D01*
X85217000Y-69708665D01*
X88735000Y-69708665D01*
X88735000Y-69991335D01*
X88790147Y-70268574D01*
X88898320Y-70529727D01*
X89055363Y-70764759D01*
X89255241Y-70964637D01*
X89490273Y-71121680D01*
X89751426Y-71229853D01*
X90028665Y-71285000D01*
X90311335Y-71285000D01*
X90588574Y-71229853D01*
X90849727Y-71121680D01*
X91084759Y-70964637D01*
X91284637Y-70764759D01*
X91441680Y-70529727D01*
X91549853Y-70268574D01*
X91605000Y-69991335D01*
X91605000Y-69752223D01*
X98565000Y-69752223D01*
X98565000Y-70107777D01*
X98634365Y-70456499D01*
X98770429Y-70784988D01*
X98967965Y-71080621D01*
X99219379Y-71332035D01*
X99515012Y-71529571D01*
X99843501Y-71665635D01*
X100192223Y-71735000D01*
X100547777Y-71735000D01*
X100896499Y-71665635D01*
X101224988Y-71529571D01*
X101520621Y-71332035D01*
X101772035Y-71080621D01*
X101969571Y-70784988D01*
X102105635Y-70456499D01*
X102175000Y-70107777D01*
X102175000Y-69752223D01*
X102105635Y-69403501D01*
X101969571Y-69075012D01*
X101772035Y-68779379D01*
X101520621Y-68527965D01*
X101224988Y-68330429D01*
X100896499Y-68194365D01*
X100547777Y-68125000D01*
X100192223Y-68125000D01*
X99843501Y-68194365D01*
X99515012Y-68330429D01*
X99219379Y-68527965D01*
X98967965Y-68779379D01*
X98770429Y-69075012D01*
X98634365Y-69403501D01*
X98565000Y-69752223D01*
X91605000Y-69752223D01*
X91605000Y-69708665D01*
X91549853Y-69431426D01*
X91441680Y-69170273D01*
X91284637Y-68935241D01*
X91084759Y-68735363D01*
X90849727Y-68578320D01*
X90588574Y-68470147D01*
X90311335Y-68415000D01*
X90028665Y-68415000D01*
X89751426Y-68470147D01*
X89490273Y-68578320D01*
X89255241Y-68735363D01*
X89055363Y-68935241D01*
X88898320Y-69170273D01*
X88790147Y-69431426D01*
X88735000Y-69708665D01*
X85217000Y-69708665D01*
X85217000Y-68632606D01*
X86412606Y-67437000D01*
X144727394Y-67437000D01*
X145923000Y-68632606D01*
M02*
