M48
; DRILL file {KiCad 5.1.5} date Mon 01 Jun 2020 07:40:05 PM AST
; FORMAT={-:-/ absolute / inch / decimal}
; #@! TF.CreationDate,2020-06-01T19:40:05-04:00
; #@! TF.GenerationSoftware,Kicad,Pcbnew,5.1.5
; #@! TF.FileFunction,Plated,1,2,PTH
FMAT,2
INCH
T1C0.0315
T2C0.0354
T3C0.0394
T4C0.0512
%
G90
G05
T1
X4.65Y-3.95
X4.85Y-3.8
X4.95Y-4.1
X5.05Y-4.1
X4.4Y-3.3
X4.4Y-3.4
X4.4Y-3.5
X4.4Y-3.6
X4.7Y-3.3
X4.7Y-3.4
X4.7Y-3.5
X4.7Y-3.6
X5.15Y-3.6
X5.3469Y-3.6
X4.4531Y-3.95
X4.4531Y-3.1
X4.65Y-3.1
X4.95Y-3.4
X5.55Y-3.4
X3.55Y-2.75
X3.55Y-3.35
X4.85Y-4.1
X4.95Y-3.8
X5.05Y-3.8
X5.15Y-3.8
X5.15Y-4.1
X5.25Y-3.8
X5.25Y-4.1
X5.35Y-3.8
X5.35Y-4.1
X5.45Y-3.8
X5.45Y-4.1
X5.55Y-3.8
X5.55Y-4.1
X3.55Y-3.55
X4.15Y-3.55
X3.55Y-3.8
X3.55Y-4.1
X3.65Y-3.8
X3.65Y-4.1
X3.75Y-3.8
X3.75Y-4.1
X3.85Y-3.8
X3.85Y-4.1
X3.95Y-3.8
X3.95Y-4.1
X4.05Y-3.8
X4.05Y-4.1
X4.15Y-3.8
X4.15Y-4.1
X4.25Y-3.8
X4.25Y-4.1
T2
X5.25Y-4.65
X5.35Y-4.65
X4.95Y-4.65
X5.05Y-4.65
X3.75Y-4.65
X3.85Y-4.65
X4.15Y-3.3
X4.25Y-3.3
X4.35Y-4.65
X4.45Y-4.65
X3.45Y-4.65
X3.55Y-4.65
X4.05Y-4.65
X4.15Y-4.65
X4.65Y-4.65
X4.75Y-4.65
X5.55Y-4.65
X5.65Y-4.65
T3
X5.1Y-3.15
X5.2Y-3.15
X5.3Y-3.15
X5.4Y-3.15
X5.5Y-3.15
X5.6Y-3.15
T4
X3.8531Y-2.95
X3.9516Y-2.7531
X4.05Y-2.95
T0
M30
