G04 #@! TF.GenerationSoftware,KiCad,Pcbnew,5.1.5*
G04 #@! TF.CreationDate,2020-06-01T19:40:44-04:00*
G04 #@! TF.ProjectId,circuit,63697263-7569-4742-9e6b-696361645f70,rev?*
G04 #@! TF.SameCoordinates,Original*
G04 #@! TF.FileFunction,Legend,Top*
G04 #@! TF.FilePolarity,Positive*
%FSLAX46Y46*%
G04 Gerber Fmt 4.6, Leading zero omitted, Abs format (unit mm)*
G04 Created by KiCad (PCBNEW 5.1.5) date 2020-06-01 19:40:44*
%MOMM*%
%LPD*%
G04 APERTURE LIST*
%ADD10C,0.150000*%
%ADD11C,0.010000*%
%ADD12C,0.120000*%
G04 APERTURE END LIST*
D10*
X115244761Y-72842380D02*
X114911428Y-72366190D01*
X114673333Y-72842380D02*
X114673333Y-71842380D01*
X115054285Y-71842380D01*
X115149523Y-71890000D01*
X115197142Y-71937619D01*
X115244761Y-72032857D01*
X115244761Y-72175714D01*
X115197142Y-72270952D01*
X115149523Y-72318571D01*
X115054285Y-72366190D01*
X114673333Y-72366190D01*
X116054285Y-72794761D02*
X115959047Y-72842380D01*
X115768571Y-72842380D01*
X115673333Y-72794761D01*
X115625714Y-72699523D01*
X115625714Y-72318571D01*
X115673333Y-72223333D01*
X115768571Y-72175714D01*
X115959047Y-72175714D01*
X116054285Y-72223333D01*
X116101904Y-72318571D01*
X116101904Y-72413809D01*
X115625714Y-72509047D01*
X116435238Y-72175714D02*
X116673333Y-72842380D01*
X116911428Y-72175714D01*
X117292380Y-72461428D02*
X118054285Y-72461428D01*
X119054285Y-72842380D02*
X118482857Y-72842380D01*
X118768571Y-72842380D02*
X118768571Y-71842380D01*
X118673333Y-71985238D01*
X118578095Y-72080476D01*
X118482857Y-72128095D01*
X109411428Y-69671428D02*
X109268571Y-69600000D01*
X109197142Y-69528571D01*
X109125714Y-69385714D01*
X109125714Y-69314285D01*
X109197142Y-69171428D01*
X109268571Y-69100000D01*
X109411428Y-69028571D01*
X109697142Y-69028571D01*
X109840000Y-69100000D01*
X109911428Y-69171428D01*
X109982857Y-69314285D01*
X109982857Y-69385714D01*
X109911428Y-69528571D01*
X109840000Y-69600000D01*
X109697142Y-69671428D01*
X109411428Y-69671428D01*
X109268571Y-69742857D01*
X109197142Y-69814285D01*
X109125714Y-69957142D01*
X109125714Y-70242857D01*
X109197142Y-70385714D01*
X109268571Y-70457142D01*
X109411428Y-70528571D01*
X109697142Y-70528571D01*
X109840000Y-70457142D01*
X109911428Y-70385714D01*
X109982857Y-70242857D01*
X109982857Y-69957142D01*
X109911428Y-69814285D01*
X109840000Y-69742857D01*
X109697142Y-69671428D01*
X110625714Y-69957142D02*
X111768571Y-69957142D01*
X112482857Y-70528571D02*
X112482857Y-69028571D01*
X112482857Y-69600000D02*
X112625714Y-69528571D01*
X112911428Y-69528571D01*
X113054285Y-69600000D01*
X113125714Y-69671428D01*
X113197142Y-69814285D01*
X113197142Y-70242857D01*
X113125714Y-70385714D01*
X113054285Y-70457142D01*
X112911428Y-70528571D01*
X112625714Y-70528571D01*
X112482857Y-70457142D01*
X113840000Y-70528571D02*
X113840000Y-69528571D01*
X113840000Y-69028571D02*
X113768571Y-69100000D01*
X113840000Y-69171428D01*
X113911428Y-69100000D01*
X113840000Y-69028571D01*
X113840000Y-69171428D01*
X114340000Y-69528571D02*
X114911428Y-69528571D01*
X114554285Y-69028571D02*
X114554285Y-70314285D01*
X114625714Y-70457142D01*
X114768571Y-70528571D01*
X114911428Y-70528571D01*
X117411428Y-70385714D02*
X117340000Y-70457142D01*
X117125714Y-70528571D01*
X116982857Y-70528571D01*
X116768571Y-70457142D01*
X116625714Y-70314285D01*
X116554285Y-70171428D01*
X116482857Y-69885714D01*
X116482857Y-69671428D01*
X116554285Y-69385714D01*
X116625714Y-69242857D01*
X116768571Y-69100000D01*
X116982857Y-69028571D01*
X117125714Y-69028571D01*
X117340000Y-69100000D01*
X117411428Y-69171428D01*
X118268571Y-70528571D02*
X118125714Y-70457142D01*
X118054285Y-70385714D01*
X117982857Y-70242857D01*
X117982857Y-69814285D01*
X118054285Y-69671428D01*
X118125714Y-69600000D01*
X118268571Y-69528571D01*
X118482857Y-69528571D01*
X118625714Y-69600000D01*
X118697142Y-69671428D01*
X118768571Y-69814285D01*
X118768571Y-70242857D01*
X118697142Y-70385714D01*
X118625714Y-70457142D01*
X118482857Y-70528571D01*
X118268571Y-70528571D01*
X120054285Y-69528571D02*
X120054285Y-70528571D01*
X119411428Y-69528571D02*
X119411428Y-70314285D01*
X119482857Y-70457142D01*
X119625714Y-70528571D01*
X119840000Y-70528571D01*
X119982857Y-70457142D01*
X120054285Y-70385714D01*
X120768571Y-69528571D02*
X120768571Y-70528571D01*
X120768571Y-69671428D02*
X120840000Y-69600000D01*
X120982857Y-69528571D01*
X121197142Y-69528571D01*
X121340000Y-69600000D01*
X121411428Y-69742857D01*
X121411428Y-70528571D01*
X121911428Y-69528571D02*
X122482857Y-69528571D01*
X122125714Y-69028571D02*
X122125714Y-70314285D01*
X122197142Y-70457142D01*
X122340000Y-70528571D01*
X122482857Y-70528571D01*
X123554285Y-70457142D02*
X123411428Y-70528571D01*
X123125714Y-70528571D01*
X122982857Y-70457142D01*
X122911428Y-70314285D01*
X122911428Y-69742857D01*
X122982857Y-69600000D01*
X123125714Y-69528571D01*
X123411428Y-69528571D01*
X123554285Y-69600000D01*
X123625714Y-69742857D01*
X123625714Y-69885714D01*
X122911428Y-70028571D01*
X124268571Y-70528571D02*
X124268571Y-69528571D01*
X124268571Y-69814285D02*
X124340000Y-69671428D01*
X124411428Y-69600000D01*
X124554285Y-69528571D01*
X124697142Y-69528571D01*
D11*
G36*
X121798823Y-111494533D02*
G01*
X121830202Y-111516776D01*
X121857911Y-111544485D01*
X121857911Y-111853920D01*
X121857838Y-111945799D01*
X121857495Y-112017840D01*
X121856692Y-112072780D01*
X121855241Y-112113360D01*
X121852952Y-112142317D01*
X121849636Y-112162391D01*
X121845105Y-112176321D01*
X121839169Y-112186845D01*
X121834514Y-112193100D01*
X121803783Y-112217673D01*
X121768496Y-112220341D01*
X121736245Y-112205271D01*
X121725588Y-112196374D01*
X121718464Y-112184557D01*
X121714167Y-112165526D01*
X121711991Y-112134992D01*
X121711228Y-112088662D01*
X121711155Y-112052871D01*
X121711155Y-111918045D01*
X121214444Y-111918045D01*
X121214444Y-112040700D01*
X121213931Y-112096787D01*
X121211876Y-112135333D01*
X121207508Y-112161361D01*
X121200056Y-112179897D01*
X121191047Y-112193100D01*
X121160144Y-112217604D01*
X121125196Y-112220506D01*
X121091738Y-112203089D01*
X121082604Y-112193959D01*
X121076152Y-112181855D01*
X121071897Y-112163001D01*
X121069352Y-112133620D01*
X121068029Y-112089937D01*
X121067443Y-112028175D01*
X121067375Y-112014000D01*
X121066891Y-111897631D01*
X121066641Y-111801727D01*
X121066723Y-111724177D01*
X121067231Y-111662869D01*
X121068262Y-111615690D01*
X121069913Y-111580530D01*
X121072279Y-111555276D01*
X121075457Y-111537817D01*
X121079544Y-111526041D01*
X121084634Y-111517835D01*
X121090266Y-111511645D01*
X121122128Y-111491844D01*
X121155357Y-111494533D01*
X121186735Y-111516776D01*
X121199433Y-111531126D01*
X121207526Y-111546978D01*
X121212042Y-111569554D01*
X121214006Y-111604078D01*
X121214444Y-111655776D01*
X121214444Y-111771289D01*
X121711155Y-111771289D01*
X121711155Y-111652756D01*
X121711662Y-111598148D01*
X121713698Y-111561275D01*
X121718035Y-111537307D01*
X121725447Y-111521415D01*
X121733733Y-111511645D01*
X121765594Y-111491844D01*
X121798823Y-111494533D01*
G37*
X121798823Y-111494533D02*
X121830202Y-111516776D01*
X121857911Y-111544485D01*
X121857911Y-111853920D01*
X121857838Y-111945799D01*
X121857495Y-112017840D01*
X121856692Y-112072780D01*
X121855241Y-112113360D01*
X121852952Y-112142317D01*
X121849636Y-112162391D01*
X121845105Y-112176321D01*
X121839169Y-112186845D01*
X121834514Y-112193100D01*
X121803783Y-112217673D01*
X121768496Y-112220341D01*
X121736245Y-112205271D01*
X121725588Y-112196374D01*
X121718464Y-112184557D01*
X121714167Y-112165526D01*
X121711991Y-112134992D01*
X121711228Y-112088662D01*
X121711155Y-112052871D01*
X121711155Y-111918045D01*
X121214444Y-111918045D01*
X121214444Y-112040700D01*
X121213931Y-112096787D01*
X121211876Y-112135333D01*
X121207508Y-112161361D01*
X121200056Y-112179897D01*
X121191047Y-112193100D01*
X121160144Y-112217604D01*
X121125196Y-112220506D01*
X121091738Y-112203089D01*
X121082604Y-112193959D01*
X121076152Y-112181855D01*
X121071897Y-112163001D01*
X121069352Y-112133620D01*
X121068029Y-112089937D01*
X121067443Y-112028175D01*
X121067375Y-112014000D01*
X121066891Y-111897631D01*
X121066641Y-111801727D01*
X121066723Y-111724177D01*
X121067231Y-111662869D01*
X121068262Y-111615690D01*
X121069913Y-111580530D01*
X121072279Y-111555276D01*
X121075457Y-111537817D01*
X121079544Y-111526041D01*
X121084634Y-111517835D01*
X121090266Y-111511645D01*
X121122128Y-111491844D01*
X121155357Y-111494533D01*
X121186735Y-111516776D01*
X121199433Y-111531126D01*
X121207526Y-111546978D01*
X121212042Y-111569554D01*
X121214006Y-111604078D01*
X121214444Y-111655776D01*
X121214444Y-111771289D01*
X121711155Y-111771289D01*
X121711155Y-111652756D01*
X121711662Y-111598148D01*
X121713698Y-111561275D01*
X121718035Y-111537307D01*
X121725447Y-111521415D01*
X121733733Y-111511645D01*
X121765594Y-111491844D01*
X121798823Y-111494533D01*
G36*
X120533065Y-111489163D02*
G01*
X120611772Y-111489542D01*
X120672863Y-111490333D01*
X120718817Y-111491670D01*
X120752114Y-111493683D01*
X120775236Y-111496506D01*
X120790662Y-111500269D01*
X120800871Y-111505105D01*
X120805813Y-111508822D01*
X120831457Y-111541358D01*
X120834559Y-111575138D01*
X120818711Y-111605826D01*
X120808348Y-111618089D01*
X120797196Y-111626450D01*
X120781035Y-111631657D01*
X120755642Y-111634457D01*
X120716798Y-111635596D01*
X120660280Y-111635821D01*
X120649180Y-111635822D01*
X120503244Y-111635822D01*
X120503244Y-111906756D01*
X120503148Y-111992154D01*
X120502711Y-112057864D01*
X120501712Y-112106774D01*
X120499928Y-112141773D01*
X120497137Y-112165749D01*
X120493117Y-112181593D01*
X120487645Y-112192191D01*
X120480666Y-112200267D01*
X120447734Y-112220112D01*
X120413354Y-112218548D01*
X120382176Y-112195906D01*
X120379886Y-112193100D01*
X120372429Y-112182492D01*
X120366747Y-112170081D01*
X120362601Y-112152850D01*
X120359750Y-112127784D01*
X120357954Y-112091867D01*
X120356972Y-112042083D01*
X120356564Y-111975417D01*
X120356489Y-111899589D01*
X120356489Y-111635822D01*
X120217127Y-111635822D01*
X120157322Y-111635418D01*
X120115918Y-111633840D01*
X120088748Y-111630547D01*
X120071646Y-111624992D01*
X120060443Y-111616631D01*
X120059083Y-111615178D01*
X120042725Y-111581939D01*
X120044172Y-111544362D01*
X120062978Y-111511645D01*
X120070250Y-111505298D01*
X120079627Y-111500266D01*
X120093609Y-111496396D01*
X120114696Y-111493537D01*
X120145389Y-111491535D01*
X120188189Y-111490239D01*
X120245595Y-111489498D01*
X120320110Y-111489158D01*
X120414233Y-111489068D01*
X120434260Y-111489067D01*
X120533065Y-111489163D01*
G37*
X120533065Y-111489163D02*
X120611772Y-111489542D01*
X120672863Y-111490333D01*
X120718817Y-111491670D01*
X120752114Y-111493683D01*
X120775236Y-111496506D01*
X120790662Y-111500269D01*
X120800871Y-111505105D01*
X120805813Y-111508822D01*
X120831457Y-111541358D01*
X120834559Y-111575138D01*
X120818711Y-111605826D01*
X120808348Y-111618089D01*
X120797196Y-111626450D01*
X120781035Y-111631657D01*
X120755642Y-111634457D01*
X120716798Y-111635596D01*
X120660280Y-111635821D01*
X120649180Y-111635822D01*
X120503244Y-111635822D01*
X120503244Y-111906756D01*
X120503148Y-111992154D01*
X120502711Y-112057864D01*
X120501712Y-112106774D01*
X120499928Y-112141773D01*
X120497137Y-112165749D01*
X120493117Y-112181593D01*
X120487645Y-112192191D01*
X120480666Y-112200267D01*
X120447734Y-112220112D01*
X120413354Y-112218548D01*
X120382176Y-112195906D01*
X120379886Y-112193100D01*
X120372429Y-112182492D01*
X120366747Y-112170081D01*
X120362601Y-112152850D01*
X120359750Y-112127784D01*
X120357954Y-112091867D01*
X120356972Y-112042083D01*
X120356564Y-111975417D01*
X120356489Y-111899589D01*
X120356489Y-111635822D01*
X120217127Y-111635822D01*
X120157322Y-111635418D01*
X120115918Y-111633840D01*
X120088748Y-111630547D01*
X120071646Y-111624992D01*
X120060443Y-111616631D01*
X120059083Y-111615178D01*
X120042725Y-111581939D01*
X120044172Y-111544362D01*
X120062978Y-111511645D01*
X120070250Y-111505298D01*
X120079627Y-111500266D01*
X120093609Y-111496396D01*
X120114696Y-111493537D01*
X120145389Y-111491535D01*
X120188189Y-111490239D01*
X120245595Y-111489498D01*
X120320110Y-111489158D01*
X120414233Y-111489068D01*
X120434260Y-111489067D01*
X120533065Y-111489163D01*
G36*
X119758614Y-111495877D02*
G01*
X119782327Y-111510647D01*
X119808978Y-111532227D01*
X119808978Y-111853773D01*
X119808893Y-111947830D01*
X119808529Y-112021932D01*
X119807724Y-112078704D01*
X119806313Y-112120768D01*
X119804133Y-112150748D01*
X119801021Y-112171267D01*
X119796814Y-112184949D01*
X119791348Y-112194416D01*
X119787472Y-112199082D01*
X119756034Y-112219575D01*
X119720233Y-112218739D01*
X119688873Y-112201264D01*
X119662222Y-112179684D01*
X119662222Y-111532227D01*
X119688873Y-111510647D01*
X119714594Y-111494949D01*
X119735600Y-111489067D01*
X119758614Y-111495877D01*
G37*
X119758614Y-111495877D02*
X119782327Y-111510647D01*
X119808978Y-111532227D01*
X119808978Y-111853773D01*
X119808893Y-111947830D01*
X119808529Y-112021932D01*
X119807724Y-112078704D01*
X119806313Y-112120768D01*
X119804133Y-112150748D01*
X119801021Y-112171267D01*
X119796814Y-112184949D01*
X119791348Y-112194416D01*
X119787472Y-112199082D01*
X119756034Y-112219575D01*
X119720233Y-112218739D01*
X119688873Y-112201264D01*
X119662222Y-112179684D01*
X119662222Y-111532227D01*
X119688873Y-111510647D01*
X119714594Y-111494949D01*
X119735600Y-111489067D01*
X119758614Y-111495877D01*
G36*
X119314665Y-111491034D02*
G01*
X119334255Y-111498035D01*
X119335010Y-111498377D01*
X119361613Y-111518678D01*
X119376270Y-111539561D01*
X119379138Y-111549352D01*
X119378996Y-111562361D01*
X119374961Y-111580895D01*
X119366146Y-111607257D01*
X119351669Y-111643752D01*
X119330645Y-111692687D01*
X119302188Y-111756365D01*
X119265415Y-111837093D01*
X119245175Y-111881216D01*
X119208625Y-111959985D01*
X119174315Y-112032423D01*
X119143552Y-112095880D01*
X119117648Y-112147708D01*
X119097910Y-112185259D01*
X119085650Y-112205884D01*
X119083224Y-112208733D01*
X119052183Y-112221302D01*
X119017121Y-112219619D01*
X118989000Y-112204332D01*
X118987854Y-112203089D01*
X118976668Y-112186154D01*
X118957904Y-112153170D01*
X118933875Y-112108380D01*
X118906897Y-112056032D01*
X118897201Y-112036742D01*
X118824014Y-111890150D01*
X118744240Y-112049393D01*
X118715767Y-112104415D01*
X118689350Y-112152132D01*
X118667148Y-112188893D01*
X118651319Y-112211044D01*
X118645954Y-112215741D01*
X118604257Y-112222102D01*
X118569849Y-112208733D01*
X118559728Y-112194446D01*
X118542214Y-112162692D01*
X118518735Y-112116597D01*
X118490720Y-112059285D01*
X118459599Y-111993880D01*
X118426799Y-111923507D01*
X118393750Y-111851291D01*
X118361881Y-111780355D01*
X118332619Y-111713825D01*
X118307395Y-111654826D01*
X118287636Y-111606481D01*
X118274772Y-111571915D01*
X118270231Y-111554253D01*
X118270277Y-111553613D01*
X118281326Y-111531388D01*
X118303410Y-111508753D01*
X118304710Y-111507768D01*
X118331853Y-111492425D01*
X118356958Y-111492574D01*
X118366368Y-111495466D01*
X118377834Y-111501718D01*
X118390010Y-111514014D01*
X118404357Y-111534908D01*
X118422336Y-111566949D01*
X118445407Y-111612688D01*
X118475030Y-111674677D01*
X118501745Y-111731898D01*
X118532480Y-111798226D01*
X118560021Y-111857874D01*
X118582938Y-111907725D01*
X118599798Y-111944664D01*
X118609173Y-111965573D01*
X118610540Y-111968845D01*
X118616689Y-111963497D01*
X118630822Y-111941109D01*
X118651057Y-111904946D01*
X118675515Y-111858277D01*
X118685248Y-111839022D01*
X118718217Y-111774004D01*
X118743643Y-111726654D01*
X118763612Y-111694219D01*
X118780210Y-111673946D01*
X118795524Y-111663082D01*
X118811640Y-111658875D01*
X118822143Y-111658400D01*
X118840670Y-111660042D01*
X118856904Y-111666831D01*
X118873035Y-111681566D01*
X118891251Y-111707044D01*
X118913739Y-111746061D01*
X118942689Y-111801414D01*
X118958662Y-111832903D01*
X118984570Y-111883087D01*
X119007167Y-111924704D01*
X119024458Y-111954242D01*
X119034450Y-111968189D01*
X119035809Y-111968770D01*
X119042261Y-111957793D01*
X119056708Y-111929290D01*
X119077703Y-111886244D01*
X119103797Y-111831638D01*
X119133546Y-111768454D01*
X119148180Y-111737071D01*
X119186250Y-111656078D01*
X119216905Y-111593756D01*
X119241737Y-111548071D01*
X119262337Y-111516989D01*
X119280298Y-111498478D01*
X119297210Y-111490504D01*
X119314665Y-111491034D01*
G37*
X119314665Y-111491034D02*
X119334255Y-111498035D01*
X119335010Y-111498377D01*
X119361613Y-111518678D01*
X119376270Y-111539561D01*
X119379138Y-111549352D01*
X119378996Y-111562361D01*
X119374961Y-111580895D01*
X119366146Y-111607257D01*
X119351669Y-111643752D01*
X119330645Y-111692687D01*
X119302188Y-111756365D01*
X119265415Y-111837093D01*
X119245175Y-111881216D01*
X119208625Y-111959985D01*
X119174315Y-112032423D01*
X119143552Y-112095880D01*
X119117648Y-112147708D01*
X119097910Y-112185259D01*
X119085650Y-112205884D01*
X119083224Y-112208733D01*
X119052183Y-112221302D01*
X119017121Y-112219619D01*
X118989000Y-112204332D01*
X118987854Y-112203089D01*
X118976668Y-112186154D01*
X118957904Y-112153170D01*
X118933875Y-112108380D01*
X118906897Y-112056032D01*
X118897201Y-112036742D01*
X118824014Y-111890150D01*
X118744240Y-112049393D01*
X118715767Y-112104415D01*
X118689350Y-112152132D01*
X118667148Y-112188893D01*
X118651319Y-112211044D01*
X118645954Y-112215741D01*
X118604257Y-112222102D01*
X118569849Y-112208733D01*
X118559728Y-112194446D01*
X118542214Y-112162692D01*
X118518735Y-112116597D01*
X118490720Y-112059285D01*
X118459599Y-111993880D01*
X118426799Y-111923507D01*
X118393750Y-111851291D01*
X118361881Y-111780355D01*
X118332619Y-111713825D01*
X118307395Y-111654826D01*
X118287636Y-111606481D01*
X118274772Y-111571915D01*
X118270231Y-111554253D01*
X118270277Y-111553613D01*
X118281326Y-111531388D01*
X118303410Y-111508753D01*
X118304710Y-111507768D01*
X118331853Y-111492425D01*
X118356958Y-111492574D01*
X118366368Y-111495466D01*
X118377834Y-111501718D01*
X118390010Y-111514014D01*
X118404357Y-111534908D01*
X118422336Y-111566949D01*
X118445407Y-111612688D01*
X118475030Y-111674677D01*
X118501745Y-111731898D01*
X118532480Y-111798226D01*
X118560021Y-111857874D01*
X118582938Y-111907725D01*
X118599798Y-111944664D01*
X118609173Y-111965573D01*
X118610540Y-111968845D01*
X118616689Y-111963497D01*
X118630822Y-111941109D01*
X118651057Y-111904946D01*
X118675515Y-111858277D01*
X118685248Y-111839022D01*
X118718217Y-111774004D01*
X118743643Y-111726654D01*
X118763612Y-111694219D01*
X118780210Y-111673946D01*
X118795524Y-111663082D01*
X118811640Y-111658875D01*
X118822143Y-111658400D01*
X118840670Y-111660042D01*
X118856904Y-111666831D01*
X118873035Y-111681566D01*
X118891251Y-111707044D01*
X118913739Y-111746061D01*
X118942689Y-111801414D01*
X118958662Y-111832903D01*
X118984570Y-111883087D01*
X119007167Y-111924704D01*
X119024458Y-111954242D01*
X119034450Y-111968189D01*
X119035809Y-111968770D01*
X119042261Y-111957793D01*
X119056708Y-111929290D01*
X119077703Y-111886244D01*
X119103797Y-111831638D01*
X119133546Y-111768454D01*
X119148180Y-111737071D01*
X119186250Y-111656078D01*
X119216905Y-111593756D01*
X119241737Y-111548071D01*
X119262337Y-111516989D01*
X119280298Y-111498478D01*
X119297210Y-111490504D01*
X119314665Y-111491034D01*
G36*
X116588309Y-111489275D02*
G01*
X116717288Y-111493636D01*
X116826991Y-111506861D01*
X116919226Y-111529741D01*
X116995802Y-111563070D01*
X117058527Y-111607638D01*
X117109212Y-111664236D01*
X117149663Y-111733658D01*
X117150459Y-111735351D01*
X117174601Y-111797483D01*
X117183203Y-111852509D01*
X117176231Y-111907887D01*
X117153654Y-111971073D01*
X117149372Y-111980689D01*
X117120172Y-112036966D01*
X117087356Y-112080451D01*
X117045002Y-112117417D01*
X116987190Y-112154135D01*
X116983831Y-112156052D01*
X116933504Y-112180227D01*
X116876621Y-112198282D01*
X116809527Y-112210839D01*
X116728565Y-112218522D01*
X116630082Y-112221953D01*
X116595286Y-112222251D01*
X116429594Y-112222845D01*
X116406197Y-112193100D01*
X116399257Y-112183319D01*
X116393842Y-112171897D01*
X116389765Y-112156095D01*
X116386837Y-112133175D01*
X116384867Y-112100396D01*
X116384225Y-112076089D01*
X116540844Y-112076089D01*
X116634726Y-112076089D01*
X116689664Y-112074483D01*
X116746060Y-112070255D01*
X116792345Y-112064292D01*
X116795139Y-112063790D01*
X116877348Y-112041736D01*
X116941114Y-112008600D01*
X116988452Y-111962847D01*
X117021382Y-111902939D01*
X117027108Y-111887061D01*
X117032721Y-111862333D01*
X117030291Y-111837902D01*
X117018467Y-111805400D01*
X117011340Y-111789434D01*
X116988000Y-111747006D01*
X116959880Y-111717240D01*
X116928940Y-111696511D01*
X116866966Y-111669537D01*
X116787651Y-111649998D01*
X116695253Y-111638746D01*
X116628333Y-111636270D01*
X116540844Y-111635822D01*
X116540844Y-112076089D01*
X116384225Y-112076089D01*
X116383668Y-112055021D01*
X116383050Y-111994311D01*
X116382825Y-111915526D01*
X116382800Y-111853920D01*
X116382800Y-111544485D01*
X116410509Y-111516776D01*
X116422806Y-111505544D01*
X116436103Y-111497853D01*
X116454672Y-111493040D01*
X116482786Y-111490446D01*
X116524717Y-111489410D01*
X116584737Y-111489270D01*
X116588309Y-111489275D01*
G37*
X116588309Y-111489275D02*
X116717288Y-111493636D01*
X116826991Y-111506861D01*
X116919226Y-111529741D01*
X116995802Y-111563070D01*
X117058527Y-111607638D01*
X117109212Y-111664236D01*
X117149663Y-111733658D01*
X117150459Y-111735351D01*
X117174601Y-111797483D01*
X117183203Y-111852509D01*
X117176231Y-111907887D01*
X117153654Y-111971073D01*
X117149372Y-111980689D01*
X117120172Y-112036966D01*
X117087356Y-112080451D01*
X117045002Y-112117417D01*
X116987190Y-112154135D01*
X116983831Y-112156052D01*
X116933504Y-112180227D01*
X116876621Y-112198282D01*
X116809527Y-112210839D01*
X116728565Y-112218522D01*
X116630082Y-112221953D01*
X116595286Y-112222251D01*
X116429594Y-112222845D01*
X116406197Y-112193100D01*
X116399257Y-112183319D01*
X116393842Y-112171897D01*
X116389765Y-112156095D01*
X116386837Y-112133175D01*
X116384867Y-112100396D01*
X116384225Y-112076089D01*
X116540844Y-112076089D01*
X116634726Y-112076089D01*
X116689664Y-112074483D01*
X116746060Y-112070255D01*
X116792345Y-112064292D01*
X116795139Y-112063790D01*
X116877348Y-112041736D01*
X116941114Y-112008600D01*
X116988452Y-111962847D01*
X117021382Y-111902939D01*
X117027108Y-111887061D01*
X117032721Y-111862333D01*
X117030291Y-111837902D01*
X117018467Y-111805400D01*
X117011340Y-111789434D01*
X116988000Y-111747006D01*
X116959880Y-111717240D01*
X116928940Y-111696511D01*
X116866966Y-111669537D01*
X116787651Y-111649998D01*
X116695253Y-111638746D01*
X116628333Y-111636270D01*
X116540844Y-111635822D01*
X116540844Y-112076089D01*
X116384225Y-112076089D01*
X116383668Y-112055021D01*
X116383050Y-111994311D01*
X116382825Y-111915526D01*
X116382800Y-111853920D01*
X116382800Y-111544485D01*
X116410509Y-111516776D01*
X116422806Y-111505544D01*
X116436103Y-111497853D01*
X116454672Y-111493040D01*
X116482786Y-111490446D01*
X116524717Y-111489410D01*
X116584737Y-111489270D01*
X116588309Y-111489275D01*
G36*
X115800343Y-111489260D02*
G01*
X115876701Y-111490174D01*
X115935217Y-111492311D01*
X115978255Y-111496175D01*
X116008183Y-111502267D01*
X116027368Y-111511090D01*
X116038176Y-111523146D01*
X116042973Y-111538939D01*
X116044127Y-111558970D01*
X116044133Y-111561335D01*
X116043131Y-111583992D01*
X116038396Y-111601503D01*
X116027333Y-111614574D01*
X116007348Y-111623913D01*
X115975846Y-111630227D01*
X115930232Y-111634222D01*
X115867913Y-111636606D01*
X115786293Y-111638086D01*
X115761277Y-111638414D01*
X115519200Y-111641467D01*
X115515814Y-111706378D01*
X115512429Y-111771289D01*
X115680576Y-111771289D01*
X115746266Y-111771531D01*
X115793172Y-111772556D01*
X115825083Y-111774811D01*
X115845791Y-111778742D01*
X115859084Y-111784798D01*
X115868755Y-111793424D01*
X115868817Y-111793493D01*
X115886356Y-111827112D01*
X115885722Y-111863448D01*
X115867314Y-111894423D01*
X115863671Y-111897607D01*
X115850741Y-111905812D01*
X115833024Y-111911521D01*
X115806570Y-111915162D01*
X115767432Y-111917167D01*
X115711662Y-111917964D01*
X115675994Y-111918045D01*
X115513555Y-111918045D01*
X115513555Y-112076089D01*
X115760161Y-112076089D01*
X115841580Y-112076231D01*
X115903410Y-112076814D01*
X115948637Y-112078068D01*
X115980248Y-112080227D01*
X116001231Y-112083523D01*
X116014573Y-112088189D01*
X116023261Y-112094457D01*
X116025450Y-112096733D01*
X116041614Y-112128280D01*
X116042797Y-112164168D01*
X116029536Y-112195285D01*
X116019043Y-112205271D01*
X116008129Y-112210769D01*
X115991217Y-112215022D01*
X115965633Y-112218180D01*
X115928701Y-112220392D01*
X115877746Y-112221806D01*
X115810094Y-112222572D01*
X115723069Y-112222838D01*
X115703394Y-112222845D01*
X115614911Y-112222787D01*
X115546227Y-112222467D01*
X115494564Y-112221667D01*
X115457145Y-112220167D01*
X115431190Y-112217749D01*
X115413922Y-112214194D01*
X115402562Y-112209282D01*
X115394332Y-112202795D01*
X115389817Y-112198138D01*
X115383021Y-112189889D01*
X115377712Y-112179669D01*
X115373706Y-112164800D01*
X115370821Y-112142602D01*
X115368874Y-112110393D01*
X115367681Y-112065496D01*
X115367061Y-112005228D01*
X115366829Y-111926911D01*
X115366800Y-111860994D01*
X115366871Y-111768628D01*
X115367208Y-111696117D01*
X115367998Y-111640737D01*
X115369426Y-111599765D01*
X115371679Y-111570478D01*
X115374943Y-111550153D01*
X115379404Y-111536066D01*
X115385248Y-111525495D01*
X115390197Y-111518811D01*
X115413594Y-111489067D01*
X115703774Y-111489067D01*
X115800343Y-111489260D01*
G37*
X115800343Y-111489260D02*
X115876701Y-111490174D01*
X115935217Y-111492311D01*
X115978255Y-111496175D01*
X116008183Y-111502267D01*
X116027368Y-111511090D01*
X116038176Y-111523146D01*
X116042973Y-111538939D01*
X116044127Y-111558970D01*
X116044133Y-111561335D01*
X116043131Y-111583992D01*
X116038396Y-111601503D01*
X116027333Y-111614574D01*
X116007348Y-111623913D01*
X115975846Y-111630227D01*
X115930232Y-111634222D01*
X115867913Y-111636606D01*
X115786293Y-111638086D01*
X115761277Y-111638414D01*
X115519200Y-111641467D01*
X115515814Y-111706378D01*
X115512429Y-111771289D01*
X115680576Y-111771289D01*
X115746266Y-111771531D01*
X115793172Y-111772556D01*
X115825083Y-111774811D01*
X115845791Y-111778742D01*
X115859084Y-111784798D01*
X115868755Y-111793424D01*
X115868817Y-111793493D01*
X115886356Y-111827112D01*
X115885722Y-111863448D01*
X115867314Y-111894423D01*
X115863671Y-111897607D01*
X115850741Y-111905812D01*
X115833024Y-111911521D01*
X115806570Y-111915162D01*
X115767432Y-111917167D01*
X115711662Y-111917964D01*
X115675994Y-111918045D01*
X115513555Y-111918045D01*
X115513555Y-112076089D01*
X115760161Y-112076089D01*
X115841580Y-112076231D01*
X115903410Y-112076814D01*
X115948637Y-112078068D01*
X115980248Y-112080227D01*
X116001231Y-112083523D01*
X116014573Y-112088189D01*
X116023261Y-112094457D01*
X116025450Y-112096733D01*
X116041614Y-112128280D01*
X116042797Y-112164168D01*
X116029536Y-112195285D01*
X116019043Y-112205271D01*
X116008129Y-112210769D01*
X115991217Y-112215022D01*
X115965633Y-112218180D01*
X115928701Y-112220392D01*
X115877746Y-112221806D01*
X115810094Y-112222572D01*
X115723069Y-112222838D01*
X115703394Y-112222845D01*
X115614911Y-112222787D01*
X115546227Y-112222467D01*
X115494564Y-112221667D01*
X115457145Y-112220167D01*
X115431190Y-112217749D01*
X115413922Y-112214194D01*
X115402562Y-112209282D01*
X115394332Y-112202795D01*
X115389817Y-112198138D01*
X115383021Y-112189889D01*
X115377712Y-112179669D01*
X115373706Y-112164800D01*
X115370821Y-112142602D01*
X115368874Y-112110393D01*
X115367681Y-112065496D01*
X115367061Y-112005228D01*
X115366829Y-111926911D01*
X115366800Y-111860994D01*
X115366871Y-111768628D01*
X115367208Y-111696117D01*
X115367998Y-111640737D01*
X115369426Y-111599765D01*
X115371679Y-111570478D01*
X115374943Y-111550153D01*
X115379404Y-111536066D01*
X115385248Y-111525495D01*
X115390197Y-111518811D01*
X115413594Y-111489067D01*
X115703774Y-111489067D01*
X115800343Y-111489260D01*
G36*
X114269886Y-111493448D02*
G01*
X114293452Y-111507273D01*
X114324265Y-111529881D01*
X114363922Y-111562338D01*
X114414020Y-111605708D01*
X114476157Y-111661058D01*
X114551928Y-111729451D01*
X114638666Y-111808084D01*
X114819289Y-111971878D01*
X114824933Y-111752029D01*
X114826971Y-111676351D01*
X114828937Y-111619994D01*
X114831266Y-111579706D01*
X114834394Y-111552235D01*
X114838755Y-111534329D01*
X114844784Y-111522737D01*
X114852916Y-111514208D01*
X114857228Y-111510623D01*
X114891759Y-111491670D01*
X114924617Y-111494441D01*
X114950682Y-111510633D01*
X114977333Y-111532199D01*
X114980648Y-111847151D01*
X114981565Y-111939779D01*
X114982032Y-112012544D01*
X114981887Y-112068161D01*
X114980968Y-112109342D01*
X114979113Y-112138803D01*
X114976161Y-112159255D01*
X114971950Y-112173413D01*
X114966318Y-112183991D01*
X114960073Y-112192474D01*
X114946561Y-112208207D01*
X114933117Y-112218636D01*
X114917876Y-112222639D01*
X114898974Y-112219094D01*
X114874545Y-112206879D01*
X114842727Y-112184871D01*
X114801652Y-112151949D01*
X114749458Y-112106991D01*
X114684278Y-112048875D01*
X114610444Y-111982099D01*
X114345155Y-111741458D01*
X114339511Y-111960589D01*
X114337469Y-112036128D01*
X114335498Y-112092354D01*
X114333161Y-112132524D01*
X114330019Y-112159896D01*
X114325636Y-112177728D01*
X114319576Y-112189279D01*
X114311400Y-112197807D01*
X114307216Y-112201282D01*
X114270235Y-112220372D01*
X114235292Y-112217493D01*
X114204864Y-112193100D01*
X114197903Y-112183286D01*
X114192477Y-112171826D01*
X114188397Y-112155968D01*
X114185471Y-112132963D01*
X114183508Y-112100062D01*
X114182317Y-112054516D01*
X114181708Y-111993573D01*
X114181489Y-111914486D01*
X114181466Y-111855956D01*
X114181540Y-111764407D01*
X114181887Y-111692687D01*
X114182699Y-111638045D01*
X114184167Y-111597732D01*
X114186481Y-111568998D01*
X114189833Y-111549093D01*
X114194412Y-111535268D01*
X114200411Y-111524772D01*
X114204864Y-111518811D01*
X114216150Y-111504691D01*
X114226699Y-111494029D01*
X114238107Y-111487892D01*
X114251970Y-111487343D01*
X114269886Y-111493448D01*
G37*
X114269886Y-111493448D02*
X114293452Y-111507273D01*
X114324265Y-111529881D01*
X114363922Y-111562338D01*
X114414020Y-111605708D01*
X114476157Y-111661058D01*
X114551928Y-111729451D01*
X114638666Y-111808084D01*
X114819289Y-111971878D01*
X114824933Y-111752029D01*
X114826971Y-111676351D01*
X114828937Y-111619994D01*
X114831266Y-111579706D01*
X114834394Y-111552235D01*
X114838755Y-111534329D01*
X114844784Y-111522737D01*
X114852916Y-111514208D01*
X114857228Y-111510623D01*
X114891759Y-111491670D01*
X114924617Y-111494441D01*
X114950682Y-111510633D01*
X114977333Y-111532199D01*
X114980648Y-111847151D01*
X114981565Y-111939779D01*
X114982032Y-112012544D01*
X114981887Y-112068161D01*
X114980968Y-112109342D01*
X114979113Y-112138803D01*
X114976161Y-112159255D01*
X114971950Y-112173413D01*
X114966318Y-112183991D01*
X114960073Y-112192474D01*
X114946561Y-112208207D01*
X114933117Y-112218636D01*
X114917876Y-112222639D01*
X114898974Y-112219094D01*
X114874545Y-112206879D01*
X114842727Y-112184871D01*
X114801652Y-112151949D01*
X114749458Y-112106991D01*
X114684278Y-112048875D01*
X114610444Y-111982099D01*
X114345155Y-111741458D01*
X114339511Y-111960589D01*
X114337469Y-112036128D01*
X114335498Y-112092354D01*
X114333161Y-112132524D01*
X114330019Y-112159896D01*
X114325636Y-112177728D01*
X114319576Y-112189279D01*
X114311400Y-112197807D01*
X114307216Y-112201282D01*
X114270235Y-112220372D01*
X114235292Y-112217493D01*
X114204864Y-112193100D01*
X114197903Y-112183286D01*
X114192477Y-112171826D01*
X114188397Y-112155968D01*
X114185471Y-112132963D01*
X114183508Y-112100062D01*
X114182317Y-112054516D01*
X114181708Y-111993573D01*
X114181489Y-111914486D01*
X114181466Y-111855956D01*
X114181540Y-111764407D01*
X114181887Y-111692687D01*
X114182699Y-111638045D01*
X114184167Y-111597732D01*
X114186481Y-111568998D01*
X114189833Y-111549093D01*
X114194412Y-111535268D01*
X114200411Y-111524772D01*
X114204864Y-111518811D01*
X114216150Y-111504691D01*
X114226699Y-111494029D01*
X114238107Y-111487892D01*
X114251970Y-111487343D01*
X114269886Y-111493448D01*
G36*
X113619919Y-111494599D02*
G01*
X113688435Y-111506095D01*
X113741057Y-111523967D01*
X113775292Y-111547499D01*
X113784621Y-111560924D01*
X113794107Y-111592148D01*
X113787723Y-111620395D01*
X113767570Y-111647182D01*
X113736255Y-111659713D01*
X113690817Y-111658696D01*
X113655674Y-111651906D01*
X113577581Y-111638971D01*
X113497774Y-111637742D01*
X113408445Y-111648241D01*
X113383771Y-111652690D01*
X113300709Y-111676108D01*
X113235727Y-111710945D01*
X113189539Y-111756604D01*
X113162855Y-111812494D01*
X113157337Y-111841388D01*
X113160949Y-111900012D01*
X113184271Y-111951879D01*
X113225176Y-111995978D01*
X113281541Y-112031299D01*
X113351240Y-112056829D01*
X113432148Y-112071559D01*
X113522140Y-112074478D01*
X113619090Y-112064575D01*
X113624564Y-112063641D01*
X113663125Y-112056459D01*
X113684506Y-112049521D01*
X113693773Y-112039227D01*
X113695994Y-112021976D01*
X113696044Y-112012841D01*
X113696044Y-111974489D01*
X113627569Y-111974489D01*
X113567100Y-111970347D01*
X113525835Y-111957147D01*
X113501825Y-111933730D01*
X113493123Y-111898936D01*
X113493017Y-111894394D01*
X113498108Y-111864654D01*
X113515567Y-111843419D01*
X113548061Y-111829366D01*
X113598257Y-111821173D01*
X113646877Y-111818161D01*
X113717544Y-111816433D01*
X113768802Y-111819070D01*
X113803761Y-111828800D01*
X113825530Y-111848353D01*
X113837220Y-111880456D01*
X113841940Y-111927838D01*
X113842800Y-111990071D01*
X113841391Y-112059535D01*
X113837152Y-112106786D01*
X113830064Y-112132012D01*
X113828689Y-112133988D01*
X113789772Y-112165508D01*
X113732714Y-112190470D01*
X113661131Y-112208340D01*
X113578642Y-112218586D01*
X113488861Y-112220673D01*
X113395408Y-112214068D01*
X113340444Y-112205956D01*
X113254234Y-112181554D01*
X113174108Y-112141662D01*
X113107023Y-112089887D01*
X113096827Y-112079539D01*
X113063698Y-112036035D01*
X113033806Y-111982118D01*
X113010643Y-111925592D01*
X112997702Y-111874259D01*
X112996142Y-111854544D01*
X113002782Y-111813419D01*
X113020432Y-111762252D01*
X113045703Y-111708394D01*
X113075211Y-111659195D01*
X113101281Y-111626334D01*
X113162235Y-111577452D01*
X113241031Y-111538545D01*
X113334843Y-111510494D01*
X113440850Y-111494179D01*
X113538000Y-111490192D01*
X113619919Y-111494599D01*
G37*
X113619919Y-111494599D02*
X113688435Y-111506095D01*
X113741057Y-111523967D01*
X113775292Y-111547499D01*
X113784621Y-111560924D01*
X113794107Y-111592148D01*
X113787723Y-111620395D01*
X113767570Y-111647182D01*
X113736255Y-111659713D01*
X113690817Y-111658696D01*
X113655674Y-111651906D01*
X113577581Y-111638971D01*
X113497774Y-111637742D01*
X113408445Y-111648241D01*
X113383771Y-111652690D01*
X113300709Y-111676108D01*
X113235727Y-111710945D01*
X113189539Y-111756604D01*
X113162855Y-111812494D01*
X113157337Y-111841388D01*
X113160949Y-111900012D01*
X113184271Y-111951879D01*
X113225176Y-111995978D01*
X113281541Y-112031299D01*
X113351240Y-112056829D01*
X113432148Y-112071559D01*
X113522140Y-112074478D01*
X113619090Y-112064575D01*
X113624564Y-112063641D01*
X113663125Y-112056459D01*
X113684506Y-112049521D01*
X113693773Y-112039227D01*
X113695994Y-112021976D01*
X113696044Y-112012841D01*
X113696044Y-111974489D01*
X113627569Y-111974489D01*
X113567100Y-111970347D01*
X113525835Y-111957147D01*
X113501825Y-111933730D01*
X113493123Y-111898936D01*
X113493017Y-111894394D01*
X113498108Y-111864654D01*
X113515567Y-111843419D01*
X113548061Y-111829366D01*
X113598257Y-111821173D01*
X113646877Y-111818161D01*
X113717544Y-111816433D01*
X113768802Y-111819070D01*
X113803761Y-111828800D01*
X113825530Y-111848353D01*
X113837220Y-111880456D01*
X113841940Y-111927838D01*
X113842800Y-111990071D01*
X113841391Y-112059535D01*
X113837152Y-112106786D01*
X113830064Y-112132012D01*
X113828689Y-112133988D01*
X113789772Y-112165508D01*
X113732714Y-112190470D01*
X113661131Y-112208340D01*
X113578642Y-112218586D01*
X113488861Y-112220673D01*
X113395408Y-112214068D01*
X113340444Y-112205956D01*
X113254234Y-112181554D01*
X113174108Y-112141662D01*
X113107023Y-112089887D01*
X113096827Y-112079539D01*
X113063698Y-112036035D01*
X113033806Y-111982118D01*
X113010643Y-111925592D01*
X112997702Y-111874259D01*
X112996142Y-111854544D01*
X113002782Y-111813419D01*
X113020432Y-111762252D01*
X113045703Y-111708394D01*
X113075211Y-111659195D01*
X113101281Y-111626334D01*
X113162235Y-111577452D01*
X113241031Y-111538545D01*
X113334843Y-111510494D01*
X113440850Y-111494179D01*
X113538000Y-111490192D01*
X113619919Y-111494599D01*
G36*
X112646178Y-111511645D02*
G01*
X112652758Y-111519218D01*
X112657921Y-111528987D01*
X112661836Y-111543571D01*
X112664676Y-111565585D01*
X112666613Y-111597648D01*
X112667817Y-111642375D01*
X112668461Y-111702385D01*
X112668716Y-111780294D01*
X112668755Y-111855956D01*
X112668686Y-111949802D01*
X112668362Y-112023689D01*
X112667614Y-112080232D01*
X112666268Y-112122049D01*
X112664154Y-112151757D01*
X112661100Y-112171973D01*
X112656934Y-112185314D01*
X112651484Y-112194398D01*
X112646178Y-112200267D01*
X112613174Y-112219947D01*
X112578009Y-112218181D01*
X112546545Y-112196717D01*
X112539316Y-112188337D01*
X112533666Y-112178614D01*
X112529401Y-112164861D01*
X112526327Y-112144389D01*
X112524248Y-112114512D01*
X112522970Y-112072541D01*
X112522299Y-112015789D01*
X112522041Y-111941567D01*
X112522000Y-111857537D01*
X112522000Y-111544485D01*
X112549709Y-111516776D01*
X112583863Y-111493463D01*
X112616994Y-111492623D01*
X112646178Y-111511645D01*
G37*
X112646178Y-111511645D02*
X112652758Y-111519218D01*
X112657921Y-111528987D01*
X112661836Y-111543571D01*
X112664676Y-111565585D01*
X112666613Y-111597648D01*
X112667817Y-111642375D01*
X112668461Y-111702385D01*
X112668716Y-111780294D01*
X112668755Y-111855956D01*
X112668686Y-111949802D01*
X112668362Y-112023689D01*
X112667614Y-112080232D01*
X112666268Y-112122049D01*
X112664154Y-112151757D01*
X112661100Y-112171973D01*
X112656934Y-112185314D01*
X112651484Y-112194398D01*
X112646178Y-112200267D01*
X112613174Y-112219947D01*
X112578009Y-112218181D01*
X112546545Y-112196717D01*
X112539316Y-112188337D01*
X112533666Y-112178614D01*
X112529401Y-112164861D01*
X112526327Y-112144389D01*
X112524248Y-112114512D01*
X112522970Y-112072541D01*
X112522299Y-112015789D01*
X112522041Y-111941567D01*
X112522000Y-111857537D01*
X112522000Y-111544485D01*
X112549709Y-111516776D01*
X112583863Y-111493463D01*
X112616994Y-111492623D01*
X112646178Y-111511645D01*
G36*
X111878297Y-111490351D02*
G01*
X111953112Y-111495581D01*
X112022694Y-111503750D01*
X112082998Y-111514550D01*
X112129980Y-111527673D01*
X112159594Y-111542813D01*
X112164140Y-111547269D01*
X112179946Y-111581850D01*
X112175153Y-111617351D01*
X112150636Y-111647725D01*
X112149466Y-111648596D01*
X112135046Y-111657954D01*
X112119992Y-111662876D01*
X112098995Y-111663473D01*
X112066743Y-111659861D01*
X112017927Y-111652154D01*
X112014000Y-111651505D01*
X111941261Y-111642569D01*
X111862783Y-111638161D01*
X111784073Y-111638119D01*
X111710639Y-111642279D01*
X111647989Y-111650479D01*
X111601630Y-111662557D01*
X111598584Y-111663771D01*
X111564952Y-111682615D01*
X111553136Y-111701685D01*
X111562386Y-111720439D01*
X111591953Y-111738337D01*
X111641089Y-111754837D01*
X111709043Y-111769396D01*
X111754355Y-111776406D01*
X111848544Y-111789889D01*
X111923456Y-111802214D01*
X111982283Y-111814449D01*
X112028215Y-111827661D01*
X112064445Y-111842917D01*
X112094162Y-111861285D01*
X112120558Y-111883831D01*
X112141770Y-111905971D01*
X112166935Y-111936819D01*
X112179319Y-111963345D01*
X112183192Y-111996026D01*
X112183333Y-112007995D01*
X112180424Y-112047712D01*
X112168798Y-112077259D01*
X112148677Y-112103486D01*
X112107784Y-112143576D01*
X112062183Y-112174149D01*
X112008487Y-112196203D01*
X111943308Y-112210735D01*
X111863256Y-112218741D01*
X111764943Y-112221218D01*
X111748711Y-112221177D01*
X111683151Y-112219818D01*
X111618134Y-112216730D01*
X111560748Y-112212356D01*
X111518078Y-112207140D01*
X111514628Y-112206541D01*
X111472204Y-112196491D01*
X111436220Y-112183796D01*
X111415850Y-112172190D01*
X111396893Y-112141572D01*
X111395573Y-112105918D01*
X111411915Y-112074144D01*
X111415571Y-112070551D01*
X111430685Y-112059876D01*
X111449585Y-112055276D01*
X111478838Y-112056059D01*
X111514349Y-112060127D01*
X111554030Y-112063762D01*
X111609655Y-112066828D01*
X111674594Y-112069053D01*
X111742215Y-112070164D01*
X111760000Y-112070237D01*
X111827872Y-112069964D01*
X111877546Y-112068646D01*
X111913390Y-112065827D01*
X111939776Y-112061050D01*
X111961074Y-112053857D01*
X111973874Y-112047867D01*
X112002000Y-112031233D01*
X112019932Y-112016168D01*
X112022553Y-112011897D01*
X112017024Y-111994263D01*
X111990740Y-111977192D01*
X111945522Y-111961458D01*
X111883192Y-111947838D01*
X111864829Y-111944804D01*
X111768910Y-111929738D01*
X111692359Y-111917146D01*
X111632220Y-111906111D01*
X111585540Y-111895720D01*
X111549363Y-111885056D01*
X111520735Y-111873205D01*
X111496702Y-111859251D01*
X111474308Y-111842281D01*
X111450598Y-111821378D01*
X111442620Y-111814049D01*
X111414647Y-111786699D01*
X111399840Y-111765029D01*
X111394048Y-111740232D01*
X111393111Y-111708983D01*
X111403425Y-111647705D01*
X111434248Y-111595640D01*
X111485405Y-111552958D01*
X111556717Y-111519825D01*
X111607600Y-111504964D01*
X111662900Y-111495366D01*
X111729147Y-111489936D01*
X111802294Y-111488367D01*
X111878297Y-111490351D01*
G37*
X111878297Y-111490351D02*
X111953112Y-111495581D01*
X112022694Y-111503750D01*
X112082998Y-111514550D01*
X112129980Y-111527673D01*
X112159594Y-111542813D01*
X112164140Y-111547269D01*
X112179946Y-111581850D01*
X112175153Y-111617351D01*
X112150636Y-111647725D01*
X112149466Y-111648596D01*
X112135046Y-111657954D01*
X112119992Y-111662876D01*
X112098995Y-111663473D01*
X112066743Y-111659861D01*
X112017927Y-111652154D01*
X112014000Y-111651505D01*
X111941261Y-111642569D01*
X111862783Y-111638161D01*
X111784073Y-111638119D01*
X111710639Y-111642279D01*
X111647989Y-111650479D01*
X111601630Y-111662557D01*
X111598584Y-111663771D01*
X111564952Y-111682615D01*
X111553136Y-111701685D01*
X111562386Y-111720439D01*
X111591953Y-111738337D01*
X111641089Y-111754837D01*
X111709043Y-111769396D01*
X111754355Y-111776406D01*
X111848544Y-111789889D01*
X111923456Y-111802214D01*
X111982283Y-111814449D01*
X112028215Y-111827661D01*
X112064445Y-111842917D01*
X112094162Y-111861285D01*
X112120558Y-111883831D01*
X112141770Y-111905971D01*
X112166935Y-111936819D01*
X112179319Y-111963345D01*
X112183192Y-111996026D01*
X112183333Y-112007995D01*
X112180424Y-112047712D01*
X112168798Y-112077259D01*
X112148677Y-112103486D01*
X112107784Y-112143576D01*
X112062183Y-112174149D01*
X112008487Y-112196203D01*
X111943308Y-112210735D01*
X111863256Y-112218741D01*
X111764943Y-112221218D01*
X111748711Y-112221177D01*
X111683151Y-112219818D01*
X111618134Y-112216730D01*
X111560748Y-112212356D01*
X111518078Y-112207140D01*
X111514628Y-112206541D01*
X111472204Y-112196491D01*
X111436220Y-112183796D01*
X111415850Y-112172190D01*
X111396893Y-112141572D01*
X111395573Y-112105918D01*
X111411915Y-112074144D01*
X111415571Y-112070551D01*
X111430685Y-112059876D01*
X111449585Y-112055276D01*
X111478838Y-112056059D01*
X111514349Y-112060127D01*
X111554030Y-112063762D01*
X111609655Y-112066828D01*
X111674594Y-112069053D01*
X111742215Y-112070164D01*
X111760000Y-112070237D01*
X111827872Y-112069964D01*
X111877546Y-112068646D01*
X111913390Y-112065827D01*
X111939776Y-112061050D01*
X111961074Y-112053857D01*
X111973874Y-112047867D01*
X112002000Y-112031233D01*
X112019932Y-112016168D01*
X112022553Y-112011897D01*
X112017024Y-111994263D01*
X111990740Y-111977192D01*
X111945522Y-111961458D01*
X111883192Y-111947838D01*
X111864829Y-111944804D01*
X111768910Y-111929738D01*
X111692359Y-111917146D01*
X111632220Y-111906111D01*
X111585540Y-111895720D01*
X111549363Y-111885056D01*
X111520735Y-111873205D01*
X111496702Y-111859251D01*
X111474308Y-111842281D01*
X111450598Y-111821378D01*
X111442620Y-111814049D01*
X111414647Y-111786699D01*
X111399840Y-111765029D01*
X111394048Y-111740232D01*
X111393111Y-111708983D01*
X111403425Y-111647705D01*
X111434248Y-111595640D01*
X111485405Y-111552958D01*
X111556717Y-111519825D01*
X111607600Y-111504964D01*
X111662900Y-111495366D01*
X111729147Y-111489936D01*
X111802294Y-111488367D01*
X111878297Y-111490351D01*
G36*
X110857206Y-111489146D02*
G01*
X110926614Y-111489518D01*
X110979003Y-111490385D01*
X111017153Y-111491946D01*
X111043841Y-111494403D01*
X111061847Y-111497957D01*
X111073951Y-111502810D01*
X111082931Y-111509161D01*
X111086182Y-111512084D01*
X111105957Y-111543142D01*
X111109518Y-111578828D01*
X111096509Y-111610510D01*
X111090494Y-111616913D01*
X111080765Y-111623121D01*
X111065099Y-111627910D01*
X111040592Y-111631514D01*
X111004339Y-111634164D01*
X110953435Y-111636095D01*
X110884974Y-111637539D01*
X110822383Y-111638418D01*
X110574666Y-111641467D01*
X110571281Y-111706378D01*
X110567895Y-111771289D01*
X110736042Y-111771289D01*
X110809041Y-111771919D01*
X110862483Y-111774553D01*
X110899372Y-111780309D01*
X110922712Y-111790304D01*
X110935506Y-111805656D01*
X110940758Y-111827482D01*
X110941555Y-111847738D01*
X110939077Y-111872592D01*
X110929723Y-111890906D01*
X110910617Y-111903637D01*
X110878882Y-111911741D01*
X110831641Y-111916176D01*
X110766017Y-111917899D01*
X110730199Y-111918045D01*
X110569022Y-111918045D01*
X110569022Y-112076089D01*
X110817378Y-112076089D01*
X110898787Y-112076202D01*
X110960658Y-112076712D01*
X111006032Y-112077870D01*
X111037946Y-112079930D01*
X111059441Y-112083146D01*
X111073557Y-112087772D01*
X111083332Y-112094059D01*
X111088311Y-112098667D01*
X111105390Y-112125560D01*
X111110889Y-112149467D01*
X111103037Y-112178667D01*
X111088311Y-112200267D01*
X111080454Y-112207066D01*
X111070312Y-112212346D01*
X111055156Y-112216298D01*
X111032259Y-112219113D01*
X110998891Y-112220982D01*
X110952325Y-112222098D01*
X110889833Y-112222651D01*
X110808686Y-112222833D01*
X110766578Y-112222845D01*
X110676402Y-112222765D01*
X110606076Y-112222398D01*
X110552871Y-112221552D01*
X110514060Y-112220036D01*
X110486913Y-112217659D01*
X110468702Y-112214229D01*
X110456700Y-112209554D01*
X110448178Y-112203444D01*
X110444844Y-112200267D01*
X110438245Y-112192670D01*
X110433073Y-112182870D01*
X110429154Y-112168239D01*
X110426316Y-112146152D01*
X110424385Y-112113982D01*
X110423188Y-112069103D01*
X110422552Y-112008889D01*
X110422303Y-111930713D01*
X110422266Y-111857923D01*
X110422300Y-111764707D01*
X110422535Y-111691431D01*
X110423170Y-111635458D01*
X110424406Y-111594151D01*
X110426444Y-111564872D01*
X110429483Y-111544984D01*
X110433723Y-111531850D01*
X110439365Y-111522832D01*
X110446609Y-111515293D01*
X110448394Y-111513612D01*
X110457055Y-111506172D01*
X110467118Y-111500409D01*
X110481375Y-111496112D01*
X110502617Y-111493064D01*
X110533636Y-111491051D01*
X110577223Y-111489860D01*
X110636169Y-111489275D01*
X110713266Y-111489083D01*
X110767999Y-111489067D01*
X110857206Y-111489146D01*
G37*
X110857206Y-111489146D02*
X110926614Y-111489518D01*
X110979003Y-111490385D01*
X111017153Y-111491946D01*
X111043841Y-111494403D01*
X111061847Y-111497957D01*
X111073951Y-111502810D01*
X111082931Y-111509161D01*
X111086182Y-111512084D01*
X111105957Y-111543142D01*
X111109518Y-111578828D01*
X111096509Y-111610510D01*
X111090494Y-111616913D01*
X111080765Y-111623121D01*
X111065099Y-111627910D01*
X111040592Y-111631514D01*
X111004339Y-111634164D01*
X110953435Y-111636095D01*
X110884974Y-111637539D01*
X110822383Y-111638418D01*
X110574666Y-111641467D01*
X110571281Y-111706378D01*
X110567895Y-111771289D01*
X110736042Y-111771289D01*
X110809041Y-111771919D01*
X110862483Y-111774553D01*
X110899372Y-111780309D01*
X110922712Y-111790304D01*
X110935506Y-111805656D01*
X110940758Y-111827482D01*
X110941555Y-111847738D01*
X110939077Y-111872592D01*
X110929723Y-111890906D01*
X110910617Y-111903637D01*
X110878882Y-111911741D01*
X110831641Y-111916176D01*
X110766017Y-111917899D01*
X110730199Y-111918045D01*
X110569022Y-111918045D01*
X110569022Y-112076089D01*
X110817378Y-112076089D01*
X110898787Y-112076202D01*
X110960658Y-112076712D01*
X111006032Y-112077870D01*
X111037946Y-112079930D01*
X111059441Y-112083146D01*
X111073557Y-112087772D01*
X111083332Y-112094059D01*
X111088311Y-112098667D01*
X111105390Y-112125560D01*
X111110889Y-112149467D01*
X111103037Y-112178667D01*
X111088311Y-112200267D01*
X111080454Y-112207066D01*
X111070312Y-112212346D01*
X111055156Y-112216298D01*
X111032259Y-112219113D01*
X110998891Y-112220982D01*
X110952325Y-112222098D01*
X110889833Y-112222651D01*
X110808686Y-112222833D01*
X110766578Y-112222845D01*
X110676402Y-112222765D01*
X110606076Y-112222398D01*
X110552871Y-112221552D01*
X110514060Y-112220036D01*
X110486913Y-112217659D01*
X110468702Y-112214229D01*
X110456700Y-112209554D01*
X110448178Y-112203444D01*
X110444844Y-112200267D01*
X110438245Y-112192670D01*
X110433073Y-112182870D01*
X110429154Y-112168239D01*
X110426316Y-112146152D01*
X110424385Y-112113982D01*
X110423188Y-112069103D01*
X110422552Y-112008889D01*
X110422303Y-111930713D01*
X110422266Y-111857923D01*
X110422300Y-111764707D01*
X110422535Y-111691431D01*
X110423170Y-111635458D01*
X110424406Y-111594151D01*
X110426444Y-111564872D01*
X110429483Y-111544984D01*
X110433723Y-111531850D01*
X110439365Y-111522832D01*
X110446609Y-111515293D01*
X110448394Y-111513612D01*
X110457055Y-111506172D01*
X110467118Y-111500409D01*
X110481375Y-111496112D01*
X110502617Y-111493064D01*
X110533636Y-111491051D01*
X110577223Y-111489860D01*
X110636169Y-111489275D01*
X110713266Y-111489083D01*
X110767999Y-111489067D01*
X110857206Y-111489146D01*
G36*
X109448629Y-111489066D02*
G01*
X109488111Y-111489467D01*
X109603800Y-111492259D01*
X109700689Y-111500550D01*
X109782081Y-111515232D01*
X109851277Y-111537193D01*
X109911580Y-111567322D01*
X109966292Y-111606510D01*
X109985833Y-111623532D01*
X110018250Y-111663363D01*
X110047480Y-111717413D01*
X110070009Y-111777323D01*
X110082321Y-111834739D01*
X110083600Y-111855956D01*
X110075583Y-111914769D01*
X110054101Y-111979013D01*
X110023001Y-112039821D01*
X109986134Y-112088330D01*
X109980146Y-112094182D01*
X109929421Y-112135321D01*
X109873875Y-112167435D01*
X109810304Y-112191365D01*
X109735506Y-112207953D01*
X109646278Y-112218041D01*
X109539418Y-112222469D01*
X109490472Y-112222845D01*
X109428238Y-112222545D01*
X109384472Y-112221292D01*
X109355069Y-112218554D01*
X109335921Y-112213801D01*
X109322923Y-112206501D01*
X109315955Y-112200267D01*
X109309374Y-112192694D01*
X109304212Y-112182924D01*
X109300297Y-112168340D01*
X109297457Y-112146326D01*
X109295520Y-112114264D01*
X109294316Y-112069536D01*
X109293672Y-112009526D01*
X109293417Y-111931617D01*
X109293378Y-111855956D01*
X109293130Y-111755041D01*
X109293183Y-111674427D01*
X109294143Y-111635822D01*
X109440133Y-111635822D01*
X109440133Y-112076089D01*
X109533266Y-112076004D01*
X109589307Y-112074396D01*
X109648001Y-112070256D01*
X109696972Y-112064464D01*
X109698462Y-112064226D01*
X109777608Y-112045090D01*
X109838998Y-112015287D01*
X109885695Y-111972878D01*
X109915365Y-111926961D01*
X109933647Y-111876026D01*
X109932229Y-111828200D01*
X109911012Y-111776933D01*
X109869511Y-111723899D01*
X109812002Y-111684600D01*
X109737250Y-111658331D01*
X109687292Y-111649035D01*
X109630584Y-111642507D01*
X109570481Y-111637782D01*
X109519361Y-111635817D01*
X109516333Y-111635808D01*
X109440133Y-111635822D01*
X109294143Y-111635822D01*
X109294740Y-111611851D01*
X109299002Y-111565055D01*
X109307170Y-111531778D01*
X109320444Y-111509759D01*
X109340026Y-111496739D01*
X109367117Y-111490457D01*
X109402918Y-111488653D01*
X109448629Y-111489066D01*
G37*
X109448629Y-111489066D02*
X109488111Y-111489467D01*
X109603800Y-111492259D01*
X109700689Y-111500550D01*
X109782081Y-111515232D01*
X109851277Y-111537193D01*
X109911580Y-111567322D01*
X109966292Y-111606510D01*
X109985833Y-111623532D01*
X110018250Y-111663363D01*
X110047480Y-111717413D01*
X110070009Y-111777323D01*
X110082321Y-111834739D01*
X110083600Y-111855956D01*
X110075583Y-111914769D01*
X110054101Y-111979013D01*
X110023001Y-112039821D01*
X109986134Y-112088330D01*
X109980146Y-112094182D01*
X109929421Y-112135321D01*
X109873875Y-112167435D01*
X109810304Y-112191365D01*
X109735506Y-112207953D01*
X109646278Y-112218041D01*
X109539418Y-112222469D01*
X109490472Y-112222845D01*
X109428238Y-112222545D01*
X109384472Y-112221292D01*
X109355069Y-112218554D01*
X109335921Y-112213801D01*
X109322923Y-112206501D01*
X109315955Y-112200267D01*
X109309374Y-112192694D01*
X109304212Y-112182924D01*
X109300297Y-112168340D01*
X109297457Y-112146326D01*
X109295520Y-112114264D01*
X109294316Y-112069536D01*
X109293672Y-112009526D01*
X109293417Y-111931617D01*
X109293378Y-111855956D01*
X109293130Y-111755041D01*
X109293183Y-111674427D01*
X109294143Y-111635822D01*
X109440133Y-111635822D01*
X109440133Y-112076089D01*
X109533266Y-112076004D01*
X109589307Y-112074396D01*
X109648001Y-112070256D01*
X109696972Y-112064464D01*
X109698462Y-112064226D01*
X109777608Y-112045090D01*
X109838998Y-112015287D01*
X109885695Y-111972878D01*
X109915365Y-111926961D01*
X109933647Y-111876026D01*
X109932229Y-111828200D01*
X109911012Y-111776933D01*
X109869511Y-111723899D01*
X109812002Y-111684600D01*
X109737250Y-111658331D01*
X109687292Y-111649035D01*
X109630584Y-111642507D01*
X109570481Y-111637782D01*
X109519361Y-111635817D01*
X109516333Y-111635808D01*
X109440133Y-111635822D01*
X109294143Y-111635822D01*
X109294740Y-111611851D01*
X109299002Y-111565055D01*
X109307170Y-111531778D01*
X109320444Y-111509759D01*
X109340026Y-111496739D01*
X109367117Y-111490457D01*
X109402918Y-111488653D01*
X109448629Y-111489066D01*
G36*
X113296957Y-106246571D02*
G01*
X113393232Y-106270809D01*
X113479816Y-106313641D01*
X113554627Y-106373419D01*
X113615582Y-106448494D01*
X113660601Y-106537220D01*
X113686864Y-106633530D01*
X113692714Y-106730795D01*
X113677860Y-106824654D01*
X113644160Y-106912511D01*
X113593472Y-106991770D01*
X113527655Y-107059836D01*
X113448566Y-107114112D01*
X113358066Y-107152002D01*
X113306800Y-107164426D01*
X113262302Y-107171947D01*
X113228001Y-107174919D01*
X113195040Y-107173094D01*
X113154566Y-107166225D01*
X113121469Y-107159250D01*
X113028053Y-107127741D01*
X112944381Y-107076617D01*
X112872335Y-107007429D01*
X112813800Y-106921728D01*
X112799852Y-106894489D01*
X112783414Y-106858122D01*
X112773106Y-106827582D01*
X112767540Y-106795450D01*
X112765331Y-106754307D01*
X112765052Y-106708222D01*
X112769139Y-106623865D01*
X112782554Y-106554586D01*
X112807744Y-106493961D01*
X112847154Y-106435567D01*
X112885702Y-106391302D01*
X112957594Y-106325484D01*
X113032687Y-106280053D01*
X113115438Y-106252850D01*
X113193072Y-106242576D01*
X113296957Y-106246571D01*
G37*
X113296957Y-106246571D02*
X113393232Y-106270809D01*
X113479816Y-106313641D01*
X113554627Y-106373419D01*
X113615582Y-106448494D01*
X113660601Y-106537220D01*
X113686864Y-106633530D01*
X113692714Y-106730795D01*
X113677860Y-106824654D01*
X113644160Y-106912511D01*
X113593472Y-106991770D01*
X113527655Y-107059836D01*
X113448566Y-107114112D01*
X113358066Y-107152002D01*
X113306800Y-107164426D01*
X113262302Y-107171947D01*
X113228001Y-107174919D01*
X113195040Y-107173094D01*
X113154566Y-107166225D01*
X113121469Y-107159250D01*
X113028053Y-107127741D01*
X112944381Y-107076617D01*
X112872335Y-107007429D01*
X112813800Y-106921728D01*
X112799852Y-106894489D01*
X112783414Y-106858122D01*
X112773106Y-106827582D01*
X112767540Y-106795450D01*
X112765331Y-106754307D01*
X112765052Y-106708222D01*
X112769139Y-106623865D01*
X112782554Y-106554586D01*
X112807744Y-106493961D01*
X112847154Y-106435567D01*
X112885702Y-106391302D01*
X112957594Y-106325484D01*
X113032687Y-106280053D01*
X113115438Y-106252850D01*
X113193072Y-106242576D01*
X113296957Y-106246571D01*
G36*
X121756507Y-108692245D02*
G01*
X121756526Y-108926662D01*
X121756552Y-109139603D01*
X121756625Y-109332168D01*
X121756782Y-109505459D01*
X121757064Y-109660576D01*
X121757509Y-109798620D01*
X121758156Y-109920692D01*
X121759045Y-110027894D01*
X121760213Y-110121326D01*
X121761701Y-110202090D01*
X121763546Y-110271286D01*
X121765789Y-110330015D01*
X121768469Y-110379379D01*
X121771623Y-110420478D01*
X121775292Y-110454413D01*
X121779513Y-110482286D01*
X121784327Y-110505198D01*
X121789773Y-110524249D01*
X121795888Y-110540540D01*
X121802712Y-110555173D01*
X121810285Y-110569249D01*
X121818645Y-110583868D01*
X121823839Y-110592974D01*
X121858104Y-110653689D01*
X120999955Y-110653689D01*
X120999955Y-110557733D01*
X120999224Y-110514370D01*
X120997272Y-110481205D01*
X120994463Y-110463424D01*
X120993221Y-110461778D01*
X120981799Y-110468662D01*
X120959084Y-110486505D01*
X120936385Y-110505879D01*
X120881800Y-110546614D01*
X120812321Y-110587617D01*
X120735270Y-110625123D01*
X120657965Y-110655364D01*
X120627113Y-110665012D01*
X120558616Y-110679578D01*
X120475764Y-110689539D01*
X120386371Y-110694583D01*
X120298248Y-110694396D01*
X120219207Y-110688666D01*
X120181511Y-110682858D01*
X120043414Y-110644797D01*
X119916113Y-110587073D01*
X119800292Y-110510211D01*
X119696637Y-110414739D01*
X119605833Y-110301179D01*
X119539031Y-110190381D01*
X119484164Y-110073625D01*
X119442163Y-109954276D01*
X119412167Y-109828283D01*
X119393311Y-109691594D01*
X119384732Y-109540158D01*
X119384006Y-109462711D01*
X119386100Y-109405934D01*
X120215217Y-109405934D01*
X120215424Y-109499002D01*
X120218337Y-109586692D01*
X120224000Y-109663772D01*
X120232455Y-109725009D01*
X120235038Y-109737350D01*
X120266840Y-109844633D01*
X120308498Y-109931658D01*
X120360363Y-109998642D01*
X120422781Y-110045805D01*
X120496100Y-110073365D01*
X120580669Y-110081541D01*
X120676835Y-110070551D01*
X120740311Y-110054829D01*
X120789454Y-110036639D01*
X120843583Y-110010791D01*
X120884244Y-109987089D01*
X120954800Y-109940721D01*
X120954800Y-108790530D01*
X120887392Y-108746962D01*
X120808867Y-108706040D01*
X120724681Y-108679389D01*
X120639557Y-108667465D01*
X120558216Y-108670722D01*
X120485380Y-108689615D01*
X120453426Y-108705184D01*
X120395501Y-108748181D01*
X120346544Y-108804953D01*
X120305390Y-108877575D01*
X120270874Y-108968121D01*
X120241833Y-109078666D01*
X120240552Y-109084533D01*
X120230381Y-109146788D01*
X120222739Y-109224594D01*
X120217670Y-109312720D01*
X120215217Y-109405934D01*
X119386100Y-109405934D01*
X119391857Y-109249895D01*
X119413802Y-109054059D01*
X119449786Y-108875332D01*
X119499759Y-108713845D01*
X119563668Y-108569726D01*
X119641462Y-108443106D01*
X119733089Y-108334115D01*
X119838497Y-108242883D01*
X119883662Y-108211932D01*
X119984611Y-108155785D01*
X120087901Y-108116174D01*
X120197989Y-108092014D01*
X120319330Y-108082219D01*
X120411836Y-108083265D01*
X120541490Y-108094231D01*
X120654084Y-108116046D01*
X120752875Y-108149714D01*
X120841121Y-108196236D01*
X120889986Y-108230448D01*
X120919353Y-108252362D01*
X120941043Y-108267333D01*
X120949253Y-108271733D01*
X120950868Y-108260904D01*
X120952159Y-108230251D01*
X120953138Y-108182526D01*
X120953817Y-108120479D01*
X120954210Y-108046862D01*
X120954330Y-107964427D01*
X120954188Y-107875925D01*
X120953797Y-107784107D01*
X120953171Y-107691724D01*
X120952320Y-107601528D01*
X120951260Y-107516271D01*
X120950001Y-107438703D01*
X120948556Y-107371576D01*
X120946938Y-107317641D01*
X120945161Y-107279650D01*
X120944669Y-107272667D01*
X120937092Y-107202251D01*
X120925531Y-107147102D01*
X120907792Y-107099981D01*
X120881682Y-107053647D01*
X120875415Y-107044067D01*
X120850983Y-107007378D01*
X121756311Y-107007378D01*
X121756507Y-108692245D01*
G37*
X121756507Y-108692245D02*
X121756526Y-108926662D01*
X121756552Y-109139603D01*
X121756625Y-109332168D01*
X121756782Y-109505459D01*
X121757064Y-109660576D01*
X121757509Y-109798620D01*
X121758156Y-109920692D01*
X121759045Y-110027894D01*
X121760213Y-110121326D01*
X121761701Y-110202090D01*
X121763546Y-110271286D01*
X121765789Y-110330015D01*
X121768469Y-110379379D01*
X121771623Y-110420478D01*
X121775292Y-110454413D01*
X121779513Y-110482286D01*
X121784327Y-110505198D01*
X121789773Y-110524249D01*
X121795888Y-110540540D01*
X121802712Y-110555173D01*
X121810285Y-110569249D01*
X121818645Y-110583868D01*
X121823839Y-110592974D01*
X121858104Y-110653689D01*
X120999955Y-110653689D01*
X120999955Y-110557733D01*
X120999224Y-110514370D01*
X120997272Y-110481205D01*
X120994463Y-110463424D01*
X120993221Y-110461778D01*
X120981799Y-110468662D01*
X120959084Y-110486505D01*
X120936385Y-110505879D01*
X120881800Y-110546614D01*
X120812321Y-110587617D01*
X120735270Y-110625123D01*
X120657965Y-110655364D01*
X120627113Y-110665012D01*
X120558616Y-110679578D01*
X120475764Y-110689539D01*
X120386371Y-110694583D01*
X120298248Y-110694396D01*
X120219207Y-110688666D01*
X120181511Y-110682858D01*
X120043414Y-110644797D01*
X119916113Y-110587073D01*
X119800292Y-110510211D01*
X119696637Y-110414739D01*
X119605833Y-110301179D01*
X119539031Y-110190381D01*
X119484164Y-110073625D01*
X119442163Y-109954276D01*
X119412167Y-109828283D01*
X119393311Y-109691594D01*
X119384732Y-109540158D01*
X119384006Y-109462711D01*
X119386100Y-109405934D01*
X120215217Y-109405934D01*
X120215424Y-109499002D01*
X120218337Y-109586692D01*
X120224000Y-109663772D01*
X120232455Y-109725009D01*
X120235038Y-109737350D01*
X120266840Y-109844633D01*
X120308498Y-109931658D01*
X120360363Y-109998642D01*
X120422781Y-110045805D01*
X120496100Y-110073365D01*
X120580669Y-110081541D01*
X120676835Y-110070551D01*
X120740311Y-110054829D01*
X120789454Y-110036639D01*
X120843583Y-110010791D01*
X120884244Y-109987089D01*
X120954800Y-109940721D01*
X120954800Y-108790530D01*
X120887392Y-108746962D01*
X120808867Y-108706040D01*
X120724681Y-108679389D01*
X120639557Y-108667465D01*
X120558216Y-108670722D01*
X120485380Y-108689615D01*
X120453426Y-108705184D01*
X120395501Y-108748181D01*
X120346544Y-108804953D01*
X120305390Y-108877575D01*
X120270874Y-108968121D01*
X120241833Y-109078666D01*
X120240552Y-109084533D01*
X120230381Y-109146788D01*
X120222739Y-109224594D01*
X120217670Y-109312720D01*
X120215217Y-109405934D01*
X119386100Y-109405934D01*
X119391857Y-109249895D01*
X119413802Y-109054059D01*
X119449786Y-108875332D01*
X119499759Y-108713845D01*
X119563668Y-108569726D01*
X119641462Y-108443106D01*
X119733089Y-108334115D01*
X119838497Y-108242883D01*
X119883662Y-108211932D01*
X119984611Y-108155785D01*
X120087901Y-108116174D01*
X120197989Y-108092014D01*
X120319330Y-108082219D01*
X120411836Y-108083265D01*
X120541490Y-108094231D01*
X120654084Y-108116046D01*
X120752875Y-108149714D01*
X120841121Y-108196236D01*
X120889986Y-108230448D01*
X120919353Y-108252362D01*
X120941043Y-108267333D01*
X120949253Y-108271733D01*
X120950868Y-108260904D01*
X120952159Y-108230251D01*
X120953138Y-108182526D01*
X120953817Y-108120479D01*
X120954210Y-108046862D01*
X120954330Y-107964427D01*
X120954188Y-107875925D01*
X120953797Y-107784107D01*
X120953171Y-107691724D01*
X120952320Y-107601528D01*
X120951260Y-107516271D01*
X120950001Y-107438703D01*
X120948556Y-107371576D01*
X120946938Y-107317641D01*
X120945161Y-107279650D01*
X120944669Y-107272667D01*
X120937092Y-107202251D01*
X120925531Y-107147102D01*
X120907792Y-107099981D01*
X120881682Y-107053647D01*
X120875415Y-107044067D01*
X120850983Y-107007378D01*
X121756311Y-107007378D01*
X121756507Y-108692245D01*
G36*
X118243574Y-108086552D02*
G01*
X118395492Y-108106567D01*
X118530756Y-108140202D01*
X118650239Y-108187725D01*
X118754815Y-108249405D01*
X118832424Y-108312965D01*
X118901265Y-108387099D01*
X118955006Y-108466871D01*
X118997910Y-108559091D01*
X119013384Y-108602161D01*
X119026244Y-108641142D01*
X119037446Y-108677289D01*
X119047120Y-108712434D01*
X119055396Y-108748410D01*
X119062403Y-108787050D01*
X119068272Y-108830185D01*
X119073131Y-108879649D01*
X119077110Y-108937273D01*
X119080340Y-109004891D01*
X119082949Y-109084334D01*
X119085067Y-109177436D01*
X119086824Y-109286027D01*
X119088349Y-109411942D01*
X119089772Y-109557012D01*
X119091025Y-109699778D01*
X119092351Y-109855968D01*
X119093556Y-109991239D01*
X119094766Y-110107246D01*
X119096106Y-110205645D01*
X119097700Y-110288093D01*
X119099675Y-110356246D01*
X119102156Y-110411760D01*
X119105269Y-110456292D01*
X119109138Y-110491498D01*
X119113889Y-110519034D01*
X119119648Y-110540556D01*
X119126539Y-110557722D01*
X119134689Y-110572186D01*
X119144223Y-110585606D01*
X119155266Y-110599638D01*
X119159566Y-110605071D01*
X119175386Y-110627910D01*
X119182422Y-110643463D01*
X119182444Y-110643922D01*
X119171567Y-110646121D01*
X119140582Y-110648147D01*
X119091957Y-110649942D01*
X119028163Y-110651451D01*
X118951669Y-110652616D01*
X118864944Y-110653380D01*
X118770457Y-110653686D01*
X118759550Y-110653689D01*
X118336657Y-110653689D01*
X118333395Y-110557622D01*
X118330133Y-110461556D01*
X118268044Y-110512543D01*
X118170714Y-110580057D01*
X118060813Y-110634749D01*
X117974349Y-110664978D01*
X117905278Y-110679666D01*
X117821925Y-110689659D01*
X117732159Y-110694646D01*
X117643845Y-110694313D01*
X117564851Y-110688351D01*
X117528622Y-110682638D01*
X117388603Y-110644776D01*
X117262178Y-110589932D01*
X117150260Y-110518924D01*
X117053762Y-110432568D01*
X116973600Y-110331679D01*
X116910687Y-110217076D01*
X116866312Y-110090984D01*
X116853978Y-110034401D01*
X116846368Y-109972202D01*
X116842739Y-109897363D01*
X116842245Y-109863467D01*
X116842310Y-109860282D01*
X117602248Y-109860282D01*
X117611541Y-109935333D01*
X117639728Y-109999160D01*
X117688197Y-110054798D01*
X117693254Y-110059211D01*
X117741548Y-110094037D01*
X117793257Y-110116620D01*
X117853989Y-110128540D01*
X117929352Y-110131383D01*
X117947459Y-110130978D01*
X118001278Y-110128325D01*
X118041308Y-110122909D01*
X118076324Y-110112745D01*
X118115103Y-110095850D01*
X118125745Y-110090672D01*
X118186396Y-110054844D01*
X118233215Y-110012212D01*
X118245952Y-109996973D01*
X118290622Y-109940462D01*
X118290622Y-109744586D01*
X118290086Y-109665939D01*
X118288396Y-109607988D01*
X118285428Y-109568875D01*
X118281057Y-109546741D01*
X118276972Y-109540274D01*
X118261047Y-109537111D01*
X118227264Y-109534488D01*
X118180340Y-109532655D01*
X118124993Y-109531857D01*
X118116106Y-109531842D01*
X117995330Y-109537096D01*
X117892660Y-109553263D01*
X117806106Y-109580961D01*
X117733681Y-109620808D01*
X117678751Y-109667758D01*
X117634204Y-109725645D01*
X117609480Y-109788693D01*
X117602248Y-109860282D01*
X116842310Y-109860282D01*
X116844178Y-109769712D01*
X116852522Y-109690812D01*
X116868768Y-109619590D01*
X116894405Y-109548864D01*
X116918401Y-109496493D01*
X116977020Y-109401196D01*
X117055117Y-109313170D01*
X117150315Y-109234017D01*
X117260238Y-109165340D01*
X117382510Y-109108741D01*
X117514755Y-109065821D01*
X117579422Y-109050882D01*
X117715604Y-109028777D01*
X117864049Y-109014194D01*
X118015505Y-109007813D01*
X118142064Y-109009445D01*
X118303950Y-109016224D01*
X118296530Y-108957245D01*
X118277238Y-108858092D01*
X118246104Y-108777372D01*
X118202269Y-108714466D01*
X118144871Y-108668756D01*
X118073048Y-108639622D01*
X117985941Y-108626447D01*
X117882686Y-108628611D01*
X117844711Y-108632612D01*
X117703520Y-108657780D01*
X117566707Y-108698814D01*
X117472178Y-108736815D01*
X117427018Y-108756190D01*
X117388585Y-108771760D01*
X117362234Y-108781405D01*
X117354546Y-108783452D01*
X117344802Y-108774374D01*
X117328083Y-108745405D01*
X117304232Y-108696217D01*
X117273093Y-108626484D01*
X117234507Y-108535879D01*
X117227910Y-108520089D01*
X117197853Y-108447772D01*
X117170874Y-108382425D01*
X117148136Y-108326906D01*
X117130806Y-108284072D01*
X117120048Y-108256781D01*
X117116941Y-108247942D01*
X117126940Y-108243187D01*
X117153217Y-108237910D01*
X117181489Y-108234231D01*
X117211646Y-108229474D01*
X117259433Y-108220028D01*
X117320612Y-108206820D01*
X117390946Y-108190776D01*
X117466194Y-108172820D01*
X117494755Y-108165797D01*
X117599816Y-108140209D01*
X117687480Y-108120147D01*
X117762068Y-108104969D01*
X117827903Y-108094035D01*
X117889307Y-108086704D01*
X117950602Y-108082335D01*
X118016110Y-108080287D01*
X118074128Y-108079889D01*
X118243574Y-108086552D01*
G37*
X118243574Y-108086552D02*
X118395492Y-108106567D01*
X118530756Y-108140202D01*
X118650239Y-108187725D01*
X118754815Y-108249405D01*
X118832424Y-108312965D01*
X118901265Y-108387099D01*
X118955006Y-108466871D01*
X118997910Y-108559091D01*
X119013384Y-108602161D01*
X119026244Y-108641142D01*
X119037446Y-108677289D01*
X119047120Y-108712434D01*
X119055396Y-108748410D01*
X119062403Y-108787050D01*
X119068272Y-108830185D01*
X119073131Y-108879649D01*
X119077110Y-108937273D01*
X119080340Y-109004891D01*
X119082949Y-109084334D01*
X119085067Y-109177436D01*
X119086824Y-109286027D01*
X119088349Y-109411942D01*
X119089772Y-109557012D01*
X119091025Y-109699778D01*
X119092351Y-109855968D01*
X119093556Y-109991239D01*
X119094766Y-110107246D01*
X119096106Y-110205645D01*
X119097700Y-110288093D01*
X119099675Y-110356246D01*
X119102156Y-110411760D01*
X119105269Y-110456292D01*
X119109138Y-110491498D01*
X119113889Y-110519034D01*
X119119648Y-110540556D01*
X119126539Y-110557722D01*
X119134689Y-110572186D01*
X119144223Y-110585606D01*
X119155266Y-110599638D01*
X119159566Y-110605071D01*
X119175386Y-110627910D01*
X119182422Y-110643463D01*
X119182444Y-110643922D01*
X119171567Y-110646121D01*
X119140582Y-110648147D01*
X119091957Y-110649942D01*
X119028163Y-110651451D01*
X118951669Y-110652616D01*
X118864944Y-110653380D01*
X118770457Y-110653686D01*
X118759550Y-110653689D01*
X118336657Y-110653689D01*
X118333395Y-110557622D01*
X118330133Y-110461556D01*
X118268044Y-110512543D01*
X118170714Y-110580057D01*
X118060813Y-110634749D01*
X117974349Y-110664978D01*
X117905278Y-110679666D01*
X117821925Y-110689659D01*
X117732159Y-110694646D01*
X117643845Y-110694313D01*
X117564851Y-110688351D01*
X117528622Y-110682638D01*
X117388603Y-110644776D01*
X117262178Y-110589932D01*
X117150260Y-110518924D01*
X117053762Y-110432568D01*
X116973600Y-110331679D01*
X116910687Y-110217076D01*
X116866312Y-110090984D01*
X116853978Y-110034401D01*
X116846368Y-109972202D01*
X116842739Y-109897363D01*
X116842245Y-109863467D01*
X116842310Y-109860282D01*
X117602248Y-109860282D01*
X117611541Y-109935333D01*
X117639728Y-109999160D01*
X117688197Y-110054798D01*
X117693254Y-110059211D01*
X117741548Y-110094037D01*
X117793257Y-110116620D01*
X117853989Y-110128540D01*
X117929352Y-110131383D01*
X117947459Y-110130978D01*
X118001278Y-110128325D01*
X118041308Y-110122909D01*
X118076324Y-110112745D01*
X118115103Y-110095850D01*
X118125745Y-110090672D01*
X118186396Y-110054844D01*
X118233215Y-110012212D01*
X118245952Y-109996973D01*
X118290622Y-109940462D01*
X118290622Y-109744586D01*
X118290086Y-109665939D01*
X118288396Y-109607988D01*
X118285428Y-109568875D01*
X118281057Y-109546741D01*
X118276972Y-109540274D01*
X118261047Y-109537111D01*
X118227264Y-109534488D01*
X118180340Y-109532655D01*
X118124993Y-109531857D01*
X118116106Y-109531842D01*
X117995330Y-109537096D01*
X117892660Y-109553263D01*
X117806106Y-109580961D01*
X117733681Y-109620808D01*
X117678751Y-109667758D01*
X117634204Y-109725645D01*
X117609480Y-109788693D01*
X117602248Y-109860282D01*
X116842310Y-109860282D01*
X116844178Y-109769712D01*
X116852522Y-109690812D01*
X116868768Y-109619590D01*
X116894405Y-109548864D01*
X116918401Y-109496493D01*
X116977020Y-109401196D01*
X117055117Y-109313170D01*
X117150315Y-109234017D01*
X117260238Y-109165340D01*
X117382510Y-109108741D01*
X117514755Y-109065821D01*
X117579422Y-109050882D01*
X117715604Y-109028777D01*
X117864049Y-109014194D01*
X118015505Y-109007813D01*
X118142064Y-109009445D01*
X118303950Y-109016224D01*
X118296530Y-108957245D01*
X118277238Y-108858092D01*
X118246104Y-108777372D01*
X118202269Y-108714466D01*
X118144871Y-108668756D01*
X118073048Y-108639622D01*
X117985941Y-108626447D01*
X117882686Y-108628611D01*
X117844711Y-108632612D01*
X117703520Y-108657780D01*
X117566707Y-108698814D01*
X117472178Y-108736815D01*
X117427018Y-108756190D01*
X117388585Y-108771760D01*
X117362234Y-108781405D01*
X117354546Y-108783452D01*
X117344802Y-108774374D01*
X117328083Y-108745405D01*
X117304232Y-108696217D01*
X117273093Y-108626484D01*
X117234507Y-108535879D01*
X117227910Y-108520089D01*
X117197853Y-108447772D01*
X117170874Y-108382425D01*
X117148136Y-108326906D01*
X117130806Y-108284072D01*
X117120048Y-108256781D01*
X117116941Y-108247942D01*
X117126940Y-108243187D01*
X117153217Y-108237910D01*
X117181489Y-108234231D01*
X117211646Y-108229474D01*
X117259433Y-108220028D01*
X117320612Y-108206820D01*
X117390946Y-108190776D01*
X117466194Y-108172820D01*
X117494755Y-108165797D01*
X117599816Y-108140209D01*
X117687480Y-108120147D01*
X117762068Y-108104969D01*
X117827903Y-108094035D01*
X117889307Y-108086704D01*
X117950602Y-108082335D01*
X118016110Y-108080287D01*
X118074128Y-108079889D01*
X118243574Y-108086552D01*
G36*
X115898429Y-107169071D02*
G01*
X116058570Y-107190245D01*
X116222510Y-107230385D01*
X116392313Y-107289889D01*
X116570043Y-107369154D01*
X116581310Y-107374699D01*
X116639005Y-107402725D01*
X116690552Y-107426802D01*
X116732191Y-107445249D01*
X116760162Y-107456386D01*
X116769733Y-107458933D01*
X116788950Y-107463941D01*
X116793561Y-107468147D01*
X116788458Y-107478580D01*
X116772418Y-107504868D01*
X116747288Y-107544257D01*
X116714914Y-107593991D01*
X116677143Y-107651315D01*
X116635822Y-107713476D01*
X116592798Y-107777718D01*
X116549917Y-107841285D01*
X116509026Y-107901425D01*
X116471971Y-107955380D01*
X116440600Y-108000397D01*
X116416759Y-108033721D01*
X116402294Y-108052597D01*
X116400309Y-108054787D01*
X116390191Y-108050138D01*
X116367850Y-108032962D01*
X116337280Y-108006440D01*
X116321536Y-107991964D01*
X116225047Y-107916682D01*
X116118336Y-107861241D01*
X116002832Y-107826141D01*
X115879962Y-107811880D01*
X115810561Y-107813051D01*
X115689423Y-107830212D01*
X115580205Y-107866094D01*
X115482582Y-107920959D01*
X115396228Y-107995070D01*
X115320815Y-108088688D01*
X115256018Y-108202076D01*
X115218601Y-108288667D01*
X115174748Y-108424366D01*
X115142428Y-108571850D01*
X115121557Y-108727314D01*
X115112051Y-108886956D01*
X115113827Y-109046973D01*
X115126803Y-109203561D01*
X115150894Y-109352918D01*
X115186018Y-109491240D01*
X115232092Y-109614724D01*
X115248373Y-109648978D01*
X115316620Y-109763064D01*
X115397079Y-109859557D01*
X115488570Y-109937670D01*
X115589911Y-109996617D01*
X115699920Y-110035612D01*
X115817415Y-110053868D01*
X115858883Y-110055211D01*
X115980441Y-110044290D01*
X116100878Y-110011474D01*
X116218666Y-109957439D01*
X116332277Y-109882865D01*
X116423685Y-109804539D01*
X116470215Y-109760008D01*
X116651483Y-110057271D01*
X116696580Y-110131433D01*
X116737819Y-110199646D01*
X116773735Y-110259459D01*
X116802866Y-110308420D01*
X116823750Y-110344079D01*
X116834924Y-110363984D01*
X116836375Y-110367079D01*
X116828146Y-110376718D01*
X116802567Y-110393999D01*
X116762873Y-110417283D01*
X116712297Y-110444934D01*
X116654074Y-110475315D01*
X116591437Y-110506790D01*
X116527621Y-110537722D01*
X116465860Y-110566473D01*
X116409388Y-110591408D01*
X116361438Y-110610889D01*
X116337986Y-110619318D01*
X116204221Y-110657133D01*
X116066327Y-110682136D01*
X115918622Y-110695140D01*
X115791833Y-110697468D01*
X115723878Y-110696373D01*
X115658277Y-110694275D01*
X115600847Y-110691434D01*
X115557403Y-110688106D01*
X115543298Y-110686422D01*
X115404284Y-110657587D01*
X115262757Y-110612468D01*
X115125275Y-110553750D01*
X114998394Y-110484120D01*
X114920889Y-110431441D01*
X114793481Y-110323239D01*
X114675178Y-110196671D01*
X114568172Y-110054866D01*
X114474652Y-109900951D01*
X114396810Y-109738053D01*
X114352956Y-109620756D01*
X114302708Y-109437128D01*
X114269209Y-109242581D01*
X114252449Y-109041325D01*
X114252416Y-108837568D01*
X114269101Y-108635521D01*
X114302493Y-108439392D01*
X114352580Y-108253391D01*
X114356397Y-108241803D01*
X114419281Y-108079750D01*
X114496028Y-107931832D01*
X114589242Y-107793865D01*
X114701527Y-107661661D01*
X114745392Y-107616399D01*
X114881534Y-107492457D01*
X115021491Y-107389915D01*
X115167411Y-107307656D01*
X115321442Y-107244564D01*
X115485732Y-107199523D01*
X115581289Y-107182033D01*
X115740023Y-107166466D01*
X115898429Y-107169071D01*
G37*
X115898429Y-107169071D02*
X116058570Y-107190245D01*
X116222510Y-107230385D01*
X116392313Y-107289889D01*
X116570043Y-107369154D01*
X116581310Y-107374699D01*
X116639005Y-107402725D01*
X116690552Y-107426802D01*
X116732191Y-107445249D01*
X116760162Y-107456386D01*
X116769733Y-107458933D01*
X116788950Y-107463941D01*
X116793561Y-107468147D01*
X116788458Y-107478580D01*
X116772418Y-107504868D01*
X116747288Y-107544257D01*
X116714914Y-107593991D01*
X116677143Y-107651315D01*
X116635822Y-107713476D01*
X116592798Y-107777718D01*
X116549917Y-107841285D01*
X116509026Y-107901425D01*
X116471971Y-107955380D01*
X116440600Y-108000397D01*
X116416759Y-108033721D01*
X116402294Y-108052597D01*
X116400309Y-108054787D01*
X116390191Y-108050138D01*
X116367850Y-108032962D01*
X116337280Y-108006440D01*
X116321536Y-107991964D01*
X116225047Y-107916682D01*
X116118336Y-107861241D01*
X116002832Y-107826141D01*
X115879962Y-107811880D01*
X115810561Y-107813051D01*
X115689423Y-107830212D01*
X115580205Y-107866094D01*
X115482582Y-107920959D01*
X115396228Y-107995070D01*
X115320815Y-108088688D01*
X115256018Y-108202076D01*
X115218601Y-108288667D01*
X115174748Y-108424366D01*
X115142428Y-108571850D01*
X115121557Y-108727314D01*
X115112051Y-108886956D01*
X115113827Y-109046973D01*
X115126803Y-109203561D01*
X115150894Y-109352918D01*
X115186018Y-109491240D01*
X115232092Y-109614724D01*
X115248373Y-109648978D01*
X115316620Y-109763064D01*
X115397079Y-109859557D01*
X115488570Y-109937670D01*
X115589911Y-109996617D01*
X115699920Y-110035612D01*
X115817415Y-110053868D01*
X115858883Y-110055211D01*
X115980441Y-110044290D01*
X116100878Y-110011474D01*
X116218666Y-109957439D01*
X116332277Y-109882865D01*
X116423685Y-109804539D01*
X116470215Y-109760008D01*
X116651483Y-110057271D01*
X116696580Y-110131433D01*
X116737819Y-110199646D01*
X116773735Y-110259459D01*
X116802866Y-110308420D01*
X116823750Y-110344079D01*
X116834924Y-110363984D01*
X116836375Y-110367079D01*
X116828146Y-110376718D01*
X116802567Y-110393999D01*
X116762873Y-110417283D01*
X116712297Y-110444934D01*
X116654074Y-110475315D01*
X116591437Y-110506790D01*
X116527621Y-110537722D01*
X116465860Y-110566473D01*
X116409388Y-110591408D01*
X116361438Y-110610889D01*
X116337986Y-110619318D01*
X116204221Y-110657133D01*
X116066327Y-110682136D01*
X115918622Y-110695140D01*
X115791833Y-110697468D01*
X115723878Y-110696373D01*
X115658277Y-110694275D01*
X115600847Y-110691434D01*
X115557403Y-110688106D01*
X115543298Y-110686422D01*
X115404284Y-110657587D01*
X115262757Y-110612468D01*
X115125275Y-110553750D01*
X114998394Y-110484120D01*
X114920889Y-110431441D01*
X114793481Y-110323239D01*
X114675178Y-110196671D01*
X114568172Y-110054866D01*
X114474652Y-109900951D01*
X114396810Y-109738053D01*
X114352956Y-109620756D01*
X114302708Y-109437128D01*
X114269209Y-109242581D01*
X114252449Y-109041325D01*
X114252416Y-108837568D01*
X114269101Y-108635521D01*
X114302493Y-108439392D01*
X114352580Y-108253391D01*
X114356397Y-108241803D01*
X114419281Y-108079750D01*
X114496028Y-107931832D01*
X114589242Y-107793865D01*
X114701527Y-107661661D01*
X114745392Y-107616399D01*
X114881534Y-107492457D01*
X115021491Y-107389915D01*
X115167411Y-107307656D01*
X115321442Y-107244564D01*
X115485732Y-107199523D01*
X115581289Y-107182033D01*
X115740023Y-107166466D01*
X115898429Y-107169071D01*
G36*
X112623600Y-106709054D02*
G01*
X112634465Y-106822993D01*
X112666082Y-106930616D01*
X112716985Y-107029615D01*
X112785707Y-107117684D01*
X112870781Y-107192516D01*
X112967768Y-107250384D01*
X113074036Y-107290005D01*
X113181050Y-107308573D01*
X113286700Y-107307434D01*
X113388875Y-107287930D01*
X113485466Y-107251406D01*
X113574362Y-107199205D01*
X113653454Y-107132673D01*
X113720631Y-107053152D01*
X113773783Y-106961987D01*
X113810801Y-106860523D01*
X113829573Y-106750102D01*
X113831511Y-106700206D01*
X113831511Y-106612267D01*
X113883440Y-106612267D01*
X113919747Y-106615111D01*
X113946645Y-106626911D01*
X113973751Y-106650649D01*
X114012133Y-106689031D01*
X114012133Y-108880602D01*
X114012124Y-109142739D01*
X114012092Y-109383241D01*
X114012028Y-109603048D01*
X114011924Y-109803101D01*
X114011773Y-109984344D01*
X114011566Y-110147716D01*
X114011294Y-110294160D01*
X114010950Y-110424617D01*
X114010526Y-110540029D01*
X114010013Y-110641338D01*
X114009403Y-110729484D01*
X114008688Y-110805410D01*
X114007860Y-110870057D01*
X114006911Y-110924367D01*
X114005833Y-110969280D01*
X114004617Y-111005740D01*
X114003255Y-111034687D01*
X114001739Y-111057063D01*
X114000062Y-111073809D01*
X113998214Y-111085868D01*
X113996187Y-111094180D01*
X113993975Y-111099687D01*
X113992892Y-111101537D01*
X113988729Y-111108549D01*
X113985195Y-111114996D01*
X113981365Y-111120900D01*
X113976318Y-111126286D01*
X113969129Y-111131178D01*
X113958877Y-111135598D01*
X113944636Y-111139572D01*
X113925486Y-111143121D01*
X113900501Y-111146270D01*
X113868760Y-111149042D01*
X113829338Y-111151461D01*
X113781314Y-111153551D01*
X113723763Y-111155335D01*
X113655763Y-111156837D01*
X113576390Y-111158080D01*
X113484721Y-111159089D01*
X113379834Y-111159885D01*
X113260804Y-111160494D01*
X113126710Y-111160939D01*
X112976627Y-111161243D01*
X112809633Y-111161430D01*
X112624804Y-111161524D01*
X112421217Y-111161548D01*
X112197950Y-111161525D01*
X111954078Y-111161480D01*
X111688679Y-111161437D01*
X111650296Y-111161432D01*
X111383318Y-111161389D01*
X111137998Y-111161318D01*
X110913417Y-111161213D01*
X110708655Y-111161066D01*
X110522794Y-111160869D01*
X110354912Y-111160616D01*
X110204092Y-111160300D01*
X110069413Y-111159913D01*
X109949956Y-111159447D01*
X109844801Y-111158897D01*
X109753029Y-111158253D01*
X109673721Y-111157511D01*
X109605957Y-111156661D01*
X109548818Y-111155697D01*
X109501383Y-111154611D01*
X109462734Y-111153397D01*
X109431951Y-111152047D01*
X109408115Y-111150555D01*
X109390306Y-111148911D01*
X109377605Y-111147111D01*
X109369092Y-111145145D01*
X109364734Y-111143477D01*
X109356272Y-111139906D01*
X109348503Y-111137270D01*
X109341398Y-111134634D01*
X109334927Y-111131062D01*
X109329061Y-111125621D01*
X109323771Y-111117375D01*
X109319026Y-111105390D01*
X109314798Y-111088731D01*
X109311057Y-111066463D01*
X109307773Y-111037652D01*
X109304917Y-111001363D01*
X109302460Y-110956661D01*
X109300371Y-110902611D01*
X109298622Y-110838279D01*
X109297183Y-110762730D01*
X109296024Y-110675030D01*
X109295117Y-110574243D01*
X109294431Y-110459434D01*
X109293937Y-110329670D01*
X109293605Y-110184015D01*
X109293407Y-110021535D01*
X109293313Y-109841295D01*
X109293292Y-109642360D01*
X109293315Y-109423796D01*
X109293354Y-109184668D01*
X109293378Y-108924040D01*
X109293378Y-108881889D01*
X109293364Y-108618992D01*
X109293339Y-108377732D01*
X109293329Y-108157165D01*
X109293358Y-107956352D01*
X109293452Y-107774349D01*
X109293638Y-107610216D01*
X109293941Y-107463011D01*
X109294386Y-107331792D01*
X109294966Y-107221867D01*
X109597803Y-107221867D01*
X109637593Y-107279711D01*
X109648764Y-107295479D01*
X109658834Y-107309441D01*
X109667862Y-107322784D01*
X109675903Y-107336693D01*
X109683014Y-107352356D01*
X109689253Y-107370958D01*
X109694675Y-107393686D01*
X109699338Y-107421727D01*
X109703299Y-107456267D01*
X109706615Y-107498492D01*
X109709341Y-107549589D01*
X109711536Y-107610744D01*
X109713255Y-107683144D01*
X109714556Y-107767975D01*
X109715495Y-107866422D01*
X109716130Y-107979674D01*
X109716516Y-108108916D01*
X109716712Y-108255334D01*
X109716773Y-108420116D01*
X109716757Y-108604447D01*
X109716720Y-108809513D01*
X109716711Y-108932133D01*
X109716735Y-109149082D01*
X109716769Y-109344642D01*
X109716757Y-109519999D01*
X109716642Y-109676341D01*
X109716370Y-109814857D01*
X109715882Y-109936734D01*
X109715124Y-110043160D01*
X109714038Y-110135322D01*
X109712569Y-110214409D01*
X109710660Y-110281608D01*
X109708256Y-110338107D01*
X109705299Y-110385093D01*
X109701734Y-110423755D01*
X109697505Y-110455280D01*
X109692554Y-110480855D01*
X109686827Y-110501670D01*
X109680267Y-110518911D01*
X109672817Y-110533765D01*
X109664421Y-110547422D01*
X109655024Y-110561069D01*
X109644568Y-110575893D01*
X109638477Y-110584783D01*
X109599704Y-110642400D01*
X110131268Y-110642400D01*
X110254517Y-110642365D01*
X110357013Y-110642215D01*
X110440580Y-110641878D01*
X110507044Y-110641286D01*
X110558229Y-110640367D01*
X110595959Y-110639051D01*
X110622060Y-110637269D01*
X110638356Y-110634951D01*
X110646672Y-110632026D01*
X110648832Y-110628424D01*
X110646661Y-110624075D01*
X110645465Y-110622645D01*
X110620315Y-110585573D01*
X110594417Y-110532772D01*
X110570808Y-110470770D01*
X110562539Y-110444357D01*
X110557922Y-110426416D01*
X110554021Y-110405355D01*
X110550752Y-110379089D01*
X110548034Y-110345532D01*
X110545785Y-110302599D01*
X110543923Y-110248204D01*
X110542364Y-110180262D01*
X110541028Y-110096688D01*
X110539831Y-109995395D01*
X110538692Y-109874300D01*
X110538315Y-109829600D01*
X110537298Y-109704449D01*
X110536540Y-109600082D01*
X110536097Y-109514707D01*
X110536030Y-109446533D01*
X110536395Y-109393765D01*
X110537252Y-109354614D01*
X110538659Y-109327285D01*
X110540675Y-109309986D01*
X110543357Y-109300926D01*
X110546764Y-109298312D01*
X110550956Y-109300351D01*
X110555429Y-109304667D01*
X110565784Y-109317602D01*
X110587842Y-109346676D01*
X110620043Y-109389759D01*
X110660826Y-109444718D01*
X110708630Y-109509423D01*
X110761895Y-109581742D01*
X110819060Y-109659544D01*
X110878563Y-109740698D01*
X110938845Y-109823072D01*
X110998345Y-109904536D01*
X111055502Y-109982957D01*
X111108755Y-110056204D01*
X111156543Y-110122147D01*
X111197307Y-110178654D01*
X111229484Y-110223593D01*
X111251515Y-110254834D01*
X111256083Y-110261466D01*
X111279004Y-110298369D01*
X111305812Y-110346359D01*
X111331211Y-110395897D01*
X111334432Y-110402577D01*
X111356110Y-110450772D01*
X111368696Y-110488334D01*
X111374426Y-110524160D01*
X111375544Y-110566200D01*
X111374910Y-110642400D01*
X112529349Y-110642400D01*
X112438185Y-110548669D01*
X112391388Y-110498775D01*
X112341101Y-110442295D01*
X112295056Y-110388026D01*
X112274631Y-110362673D01*
X112244193Y-110323128D01*
X112204138Y-110269916D01*
X112155639Y-110204667D01*
X112099865Y-110129011D01*
X112037989Y-110044577D01*
X111971181Y-109952994D01*
X111900613Y-109855892D01*
X111827455Y-109754901D01*
X111752879Y-109651650D01*
X111678056Y-109547768D01*
X111604157Y-109444885D01*
X111532354Y-109344631D01*
X111463816Y-109248636D01*
X111399716Y-109158527D01*
X111341225Y-109075936D01*
X111289514Y-109002492D01*
X111245753Y-108939824D01*
X111211115Y-108889561D01*
X111186770Y-108853334D01*
X111173889Y-108832771D01*
X111172131Y-108828668D01*
X111180090Y-108817342D01*
X111200885Y-108790162D01*
X111233153Y-108748829D01*
X111275530Y-108695044D01*
X111326653Y-108630506D01*
X111385159Y-108556918D01*
X111449686Y-108475978D01*
X111518869Y-108389388D01*
X111591347Y-108298848D01*
X111665754Y-108206060D01*
X111725483Y-108131702D01*
X112736489Y-108131702D01*
X112742398Y-108144659D01*
X112756728Y-108166908D01*
X112757775Y-108168391D01*
X112776562Y-108198544D01*
X112796209Y-108235375D01*
X112800108Y-108243511D01*
X112803644Y-108251940D01*
X112806770Y-108262059D01*
X112809514Y-108275260D01*
X112811908Y-108292938D01*
X112813981Y-108316484D01*
X112815765Y-108347293D01*
X112817288Y-108386757D01*
X112818581Y-108436269D01*
X112819674Y-108497223D01*
X112820597Y-108571011D01*
X112821381Y-108659028D01*
X112822055Y-108762665D01*
X112822650Y-108883316D01*
X112823195Y-109022374D01*
X112823721Y-109181232D01*
X112824255Y-109360089D01*
X112824794Y-109545207D01*
X112825228Y-109709145D01*
X112825491Y-109853303D01*
X112825516Y-109979079D01*
X112825235Y-110087871D01*
X112824581Y-110181077D01*
X112823486Y-110260097D01*
X112821882Y-110326328D01*
X112819703Y-110381170D01*
X112816881Y-110426021D01*
X112813349Y-110462278D01*
X112809039Y-110491341D01*
X112803883Y-110514609D01*
X112797815Y-110533479D01*
X112790767Y-110549351D01*
X112782671Y-110563622D01*
X112773460Y-110577691D01*
X112764960Y-110590158D01*
X112747824Y-110616452D01*
X112737678Y-110634037D01*
X112736489Y-110637257D01*
X112747396Y-110638334D01*
X112778589Y-110639335D01*
X112827777Y-110640235D01*
X112892667Y-110641010D01*
X112970970Y-110641637D01*
X113060393Y-110642091D01*
X113158644Y-110642349D01*
X113227555Y-110642400D01*
X113332548Y-110642180D01*
X113429390Y-110641548D01*
X113515893Y-110640549D01*
X113589868Y-110639227D01*
X113649126Y-110637626D01*
X113691480Y-110635791D01*
X113714740Y-110633765D01*
X113718622Y-110632493D01*
X113710924Y-110617591D01*
X113702926Y-110609560D01*
X113689754Y-110592434D01*
X113672515Y-110562183D01*
X113660593Y-110537622D01*
X113633955Y-110478711D01*
X113630880Y-109301845D01*
X113627805Y-108124978D01*
X113182147Y-108124978D01*
X113084330Y-108125142D01*
X112993936Y-108125611D01*
X112913370Y-108126347D01*
X112845038Y-108127316D01*
X112791344Y-108128480D01*
X112754695Y-108129803D01*
X112737496Y-108131249D01*
X112736489Y-108131702D01*
X111725483Y-108131702D01*
X111740730Y-108112722D01*
X111814910Y-108020537D01*
X111886931Y-107931204D01*
X111955431Y-107846424D01*
X112019045Y-107767898D01*
X112076412Y-107697326D01*
X112126167Y-107636409D01*
X112166948Y-107586847D01*
X112184112Y-107566178D01*
X112270404Y-107465516D01*
X112347003Y-107382259D01*
X112415817Y-107314438D01*
X112478752Y-107260089D01*
X112488133Y-107252722D01*
X112527644Y-107222117D01*
X111395884Y-107221867D01*
X111401173Y-107269844D01*
X111397870Y-107327188D01*
X111376339Y-107395463D01*
X111336365Y-107475212D01*
X111291057Y-107547495D01*
X111274839Y-107570140D01*
X111246786Y-107607696D01*
X111208570Y-107658021D01*
X111161863Y-107718973D01*
X111108339Y-107788411D01*
X111049669Y-107864194D01*
X110987525Y-107944180D01*
X110923579Y-108026228D01*
X110859505Y-108108196D01*
X110796973Y-108187943D01*
X110737657Y-108263327D01*
X110683229Y-108332207D01*
X110635361Y-108392442D01*
X110595725Y-108441889D01*
X110565994Y-108478408D01*
X110547839Y-108499858D01*
X110544780Y-108503156D01*
X110541921Y-108495149D01*
X110539707Y-108464855D01*
X110538143Y-108412556D01*
X110537233Y-108338531D01*
X110536980Y-108243063D01*
X110537387Y-108126434D01*
X110538296Y-108006445D01*
X110539618Y-107874333D01*
X110541143Y-107762594D01*
X110543119Y-107669025D01*
X110545794Y-107591419D01*
X110549418Y-107527574D01*
X110554239Y-107475283D01*
X110560506Y-107432344D01*
X110568468Y-107396551D01*
X110578373Y-107365700D01*
X110590469Y-107337586D01*
X110605007Y-107310005D01*
X110619689Y-107284966D01*
X110657686Y-107221867D01*
X109597803Y-107221867D01*
X109294966Y-107221867D01*
X109294999Y-107215617D01*
X109295805Y-107113544D01*
X109296830Y-107024633D01*
X109298100Y-106947941D01*
X109299640Y-106882527D01*
X109301476Y-106827449D01*
X109303633Y-106781765D01*
X109306137Y-106744534D01*
X109309013Y-106714813D01*
X109312287Y-106691662D01*
X109315985Y-106674139D01*
X109320131Y-106661301D01*
X109324753Y-106652208D01*
X109329874Y-106645918D01*
X109335522Y-106641488D01*
X109341721Y-106637978D01*
X109348496Y-106634445D01*
X109354492Y-106630876D01*
X109359725Y-106628300D01*
X109367901Y-106625972D01*
X109380114Y-106623878D01*
X109397459Y-106622007D01*
X109421031Y-106620347D01*
X109451923Y-106618884D01*
X109491232Y-106617608D01*
X109540050Y-106616504D01*
X109599473Y-106615561D01*
X109670596Y-106614767D01*
X109754512Y-106614109D01*
X109852317Y-106613575D01*
X109965106Y-106613153D01*
X110093971Y-106612829D01*
X110240009Y-106612592D01*
X110404314Y-106612430D01*
X110587980Y-106612330D01*
X110792103Y-106612280D01*
X111003247Y-106612267D01*
X112623600Y-106612267D01*
X112623600Y-106709054D01*
G37*
X112623600Y-106709054D02*
X112634465Y-106822993D01*
X112666082Y-106930616D01*
X112716985Y-107029615D01*
X112785707Y-107117684D01*
X112870781Y-107192516D01*
X112967768Y-107250384D01*
X113074036Y-107290005D01*
X113181050Y-107308573D01*
X113286700Y-107307434D01*
X113388875Y-107287930D01*
X113485466Y-107251406D01*
X113574362Y-107199205D01*
X113653454Y-107132673D01*
X113720631Y-107053152D01*
X113773783Y-106961987D01*
X113810801Y-106860523D01*
X113829573Y-106750102D01*
X113831511Y-106700206D01*
X113831511Y-106612267D01*
X113883440Y-106612267D01*
X113919747Y-106615111D01*
X113946645Y-106626911D01*
X113973751Y-106650649D01*
X114012133Y-106689031D01*
X114012133Y-108880602D01*
X114012124Y-109142739D01*
X114012092Y-109383241D01*
X114012028Y-109603048D01*
X114011924Y-109803101D01*
X114011773Y-109984344D01*
X114011566Y-110147716D01*
X114011294Y-110294160D01*
X114010950Y-110424617D01*
X114010526Y-110540029D01*
X114010013Y-110641338D01*
X114009403Y-110729484D01*
X114008688Y-110805410D01*
X114007860Y-110870057D01*
X114006911Y-110924367D01*
X114005833Y-110969280D01*
X114004617Y-111005740D01*
X114003255Y-111034687D01*
X114001739Y-111057063D01*
X114000062Y-111073809D01*
X113998214Y-111085868D01*
X113996187Y-111094180D01*
X113993975Y-111099687D01*
X113992892Y-111101537D01*
X113988729Y-111108549D01*
X113985195Y-111114996D01*
X113981365Y-111120900D01*
X113976318Y-111126286D01*
X113969129Y-111131178D01*
X113958877Y-111135598D01*
X113944636Y-111139572D01*
X113925486Y-111143121D01*
X113900501Y-111146270D01*
X113868760Y-111149042D01*
X113829338Y-111151461D01*
X113781314Y-111153551D01*
X113723763Y-111155335D01*
X113655763Y-111156837D01*
X113576390Y-111158080D01*
X113484721Y-111159089D01*
X113379834Y-111159885D01*
X113260804Y-111160494D01*
X113126710Y-111160939D01*
X112976627Y-111161243D01*
X112809633Y-111161430D01*
X112624804Y-111161524D01*
X112421217Y-111161548D01*
X112197950Y-111161525D01*
X111954078Y-111161480D01*
X111688679Y-111161437D01*
X111650296Y-111161432D01*
X111383318Y-111161389D01*
X111137998Y-111161318D01*
X110913417Y-111161213D01*
X110708655Y-111161066D01*
X110522794Y-111160869D01*
X110354912Y-111160616D01*
X110204092Y-111160300D01*
X110069413Y-111159913D01*
X109949956Y-111159447D01*
X109844801Y-111158897D01*
X109753029Y-111158253D01*
X109673721Y-111157511D01*
X109605957Y-111156661D01*
X109548818Y-111155697D01*
X109501383Y-111154611D01*
X109462734Y-111153397D01*
X109431951Y-111152047D01*
X109408115Y-111150555D01*
X109390306Y-111148911D01*
X109377605Y-111147111D01*
X109369092Y-111145145D01*
X109364734Y-111143477D01*
X109356272Y-111139906D01*
X109348503Y-111137270D01*
X109341398Y-111134634D01*
X109334927Y-111131062D01*
X109329061Y-111125621D01*
X109323771Y-111117375D01*
X109319026Y-111105390D01*
X109314798Y-111088731D01*
X109311057Y-111066463D01*
X109307773Y-111037652D01*
X109304917Y-111001363D01*
X109302460Y-110956661D01*
X109300371Y-110902611D01*
X109298622Y-110838279D01*
X109297183Y-110762730D01*
X109296024Y-110675030D01*
X109295117Y-110574243D01*
X109294431Y-110459434D01*
X109293937Y-110329670D01*
X109293605Y-110184015D01*
X109293407Y-110021535D01*
X109293313Y-109841295D01*
X109293292Y-109642360D01*
X109293315Y-109423796D01*
X109293354Y-109184668D01*
X109293378Y-108924040D01*
X109293378Y-108881889D01*
X109293364Y-108618992D01*
X109293339Y-108377732D01*
X109293329Y-108157165D01*
X109293358Y-107956352D01*
X109293452Y-107774349D01*
X109293638Y-107610216D01*
X109293941Y-107463011D01*
X109294386Y-107331792D01*
X109294966Y-107221867D01*
X109597803Y-107221867D01*
X109637593Y-107279711D01*
X109648764Y-107295479D01*
X109658834Y-107309441D01*
X109667862Y-107322784D01*
X109675903Y-107336693D01*
X109683014Y-107352356D01*
X109689253Y-107370958D01*
X109694675Y-107393686D01*
X109699338Y-107421727D01*
X109703299Y-107456267D01*
X109706615Y-107498492D01*
X109709341Y-107549589D01*
X109711536Y-107610744D01*
X109713255Y-107683144D01*
X109714556Y-107767975D01*
X109715495Y-107866422D01*
X109716130Y-107979674D01*
X109716516Y-108108916D01*
X109716712Y-108255334D01*
X109716773Y-108420116D01*
X109716757Y-108604447D01*
X109716720Y-108809513D01*
X109716711Y-108932133D01*
X109716735Y-109149082D01*
X109716769Y-109344642D01*
X109716757Y-109519999D01*
X109716642Y-109676341D01*
X109716370Y-109814857D01*
X109715882Y-109936734D01*
X109715124Y-110043160D01*
X109714038Y-110135322D01*
X109712569Y-110214409D01*
X109710660Y-110281608D01*
X109708256Y-110338107D01*
X109705299Y-110385093D01*
X109701734Y-110423755D01*
X109697505Y-110455280D01*
X109692554Y-110480855D01*
X109686827Y-110501670D01*
X109680267Y-110518911D01*
X109672817Y-110533765D01*
X109664421Y-110547422D01*
X109655024Y-110561069D01*
X109644568Y-110575893D01*
X109638477Y-110584783D01*
X109599704Y-110642400D01*
X110131268Y-110642400D01*
X110254517Y-110642365D01*
X110357013Y-110642215D01*
X110440580Y-110641878D01*
X110507044Y-110641286D01*
X110558229Y-110640367D01*
X110595959Y-110639051D01*
X110622060Y-110637269D01*
X110638356Y-110634951D01*
X110646672Y-110632026D01*
X110648832Y-110628424D01*
X110646661Y-110624075D01*
X110645465Y-110622645D01*
X110620315Y-110585573D01*
X110594417Y-110532772D01*
X110570808Y-110470770D01*
X110562539Y-110444357D01*
X110557922Y-110426416D01*
X110554021Y-110405355D01*
X110550752Y-110379089D01*
X110548034Y-110345532D01*
X110545785Y-110302599D01*
X110543923Y-110248204D01*
X110542364Y-110180262D01*
X110541028Y-110096688D01*
X110539831Y-109995395D01*
X110538692Y-109874300D01*
X110538315Y-109829600D01*
X110537298Y-109704449D01*
X110536540Y-109600082D01*
X110536097Y-109514707D01*
X110536030Y-109446533D01*
X110536395Y-109393765D01*
X110537252Y-109354614D01*
X110538659Y-109327285D01*
X110540675Y-109309986D01*
X110543357Y-109300926D01*
X110546764Y-109298312D01*
X110550956Y-109300351D01*
X110555429Y-109304667D01*
X110565784Y-109317602D01*
X110587842Y-109346676D01*
X110620043Y-109389759D01*
X110660826Y-109444718D01*
X110708630Y-109509423D01*
X110761895Y-109581742D01*
X110819060Y-109659544D01*
X110878563Y-109740698D01*
X110938845Y-109823072D01*
X110998345Y-109904536D01*
X111055502Y-109982957D01*
X111108755Y-110056204D01*
X111156543Y-110122147D01*
X111197307Y-110178654D01*
X111229484Y-110223593D01*
X111251515Y-110254834D01*
X111256083Y-110261466D01*
X111279004Y-110298369D01*
X111305812Y-110346359D01*
X111331211Y-110395897D01*
X111334432Y-110402577D01*
X111356110Y-110450772D01*
X111368696Y-110488334D01*
X111374426Y-110524160D01*
X111375544Y-110566200D01*
X111374910Y-110642400D01*
X112529349Y-110642400D01*
X112438185Y-110548669D01*
X112391388Y-110498775D01*
X112341101Y-110442295D01*
X112295056Y-110388026D01*
X112274631Y-110362673D01*
X112244193Y-110323128D01*
X112204138Y-110269916D01*
X112155639Y-110204667D01*
X112099865Y-110129011D01*
X112037989Y-110044577D01*
X111971181Y-109952994D01*
X111900613Y-109855892D01*
X111827455Y-109754901D01*
X111752879Y-109651650D01*
X111678056Y-109547768D01*
X111604157Y-109444885D01*
X111532354Y-109344631D01*
X111463816Y-109248636D01*
X111399716Y-109158527D01*
X111341225Y-109075936D01*
X111289514Y-109002492D01*
X111245753Y-108939824D01*
X111211115Y-108889561D01*
X111186770Y-108853334D01*
X111173889Y-108832771D01*
X111172131Y-108828668D01*
X111180090Y-108817342D01*
X111200885Y-108790162D01*
X111233153Y-108748829D01*
X111275530Y-108695044D01*
X111326653Y-108630506D01*
X111385159Y-108556918D01*
X111449686Y-108475978D01*
X111518869Y-108389388D01*
X111591347Y-108298848D01*
X111665754Y-108206060D01*
X111725483Y-108131702D01*
X112736489Y-108131702D01*
X112742398Y-108144659D01*
X112756728Y-108166908D01*
X112757775Y-108168391D01*
X112776562Y-108198544D01*
X112796209Y-108235375D01*
X112800108Y-108243511D01*
X112803644Y-108251940D01*
X112806770Y-108262059D01*
X112809514Y-108275260D01*
X112811908Y-108292938D01*
X112813981Y-108316484D01*
X112815765Y-108347293D01*
X112817288Y-108386757D01*
X112818581Y-108436269D01*
X112819674Y-108497223D01*
X112820597Y-108571011D01*
X112821381Y-108659028D01*
X112822055Y-108762665D01*
X112822650Y-108883316D01*
X112823195Y-109022374D01*
X112823721Y-109181232D01*
X112824255Y-109360089D01*
X112824794Y-109545207D01*
X112825228Y-109709145D01*
X112825491Y-109853303D01*
X112825516Y-109979079D01*
X112825235Y-110087871D01*
X112824581Y-110181077D01*
X112823486Y-110260097D01*
X112821882Y-110326328D01*
X112819703Y-110381170D01*
X112816881Y-110426021D01*
X112813349Y-110462278D01*
X112809039Y-110491341D01*
X112803883Y-110514609D01*
X112797815Y-110533479D01*
X112790767Y-110549351D01*
X112782671Y-110563622D01*
X112773460Y-110577691D01*
X112764960Y-110590158D01*
X112747824Y-110616452D01*
X112737678Y-110634037D01*
X112736489Y-110637257D01*
X112747396Y-110638334D01*
X112778589Y-110639335D01*
X112827777Y-110640235D01*
X112892667Y-110641010D01*
X112970970Y-110641637D01*
X113060393Y-110642091D01*
X113158644Y-110642349D01*
X113227555Y-110642400D01*
X113332548Y-110642180D01*
X113429390Y-110641548D01*
X113515893Y-110640549D01*
X113589868Y-110639227D01*
X113649126Y-110637626D01*
X113691480Y-110635791D01*
X113714740Y-110633765D01*
X113718622Y-110632493D01*
X113710924Y-110617591D01*
X113702926Y-110609560D01*
X113689754Y-110592434D01*
X113672515Y-110562183D01*
X113660593Y-110537622D01*
X113633955Y-110478711D01*
X113630880Y-109301845D01*
X113627805Y-108124978D01*
X113182147Y-108124978D01*
X113084330Y-108125142D01*
X112993936Y-108125611D01*
X112913370Y-108126347D01*
X112845038Y-108127316D01*
X112791344Y-108128480D01*
X112754695Y-108129803D01*
X112737496Y-108131249D01*
X112736489Y-108131702D01*
X111725483Y-108131702D01*
X111740730Y-108112722D01*
X111814910Y-108020537D01*
X111886931Y-107931204D01*
X111955431Y-107846424D01*
X112019045Y-107767898D01*
X112076412Y-107697326D01*
X112126167Y-107636409D01*
X112166948Y-107586847D01*
X112184112Y-107566178D01*
X112270404Y-107465516D01*
X112347003Y-107382259D01*
X112415817Y-107314438D01*
X112478752Y-107260089D01*
X112488133Y-107252722D01*
X112527644Y-107222117D01*
X111395884Y-107221867D01*
X111401173Y-107269844D01*
X111397870Y-107327188D01*
X111376339Y-107395463D01*
X111336365Y-107475212D01*
X111291057Y-107547495D01*
X111274839Y-107570140D01*
X111246786Y-107607696D01*
X111208570Y-107658021D01*
X111161863Y-107718973D01*
X111108339Y-107788411D01*
X111049669Y-107864194D01*
X110987525Y-107944180D01*
X110923579Y-108026228D01*
X110859505Y-108108196D01*
X110796973Y-108187943D01*
X110737657Y-108263327D01*
X110683229Y-108332207D01*
X110635361Y-108392442D01*
X110595725Y-108441889D01*
X110565994Y-108478408D01*
X110547839Y-108499858D01*
X110544780Y-108503156D01*
X110541921Y-108495149D01*
X110539707Y-108464855D01*
X110538143Y-108412556D01*
X110537233Y-108338531D01*
X110536980Y-108243063D01*
X110537387Y-108126434D01*
X110538296Y-108006445D01*
X110539618Y-107874333D01*
X110541143Y-107762594D01*
X110543119Y-107669025D01*
X110545794Y-107591419D01*
X110549418Y-107527574D01*
X110554239Y-107475283D01*
X110560506Y-107432344D01*
X110568468Y-107396551D01*
X110578373Y-107365700D01*
X110590469Y-107337586D01*
X110605007Y-107310005D01*
X110619689Y-107284966D01*
X110657686Y-107221867D01*
X109597803Y-107221867D01*
X109294966Y-107221867D01*
X109294999Y-107215617D01*
X109295805Y-107113544D01*
X109296830Y-107024633D01*
X109298100Y-106947941D01*
X109299640Y-106882527D01*
X109301476Y-106827449D01*
X109303633Y-106781765D01*
X109306137Y-106744534D01*
X109309013Y-106714813D01*
X109312287Y-106691662D01*
X109315985Y-106674139D01*
X109320131Y-106661301D01*
X109324753Y-106652208D01*
X109329874Y-106645918D01*
X109335522Y-106641488D01*
X109341721Y-106637978D01*
X109348496Y-106634445D01*
X109354492Y-106630876D01*
X109359725Y-106628300D01*
X109367901Y-106625972D01*
X109380114Y-106623878D01*
X109397459Y-106622007D01*
X109421031Y-106620347D01*
X109451923Y-106618884D01*
X109491232Y-106617608D01*
X109540050Y-106616504D01*
X109599473Y-106615561D01*
X109670596Y-106614767D01*
X109754512Y-106614109D01*
X109852317Y-106613575D01*
X109965106Y-106613153D01*
X110093971Y-106612829D01*
X110240009Y-106612592D01*
X110404314Y-106612430D01*
X110587980Y-106612330D01*
X110792103Y-106612280D01*
X111003247Y-106612267D01*
X112623600Y-106612267D01*
X112623600Y-106709054D01*
D12*
X117880000Y-101400000D02*
X113340000Y-101400000D01*
X117880000Y-99260000D02*
X113340000Y-99260000D01*
X117880000Y-101400000D02*
X117880000Y-101385000D01*
X117880000Y-99275000D02*
X117880000Y-99260000D01*
X113340000Y-101400000D02*
X113340000Y-101385000D01*
X113340000Y-99275000D02*
X113340000Y-99260000D01*
X131040000Y-90370000D02*
X135580000Y-90370000D01*
X131040000Y-92510000D02*
X135580000Y-92510000D01*
X131040000Y-90370000D02*
X131040000Y-90385000D01*
X131040000Y-92495000D02*
X131040000Y-92510000D01*
X135580000Y-90370000D02*
X135580000Y-90385000D01*
X135580000Y-92495000D02*
X135580000Y-92510000D01*
X117880000Y-79795000D02*
X117880000Y-79810000D01*
X117880000Y-77670000D02*
X117880000Y-77685000D01*
X113340000Y-79795000D02*
X113340000Y-79810000D01*
X113340000Y-77670000D02*
X113340000Y-77685000D01*
X113340000Y-79810000D02*
X117880000Y-79810000D01*
X113340000Y-77670000D02*
X117880000Y-77670000D01*
X90572335Y-117031392D02*
G75*
G03X87340000Y-116874484I-1672335J-1078608D01*
G01*
X90572335Y-119188608D02*
G75*
G02X87340000Y-119345516I-1672335J1078608D01*
G01*
X89941130Y-117030163D02*
G75*
G03X87859039Y-117030000I-1041130J-1079837D01*
G01*
X89941130Y-119189837D02*
G75*
G02X87859039Y-119190000I-1041130J1079837D01*
G01*
X87340000Y-116874000D02*
X87340000Y-117030000D01*
X87340000Y-119190000D02*
X87340000Y-119346000D01*
X94960000Y-119190000D02*
X94960000Y-119346000D01*
X94960000Y-116874000D02*
X94960000Y-117030000D01*
X97561130Y-119189837D02*
G75*
G02X95479039Y-119190000I-1041130J1079837D01*
G01*
X97561130Y-117030163D02*
G75*
G03X95479039Y-117030000I-1041130J-1079837D01*
G01*
X98192335Y-119188608D02*
G75*
G02X94960000Y-119345516I-1672335J1078608D01*
G01*
X98192335Y-117031392D02*
G75*
G03X94960000Y-116874484I-1672335J-1078608D01*
G01*
X102580000Y-119190000D02*
X102580000Y-119346000D01*
X102580000Y-116874000D02*
X102580000Y-117030000D01*
X105181130Y-119189837D02*
G75*
G02X103099039Y-119190000I-1041130J1079837D01*
G01*
X105181130Y-117030163D02*
G75*
G03X103099039Y-117030000I-1041130J-1079837D01*
G01*
X105812335Y-119188608D02*
G75*
G02X102580000Y-119345516I-1672335J1078608D01*
G01*
X105812335Y-117031392D02*
G75*
G03X102580000Y-116874484I-1672335J-1078608D01*
G01*
X113432335Y-117031392D02*
G75*
G03X110200000Y-116874484I-1672335J-1078608D01*
G01*
X113432335Y-119188608D02*
G75*
G02X110200000Y-119345516I-1672335J1078608D01*
G01*
X112801130Y-117030163D02*
G75*
G03X110719039Y-117030000I-1041130J-1079837D01*
G01*
X112801130Y-119189837D02*
G75*
G02X110719039Y-119190000I-1041130J1079837D01*
G01*
X110200000Y-116874000D02*
X110200000Y-117030000D01*
X110200000Y-119190000D02*
X110200000Y-119346000D01*
X108352335Y-82741392D02*
G75*
G03X105120000Y-82584484I-1672335J-1078608D01*
G01*
X108352335Y-84898608D02*
G75*
G02X105120000Y-85055516I-1672335J1078608D01*
G01*
X107721130Y-82740163D02*
G75*
G03X105639039Y-82740000I-1041130J-1079837D01*
G01*
X107721130Y-84899837D02*
G75*
G02X105639039Y-84900000I-1041130J1079837D01*
G01*
X105120000Y-82584000D02*
X105120000Y-82740000D01*
X105120000Y-84900000D02*
X105120000Y-85056000D01*
X121052335Y-117031392D02*
G75*
G03X117820000Y-116874484I-1672335J-1078608D01*
G01*
X121052335Y-119188608D02*
G75*
G02X117820000Y-119345516I-1672335J1078608D01*
G01*
X120421130Y-117030163D02*
G75*
G03X118339039Y-117030000I-1041130J-1079837D01*
G01*
X120421130Y-119189837D02*
G75*
G02X118339039Y-119190000I-1041130J1079837D01*
G01*
X117820000Y-116874000D02*
X117820000Y-117030000D01*
X117820000Y-119190000D02*
X117820000Y-119346000D01*
X125440000Y-119190000D02*
X125440000Y-119346000D01*
X125440000Y-116874000D02*
X125440000Y-117030000D01*
X128041130Y-119189837D02*
G75*
G02X125959039Y-119190000I-1041130J1079837D01*
G01*
X128041130Y-117030163D02*
G75*
G03X125959039Y-117030000I-1041130J-1079837D01*
G01*
X128672335Y-119188608D02*
G75*
G02X125440000Y-119345516I-1672335J1078608D01*
G01*
X128672335Y-117031392D02*
G75*
G03X125440000Y-116874484I-1672335J-1078608D01*
G01*
X133060000Y-119190000D02*
X133060000Y-119346000D01*
X133060000Y-116874000D02*
X133060000Y-117030000D01*
X135661130Y-119189837D02*
G75*
G02X133579039Y-119190000I-1041130J1079837D01*
G01*
X135661130Y-117030163D02*
G75*
G03X133579039Y-117030000I-1041130J-1079837D01*
G01*
X136292335Y-119188608D02*
G75*
G02X133060000Y-119345516I-1672335J1078608D01*
G01*
X136292335Y-117031392D02*
G75*
G03X133060000Y-116874484I-1672335J-1078608D01*
G01*
X143912335Y-117031392D02*
G75*
G03X140680000Y-116874484I-1672335J-1078608D01*
G01*
X143912335Y-119188608D02*
G75*
G02X140680000Y-119345516I-1672335J1078608D01*
G01*
X143281130Y-117030163D02*
G75*
G03X141199039Y-117030000I-1041130J-1079837D01*
G01*
X143281130Y-119189837D02*
G75*
G02X141199039Y-119190000I-1041130J1079837D01*
G01*
X140680000Y-116874000D02*
X140680000Y-117030000D01*
X140680000Y-119190000D02*
X140680000Y-119346000D01*
X126770000Y-86360000D02*
X130080000Y-86360000D01*
X139930000Y-86360000D02*
X136620000Y-86360000D01*
X130080000Y-87730000D02*
X136620000Y-87730000D01*
X130080000Y-84990000D02*
X130080000Y-87730000D01*
X136620000Y-84990000D02*
X130080000Y-84990000D01*
X136620000Y-87730000D02*
X136620000Y-84990000D01*
X91540000Y-74200000D02*
X88800000Y-74200000D01*
X88800000Y-74200000D02*
X88800000Y-80740000D01*
X88800000Y-80740000D02*
X91540000Y-80740000D01*
X91540000Y-80740000D02*
X91540000Y-74200000D01*
X90170000Y-70890000D02*
X90170000Y-74200000D01*
X90170000Y-84050000D02*
X90170000Y-80740000D01*
X94520000Y-88800000D02*
X94520000Y-91540000D01*
X94520000Y-91540000D02*
X101060000Y-91540000D01*
X101060000Y-91540000D02*
X101060000Y-88800000D01*
X101060000Y-88800000D02*
X94520000Y-88800000D01*
X91210000Y-90170000D02*
X94520000Y-90170000D01*
X104370000Y-90170000D02*
X101060000Y-90170000D01*
X95349000Y-75051000D02*
X95349000Y-70010000D01*
X105390000Y-75051000D02*
X105390000Y-70010000D01*
X95349000Y-70010000D02*
X98945000Y-70010000D01*
X101795000Y-70010000D02*
X105390000Y-70010000D01*
X104295000Y-75051000D02*
X105390000Y-75051000D01*
X95349000Y-75051000D02*
X96444000Y-75051000D01*
X99296000Y-75051000D02*
X101445000Y-75051000D01*
X98750000Y-73693000D02*
X98750000Y-70010000D01*
X101990000Y-73693000D02*
X101990000Y-70010000D01*
X99296000Y-75051000D02*
X101445000Y-75051000D01*
X98750000Y-70010000D02*
X98945000Y-70010000D01*
X101795000Y-70010000D02*
X101990000Y-70010000D01*
X116570000Y-82490000D02*
G75*
G02X114570000Y-82490000I-1000000J0D01*
G01*
X114570000Y-82490000D02*
X113320000Y-82490000D01*
X113320000Y-82490000D02*
X113320000Y-92770000D01*
X113320000Y-92770000D02*
X117820000Y-92770000D01*
X117820000Y-92770000D02*
X117820000Y-82490000D01*
X117820000Y-82490000D02*
X116570000Y-82490000D01*
X109280000Y-102580000D02*
X109280000Y-101330000D01*
X88840000Y-102580000D02*
X109280000Y-102580000D01*
X88840000Y-98080000D02*
X88840000Y-102580000D01*
X109280000Y-98080000D02*
X88840000Y-98080000D01*
X109280000Y-99330000D02*
X109280000Y-98080000D01*
X109280000Y-101330000D02*
G75*
G02X109280000Y-99330000I0J1000000D01*
G01*
X142300000Y-101330000D02*
G75*
G02X142300000Y-99330000I0J1000000D01*
G01*
X142300000Y-99330000D02*
X142300000Y-98080000D01*
X142300000Y-98080000D02*
X121860000Y-98080000D01*
X121860000Y-98080000D02*
X121860000Y-102580000D01*
X121860000Y-102580000D02*
X142300000Y-102580000D01*
X142300000Y-102580000D02*
X142300000Y-101330000D01*
X128210000Y-78680000D02*
X128210000Y-81340000D01*
X140970000Y-78680000D02*
X128210000Y-78680000D01*
X140970000Y-81340000D02*
X128210000Y-81340000D01*
X140970000Y-78680000D02*
X140970000Y-81340000D01*
X142240000Y-78680000D02*
X143570000Y-78680000D01*
X143570000Y-78680000D02*
X143570000Y-80010000D01*
D10*
X115443333Y-102887142D02*
X115395714Y-102934761D01*
X115252857Y-102982380D01*
X115157619Y-102982380D01*
X115014761Y-102934761D01*
X114919523Y-102839523D01*
X114871904Y-102744285D01*
X114824285Y-102553809D01*
X114824285Y-102410952D01*
X114871904Y-102220476D01*
X114919523Y-102125238D01*
X115014761Y-102030000D01*
X115157619Y-101982380D01*
X115252857Y-101982380D01*
X115395714Y-102030000D01*
X115443333Y-102077619D01*
X116395714Y-102982380D02*
X115824285Y-102982380D01*
X116110000Y-102982380D02*
X116110000Y-101982380D01*
X116014761Y-102125238D01*
X115919523Y-102220476D01*
X115824285Y-102268095D01*
X133143333Y-89597142D02*
X133095714Y-89644761D01*
X132952857Y-89692380D01*
X132857619Y-89692380D01*
X132714761Y-89644761D01*
X132619523Y-89549523D01*
X132571904Y-89454285D01*
X132524285Y-89263809D01*
X132524285Y-89120952D01*
X132571904Y-88930476D01*
X132619523Y-88835238D01*
X132714761Y-88740000D01*
X132857619Y-88692380D01*
X132952857Y-88692380D01*
X133095714Y-88740000D01*
X133143333Y-88787619D01*
X133524285Y-88787619D02*
X133571904Y-88740000D01*
X133667142Y-88692380D01*
X133905238Y-88692380D01*
X134000476Y-88740000D01*
X134048095Y-88787619D01*
X134095714Y-88882857D01*
X134095714Y-88978095D01*
X134048095Y-89120952D01*
X133476666Y-89692380D01*
X134095714Y-89692380D01*
X115443333Y-76897142D02*
X115395714Y-76944761D01*
X115252857Y-76992380D01*
X115157619Y-76992380D01*
X115014761Y-76944761D01*
X114919523Y-76849523D01*
X114871904Y-76754285D01*
X114824285Y-76563809D01*
X114824285Y-76420952D01*
X114871904Y-76230476D01*
X114919523Y-76135238D01*
X115014761Y-76040000D01*
X115157619Y-75992380D01*
X115252857Y-75992380D01*
X115395714Y-76040000D01*
X115443333Y-76087619D01*
X115776666Y-75992380D02*
X116395714Y-75992380D01*
X116062380Y-76373333D01*
X116205238Y-76373333D01*
X116300476Y-76420952D01*
X116348095Y-76468571D01*
X116395714Y-76563809D01*
X116395714Y-76801904D01*
X116348095Y-76897142D01*
X116300476Y-76944761D01*
X116205238Y-76992380D01*
X115919523Y-76992380D01*
X115824285Y-76944761D01*
X115776666Y-76897142D01*
X88161904Y-115602380D02*
X88161904Y-114602380D01*
X88400000Y-114602380D01*
X88542857Y-114650000D01*
X88638095Y-114745238D01*
X88685714Y-114840476D01*
X88733333Y-115030952D01*
X88733333Y-115173809D01*
X88685714Y-115364285D01*
X88638095Y-115459523D01*
X88542857Y-115554761D01*
X88400000Y-115602380D01*
X88161904Y-115602380D01*
X89685714Y-115602380D02*
X89114285Y-115602380D01*
X89400000Y-115602380D02*
X89400000Y-114602380D01*
X89304761Y-114745238D01*
X89209523Y-114840476D01*
X89114285Y-114888095D01*
X95781904Y-115602380D02*
X95781904Y-114602380D01*
X96020000Y-114602380D01*
X96162857Y-114650000D01*
X96258095Y-114745238D01*
X96305714Y-114840476D01*
X96353333Y-115030952D01*
X96353333Y-115173809D01*
X96305714Y-115364285D01*
X96258095Y-115459523D01*
X96162857Y-115554761D01*
X96020000Y-115602380D01*
X95781904Y-115602380D01*
X96734285Y-114697619D02*
X96781904Y-114650000D01*
X96877142Y-114602380D01*
X97115238Y-114602380D01*
X97210476Y-114650000D01*
X97258095Y-114697619D01*
X97305714Y-114792857D01*
X97305714Y-114888095D01*
X97258095Y-115030952D01*
X96686666Y-115602380D01*
X97305714Y-115602380D01*
X103401904Y-115602380D02*
X103401904Y-114602380D01*
X103640000Y-114602380D01*
X103782857Y-114650000D01*
X103878095Y-114745238D01*
X103925714Y-114840476D01*
X103973333Y-115030952D01*
X103973333Y-115173809D01*
X103925714Y-115364285D01*
X103878095Y-115459523D01*
X103782857Y-115554761D01*
X103640000Y-115602380D01*
X103401904Y-115602380D01*
X104306666Y-114602380D02*
X104925714Y-114602380D01*
X104592380Y-114983333D01*
X104735238Y-114983333D01*
X104830476Y-115030952D01*
X104878095Y-115078571D01*
X104925714Y-115173809D01*
X104925714Y-115411904D01*
X104878095Y-115507142D01*
X104830476Y-115554761D01*
X104735238Y-115602380D01*
X104449523Y-115602380D01*
X104354285Y-115554761D01*
X104306666Y-115507142D01*
X111021904Y-115602380D02*
X111021904Y-114602380D01*
X111260000Y-114602380D01*
X111402857Y-114650000D01*
X111498095Y-114745238D01*
X111545714Y-114840476D01*
X111593333Y-115030952D01*
X111593333Y-115173809D01*
X111545714Y-115364285D01*
X111498095Y-115459523D01*
X111402857Y-115554761D01*
X111260000Y-115602380D01*
X111021904Y-115602380D01*
X112450476Y-114935714D02*
X112450476Y-115602380D01*
X112212380Y-114554761D02*
X111974285Y-115269047D01*
X112593333Y-115269047D01*
X105941904Y-81312380D02*
X105941904Y-80312380D01*
X106180000Y-80312380D01*
X106322857Y-80360000D01*
X106418095Y-80455238D01*
X106465714Y-80550476D01*
X106513333Y-80740952D01*
X106513333Y-80883809D01*
X106465714Y-81074285D01*
X106418095Y-81169523D01*
X106322857Y-81264761D01*
X106180000Y-81312380D01*
X105941904Y-81312380D01*
X107418095Y-80312380D02*
X106941904Y-80312380D01*
X106894285Y-80788571D01*
X106941904Y-80740952D01*
X107037142Y-80693333D01*
X107275238Y-80693333D01*
X107370476Y-80740952D01*
X107418095Y-80788571D01*
X107465714Y-80883809D01*
X107465714Y-81121904D01*
X107418095Y-81217142D01*
X107370476Y-81264761D01*
X107275238Y-81312380D01*
X107037142Y-81312380D01*
X106941904Y-81264761D01*
X106894285Y-81217142D01*
X118641904Y-115602380D02*
X118641904Y-114602380D01*
X118880000Y-114602380D01*
X119022857Y-114650000D01*
X119118095Y-114745238D01*
X119165714Y-114840476D01*
X119213333Y-115030952D01*
X119213333Y-115173809D01*
X119165714Y-115364285D01*
X119118095Y-115459523D01*
X119022857Y-115554761D01*
X118880000Y-115602380D01*
X118641904Y-115602380D01*
X120070476Y-114602380D02*
X119880000Y-114602380D01*
X119784761Y-114650000D01*
X119737142Y-114697619D01*
X119641904Y-114840476D01*
X119594285Y-115030952D01*
X119594285Y-115411904D01*
X119641904Y-115507142D01*
X119689523Y-115554761D01*
X119784761Y-115602380D01*
X119975238Y-115602380D01*
X120070476Y-115554761D01*
X120118095Y-115507142D01*
X120165714Y-115411904D01*
X120165714Y-115173809D01*
X120118095Y-115078571D01*
X120070476Y-115030952D01*
X119975238Y-114983333D01*
X119784761Y-114983333D01*
X119689523Y-115030952D01*
X119641904Y-115078571D01*
X119594285Y-115173809D01*
X126261904Y-115602380D02*
X126261904Y-114602380D01*
X126500000Y-114602380D01*
X126642857Y-114650000D01*
X126738095Y-114745238D01*
X126785714Y-114840476D01*
X126833333Y-115030952D01*
X126833333Y-115173809D01*
X126785714Y-115364285D01*
X126738095Y-115459523D01*
X126642857Y-115554761D01*
X126500000Y-115602380D01*
X126261904Y-115602380D01*
X127166666Y-114602380D02*
X127833333Y-114602380D01*
X127404761Y-115602380D01*
X133881904Y-115602380D02*
X133881904Y-114602380D01*
X134120000Y-114602380D01*
X134262857Y-114650000D01*
X134358095Y-114745238D01*
X134405714Y-114840476D01*
X134453333Y-115030952D01*
X134453333Y-115173809D01*
X134405714Y-115364285D01*
X134358095Y-115459523D01*
X134262857Y-115554761D01*
X134120000Y-115602380D01*
X133881904Y-115602380D01*
X135024761Y-115030952D02*
X134929523Y-114983333D01*
X134881904Y-114935714D01*
X134834285Y-114840476D01*
X134834285Y-114792857D01*
X134881904Y-114697619D01*
X134929523Y-114650000D01*
X135024761Y-114602380D01*
X135215238Y-114602380D01*
X135310476Y-114650000D01*
X135358095Y-114697619D01*
X135405714Y-114792857D01*
X135405714Y-114840476D01*
X135358095Y-114935714D01*
X135310476Y-114983333D01*
X135215238Y-115030952D01*
X135024761Y-115030952D01*
X134929523Y-115078571D01*
X134881904Y-115126190D01*
X134834285Y-115221428D01*
X134834285Y-115411904D01*
X134881904Y-115507142D01*
X134929523Y-115554761D01*
X135024761Y-115602380D01*
X135215238Y-115602380D01*
X135310476Y-115554761D01*
X135358095Y-115507142D01*
X135405714Y-115411904D01*
X135405714Y-115221428D01*
X135358095Y-115126190D01*
X135310476Y-115078571D01*
X135215238Y-115030952D01*
X141501904Y-115602380D02*
X141501904Y-114602380D01*
X141740000Y-114602380D01*
X141882857Y-114650000D01*
X141978095Y-114745238D01*
X142025714Y-114840476D01*
X142073333Y-115030952D01*
X142073333Y-115173809D01*
X142025714Y-115364285D01*
X141978095Y-115459523D01*
X141882857Y-115554761D01*
X141740000Y-115602380D01*
X141501904Y-115602380D01*
X142549523Y-115602380D02*
X142740000Y-115602380D01*
X142835238Y-115554761D01*
X142882857Y-115507142D01*
X142978095Y-115364285D01*
X143025714Y-115173809D01*
X143025714Y-114792857D01*
X142978095Y-114697619D01*
X142930476Y-114650000D01*
X142835238Y-114602380D01*
X142644761Y-114602380D01*
X142549523Y-114650000D01*
X142501904Y-114697619D01*
X142454285Y-114792857D01*
X142454285Y-115030952D01*
X142501904Y-115126190D01*
X142549523Y-115173809D01*
X142644761Y-115221428D01*
X142835238Y-115221428D01*
X142930476Y-115173809D01*
X142978095Y-115126190D01*
X143025714Y-115030952D01*
X133183333Y-89182380D02*
X132850000Y-88706190D01*
X132611904Y-89182380D02*
X132611904Y-88182380D01*
X132992857Y-88182380D01*
X133088095Y-88230000D01*
X133135714Y-88277619D01*
X133183333Y-88372857D01*
X133183333Y-88515714D01*
X133135714Y-88610952D01*
X133088095Y-88658571D01*
X132992857Y-88706190D01*
X132611904Y-88706190D01*
X133516666Y-88182380D02*
X134135714Y-88182380D01*
X133802380Y-88563333D01*
X133945238Y-88563333D01*
X134040476Y-88610952D01*
X134088095Y-88658571D01*
X134135714Y-88753809D01*
X134135714Y-88991904D01*
X134088095Y-89087142D01*
X134040476Y-89134761D01*
X133945238Y-89182380D01*
X133659523Y-89182380D01*
X133564285Y-89134761D01*
X133516666Y-89087142D01*
X92992380Y-77636666D02*
X92516190Y-77970000D01*
X92992380Y-78208095D02*
X91992380Y-78208095D01*
X91992380Y-77827142D01*
X92040000Y-77731904D01*
X92087619Y-77684285D01*
X92182857Y-77636666D01*
X92325714Y-77636666D01*
X92420952Y-77684285D01*
X92468571Y-77731904D01*
X92516190Y-77827142D01*
X92516190Y-78208095D01*
X92325714Y-76779523D02*
X92992380Y-76779523D01*
X91944761Y-77017619D02*
X92659047Y-77255714D01*
X92659047Y-76636666D01*
X97623333Y-88252380D02*
X97290000Y-87776190D01*
X97051904Y-88252380D02*
X97051904Y-87252380D01*
X97432857Y-87252380D01*
X97528095Y-87300000D01*
X97575714Y-87347619D01*
X97623333Y-87442857D01*
X97623333Y-87585714D01*
X97575714Y-87680952D01*
X97528095Y-87728571D01*
X97432857Y-87776190D01*
X97051904Y-87776190D01*
X97956666Y-87252380D02*
X98623333Y-87252380D01*
X98194761Y-88252380D01*
X94672380Y-75525238D02*
X94196190Y-75858571D01*
X94672380Y-76096666D02*
X93672380Y-76096666D01*
X93672380Y-75715714D01*
X93720000Y-75620476D01*
X93767619Y-75572857D01*
X93862857Y-75525238D01*
X94005714Y-75525238D01*
X94100952Y-75572857D01*
X94148571Y-75620476D01*
X94196190Y-75715714D01*
X94196190Y-76096666D01*
X93672380Y-75239523D02*
X94672380Y-74906190D01*
X93672380Y-74572857D01*
X94672380Y-73715714D02*
X94672380Y-74287142D01*
X94672380Y-74001428D02*
X93672380Y-74001428D01*
X93815238Y-74096666D01*
X93910476Y-74191904D01*
X93958095Y-74287142D01*
X114808095Y-80942380D02*
X114808095Y-81751904D01*
X114855714Y-81847142D01*
X114903333Y-81894761D01*
X114998571Y-81942380D01*
X115189047Y-81942380D01*
X115284285Y-81894761D01*
X115331904Y-81847142D01*
X115379523Y-81751904D01*
X115379523Y-80942380D01*
X116379523Y-81942380D02*
X115808095Y-81942380D01*
X116093809Y-81942380D02*
X116093809Y-80942380D01*
X115998571Y-81085238D01*
X115903333Y-81180476D01*
X115808095Y-81228095D01*
X109732380Y-101091904D02*
X110541904Y-101091904D01*
X110637142Y-101044285D01*
X110684761Y-100996666D01*
X110732380Y-100901428D01*
X110732380Y-100710952D01*
X110684761Y-100615714D01*
X110637142Y-100568095D01*
X110541904Y-100520476D01*
X109732380Y-100520476D01*
X109827619Y-100091904D02*
X109780000Y-100044285D01*
X109732380Y-99949047D01*
X109732380Y-99710952D01*
X109780000Y-99615714D01*
X109827619Y-99568095D01*
X109922857Y-99520476D01*
X110018095Y-99520476D01*
X110160952Y-99568095D01*
X110732380Y-100139523D01*
X110732380Y-99520476D01*
X142752380Y-101091904D02*
X143561904Y-101091904D01*
X143657142Y-101044285D01*
X143704761Y-100996666D01*
X143752380Y-100901428D01*
X143752380Y-100710952D01*
X143704761Y-100615714D01*
X143657142Y-100568095D01*
X143561904Y-100520476D01*
X142752380Y-100520476D01*
X142752380Y-100139523D02*
X142752380Y-99520476D01*
X143133333Y-99853809D01*
X143133333Y-99710952D01*
X143180952Y-99615714D01*
X143228571Y-99568095D01*
X143323809Y-99520476D01*
X143561904Y-99520476D01*
X143657142Y-99568095D01*
X143704761Y-99615714D01*
X143752380Y-99710952D01*
X143752380Y-99996666D01*
X143704761Y-100091904D01*
X143657142Y-100139523D01*
X144022380Y-80343333D02*
X144736666Y-80343333D01*
X144879523Y-80390952D01*
X144974761Y-80486190D01*
X145022380Y-80629047D01*
X145022380Y-80724285D01*
X145022380Y-79343333D02*
X145022380Y-79914761D01*
X145022380Y-79629047D02*
X144022380Y-79629047D01*
X144165238Y-79724285D01*
X144260476Y-79819523D01*
X144308095Y-79914761D01*
M02*
