G04 #@! TF.GenerationSoftware,KiCad,Pcbnew,5.1.5*
G04 #@! TF.CreationDate,2020-06-01T19:40:44-04:00*
G04 #@! TF.ProjectId,circuit,63697263-7569-4742-9e6b-696361645f70,rev?*
G04 #@! TF.SameCoordinates,Original*
G04 #@! TF.FileFunction,Soldermask,Bot*
G04 #@! TF.FilePolarity,Negative*
%FSLAX46Y46*%
G04 Gerber Fmt 4.6, Leading zero omitted, Abs format (unit mm)*
G04 Created by KiCad (PCBNEW 5.1.5) date 2020-06-01 19:40:44*
%MOMM*%
%LPD*%
G04 APERTURE LIST*
%ADD10C,0.100000*%
G04 APERTURE END LIST*
D10*
G36*
X143787395Y-117195546D02*
G01*
X143960466Y-117267234D01*
X143960467Y-117267235D01*
X144116227Y-117371310D01*
X144248690Y-117503773D01*
X144248691Y-117503775D01*
X144352766Y-117659534D01*
X144424454Y-117832605D01*
X144461000Y-118016333D01*
X144461000Y-118203667D01*
X144424454Y-118387395D01*
X144352766Y-118560466D01*
X144352765Y-118560467D01*
X144248690Y-118716227D01*
X144116227Y-118848690D01*
X144037818Y-118901081D01*
X143960466Y-118952766D01*
X143787395Y-119024454D01*
X143603667Y-119061000D01*
X143416333Y-119061000D01*
X143232605Y-119024454D01*
X143059534Y-118952766D01*
X142982182Y-118901081D01*
X142903773Y-118848690D01*
X142771310Y-118716227D01*
X142667235Y-118560467D01*
X142667234Y-118560466D01*
X142595546Y-118387395D01*
X142559000Y-118203667D01*
X142559000Y-118016333D01*
X142595546Y-117832605D01*
X142667234Y-117659534D01*
X142771309Y-117503775D01*
X142771310Y-117503773D01*
X142903773Y-117371310D01*
X143059533Y-117267235D01*
X143059534Y-117267234D01*
X143232605Y-117195546D01*
X143416333Y-117159000D01*
X143603667Y-117159000D01*
X143787395Y-117195546D01*
G37*
G36*
X113307395Y-117195546D02*
G01*
X113480466Y-117267234D01*
X113480467Y-117267235D01*
X113636227Y-117371310D01*
X113768690Y-117503773D01*
X113768691Y-117503775D01*
X113872766Y-117659534D01*
X113944454Y-117832605D01*
X113981000Y-118016333D01*
X113981000Y-118203667D01*
X113944454Y-118387395D01*
X113872766Y-118560466D01*
X113872765Y-118560467D01*
X113768690Y-118716227D01*
X113636227Y-118848690D01*
X113557818Y-118901081D01*
X113480466Y-118952766D01*
X113307395Y-119024454D01*
X113123667Y-119061000D01*
X112936333Y-119061000D01*
X112752605Y-119024454D01*
X112579534Y-118952766D01*
X112502182Y-118901081D01*
X112423773Y-118848690D01*
X112291310Y-118716227D01*
X112187235Y-118560467D01*
X112187234Y-118560466D01*
X112115546Y-118387395D01*
X112079000Y-118203667D01*
X112079000Y-118016333D01*
X112115546Y-117832605D01*
X112187234Y-117659534D01*
X112291309Y-117503775D01*
X112291310Y-117503773D01*
X112423773Y-117371310D01*
X112579533Y-117267235D01*
X112579534Y-117267234D01*
X112752605Y-117195546D01*
X112936333Y-117159000D01*
X113123667Y-117159000D01*
X113307395Y-117195546D01*
G37*
G36*
X88581000Y-119061000D02*
G01*
X86679000Y-119061000D01*
X86679000Y-117159000D01*
X88581000Y-117159000D01*
X88581000Y-119061000D01*
G37*
G36*
X90447395Y-117195546D02*
G01*
X90620466Y-117267234D01*
X90620467Y-117267235D01*
X90776227Y-117371310D01*
X90908690Y-117503773D01*
X90908691Y-117503775D01*
X91012766Y-117659534D01*
X91084454Y-117832605D01*
X91121000Y-118016333D01*
X91121000Y-118203667D01*
X91084454Y-118387395D01*
X91012766Y-118560466D01*
X91012765Y-118560467D01*
X90908690Y-118716227D01*
X90776227Y-118848690D01*
X90697818Y-118901081D01*
X90620466Y-118952766D01*
X90447395Y-119024454D01*
X90263667Y-119061000D01*
X90076333Y-119061000D01*
X89892605Y-119024454D01*
X89719534Y-118952766D01*
X89642182Y-118901081D01*
X89563773Y-118848690D01*
X89431310Y-118716227D01*
X89327235Y-118560467D01*
X89327234Y-118560466D01*
X89255546Y-118387395D01*
X89219000Y-118203667D01*
X89219000Y-118016333D01*
X89255546Y-117832605D01*
X89327234Y-117659534D01*
X89431309Y-117503775D01*
X89431310Y-117503773D01*
X89563773Y-117371310D01*
X89719533Y-117267235D01*
X89719534Y-117267234D01*
X89892605Y-117195546D01*
X90076333Y-117159000D01*
X90263667Y-117159000D01*
X90447395Y-117195546D01*
G37*
G36*
X98067395Y-117195546D02*
G01*
X98240466Y-117267234D01*
X98240467Y-117267235D01*
X98396227Y-117371310D01*
X98528690Y-117503773D01*
X98528691Y-117503775D01*
X98632766Y-117659534D01*
X98704454Y-117832605D01*
X98741000Y-118016333D01*
X98741000Y-118203667D01*
X98704454Y-118387395D01*
X98632766Y-118560466D01*
X98632765Y-118560467D01*
X98528690Y-118716227D01*
X98396227Y-118848690D01*
X98317818Y-118901081D01*
X98240466Y-118952766D01*
X98067395Y-119024454D01*
X97883667Y-119061000D01*
X97696333Y-119061000D01*
X97512605Y-119024454D01*
X97339534Y-118952766D01*
X97262182Y-118901081D01*
X97183773Y-118848690D01*
X97051310Y-118716227D01*
X96947235Y-118560467D01*
X96947234Y-118560466D01*
X96875546Y-118387395D01*
X96839000Y-118203667D01*
X96839000Y-118016333D01*
X96875546Y-117832605D01*
X96947234Y-117659534D01*
X97051309Y-117503775D01*
X97051310Y-117503773D01*
X97183773Y-117371310D01*
X97339533Y-117267235D01*
X97339534Y-117267234D01*
X97512605Y-117195546D01*
X97696333Y-117159000D01*
X97883667Y-117159000D01*
X98067395Y-117195546D01*
G37*
G36*
X96201000Y-119061000D02*
G01*
X94299000Y-119061000D01*
X94299000Y-117159000D01*
X96201000Y-117159000D01*
X96201000Y-119061000D01*
G37*
G36*
X105687395Y-117195546D02*
G01*
X105860466Y-117267234D01*
X105860467Y-117267235D01*
X106016227Y-117371310D01*
X106148690Y-117503773D01*
X106148691Y-117503775D01*
X106252766Y-117659534D01*
X106324454Y-117832605D01*
X106361000Y-118016333D01*
X106361000Y-118203667D01*
X106324454Y-118387395D01*
X106252766Y-118560466D01*
X106252765Y-118560467D01*
X106148690Y-118716227D01*
X106016227Y-118848690D01*
X105937818Y-118901081D01*
X105860466Y-118952766D01*
X105687395Y-119024454D01*
X105503667Y-119061000D01*
X105316333Y-119061000D01*
X105132605Y-119024454D01*
X104959534Y-118952766D01*
X104882182Y-118901081D01*
X104803773Y-118848690D01*
X104671310Y-118716227D01*
X104567235Y-118560467D01*
X104567234Y-118560466D01*
X104495546Y-118387395D01*
X104459000Y-118203667D01*
X104459000Y-118016333D01*
X104495546Y-117832605D01*
X104567234Y-117659534D01*
X104671309Y-117503775D01*
X104671310Y-117503773D01*
X104803773Y-117371310D01*
X104959533Y-117267235D01*
X104959534Y-117267234D01*
X105132605Y-117195546D01*
X105316333Y-117159000D01*
X105503667Y-117159000D01*
X105687395Y-117195546D01*
G37*
G36*
X103821000Y-119061000D02*
G01*
X101919000Y-119061000D01*
X101919000Y-117159000D01*
X103821000Y-117159000D01*
X103821000Y-119061000D01*
G37*
G36*
X111441000Y-119061000D02*
G01*
X109539000Y-119061000D01*
X109539000Y-117159000D01*
X111441000Y-117159000D01*
X111441000Y-119061000D01*
G37*
G36*
X119061000Y-119061000D02*
G01*
X117159000Y-119061000D01*
X117159000Y-117159000D01*
X119061000Y-117159000D01*
X119061000Y-119061000D01*
G37*
G36*
X120927395Y-117195546D02*
G01*
X121100466Y-117267234D01*
X121100467Y-117267235D01*
X121256227Y-117371310D01*
X121388690Y-117503773D01*
X121388691Y-117503775D01*
X121492766Y-117659534D01*
X121564454Y-117832605D01*
X121601000Y-118016333D01*
X121601000Y-118203667D01*
X121564454Y-118387395D01*
X121492766Y-118560466D01*
X121492765Y-118560467D01*
X121388690Y-118716227D01*
X121256227Y-118848690D01*
X121177818Y-118901081D01*
X121100466Y-118952766D01*
X120927395Y-119024454D01*
X120743667Y-119061000D01*
X120556333Y-119061000D01*
X120372605Y-119024454D01*
X120199534Y-118952766D01*
X120122182Y-118901081D01*
X120043773Y-118848690D01*
X119911310Y-118716227D01*
X119807235Y-118560467D01*
X119807234Y-118560466D01*
X119735546Y-118387395D01*
X119699000Y-118203667D01*
X119699000Y-118016333D01*
X119735546Y-117832605D01*
X119807234Y-117659534D01*
X119911309Y-117503775D01*
X119911310Y-117503773D01*
X120043773Y-117371310D01*
X120199533Y-117267235D01*
X120199534Y-117267234D01*
X120372605Y-117195546D01*
X120556333Y-117159000D01*
X120743667Y-117159000D01*
X120927395Y-117195546D01*
G37*
G36*
X128547395Y-117195546D02*
G01*
X128720466Y-117267234D01*
X128720467Y-117267235D01*
X128876227Y-117371310D01*
X129008690Y-117503773D01*
X129008691Y-117503775D01*
X129112766Y-117659534D01*
X129184454Y-117832605D01*
X129221000Y-118016333D01*
X129221000Y-118203667D01*
X129184454Y-118387395D01*
X129112766Y-118560466D01*
X129112765Y-118560467D01*
X129008690Y-118716227D01*
X128876227Y-118848690D01*
X128797818Y-118901081D01*
X128720466Y-118952766D01*
X128547395Y-119024454D01*
X128363667Y-119061000D01*
X128176333Y-119061000D01*
X127992605Y-119024454D01*
X127819534Y-118952766D01*
X127742182Y-118901081D01*
X127663773Y-118848690D01*
X127531310Y-118716227D01*
X127427235Y-118560467D01*
X127427234Y-118560466D01*
X127355546Y-118387395D01*
X127319000Y-118203667D01*
X127319000Y-118016333D01*
X127355546Y-117832605D01*
X127427234Y-117659534D01*
X127531309Y-117503775D01*
X127531310Y-117503773D01*
X127663773Y-117371310D01*
X127819533Y-117267235D01*
X127819534Y-117267234D01*
X127992605Y-117195546D01*
X128176333Y-117159000D01*
X128363667Y-117159000D01*
X128547395Y-117195546D01*
G37*
G36*
X126681000Y-119061000D02*
G01*
X124779000Y-119061000D01*
X124779000Y-117159000D01*
X126681000Y-117159000D01*
X126681000Y-119061000D01*
G37*
G36*
X136167395Y-117195546D02*
G01*
X136340466Y-117267234D01*
X136340467Y-117267235D01*
X136496227Y-117371310D01*
X136628690Y-117503773D01*
X136628691Y-117503775D01*
X136732766Y-117659534D01*
X136804454Y-117832605D01*
X136841000Y-118016333D01*
X136841000Y-118203667D01*
X136804454Y-118387395D01*
X136732766Y-118560466D01*
X136732765Y-118560467D01*
X136628690Y-118716227D01*
X136496227Y-118848690D01*
X136417818Y-118901081D01*
X136340466Y-118952766D01*
X136167395Y-119024454D01*
X135983667Y-119061000D01*
X135796333Y-119061000D01*
X135612605Y-119024454D01*
X135439534Y-118952766D01*
X135362182Y-118901081D01*
X135283773Y-118848690D01*
X135151310Y-118716227D01*
X135047235Y-118560467D01*
X135047234Y-118560466D01*
X134975546Y-118387395D01*
X134939000Y-118203667D01*
X134939000Y-118016333D01*
X134975546Y-117832605D01*
X135047234Y-117659534D01*
X135151309Y-117503775D01*
X135151310Y-117503773D01*
X135283773Y-117371310D01*
X135439533Y-117267235D01*
X135439534Y-117267234D01*
X135612605Y-117195546D01*
X135796333Y-117159000D01*
X135983667Y-117159000D01*
X136167395Y-117195546D01*
G37*
G36*
X134301000Y-119061000D02*
G01*
X132399000Y-119061000D01*
X132399000Y-117159000D01*
X134301000Y-117159000D01*
X134301000Y-119061000D01*
G37*
G36*
X141921000Y-119061000D02*
G01*
X140019000Y-119061000D01*
X140019000Y-117159000D01*
X141921000Y-117159000D01*
X141921000Y-119061000D01*
G37*
G36*
X105576823Y-102901313D02*
G01*
X105737242Y-102949976D01*
X105869906Y-103020886D01*
X105885078Y-103028996D01*
X106014659Y-103135341D01*
X106121004Y-103264922D01*
X106121005Y-103264924D01*
X106200024Y-103412758D01*
X106248687Y-103573178D01*
X106261000Y-103698197D01*
X106261000Y-104581804D01*
X106248687Y-104706823D01*
X106200024Y-104867242D01*
X106129114Y-104999906D01*
X106121004Y-105015078D01*
X106014659Y-105144659D01*
X105885077Y-105251005D01*
X105737241Y-105330024D01*
X105576822Y-105378687D01*
X105410000Y-105395117D01*
X105243177Y-105378687D01*
X105082758Y-105330024D01*
X104934924Y-105251005D01*
X104934922Y-105251004D01*
X104805341Y-105144659D01*
X104698995Y-105015077D01*
X104619976Y-104867241D01*
X104571313Y-104706822D01*
X104559000Y-104581803D01*
X104559000Y-103698197D01*
X104571314Y-103573177D01*
X104619977Y-103412758D01*
X104698996Y-103264924D01*
X104698997Y-103264922D01*
X104805342Y-103135341D01*
X104934923Y-103028996D01*
X104950095Y-103020886D01*
X105082759Y-102949976D01*
X105243178Y-102901313D01*
X105410000Y-102884883D01*
X105576823Y-102901313D01*
G37*
G36*
X141136823Y-102901313D02*
G01*
X141297242Y-102949976D01*
X141429906Y-103020886D01*
X141445078Y-103028996D01*
X141574659Y-103135341D01*
X141681004Y-103264922D01*
X141681005Y-103264924D01*
X141760024Y-103412758D01*
X141808687Y-103573178D01*
X141821000Y-103698197D01*
X141821000Y-104581804D01*
X141808687Y-104706823D01*
X141760024Y-104867242D01*
X141689114Y-104999906D01*
X141681004Y-105015078D01*
X141574659Y-105144659D01*
X141445077Y-105251005D01*
X141297241Y-105330024D01*
X141136822Y-105378687D01*
X140970000Y-105395117D01*
X140803177Y-105378687D01*
X140642758Y-105330024D01*
X140494924Y-105251005D01*
X140494922Y-105251004D01*
X140365341Y-105144659D01*
X140258995Y-105015077D01*
X140179976Y-104867241D01*
X140131313Y-104706822D01*
X140119000Y-104581803D01*
X140119000Y-103698197D01*
X140131314Y-103573177D01*
X140179977Y-103412758D01*
X140258996Y-103264924D01*
X140258997Y-103264922D01*
X140365342Y-103135341D01*
X140494923Y-103028996D01*
X140510095Y-103020886D01*
X140642759Y-102949976D01*
X140803178Y-102901313D01*
X140970000Y-102884883D01*
X141136823Y-102901313D01*
G37*
G36*
X138596823Y-102901313D02*
G01*
X138757242Y-102949976D01*
X138889906Y-103020886D01*
X138905078Y-103028996D01*
X139034659Y-103135341D01*
X139141004Y-103264922D01*
X139141005Y-103264924D01*
X139220024Y-103412758D01*
X139268687Y-103573178D01*
X139281000Y-103698197D01*
X139281000Y-104581804D01*
X139268687Y-104706823D01*
X139220024Y-104867242D01*
X139149114Y-104999906D01*
X139141004Y-105015078D01*
X139034659Y-105144659D01*
X138905077Y-105251005D01*
X138757241Y-105330024D01*
X138596822Y-105378687D01*
X138430000Y-105395117D01*
X138263177Y-105378687D01*
X138102758Y-105330024D01*
X137954924Y-105251005D01*
X137954922Y-105251004D01*
X137825341Y-105144659D01*
X137718995Y-105015077D01*
X137639976Y-104867241D01*
X137591313Y-104706822D01*
X137579000Y-104581803D01*
X137579000Y-103698197D01*
X137591314Y-103573177D01*
X137639977Y-103412758D01*
X137718996Y-103264924D01*
X137718997Y-103264922D01*
X137825342Y-103135341D01*
X137954923Y-103028996D01*
X137970095Y-103020886D01*
X138102759Y-102949976D01*
X138263178Y-102901313D01*
X138430000Y-102884883D01*
X138596823Y-102901313D01*
G37*
G36*
X136056823Y-102901313D02*
G01*
X136217242Y-102949976D01*
X136349906Y-103020886D01*
X136365078Y-103028996D01*
X136494659Y-103135341D01*
X136601004Y-103264922D01*
X136601005Y-103264924D01*
X136680024Y-103412758D01*
X136728687Y-103573178D01*
X136741000Y-103698197D01*
X136741000Y-104581804D01*
X136728687Y-104706823D01*
X136680024Y-104867242D01*
X136609114Y-104999906D01*
X136601004Y-105015078D01*
X136494659Y-105144659D01*
X136365077Y-105251005D01*
X136217241Y-105330024D01*
X136056822Y-105378687D01*
X135890000Y-105395117D01*
X135723177Y-105378687D01*
X135562758Y-105330024D01*
X135414924Y-105251005D01*
X135414922Y-105251004D01*
X135285341Y-105144659D01*
X135178995Y-105015077D01*
X135099976Y-104867241D01*
X135051313Y-104706822D01*
X135039000Y-104581803D01*
X135039000Y-103698197D01*
X135051314Y-103573177D01*
X135099977Y-103412758D01*
X135178996Y-103264924D01*
X135178997Y-103264922D01*
X135285342Y-103135341D01*
X135414923Y-103028996D01*
X135430095Y-103020886D01*
X135562759Y-102949976D01*
X135723178Y-102901313D01*
X135890000Y-102884883D01*
X136056823Y-102901313D01*
G37*
G36*
X133516823Y-102901313D02*
G01*
X133677242Y-102949976D01*
X133809906Y-103020886D01*
X133825078Y-103028996D01*
X133954659Y-103135341D01*
X134061004Y-103264922D01*
X134061005Y-103264924D01*
X134140024Y-103412758D01*
X134188687Y-103573178D01*
X134201000Y-103698197D01*
X134201000Y-104581804D01*
X134188687Y-104706823D01*
X134140024Y-104867242D01*
X134069114Y-104999906D01*
X134061004Y-105015078D01*
X133954659Y-105144659D01*
X133825077Y-105251005D01*
X133677241Y-105330024D01*
X133516822Y-105378687D01*
X133350000Y-105395117D01*
X133183177Y-105378687D01*
X133022758Y-105330024D01*
X132874924Y-105251005D01*
X132874922Y-105251004D01*
X132745341Y-105144659D01*
X132638995Y-105015077D01*
X132559976Y-104867241D01*
X132511313Y-104706822D01*
X132499000Y-104581803D01*
X132499000Y-103698197D01*
X132511314Y-103573177D01*
X132559977Y-103412758D01*
X132638996Y-103264924D01*
X132638997Y-103264922D01*
X132745342Y-103135341D01*
X132874923Y-103028996D01*
X132890095Y-103020886D01*
X133022759Y-102949976D01*
X133183178Y-102901313D01*
X133350000Y-102884883D01*
X133516823Y-102901313D01*
G37*
G36*
X130976823Y-102901313D02*
G01*
X131137242Y-102949976D01*
X131269906Y-103020886D01*
X131285078Y-103028996D01*
X131414659Y-103135341D01*
X131521004Y-103264922D01*
X131521005Y-103264924D01*
X131600024Y-103412758D01*
X131648687Y-103573178D01*
X131661000Y-103698197D01*
X131661000Y-104581804D01*
X131648687Y-104706823D01*
X131600024Y-104867242D01*
X131529114Y-104999906D01*
X131521004Y-105015078D01*
X131414659Y-105144659D01*
X131285077Y-105251005D01*
X131137241Y-105330024D01*
X130976822Y-105378687D01*
X130810000Y-105395117D01*
X130643177Y-105378687D01*
X130482758Y-105330024D01*
X130334924Y-105251005D01*
X130334922Y-105251004D01*
X130205341Y-105144659D01*
X130098995Y-105015077D01*
X130019976Y-104867241D01*
X129971313Y-104706822D01*
X129959000Y-104581803D01*
X129959000Y-103698197D01*
X129971314Y-103573177D01*
X130019977Y-103412758D01*
X130098996Y-103264924D01*
X130098997Y-103264922D01*
X130205342Y-103135341D01*
X130334923Y-103028996D01*
X130350095Y-103020886D01*
X130482759Y-102949976D01*
X130643178Y-102901313D01*
X130810000Y-102884883D01*
X130976823Y-102901313D01*
G37*
G36*
X128436823Y-102901313D02*
G01*
X128597242Y-102949976D01*
X128729906Y-103020886D01*
X128745078Y-103028996D01*
X128874659Y-103135341D01*
X128981004Y-103264922D01*
X128981005Y-103264924D01*
X129060024Y-103412758D01*
X129108687Y-103573178D01*
X129121000Y-103698197D01*
X129121000Y-104581804D01*
X129108687Y-104706823D01*
X129060024Y-104867242D01*
X128989114Y-104999906D01*
X128981004Y-105015078D01*
X128874659Y-105144659D01*
X128745077Y-105251005D01*
X128597241Y-105330024D01*
X128436822Y-105378687D01*
X128270000Y-105395117D01*
X128103177Y-105378687D01*
X127942758Y-105330024D01*
X127794924Y-105251005D01*
X127794922Y-105251004D01*
X127665341Y-105144659D01*
X127558995Y-105015077D01*
X127479976Y-104867241D01*
X127431313Y-104706822D01*
X127419000Y-104581803D01*
X127419000Y-103698197D01*
X127431314Y-103573177D01*
X127479977Y-103412758D01*
X127558996Y-103264924D01*
X127558997Y-103264922D01*
X127665342Y-103135341D01*
X127794923Y-103028996D01*
X127810095Y-103020886D01*
X127942759Y-102949976D01*
X128103178Y-102901313D01*
X128270000Y-102884883D01*
X128436823Y-102901313D01*
G37*
G36*
X125896823Y-102901313D02*
G01*
X126057242Y-102949976D01*
X126189906Y-103020886D01*
X126205078Y-103028996D01*
X126334659Y-103135341D01*
X126441004Y-103264922D01*
X126441005Y-103264924D01*
X126520024Y-103412758D01*
X126568687Y-103573178D01*
X126581000Y-103698197D01*
X126581000Y-104581804D01*
X126568687Y-104706823D01*
X126520024Y-104867242D01*
X126449114Y-104999906D01*
X126441004Y-105015078D01*
X126334659Y-105144659D01*
X126205077Y-105251005D01*
X126057241Y-105330024D01*
X125896822Y-105378687D01*
X125730000Y-105395117D01*
X125563177Y-105378687D01*
X125402758Y-105330024D01*
X125254924Y-105251005D01*
X125254922Y-105251004D01*
X125125341Y-105144659D01*
X125018995Y-105015077D01*
X124939976Y-104867241D01*
X124891313Y-104706822D01*
X124879000Y-104581803D01*
X124879000Y-103698197D01*
X124891314Y-103573177D01*
X124939977Y-103412758D01*
X125018996Y-103264924D01*
X125018997Y-103264922D01*
X125125342Y-103135341D01*
X125254923Y-103028996D01*
X125270095Y-103020886D01*
X125402759Y-102949976D01*
X125563178Y-102901313D01*
X125730000Y-102884883D01*
X125896823Y-102901313D01*
G37*
G36*
X95416823Y-102901313D02*
G01*
X95577242Y-102949976D01*
X95709906Y-103020886D01*
X95725078Y-103028996D01*
X95854659Y-103135341D01*
X95961004Y-103264922D01*
X95961005Y-103264924D01*
X96040024Y-103412758D01*
X96088687Y-103573178D01*
X96101000Y-103698197D01*
X96101000Y-104581804D01*
X96088687Y-104706823D01*
X96040024Y-104867242D01*
X95969114Y-104999906D01*
X95961004Y-105015078D01*
X95854659Y-105144659D01*
X95725077Y-105251005D01*
X95577241Y-105330024D01*
X95416822Y-105378687D01*
X95250000Y-105395117D01*
X95083177Y-105378687D01*
X94922758Y-105330024D01*
X94774924Y-105251005D01*
X94774922Y-105251004D01*
X94645341Y-105144659D01*
X94538995Y-105015077D01*
X94459976Y-104867241D01*
X94411313Y-104706822D01*
X94399000Y-104581803D01*
X94399000Y-103698197D01*
X94411314Y-103573177D01*
X94459977Y-103412758D01*
X94538996Y-103264924D01*
X94538997Y-103264922D01*
X94645342Y-103135341D01*
X94774923Y-103028996D01*
X94790095Y-103020886D01*
X94922759Y-102949976D01*
X95083178Y-102901313D01*
X95250000Y-102884883D01*
X95416823Y-102901313D01*
G37*
G36*
X100496823Y-102901313D02*
G01*
X100657242Y-102949976D01*
X100789906Y-103020886D01*
X100805078Y-103028996D01*
X100934659Y-103135341D01*
X101041004Y-103264922D01*
X101041005Y-103264924D01*
X101120024Y-103412758D01*
X101168687Y-103573178D01*
X101181000Y-103698197D01*
X101181000Y-104581804D01*
X101168687Y-104706823D01*
X101120024Y-104867242D01*
X101049114Y-104999906D01*
X101041004Y-105015078D01*
X100934659Y-105144659D01*
X100805077Y-105251005D01*
X100657241Y-105330024D01*
X100496822Y-105378687D01*
X100330000Y-105395117D01*
X100163177Y-105378687D01*
X100002758Y-105330024D01*
X99854924Y-105251005D01*
X99854922Y-105251004D01*
X99725341Y-105144659D01*
X99618995Y-105015077D01*
X99539976Y-104867241D01*
X99491313Y-104706822D01*
X99479000Y-104581803D01*
X99479000Y-103698197D01*
X99491314Y-103573177D01*
X99539977Y-103412758D01*
X99618996Y-103264924D01*
X99618997Y-103264922D01*
X99725342Y-103135341D01*
X99854923Y-103028996D01*
X99870095Y-103020886D01*
X100002759Y-102949976D01*
X100163178Y-102901313D01*
X100330000Y-102884883D01*
X100496823Y-102901313D01*
G37*
G36*
X103036823Y-102901313D02*
G01*
X103197242Y-102949976D01*
X103329906Y-103020886D01*
X103345078Y-103028996D01*
X103474659Y-103135341D01*
X103581004Y-103264922D01*
X103581005Y-103264924D01*
X103660024Y-103412758D01*
X103708687Y-103573178D01*
X103721000Y-103698197D01*
X103721000Y-104581804D01*
X103708687Y-104706823D01*
X103660024Y-104867242D01*
X103589114Y-104999906D01*
X103581004Y-105015078D01*
X103474659Y-105144659D01*
X103345077Y-105251005D01*
X103197241Y-105330024D01*
X103036822Y-105378687D01*
X102870000Y-105395117D01*
X102703177Y-105378687D01*
X102542758Y-105330024D01*
X102394924Y-105251005D01*
X102394922Y-105251004D01*
X102265341Y-105144659D01*
X102158995Y-105015077D01*
X102079976Y-104867241D01*
X102031313Y-104706822D01*
X102019000Y-104581803D01*
X102019000Y-103698197D01*
X102031314Y-103573177D01*
X102079977Y-103412758D01*
X102158996Y-103264924D01*
X102158997Y-103264922D01*
X102265342Y-103135341D01*
X102394923Y-103028996D01*
X102410095Y-103020886D01*
X102542759Y-102949976D01*
X102703178Y-102901313D01*
X102870000Y-102884883D01*
X103036823Y-102901313D01*
G37*
G36*
X97956823Y-102901313D02*
G01*
X98117242Y-102949976D01*
X98249906Y-103020886D01*
X98265078Y-103028996D01*
X98394659Y-103135341D01*
X98501004Y-103264922D01*
X98501005Y-103264924D01*
X98580024Y-103412758D01*
X98628687Y-103573178D01*
X98641000Y-103698197D01*
X98641000Y-104581804D01*
X98628687Y-104706823D01*
X98580024Y-104867242D01*
X98509114Y-104999906D01*
X98501004Y-105015078D01*
X98394659Y-105144659D01*
X98265077Y-105251005D01*
X98117241Y-105330024D01*
X97956822Y-105378687D01*
X97790000Y-105395117D01*
X97623177Y-105378687D01*
X97462758Y-105330024D01*
X97314924Y-105251005D01*
X97314922Y-105251004D01*
X97185341Y-105144659D01*
X97078995Y-105015077D01*
X96999976Y-104867241D01*
X96951313Y-104706822D01*
X96939000Y-104581803D01*
X96939000Y-103698197D01*
X96951314Y-103573177D01*
X96999977Y-103412758D01*
X97078996Y-103264924D01*
X97078997Y-103264922D01*
X97185342Y-103135341D01*
X97314923Y-103028996D01*
X97330095Y-103020886D01*
X97462759Y-102949976D01*
X97623178Y-102901313D01*
X97790000Y-102884883D01*
X97956823Y-102901313D01*
G37*
G36*
X108116823Y-102901313D02*
G01*
X108277242Y-102949976D01*
X108409906Y-103020886D01*
X108425078Y-103028996D01*
X108554659Y-103135341D01*
X108661004Y-103264922D01*
X108661005Y-103264924D01*
X108740024Y-103412758D01*
X108788687Y-103573178D01*
X108801000Y-103698197D01*
X108801000Y-104581804D01*
X108788687Y-104706823D01*
X108740024Y-104867242D01*
X108669114Y-104999906D01*
X108661004Y-105015078D01*
X108554659Y-105144659D01*
X108425077Y-105251005D01*
X108277241Y-105330024D01*
X108116822Y-105378687D01*
X107950000Y-105395117D01*
X107783177Y-105378687D01*
X107622758Y-105330024D01*
X107474924Y-105251005D01*
X107474922Y-105251004D01*
X107345341Y-105144659D01*
X107238995Y-105015077D01*
X107159976Y-104867241D01*
X107111313Y-104706822D01*
X107099000Y-104581803D01*
X107099000Y-103698197D01*
X107111314Y-103573177D01*
X107159977Y-103412758D01*
X107238996Y-103264924D01*
X107238997Y-103264922D01*
X107345342Y-103135341D01*
X107474923Y-103028996D01*
X107490095Y-103020886D01*
X107622759Y-102949976D01*
X107783178Y-102901313D01*
X107950000Y-102884883D01*
X108116823Y-102901313D01*
G37*
G36*
X92876823Y-102901313D02*
G01*
X93037242Y-102949976D01*
X93169906Y-103020886D01*
X93185078Y-103028996D01*
X93314659Y-103135341D01*
X93421004Y-103264922D01*
X93421005Y-103264924D01*
X93500024Y-103412758D01*
X93548687Y-103573178D01*
X93561000Y-103698197D01*
X93561000Y-104581804D01*
X93548687Y-104706823D01*
X93500024Y-104867242D01*
X93429114Y-104999906D01*
X93421004Y-105015078D01*
X93314659Y-105144659D01*
X93185077Y-105251005D01*
X93037241Y-105330024D01*
X92876822Y-105378687D01*
X92710000Y-105395117D01*
X92543177Y-105378687D01*
X92382758Y-105330024D01*
X92234924Y-105251005D01*
X92234922Y-105251004D01*
X92105341Y-105144659D01*
X91998995Y-105015077D01*
X91919976Y-104867241D01*
X91871313Y-104706822D01*
X91859000Y-104581803D01*
X91859000Y-103698197D01*
X91871314Y-103573177D01*
X91919977Y-103412758D01*
X91998996Y-103264924D01*
X91998997Y-103264922D01*
X92105342Y-103135341D01*
X92234923Y-103028996D01*
X92250095Y-103020886D01*
X92382759Y-102949976D01*
X92543178Y-102901313D01*
X92710000Y-102884883D01*
X92876823Y-102901313D01*
G37*
G36*
X90336823Y-102901313D02*
G01*
X90497242Y-102949976D01*
X90629906Y-103020886D01*
X90645078Y-103028996D01*
X90774659Y-103135341D01*
X90881004Y-103264922D01*
X90881005Y-103264924D01*
X90960024Y-103412758D01*
X91008687Y-103573178D01*
X91021000Y-103698197D01*
X91021000Y-104581804D01*
X91008687Y-104706823D01*
X90960024Y-104867242D01*
X90889114Y-104999906D01*
X90881004Y-105015078D01*
X90774659Y-105144659D01*
X90645077Y-105251005D01*
X90497241Y-105330024D01*
X90336822Y-105378687D01*
X90170000Y-105395117D01*
X90003177Y-105378687D01*
X89842758Y-105330024D01*
X89694924Y-105251005D01*
X89694922Y-105251004D01*
X89565341Y-105144659D01*
X89458995Y-105015077D01*
X89379976Y-104867241D01*
X89331313Y-104706822D01*
X89319000Y-104581803D01*
X89319000Y-103698197D01*
X89331314Y-103573177D01*
X89379977Y-103412758D01*
X89458996Y-103264924D01*
X89458997Y-103264922D01*
X89565342Y-103135341D01*
X89694923Y-103028996D01*
X89710095Y-103020886D01*
X89842759Y-102949976D01*
X90003178Y-102901313D01*
X90170000Y-102884883D01*
X90336823Y-102901313D01*
G37*
G36*
X123356823Y-102901313D02*
G01*
X123517242Y-102949976D01*
X123649906Y-103020886D01*
X123665078Y-103028996D01*
X123794659Y-103135341D01*
X123901004Y-103264922D01*
X123901005Y-103264924D01*
X123980024Y-103412758D01*
X124028687Y-103573178D01*
X124041000Y-103698197D01*
X124041000Y-104581804D01*
X124028687Y-104706823D01*
X123980024Y-104867242D01*
X123909114Y-104999906D01*
X123901004Y-105015078D01*
X123794659Y-105144659D01*
X123665077Y-105251005D01*
X123517241Y-105330024D01*
X123356822Y-105378687D01*
X123190000Y-105395117D01*
X123023177Y-105378687D01*
X122862758Y-105330024D01*
X122714924Y-105251005D01*
X122714922Y-105251004D01*
X122585341Y-105144659D01*
X122478995Y-105015077D01*
X122399976Y-104867241D01*
X122351313Y-104706822D01*
X122339000Y-104581803D01*
X122339000Y-103698197D01*
X122351314Y-103573177D01*
X122399977Y-103412758D01*
X122478996Y-103264924D01*
X122478997Y-103264922D01*
X122585342Y-103135341D01*
X122714923Y-103028996D01*
X122730095Y-103020886D01*
X122862759Y-102949976D01*
X123023178Y-102901313D01*
X123190000Y-102884883D01*
X123356823Y-102901313D01*
G37*
G36*
X113358228Y-99511703D02*
G01*
X113513100Y-99575853D01*
X113652481Y-99668985D01*
X113771015Y-99787519D01*
X113864147Y-99926900D01*
X113928297Y-100081772D01*
X113961000Y-100246184D01*
X113961000Y-100413816D01*
X113928297Y-100578228D01*
X113864147Y-100733100D01*
X113771015Y-100872481D01*
X113652481Y-100991015D01*
X113513100Y-101084147D01*
X113358228Y-101148297D01*
X113193816Y-101181000D01*
X113026184Y-101181000D01*
X112861772Y-101148297D01*
X112706900Y-101084147D01*
X112567519Y-100991015D01*
X112448985Y-100872481D01*
X112355853Y-100733100D01*
X112291703Y-100578228D01*
X112259000Y-100413816D01*
X112259000Y-100246184D01*
X112291703Y-100081772D01*
X112355853Y-99926900D01*
X112448985Y-99787519D01*
X112567519Y-99668985D01*
X112706900Y-99575853D01*
X112861772Y-99511703D01*
X113026184Y-99479000D01*
X113193816Y-99479000D01*
X113358228Y-99511703D01*
G37*
G36*
X118358228Y-99511703D02*
G01*
X118513100Y-99575853D01*
X118652481Y-99668985D01*
X118771015Y-99787519D01*
X118864147Y-99926900D01*
X118928297Y-100081772D01*
X118961000Y-100246184D01*
X118961000Y-100413816D01*
X118928297Y-100578228D01*
X118864147Y-100733100D01*
X118771015Y-100872481D01*
X118652481Y-100991015D01*
X118513100Y-101084147D01*
X118358228Y-101148297D01*
X118193816Y-101181000D01*
X118026184Y-101181000D01*
X117861772Y-101148297D01*
X117706900Y-101084147D01*
X117567519Y-100991015D01*
X117448985Y-100872481D01*
X117355853Y-100733100D01*
X117291703Y-100578228D01*
X117259000Y-100413816D01*
X117259000Y-100246184D01*
X117291703Y-100081772D01*
X117355853Y-99926900D01*
X117448985Y-99787519D01*
X117567519Y-99668985D01*
X117706900Y-99575853D01*
X117861772Y-99511703D01*
X118026184Y-99479000D01*
X118193816Y-99479000D01*
X118358228Y-99511703D01*
G37*
G36*
X105576823Y-95281313D02*
G01*
X105737242Y-95329976D01*
X105869906Y-95400886D01*
X105885078Y-95408996D01*
X106014659Y-95515341D01*
X106121004Y-95644922D01*
X106121005Y-95644924D01*
X106200024Y-95792758D01*
X106248687Y-95953178D01*
X106261000Y-96078197D01*
X106261000Y-96961804D01*
X106248687Y-97086823D01*
X106200024Y-97247242D01*
X106129114Y-97379906D01*
X106121004Y-97395078D01*
X106014659Y-97524659D01*
X105885077Y-97631005D01*
X105737241Y-97710024D01*
X105576822Y-97758687D01*
X105410000Y-97775117D01*
X105243177Y-97758687D01*
X105082758Y-97710024D01*
X104934924Y-97631005D01*
X104934922Y-97631004D01*
X104805341Y-97524659D01*
X104698995Y-97395077D01*
X104619976Y-97247241D01*
X104571313Y-97086822D01*
X104559000Y-96961803D01*
X104559000Y-96078197D01*
X104571314Y-95953177D01*
X104619977Y-95792758D01*
X104698996Y-95644924D01*
X104698997Y-95644922D01*
X104805342Y-95515341D01*
X104934923Y-95408996D01*
X104950095Y-95400886D01*
X105082759Y-95329976D01*
X105243178Y-95281313D01*
X105410000Y-95264883D01*
X105576823Y-95281313D01*
G37*
G36*
X123356823Y-95281313D02*
G01*
X123517242Y-95329976D01*
X123649906Y-95400886D01*
X123665078Y-95408996D01*
X123794659Y-95515341D01*
X123901004Y-95644922D01*
X123901005Y-95644924D01*
X123980024Y-95792758D01*
X124028687Y-95953178D01*
X124041000Y-96078197D01*
X124041000Y-96961804D01*
X124028687Y-97086823D01*
X123980024Y-97247242D01*
X123909114Y-97379906D01*
X123901004Y-97395078D01*
X123794659Y-97524659D01*
X123665077Y-97631005D01*
X123517241Y-97710024D01*
X123356822Y-97758687D01*
X123190000Y-97775117D01*
X123023177Y-97758687D01*
X122862758Y-97710024D01*
X122714924Y-97631005D01*
X122714922Y-97631004D01*
X122585341Y-97524659D01*
X122478995Y-97395077D01*
X122399976Y-97247241D01*
X122351313Y-97086822D01*
X122339000Y-96961803D01*
X122339000Y-96078197D01*
X122351314Y-95953177D01*
X122399977Y-95792758D01*
X122478996Y-95644924D01*
X122478997Y-95644922D01*
X122585342Y-95515341D01*
X122714923Y-95408996D01*
X122730095Y-95400886D01*
X122862759Y-95329976D01*
X123023178Y-95281313D01*
X123190000Y-95264883D01*
X123356823Y-95281313D01*
G37*
G36*
X138596823Y-95281313D02*
G01*
X138757242Y-95329976D01*
X138889906Y-95400886D01*
X138905078Y-95408996D01*
X139034659Y-95515341D01*
X139141004Y-95644922D01*
X139141005Y-95644924D01*
X139220024Y-95792758D01*
X139268687Y-95953178D01*
X139281000Y-96078197D01*
X139281000Y-96961804D01*
X139268687Y-97086823D01*
X139220024Y-97247242D01*
X139149114Y-97379906D01*
X139141004Y-97395078D01*
X139034659Y-97524659D01*
X138905077Y-97631005D01*
X138757241Y-97710024D01*
X138596822Y-97758687D01*
X138430000Y-97775117D01*
X138263177Y-97758687D01*
X138102758Y-97710024D01*
X137954924Y-97631005D01*
X137954922Y-97631004D01*
X137825341Y-97524659D01*
X137718995Y-97395077D01*
X137639976Y-97247241D01*
X137591313Y-97086822D01*
X137579000Y-96961803D01*
X137579000Y-96078197D01*
X137591314Y-95953177D01*
X137639977Y-95792758D01*
X137718996Y-95644924D01*
X137718997Y-95644922D01*
X137825342Y-95515341D01*
X137954923Y-95408996D01*
X137970095Y-95400886D01*
X138102759Y-95329976D01*
X138263178Y-95281313D01*
X138430000Y-95264883D01*
X138596823Y-95281313D01*
G37*
G36*
X90336823Y-95281313D02*
G01*
X90497242Y-95329976D01*
X90629906Y-95400886D01*
X90645078Y-95408996D01*
X90774659Y-95515341D01*
X90881004Y-95644922D01*
X90881005Y-95644924D01*
X90960024Y-95792758D01*
X91008687Y-95953178D01*
X91021000Y-96078197D01*
X91021000Y-96961804D01*
X91008687Y-97086823D01*
X90960024Y-97247242D01*
X90889114Y-97379906D01*
X90881004Y-97395078D01*
X90774659Y-97524659D01*
X90645077Y-97631005D01*
X90497241Y-97710024D01*
X90336822Y-97758687D01*
X90170000Y-97775117D01*
X90003177Y-97758687D01*
X89842758Y-97710024D01*
X89694924Y-97631005D01*
X89694922Y-97631004D01*
X89565341Y-97524659D01*
X89458995Y-97395077D01*
X89379976Y-97247241D01*
X89331313Y-97086822D01*
X89319000Y-96961803D01*
X89319000Y-96078197D01*
X89331314Y-95953177D01*
X89379977Y-95792758D01*
X89458996Y-95644924D01*
X89458997Y-95644922D01*
X89565342Y-95515341D01*
X89694923Y-95408996D01*
X89710095Y-95400886D01*
X89842759Y-95329976D01*
X90003178Y-95281313D01*
X90170000Y-95264883D01*
X90336823Y-95281313D01*
G37*
G36*
X136056823Y-95281313D02*
G01*
X136217242Y-95329976D01*
X136349906Y-95400886D01*
X136365078Y-95408996D01*
X136494659Y-95515341D01*
X136601004Y-95644922D01*
X136601005Y-95644924D01*
X136680024Y-95792758D01*
X136728687Y-95953178D01*
X136741000Y-96078197D01*
X136741000Y-96961804D01*
X136728687Y-97086823D01*
X136680024Y-97247242D01*
X136609114Y-97379906D01*
X136601004Y-97395078D01*
X136494659Y-97524659D01*
X136365077Y-97631005D01*
X136217241Y-97710024D01*
X136056822Y-97758687D01*
X135890000Y-97775117D01*
X135723177Y-97758687D01*
X135562758Y-97710024D01*
X135414924Y-97631005D01*
X135414922Y-97631004D01*
X135285341Y-97524659D01*
X135178995Y-97395077D01*
X135099976Y-97247241D01*
X135051313Y-97086822D01*
X135039000Y-96961803D01*
X135039000Y-96078197D01*
X135051314Y-95953177D01*
X135099977Y-95792758D01*
X135178996Y-95644924D01*
X135178997Y-95644922D01*
X135285342Y-95515341D01*
X135414923Y-95408996D01*
X135430095Y-95400886D01*
X135562759Y-95329976D01*
X135723178Y-95281313D01*
X135890000Y-95264883D01*
X136056823Y-95281313D01*
G37*
G36*
X130976823Y-95281313D02*
G01*
X131137242Y-95329976D01*
X131269906Y-95400886D01*
X131285078Y-95408996D01*
X131414659Y-95515341D01*
X131521004Y-95644922D01*
X131521005Y-95644924D01*
X131600024Y-95792758D01*
X131648687Y-95953178D01*
X131661000Y-96078197D01*
X131661000Y-96961804D01*
X131648687Y-97086823D01*
X131600024Y-97247242D01*
X131529114Y-97379906D01*
X131521004Y-97395078D01*
X131414659Y-97524659D01*
X131285077Y-97631005D01*
X131137241Y-97710024D01*
X130976822Y-97758687D01*
X130810000Y-97775117D01*
X130643177Y-97758687D01*
X130482758Y-97710024D01*
X130334924Y-97631005D01*
X130334922Y-97631004D01*
X130205341Y-97524659D01*
X130098995Y-97395077D01*
X130019976Y-97247241D01*
X129971313Y-97086822D01*
X129959000Y-96961803D01*
X129959000Y-96078197D01*
X129971314Y-95953177D01*
X130019977Y-95792758D01*
X130098996Y-95644924D01*
X130098997Y-95644922D01*
X130205342Y-95515341D01*
X130334923Y-95408996D01*
X130350095Y-95400886D01*
X130482759Y-95329976D01*
X130643178Y-95281313D01*
X130810000Y-95264883D01*
X130976823Y-95281313D01*
G37*
G36*
X92876823Y-95281313D02*
G01*
X93037242Y-95329976D01*
X93169906Y-95400886D01*
X93185078Y-95408996D01*
X93314659Y-95515341D01*
X93421004Y-95644922D01*
X93421005Y-95644924D01*
X93500024Y-95792758D01*
X93548687Y-95953178D01*
X93561000Y-96078197D01*
X93561000Y-96961804D01*
X93548687Y-97086823D01*
X93500024Y-97247242D01*
X93429114Y-97379906D01*
X93421004Y-97395078D01*
X93314659Y-97524659D01*
X93185077Y-97631005D01*
X93037241Y-97710024D01*
X92876822Y-97758687D01*
X92710000Y-97775117D01*
X92543177Y-97758687D01*
X92382758Y-97710024D01*
X92234924Y-97631005D01*
X92234922Y-97631004D01*
X92105341Y-97524659D01*
X91998995Y-97395077D01*
X91919976Y-97247241D01*
X91871313Y-97086822D01*
X91859000Y-96961803D01*
X91859000Y-96078197D01*
X91871314Y-95953177D01*
X91919977Y-95792758D01*
X91998996Y-95644924D01*
X91998997Y-95644922D01*
X92105342Y-95515341D01*
X92234923Y-95408996D01*
X92250095Y-95400886D01*
X92382759Y-95329976D01*
X92543178Y-95281313D01*
X92710000Y-95264883D01*
X92876823Y-95281313D01*
G37*
G36*
X95416823Y-95281313D02*
G01*
X95577242Y-95329976D01*
X95709906Y-95400886D01*
X95725078Y-95408996D01*
X95854659Y-95515341D01*
X95961004Y-95644922D01*
X95961005Y-95644924D01*
X96040024Y-95792758D01*
X96088687Y-95953178D01*
X96101000Y-96078197D01*
X96101000Y-96961804D01*
X96088687Y-97086823D01*
X96040024Y-97247242D01*
X95969114Y-97379906D01*
X95961004Y-97395078D01*
X95854659Y-97524659D01*
X95725077Y-97631005D01*
X95577241Y-97710024D01*
X95416822Y-97758687D01*
X95250000Y-97775117D01*
X95083177Y-97758687D01*
X94922758Y-97710024D01*
X94774924Y-97631005D01*
X94774922Y-97631004D01*
X94645341Y-97524659D01*
X94538995Y-97395077D01*
X94459976Y-97247241D01*
X94411313Y-97086822D01*
X94399000Y-96961803D01*
X94399000Y-96078197D01*
X94411314Y-95953177D01*
X94459977Y-95792758D01*
X94538996Y-95644924D01*
X94538997Y-95644922D01*
X94645342Y-95515341D01*
X94774923Y-95408996D01*
X94790095Y-95400886D01*
X94922759Y-95329976D01*
X95083178Y-95281313D01*
X95250000Y-95264883D01*
X95416823Y-95281313D01*
G37*
G36*
X133516823Y-95281313D02*
G01*
X133677242Y-95329976D01*
X133809906Y-95400886D01*
X133825078Y-95408996D01*
X133954659Y-95515341D01*
X134061004Y-95644922D01*
X134061005Y-95644924D01*
X134140024Y-95792758D01*
X134188687Y-95953178D01*
X134201000Y-96078197D01*
X134201000Y-96961804D01*
X134188687Y-97086823D01*
X134140024Y-97247242D01*
X134069114Y-97379906D01*
X134061004Y-97395078D01*
X133954659Y-97524659D01*
X133825077Y-97631005D01*
X133677241Y-97710024D01*
X133516822Y-97758687D01*
X133350000Y-97775117D01*
X133183177Y-97758687D01*
X133022758Y-97710024D01*
X132874924Y-97631005D01*
X132874922Y-97631004D01*
X132745341Y-97524659D01*
X132638995Y-97395077D01*
X132559976Y-97247241D01*
X132511313Y-97086822D01*
X132499000Y-96961803D01*
X132499000Y-96078197D01*
X132511314Y-95953177D01*
X132559977Y-95792758D01*
X132638996Y-95644924D01*
X132638997Y-95644922D01*
X132745342Y-95515341D01*
X132874923Y-95408996D01*
X132890095Y-95400886D01*
X133022759Y-95329976D01*
X133183178Y-95281313D01*
X133350000Y-95264883D01*
X133516823Y-95281313D01*
G37*
G36*
X103036823Y-95281313D02*
G01*
X103197242Y-95329976D01*
X103329906Y-95400886D01*
X103345078Y-95408996D01*
X103474659Y-95515341D01*
X103581004Y-95644922D01*
X103581005Y-95644924D01*
X103660024Y-95792758D01*
X103708687Y-95953178D01*
X103721000Y-96078197D01*
X103721000Y-96961804D01*
X103708687Y-97086823D01*
X103660024Y-97247242D01*
X103589114Y-97379906D01*
X103581004Y-97395078D01*
X103474659Y-97524659D01*
X103345077Y-97631005D01*
X103197241Y-97710024D01*
X103036822Y-97758687D01*
X102870000Y-97775117D01*
X102703177Y-97758687D01*
X102542758Y-97710024D01*
X102394924Y-97631005D01*
X102394922Y-97631004D01*
X102265341Y-97524659D01*
X102158995Y-97395077D01*
X102079976Y-97247241D01*
X102031313Y-97086822D01*
X102019000Y-96961803D01*
X102019000Y-96078197D01*
X102031314Y-95953177D01*
X102079977Y-95792758D01*
X102158996Y-95644924D01*
X102158997Y-95644922D01*
X102265342Y-95515341D01*
X102394923Y-95408996D01*
X102410095Y-95400886D01*
X102542759Y-95329976D01*
X102703178Y-95281313D01*
X102870000Y-95264883D01*
X103036823Y-95281313D01*
G37*
G36*
X100496823Y-95281313D02*
G01*
X100657242Y-95329976D01*
X100789906Y-95400886D01*
X100805078Y-95408996D01*
X100934659Y-95515341D01*
X101041004Y-95644922D01*
X101041005Y-95644924D01*
X101120024Y-95792758D01*
X101168687Y-95953178D01*
X101181000Y-96078197D01*
X101181000Y-96961804D01*
X101168687Y-97086823D01*
X101120024Y-97247242D01*
X101049114Y-97379906D01*
X101041004Y-97395078D01*
X100934659Y-97524659D01*
X100805077Y-97631005D01*
X100657241Y-97710024D01*
X100496822Y-97758687D01*
X100330000Y-97775117D01*
X100163177Y-97758687D01*
X100002758Y-97710024D01*
X99854924Y-97631005D01*
X99854922Y-97631004D01*
X99725341Y-97524659D01*
X99618995Y-97395077D01*
X99539976Y-97247241D01*
X99491313Y-97086822D01*
X99479000Y-96961803D01*
X99479000Y-96078197D01*
X99491314Y-95953177D01*
X99539977Y-95792758D01*
X99618996Y-95644924D01*
X99618997Y-95644922D01*
X99725342Y-95515341D01*
X99854923Y-95408996D01*
X99870095Y-95400886D01*
X100002759Y-95329976D01*
X100163178Y-95281313D01*
X100330000Y-95264883D01*
X100496823Y-95281313D01*
G37*
G36*
X125896823Y-95281313D02*
G01*
X126057242Y-95329976D01*
X126189906Y-95400886D01*
X126205078Y-95408996D01*
X126334659Y-95515341D01*
X126441004Y-95644922D01*
X126441005Y-95644924D01*
X126520024Y-95792758D01*
X126568687Y-95953178D01*
X126581000Y-96078197D01*
X126581000Y-96961804D01*
X126568687Y-97086823D01*
X126520024Y-97247242D01*
X126449114Y-97379906D01*
X126441004Y-97395078D01*
X126334659Y-97524659D01*
X126205077Y-97631005D01*
X126057241Y-97710024D01*
X125896822Y-97758687D01*
X125730000Y-97775117D01*
X125563177Y-97758687D01*
X125402758Y-97710024D01*
X125254924Y-97631005D01*
X125254922Y-97631004D01*
X125125341Y-97524659D01*
X125018995Y-97395077D01*
X124939976Y-97247241D01*
X124891313Y-97086822D01*
X124879000Y-96961803D01*
X124879000Y-96078197D01*
X124891314Y-95953177D01*
X124939977Y-95792758D01*
X125018996Y-95644924D01*
X125018997Y-95644922D01*
X125125342Y-95515341D01*
X125254923Y-95408996D01*
X125270095Y-95400886D01*
X125402759Y-95329976D01*
X125563178Y-95281313D01*
X125730000Y-95264883D01*
X125896823Y-95281313D01*
G37*
G36*
X128436823Y-95281313D02*
G01*
X128597242Y-95329976D01*
X128729906Y-95400886D01*
X128745078Y-95408996D01*
X128874659Y-95515341D01*
X128981004Y-95644922D01*
X128981005Y-95644924D01*
X129060024Y-95792758D01*
X129108687Y-95953178D01*
X129121000Y-96078197D01*
X129121000Y-96961804D01*
X129108687Y-97086823D01*
X129060024Y-97247242D01*
X128989114Y-97379906D01*
X128981004Y-97395078D01*
X128874659Y-97524659D01*
X128745077Y-97631005D01*
X128597241Y-97710024D01*
X128436822Y-97758687D01*
X128270000Y-97775117D01*
X128103177Y-97758687D01*
X127942758Y-97710024D01*
X127794924Y-97631005D01*
X127794922Y-97631004D01*
X127665341Y-97524659D01*
X127558995Y-97395077D01*
X127479976Y-97247241D01*
X127431313Y-97086822D01*
X127419000Y-96961803D01*
X127419000Y-96078197D01*
X127431314Y-95953177D01*
X127479977Y-95792758D01*
X127558996Y-95644924D01*
X127558997Y-95644922D01*
X127665342Y-95515341D01*
X127794923Y-95408996D01*
X127810095Y-95400886D01*
X127942759Y-95329976D01*
X128103178Y-95281313D01*
X128270000Y-95264883D01*
X128436823Y-95281313D01*
G37*
G36*
X97956823Y-95281313D02*
G01*
X98117242Y-95329976D01*
X98249906Y-95400886D01*
X98265078Y-95408996D01*
X98394659Y-95515341D01*
X98501004Y-95644922D01*
X98501005Y-95644924D01*
X98580024Y-95792758D01*
X98628687Y-95953178D01*
X98641000Y-96078197D01*
X98641000Y-96961804D01*
X98628687Y-97086823D01*
X98580024Y-97247242D01*
X98509114Y-97379906D01*
X98501004Y-97395078D01*
X98394659Y-97524659D01*
X98265077Y-97631005D01*
X98117241Y-97710024D01*
X97956822Y-97758687D01*
X97790000Y-97775117D01*
X97623177Y-97758687D01*
X97462758Y-97710024D01*
X97314924Y-97631005D01*
X97314922Y-97631004D01*
X97185341Y-97524659D01*
X97078995Y-97395077D01*
X96999976Y-97247241D01*
X96951313Y-97086822D01*
X96939000Y-96961803D01*
X96939000Y-96078197D01*
X96951314Y-95953177D01*
X96999977Y-95792758D01*
X97078996Y-95644924D01*
X97078997Y-95644922D01*
X97185342Y-95515341D01*
X97314923Y-95408996D01*
X97330095Y-95400886D01*
X97462759Y-95329976D01*
X97623178Y-95281313D01*
X97790000Y-95264883D01*
X97956823Y-95281313D01*
G37*
G36*
X141821000Y-97771000D02*
G01*
X140119000Y-97771000D01*
X140119000Y-95269000D01*
X141821000Y-95269000D01*
X141821000Y-97771000D01*
G37*
G36*
X108801000Y-97771000D02*
G01*
X107099000Y-97771000D01*
X107099000Y-95269000D01*
X108801000Y-95269000D01*
X108801000Y-97771000D01*
G37*
G36*
X119946823Y-90601313D02*
G01*
X120107242Y-90649976D01*
X120239906Y-90720886D01*
X120255078Y-90728996D01*
X120384659Y-90835341D01*
X120491004Y-90964922D01*
X120491005Y-90964924D01*
X120570024Y-91112758D01*
X120618687Y-91273177D01*
X120635117Y-91440000D01*
X120618687Y-91606823D01*
X120570024Y-91767242D01*
X120529477Y-91843100D01*
X120491004Y-91915078D01*
X120384659Y-92044659D01*
X120255078Y-92151004D01*
X120255076Y-92151005D01*
X120107242Y-92230024D01*
X119946823Y-92278687D01*
X119821804Y-92291000D01*
X118938196Y-92291000D01*
X118813177Y-92278687D01*
X118652758Y-92230024D01*
X118504924Y-92151005D01*
X118504922Y-92151004D01*
X118375341Y-92044659D01*
X118268996Y-91915078D01*
X118230523Y-91843100D01*
X118189976Y-91767242D01*
X118141313Y-91606823D01*
X118124883Y-91440000D01*
X118141313Y-91273177D01*
X118189976Y-91112758D01*
X118268995Y-90964924D01*
X118268996Y-90964922D01*
X118375341Y-90835341D01*
X118504922Y-90728996D01*
X118520094Y-90720886D01*
X118652758Y-90649976D01*
X118813177Y-90601313D01*
X118938196Y-90589000D01*
X119821804Y-90589000D01*
X119946823Y-90601313D01*
G37*
G36*
X136058228Y-90621703D02*
G01*
X136213100Y-90685853D01*
X136352481Y-90778985D01*
X136471015Y-90897519D01*
X136564147Y-91036900D01*
X136628297Y-91191772D01*
X136661000Y-91356184D01*
X136661000Y-91523816D01*
X136628297Y-91688228D01*
X136564147Y-91843100D01*
X136471015Y-91982481D01*
X136352481Y-92101015D01*
X136213100Y-92194147D01*
X136058228Y-92258297D01*
X135893816Y-92291000D01*
X135726184Y-92291000D01*
X135561772Y-92258297D01*
X135406900Y-92194147D01*
X135267519Y-92101015D01*
X135148985Y-91982481D01*
X135055853Y-91843100D01*
X134991703Y-91688228D01*
X134959000Y-91523816D01*
X134959000Y-91356184D01*
X134991703Y-91191772D01*
X135055853Y-91036900D01*
X135148985Y-90897519D01*
X135267519Y-90778985D01*
X135406900Y-90685853D01*
X135561772Y-90621703D01*
X135726184Y-90589000D01*
X135893816Y-90589000D01*
X136058228Y-90621703D01*
G37*
G36*
X131058228Y-90621703D02*
G01*
X131213100Y-90685853D01*
X131352481Y-90778985D01*
X131471015Y-90897519D01*
X131564147Y-91036900D01*
X131628297Y-91191772D01*
X131661000Y-91356184D01*
X131661000Y-91523816D01*
X131628297Y-91688228D01*
X131564147Y-91843100D01*
X131471015Y-91982481D01*
X131352481Y-92101015D01*
X131213100Y-92194147D01*
X131058228Y-92258297D01*
X130893816Y-92291000D01*
X130726184Y-92291000D01*
X130561772Y-92258297D01*
X130406900Y-92194147D01*
X130267519Y-92101015D01*
X130148985Y-91982481D01*
X130055853Y-91843100D01*
X129991703Y-91688228D01*
X129959000Y-91523816D01*
X129959000Y-91356184D01*
X129991703Y-91191772D01*
X130055853Y-91036900D01*
X130148985Y-90897519D01*
X130267519Y-90778985D01*
X130406900Y-90685853D01*
X130561772Y-90621703D01*
X130726184Y-90589000D01*
X130893816Y-90589000D01*
X131058228Y-90621703D01*
G37*
G36*
X112326823Y-90601313D02*
G01*
X112487242Y-90649976D01*
X112619906Y-90720886D01*
X112635078Y-90728996D01*
X112764659Y-90835341D01*
X112871004Y-90964922D01*
X112871005Y-90964924D01*
X112950024Y-91112758D01*
X112998687Y-91273177D01*
X113015117Y-91440000D01*
X112998687Y-91606823D01*
X112950024Y-91767242D01*
X112909477Y-91843100D01*
X112871004Y-91915078D01*
X112764659Y-92044659D01*
X112635078Y-92151004D01*
X112635076Y-92151005D01*
X112487242Y-92230024D01*
X112326823Y-92278687D01*
X112201804Y-92291000D01*
X111318196Y-92291000D01*
X111193177Y-92278687D01*
X111032758Y-92230024D01*
X110884924Y-92151005D01*
X110884922Y-92151004D01*
X110755341Y-92044659D01*
X110648996Y-91915078D01*
X110610523Y-91843100D01*
X110569976Y-91767242D01*
X110521313Y-91606823D01*
X110504883Y-91440000D01*
X110521313Y-91273177D01*
X110569976Y-91112758D01*
X110648995Y-90964924D01*
X110648996Y-90964922D01*
X110755341Y-90835341D01*
X110884922Y-90728996D01*
X110900094Y-90720886D01*
X111032758Y-90649976D01*
X111193177Y-90601313D01*
X111318196Y-90589000D01*
X112201804Y-90589000D01*
X112326823Y-90601313D01*
G37*
G36*
X105658228Y-89351703D02*
G01*
X105813100Y-89415853D01*
X105952481Y-89508985D01*
X106071015Y-89627519D01*
X106164147Y-89766900D01*
X106228297Y-89921772D01*
X106261000Y-90086184D01*
X106261000Y-90253816D01*
X106228297Y-90418228D01*
X106164147Y-90573100D01*
X106071015Y-90712481D01*
X105952481Y-90831015D01*
X105813100Y-90924147D01*
X105658228Y-90988297D01*
X105493816Y-91021000D01*
X105326184Y-91021000D01*
X105161772Y-90988297D01*
X105006900Y-90924147D01*
X104867519Y-90831015D01*
X104748985Y-90712481D01*
X104655853Y-90573100D01*
X104591703Y-90418228D01*
X104559000Y-90253816D01*
X104559000Y-90086184D01*
X104591703Y-89921772D01*
X104655853Y-89766900D01*
X104748985Y-89627519D01*
X104867519Y-89508985D01*
X105006900Y-89415853D01*
X105161772Y-89351703D01*
X105326184Y-89319000D01*
X105493816Y-89319000D01*
X105658228Y-89351703D01*
G37*
G36*
X90418228Y-89351703D02*
G01*
X90573100Y-89415853D01*
X90712481Y-89508985D01*
X90831015Y-89627519D01*
X90924147Y-89766900D01*
X90988297Y-89921772D01*
X91021000Y-90086184D01*
X91021000Y-90253816D01*
X90988297Y-90418228D01*
X90924147Y-90573100D01*
X90831015Y-90712481D01*
X90712481Y-90831015D01*
X90573100Y-90924147D01*
X90418228Y-90988297D01*
X90253816Y-91021000D01*
X90086184Y-91021000D01*
X89921772Y-90988297D01*
X89766900Y-90924147D01*
X89627519Y-90831015D01*
X89508985Y-90712481D01*
X89415853Y-90573100D01*
X89351703Y-90418228D01*
X89319000Y-90253816D01*
X89319000Y-90086184D01*
X89351703Y-89921772D01*
X89415853Y-89766900D01*
X89508985Y-89627519D01*
X89627519Y-89508985D01*
X89766900Y-89415853D01*
X89921772Y-89351703D01*
X90086184Y-89319000D01*
X90253816Y-89319000D01*
X90418228Y-89351703D01*
G37*
G36*
X119946823Y-88061313D02*
G01*
X120107242Y-88109976D01*
X120239906Y-88180886D01*
X120255078Y-88188996D01*
X120384659Y-88295341D01*
X120491004Y-88424922D01*
X120491005Y-88424924D01*
X120570024Y-88572758D01*
X120618687Y-88733177D01*
X120635117Y-88900000D01*
X120618687Y-89066823D01*
X120570024Y-89227242D01*
X120520978Y-89319000D01*
X120491004Y-89375078D01*
X120384659Y-89504659D01*
X120255078Y-89611004D01*
X120255076Y-89611005D01*
X120107242Y-89690024D01*
X119946823Y-89738687D01*
X119821804Y-89751000D01*
X118938196Y-89751000D01*
X118813177Y-89738687D01*
X118652758Y-89690024D01*
X118504924Y-89611005D01*
X118504922Y-89611004D01*
X118375341Y-89504659D01*
X118268996Y-89375078D01*
X118239022Y-89319000D01*
X118189976Y-89227242D01*
X118141313Y-89066823D01*
X118124883Y-88900000D01*
X118141313Y-88733177D01*
X118189976Y-88572758D01*
X118268995Y-88424924D01*
X118268996Y-88424922D01*
X118375341Y-88295341D01*
X118504922Y-88188996D01*
X118520094Y-88180886D01*
X118652758Y-88109976D01*
X118813177Y-88061313D01*
X118938196Y-88049000D01*
X119821804Y-88049000D01*
X119946823Y-88061313D01*
G37*
G36*
X112326823Y-88061313D02*
G01*
X112487242Y-88109976D01*
X112619906Y-88180886D01*
X112635078Y-88188996D01*
X112764659Y-88295341D01*
X112871004Y-88424922D01*
X112871005Y-88424924D01*
X112950024Y-88572758D01*
X112998687Y-88733177D01*
X113015117Y-88900000D01*
X112998687Y-89066823D01*
X112950024Y-89227242D01*
X112900978Y-89319000D01*
X112871004Y-89375078D01*
X112764659Y-89504659D01*
X112635078Y-89611004D01*
X112635076Y-89611005D01*
X112487242Y-89690024D01*
X112326823Y-89738687D01*
X112201804Y-89751000D01*
X111318196Y-89751000D01*
X111193177Y-89738687D01*
X111032758Y-89690024D01*
X110884924Y-89611005D01*
X110884922Y-89611004D01*
X110755341Y-89504659D01*
X110648996Y-89375078D01*
X110619022Y-89319000D01*
X110569976Y-89227242D01*
X110521313Y-89066823D01*
X110504883Y-88900000D01*
X110521313Y-88733177D01*
X110569976Y-88572758D01*
X110648995Y-88424924D01*
X110648996Y-88424922D01*
X110755341Y-88295341D01*
X110884922Y-88188996D01*
X110900094Y-88180886D01*
X111032758Y-88109976D01*
X111193177Y-88061313D01*
X111318196Y-88049000D01*
X112201804Y-88049000D01*
X112326823Y-88061313D01*
G37*
G36*
X141218228Y-85541703D02*
G01*
X141373100Y-85605853D01*
X141512481Y-85698985D01*
X141631015Y-85817519D01*
X141724147Y-85956900D01*
X141788297Y-86111772D01*
X141821000Y-86276184D01*
X141821000Y-86443816D01*
X141788297Y-86608228D01*
X141724147Y-86763100D01*
X141631015Y-86902481D01*
X141512481Y-87021015D01*
X141373100Y-87114147D01*
X141218228Y-87178297D01*
X141053816Y-87211000D01*
X140886184Y-87211000D01*
X140721772Y-87178297D01*
X140566900Y-87114147D01*
X140427519Y-87021015D01*
X140308985Y-86902481D01*
X140215853Y-86763100D01*
X140151703Y-86608228D01*
X140119000Y-86443816D01*
X140119000Y-86276184D01*
X140151703Y-86111772D01*
X140215853Y-85956900D01*
X140308985Y-85817519D01*
X140427519Y-85698985D01*
X140566900Y-85605853D01*
X140721772Y-85541703D01*
X140886184Y-85509000D01*
X141053816Y-85509000D01*
X141218228Y-85541703D01*
G37*
G36*
X119946823Y-85521313D02*
G01*
X120107242Y-85569976D01*
X120239906Y-85640886D01*
X120255078Y-85648996D01*
X120384659Y-85755341D01*
X120491004Y-85884922D01*
X120491005Y-85884924D01*
X120570024Y-86032758D01*
X120618687Y-86193177D01*
X120635117Y-86360000D01*
X120618687Y-86526823D01*
X120570024Y-86687242D01*
X120529477Y-86763100D01*
X120491004Y-86835078D01*
X120384659Y-86964659D01*
X120255078Y-87071004D01*
X120255076Y-87071005D01*
X120107242Y-87150024D01*
X119946823Y-87198687D01*
X119821804Y-87211000D01*
X118938196Y-87211000D01*
X118813177Y-87198687D01*
X118652758Y-87150024D01*
X118504924Y-87071005D01*
X118504922Y-87071004D01*
X118375341Y-86964659D01*
X118268996Y-86835078D01*
X118230523Y-86763100D01*
X118189976Y-86687242D01*
X118141313Y-86526823D01*
X118124883Y-86360000D01*
X118141313Y-86193177D01*
X118189976Y-86032758D01*
X118268995Y-85884924D01*
X118268996Y-85884922D01*
X118375341Y-85755341D01*
X118504922Y-85648996D01*
X118520094Y-85640886D01*
X118652758Y-85569976D01*
X118813177Y-85521313D01*
X118938196Y-85509000D01*
X119821804Y-85509000D01*
X119946823Y-85521313D01*
G37*
G36*
X125978228Y-85541703D02*
G01*
X126133100Y-85605853D01*
X126272481Y-85698985D01*
X126391015Y-85817519D01*
X126484147Y-85956900D01*
X126548297Y-86111772D01*
X126581000Y-86276184D01*
X126581000Y-86443816D01*
X126548297Y-86608228D01*
X126484147Y-86763100D01*
X126391015Y-86902481D01*
X126272481Y-87021015D01*
X126133100Y-87114147D01*
X125978228Y-87178297D01*
X125813816Y-87211000D01*
X125646184Y-87211000D01*
X125481772Y-87178297D01*
X125326900Y-87114147D01*
X125187519Y-87021015D01*
X125068985Y-86902481D01*
X124975853Y-86763100D01*
X124911703Y-86608228D01*
X124879000Y-86443816D01*
X124879000Y-86276184D01*
X124911703Y-86111772D01*
X124975853Y-85956900D01*
X125068985Y-85817519D01*
X125187519Y-85698985D01*
X125326900Y-85605853D01*
X125481772Y-85541703D01*
X125646184Y-85509000D01*
X125813816Y-85509000D01*
X125978228Y-85541703D01*
G37*
G36*
X112326823Y-85521313D02*
G01*
X112487242Y-85569976D01*
X112619906Y-85640886D01*
X112635078Y-85648996D01*
X112764659Y-85755341D01*
X112871004Y-85884922D01*
X112871005Y-85884924D01*
X112950024Y-86032758D01*
X112998687Y-86193177D01*
X113015117Y-86360000D01*
X112998687Y-86526823D01*
X112950024Y-86687242D01*
X112909477Y-86763100D01*
X112871004Y-86835078D01*
X112764659Y-86964659D01*
X112635078Y-87071004D01*
X112635076Y-87071005D01*
X112487242Y-87150024D01*
X112326823Y-87198687D01*
X112201804Y-87211000D01*
X111318196Y-87211000D01*
X111193177Y-87198687D01*
X111032758Y-87150024D01*
X110884924Y-87071005D01*
X110884922Y-87071004D01*
X110755341Y-86964659D01*
X110648996Y-86835078D01*
X110610523Y-86763100D01*
X110569976Y-86687242D01*
X110521313Y-86526823D01*
X110504883Y-86360000D01*
X110521313Y-86193177D01*
X110569976Y-86032758D01*
X110648995Y-85884924D01*
X110648996Y-85884922D01*
X110755341Y-85755341D01*
X110884922Y-85648996D01*
X110900094Y-85640886D01*
X111032758Y-85569976D01*
X111193177Y-85521313D01*
X111318196Y-85509000D01*
X112201804Y-85509000D01*
X112326823Y-85521313D01*
G37*
G36*
X90418228Y-84271703D02*
G01*
X90573100Y-84335853D01*
X90712481Y-84428985D01*
X90831015Y-84547519D01*
X90924147Y-84686900D01*
X90988297Y-84841772D01*
X91021000Y-85006184D01*
X91021000Y-85173816D01*
X90988297Y-85338228D01*
X90924147Y-85493100D01*
X90831015Y-85632481D01*
X90712481Y-85751015D01*
X90573100Y-85844147D01*
X90418228Y-85908297D01*
X90253816Y-85941000D01*
X90086184Y-85941000D01*
X89921772Y-85908297D01*
X89766900Y-85844147D01*
X89627519Y-85751015D01*
X89508985Y-85632481D01*
X89415853Y-85493100D01*
X89351703Y-85338228D01*
X89319000Y-85173816D01*
X89319000Y-85006184D01*
X89351703Y-84841772D01*
X89415853Y-84686900D01*
X89508985Y-84547519D01*
X89627519Y-84428985D01*
X89766900Y-84335853D01*
X89921772Y-84271703D01*
X90086184Y-84239000D01*
X90253816Y-84239000D01*
X90418228Y-84271703D01*
G37*
G36*
X108227395Y-82905546D02*
G01*
X108400466Y-82977234D01*
X108406572Y-82981314D01*
X108556227Y-83081310D01*
X108688690Y-83213773D01*
X108741081Y-83292182D01*
X108792766Y-83369534D01*
X108864454Y-83542605D01*
X108901000Y-83726333D01*
X108901000Y-83913667D01*
X108864454Y-84097395D01*
X108792766Y-84270466D01*
X108792765Y-84270467D01*
X108688690Y-84426227D01*
X108556227Y-84558690D01*
X108479400Y-84610024D01*
X108400466Y-84662766D01*
X108227395Y-84734454D01*
X108043667Y-84771000D01*
X107856333Y-84771000D01*
X107672605Y-84734454D01*
X107499534Y-84662766D01*
X107420600Y-84610024D01*
X107343773Y-84558690D01*
X107211310Y-84426227D01*
X107107235Y-84270467D01*
X107107234Y-84270466D01*
X107035546Y-84097395D01*
X106999000Y-83913667D01*
X106999000Y-83726333D01*
X107035546Y-83542605D01*
X107107234Y-83369534D01*
X107158919Y-83292182D01*
X107211310Y-83213773D01*
X107343773Y-83081310D01*
X107493428Y-82981314D01*
X107499534Y-82977234D01*
X107672605Y-82905546D01*
X107856333Y-82869000D01*
X108043667Y-82869000D01*
X108227395Y-82905546D01*
G37*
G36*
X106361000Y-84771000D02*
G01*
X104459000Y-84771000D01*
X104459000Y-82869000D01*
X106361000Y-82869000D01*
X106361000Y-84771000D01*
G37*
G36*
X113011000Y-84671000D02*
G01*
X110509000Y-84671000D01*
X110509000Y-82969000D01*
X113011000Y-82969000D01*
X113011000Y-84671000D01*
G37*
G36*
X119946823Y-82981313D02*
G01*
X120107242Y-83029976D01*
X120203279Y-83081309D01*
X120255078Y-83108996D01*
X120384659Y-83215341D01*
X120491004Y-83344922D01*
X120491005Y-83344924D01*
X120570024Y-83492758D01*
X120618687Y-83653177D01*
X120635117Y-83820000D01*
X120618687Y-83986823D01*
X120570024Y-84147242D01*
X120520978Y-84239000D01*
X120491004Y-84295078D01*
X120384659Y-84424659D01*
X120255078Y-84531004D01*
X120255076Y-84531005D01*
X120107242Y-84610024D01*
X119946823Y-84658687D01*
X119821804Y-84671000D01*
X118938196Y-84671000D01*
X118813177Y-84658687D01*
X118652758Y-84610024D01*
X118504924Y-84531005D01*
X118504922Y-84531004D01*
X118375341Y-84424659D01*
X118268996Y-84295078D01*
X118239022Y-84239000D01*
X118189976Y-84147242D01*
X118141313Y-83986823D01*
X118124883Y-83820000D01*
X118141313Y-83653177D01*
X118189976Y-83492758D01*
X118268995Y-83344924D01*
X118268996Y-83344922D01*
X118375341Y-83215341D01*
X118504922Y-83108996D01*
X118556721Y-83081309D01*
X118652758Y-83029976D01*
X118813177Y-82981313D01*
X118938196Y-82969000D01*
X119821804Y-82969000D01*
X119946823Y-82981313D01*
G37*
G36*
X137273512Y-79113927D02*
G01*
X137422812Y-79143624D01*
X137586784Y-79211544D01*
X137734354Y-79310147D01*
X137859853Y-79435646D01*
X137958456Y-79583216D01*
X138026376Y-79747188D01*
X138061000Y-79921259D01*
X138061000Y-80098741D01*
X138026376Y-80272812D01*
X137958456Y-80436784D01*
X137859853Y-80584354D01*
X137734354Y-80709853D01*
X137586784Y-80808456D01*
X137422812Y-80876376D01*
X137273512Y-80906073D01*
X137248742Y-80911000D01*
X137071258Y-80911000D01*
X137046488Y-80906073D01*
X136897188Y-80876376D01*
X136733216Y-80808456D01*
X136585646Y-80709853D01*
X136460147Y-80584354D01*
X136361544Y-80436784D01*
X136293624Y-80272812D01*
X136259000Y-80098741D01*
X136259000Y-79921259D01*
X136293624Y-79747188D01*
X136361544Y-79583216D01*
X136460147Y-79435646D01*
X136585646Y-79310147D01*
X136733216Y-79211544D01*
X136897188Y-79143624D01*
X137046488Y-79113927D01*
X137071258Y-79109000D01*
X137248742Y-79109000D01*
X137273512Y-79113927D01*
G37*
G36*
X129653512Y-79113927D02*
G01*
X129802812Y-79143624D01*
X129966784Y-79211544D01*
X130114354Y-79310147D01*
X130239853Y-79435646D01*
X130338456Y-79583216D01*
X130406376Y-79747188D01*
X130441000Y-79921259D01*
X130441000Y-80098741D01*
X130406376Y-80272812D01*
X130338456Y-80436784D01*
X130239853Y-80584354D01*
X130114354Y-80709853D01*
X129966784Y-80808456D01*
X129802812Y-80876376D01*
X129653512Y-80906073D01*
X129628742Y-80911000D01*
X129451258Y-80911000D01*
X129426488Y-80906073D01*
X129277188Y-80876376D01*
X129113216Y-80808456D01*
X128965646Y-80709853D01*
X128840147Y-80584354D01*
X128741544Y-80436784D01*
X128673624Y-80272812D01*
X128639000Y-80098741D01*
X128639000Y-79921259D01*
X128673624Y-79747188D01*
X128741544Y-79583216D01*
X128840147Y-79435646D01*
X128965646Y-79310147D01*
X129113216Y-79211544D01*
X129277188Y-79143624D01*
X129426488Y-79113927D01*
X129451258Y-79109000D01*
X129628742Y-79109000D01*
X129653512Y-79113927D01*
G37*
G36*
X132193512Y-79113927D02*
G01*
X132342812Y-79143624D01*
X132506784Y-79211544D01*
X132654354Y-79310147D01*
X132779853Y-79435646D01*
X132878456Y-79583216D01*
X132946376Y-79747188D01*
X132981000Y-79921259D01*
X132981000Y-80098741D01*
X132946376Y-80272812D01*
X132878456Y-80436784D01*
X132779853Y-80584354D01*
X132654354Y-80709853D01*
X132506784Y-80808456D01*
X132342812Y-80876376D01*
X132193512Y-80906073D01*
X132168742Y-80911000D01*
X131991258Y-80911000D01*
X131966488Y-80906073D01*
X131817188Y-80876376D01*
X131653216Y-80808456D01*
X131505646Y-80709853D01*
X131380147Y-80584354D01*
X131281544Y-80436784D01*
X131213624Y-80272812D01*
X131179000Y-80098741D01*
X131179000Y-79921259D01*
X131213624Y-79747188D01*
X131281544Y-79583216D01*
X131380147Y-79435646D01*
X131505646Y-79310147D01*
X131653216Y-79211544D01*
X131817188Y-79143624D01*
X131966488Y-79113927D01*
X131991258Y-79109000D01*
X132168742Y-79109000D01*
X132193512Y-79113927D01*
G37*
G36*
X134733512Y-79113927D02*
G01*
X134882812Y-79143624D01*
X135046784Y-79211544D01*
X135194354Y-79310147D01*
X135319853Y-79435646D01*
X135418456Y-79583216D01*
X135486376Y-79747188D01*
X135521000Y-79921259D01*
X135521000Y-80098741D01*
X135486376Y-80272812D01*
X135418456Y-80436784D01*
X135319853Y-80584354D01*
X135194354Y-80709853D01*
X135046784Y-80808456D01*
X134882812Y-80876376D01*
X134733512Y-80906073D01*
X134708742Y-80911000D01*
X134531258Y-80911000D01*
X134506488Y-80906073D01*
X134357188Y-80876376D01*
X134193216Y-80808456D01*
X134045646Y-80709853D01*
X133920147Y-80584354D01*
X133821544Y-80436784D01*
X133753624Y-80272812D01*
X133719000Y-80098741D01*
X133719000Y-79921259D01*
X133753624Y-79747188D01*
X133821544Y-79583216D01*
X133920147Y-79435646D01*
X134045646Y-79310147D01*
X134193216Y-79211544D01*
X134357188Y-79143624D01*
X134506488Y-79113927D01*
X134531258Y-79109000D01*
X134708742Y-79109000D01*
X134733512Y-79113927D01*
G37*
G36*
X139813512Y-79113927D02*
G01*
X139962812Y-79143624D01*
X140126784Y-79211544D01*
X140274354Y-79310147D01*
X140399853Y-79435646D01*
X140498456Y-79583216D01*
X140566376Y-79747188D01*
X140601000Y-79921259D01*
X140601000Y-80098741D01*
X140566376Y-80272812D01*
X140498456Y-80436784D01*
X140399853Y-80584354D01*
X140274354Y-80709853D01*
X140126784Y-80808456D01*
X139962812Y-80876376D01*
X139813512Y-80906073D01*
X139788742Y-80911000D01*
X139611258Y-80911000D01*
X139586488Y-80906073D01*
X139437188Y-80876376D01*
X139273216Y-80808456D01*
X139125646Y-80709853D01*
X139000147Y-80584354D01*
X138901544Y-80436784D01*
X138833624Y-80272812D01*
X138799000Y-80098741D01*
X138799000Y-79921259D01*
X138833624Y-79747188D01*
X138901544Y-79583216D01*
X139000147Y-79435646D01*
X139125646Y-79310147D01*
X139273216Y-79211544D01*
X139437188Y-79143624D01*
X139586488Y-79113927D01*
X139611258Y-79109000D01*
X139788742Y-79109000D01*
X139813512Y-79113927D01*
G37*
G36*
X143141000Y-80911000D02*
G01*
X141339000Y-80911000D01*
X141339000Y-79109000D01*
X143141000Y-79109000D01*
X143141000Y-80911000D01*
G37*
G36*
X113358228Y-77921703D02*
G01*
X113513100Y-77985853D01*
X113652481Y-78078985D01*
X113771015Y-78197519D01*
X113864147Y-78336900D01*
X113928297Y-78491772D01*
X113961000Y-78656184D01*
X113961000Y-78823816D01*
X113928297Y-78988228D01*
X113864147Y-79143100D01*
X113771015Y-79282481D01*
X113652481Y-79401015D01*
X113513100Y-79494147D01*
X113358228Y-79558297D01*
X113193816Y-79591000D01*
X113026184Y-79591000D01*
X112861772Y-79558297D01*
X112706900Y-79494147D01*
X112567519Y-79401015D01*
X112448985Y-79282481D01*
X112355853Y-79143100D01*
X112291703Y-78988228D01*
X112259000Y-78823816D01*
X112259000Y-78656184D01*
X112291703Y-78491772D01*
X112355853Y-78336900D01*
X112448985Y-78197519D01*
X112567519Y-78078985D01*
X112706900Y-77985853D01*
X112861772Y-77921703D01*
X113026184Y-77889000D01*
X113193816Y-77889000D01*
X113358228Y-77921703D01*
G37*
G36*
X118358228Y-77921703D02*
G01*
X118513100Y-77985853D01*
X118652481Y-78078985D01*
X118771015Y-78197519D01*
X118864147Y-78336900D01*
X118928297Y-78491772D01*
X118961000Y-78656184D01*
X118961000Y-78823816D01*
X118928297Y-78988228D01*
X118864147Y-79143100D01*
X118771015Y-79282481D01*
X118652481Y-79401015D01*
X118513100Y-79494147D01*
X118358228Y-79558297D01*
X118193816Y-79591000D01*
X118026184Y-79591000D01*
X117861772Y-79558297D01*
X117706900Y-79494147D01*
X117567519Y-79401015D01*
X117448985Y-79282481D01*
X117355853Y-79143100D01*
X117291703Y-78988228D01*
X117259000Y-78823816D01*
X117259000Y-78656184D01*
X117291703Y-78491772D01*
X117355853Y-78336900D01*
X117448985Y-78197519D01*
X117567519Y-78078985D01*
X117706900Y-77985853D01*
X117861772Y-77921703D01*
X118026184Y-77889000D01*
X118193816Y-77889000D01*
X118358228Y-77921703D01*
G37*
G36*
X103108205Y-73732461D02*
G01*
X103226153Y-73755922D01*
X103318194Y-73794047D01*
X103448359Y-73847963D01*
X103648342Y-73981587D01*
X103818413Y-74151658D01*
X103952037Y-74351641D01*
X104044078Y-74573848D01*
X104091000Y-74809741D01*
X104091000Y-75050259D01*
X104044078Y-75286152D01*
X103952037Y-75508359D01*
X103818413Y-75708342D01*
X103648342Y-75878413D01*
X103448359Y-76012037D01*
X103318194Y-76065953D01*
X103226153Y-76104078D01*
X102990259Y-76151000D01*
X102749741Y-76151000D01*
X102513847Y-76104078D01*
X102421806Y-76065953D01*
X102291641Y-76012037D01*
X102091658Y-75878413D01*
X101921587Y-75708342D01*
X101787963Y-75508359D01*
X101695922Y-75286152D01*
X101649000Y-75050259D01*
X101649000Y-74809741D01*
X101695922Y-74573848D01*
X101787963Y-74351641D01*
X101921587Y-74151658D01*
X102091658Y-73981587D01*
X102291641Y-73847963D01*
X102421806Y-73794047D01*
X102513847Y-73755922D01*
X102631795Y-73732461D01*
X102749741Y-73709000D01*
X102990259Y-73709000D01*
X103108205Y-73732461D01*
G37*
G36*
X98108205Y-73732461D02*
G01*
X98226153Y-73755922D01*
X98318194Y-73794047D01*
X98448359Y-73847963D01*
X98648342Y-73981587D01*
X98818413Y-74151658D01*
X98952037Y-74351641D01*
X99044078Y-74573848D01*
X99091000Y-74809741D01*
X99091000Y-75050259D01*
X99044078Y-75286152D01*
X98952037Y-75508359D01*
X98818413Y-75708342D01*
X98648342Y-75878413D01*
X98448359Y-76012037D01*
X98318194Y-76065953D01*
X98226153Y-76104078D01*
X97990259Y-76151000D01*
X97749741Y-76151000D01*
X97513847Y-76104078D01*
X97421806Y-76065953D01*
X97291641Y-76012037D01*
X97091658Y-75878413D01*
X96921587Y-75708342D01*
X96787963Y-75508359D01*
X96695922Y-75286152D01*
X96649000Y-75050259D01*
X96649000Y-74809741D01*
X96695922Y-74573848D01*
X96787963Y-74351641D01*
X96921587Y-74151658D01*
X97091658Y-73981587D01*
X97291641Y-73847963D01*
X97421806Y-73794047D01*
X97513847Y-73755922D01*
X97631795Y-73732461D01*
X97749741Y-73709000D01*
X97990259Y-73709000D01*
X98108205Y-73732461D01*
G37*
G36*
X100608205Y-68732461D02*
G01*
X100726153Y-68755922D01*
X100818194Y-68794047D01*
X100948359Y-68847963D01*
X101148342Y-68981587D01*
X101318413Y-69151658D01*
X101452037Y-69351641D01*
X101491496Y-69446903D01*
X101544078Y-69573847D01*
X101591000Y-69809742D01*
X101591000Y-70050258D01*
X101550653Y-70253100D01*
X101544078Y-70286152D01*
X101452037Y-70508359D01*
X101318413Y-70708342D01*
X101148342Y-70878413D01*
X100948359Y-71012037D01*
X100818194Y-71065953D01*
X100726153Y-71104078D01*
X100608205Y-71127539D01*
X100490259Y-71151000D01*
X100249741Y-71151000D01*
X100131795Y-71127539D01*
X100013847Y-71104078D01*
X99921806Y-71065953D01*
X99791641Y-71012037D01*
X99591658Y-70878413D01*
X99421587Y-70708342D01*
X99287963Y-70508359D01*
X99195922Y-70286152D01*
X99189348Y-70253100D01*
X99149000Y-70050258D01*
X99149000Y-69809742D01*
X99195922Y-69573847D01*
X99248504Y-69446903D01*
X99287963Y-69351641D01*
X99421587Y-69151658D01*
X99591658Y-68981587D01*
X99791641Y-68847963D01*
X99921806Y-68794047D01*
X100013847Y-68755922D01*
X100131795Y-68732461D01*
X100249741Y-68709000D01*
X100490259Y-68709000D01*
X100608205Y-68732461D01*
G37*
G36*
X90418228Y-69031703D02*
G01*
X90573100Y-69095853D01*
X90712481Y-69188985D01*
X90831015Y-69307519D01*
X90924147Y-69446900D01*
X90988297Y-69601772D01*
X91021000Y-69766184D01*
X91021000Y-69933816D01*
X90988297Y-70098228D01*
X90924147Y-70253100D01*
X90831015Y-70392481D01*
X90712481Y-70511015D01*
X90573100Y-70604147D01*
X90418228Y-70668297D01*
X90253816Y-70701000D01*
X90086184Y-70701000D01*
X89921772Y-70668297D01*
X89766900Y-70604147D01*
X89627519Y-70511015D01*
X89508985Y-70392481D01*
X89415853Y-70253100D01*
X89351703Y-70098228D01*
X89319000Y-69933816D01*
X89319000Y-69766184D01*
X89351703Y-69601772D01*
X89415853Y-69446900D01*
X89508985Y-69307519D01*
X89627519Y-69188985D01*
X89766900Y-69095853D01*
X89921772Y-69031703D01*
X90086184Y-68999000D01*
X90253816Y-68999000D01*
X90418228Y-69031703D01*
G37*
M02*
